<svg width="1169" height="252" viewBox="0 0 1169 252" fill="none" xmlns="http://www.w3.org/2000/svg">
<path d="M670 253H488.594L499.7 212.096H658.894L670 253Z" stroke="#3FAFEE" stroke-width="2" stroke-miterlimit="10" stroke-linecap="round" stroke-linejoin="round"/>
<path d="M513.631 187.762H644.962V212.096H513.631V187.762Z" stroke="#3FAFEE" stroke-width="2" stroke-miterlimit="10" stroke-linecap="round" stroke-linejoin="round"/>
<path d="M498.608 169.276L496.879 168.218C494.008 166.461 490.253 167.494 488.679 170.475C487.286 173.112 488.096 176.377 490.557 178.054L497.385 182.705C502.223 186 507.936 187.762 513.784 187.762H579.297" stroke="#3FAFEE" stroke-width="2" stroke-miterlimit="10" stroke-linecap="round" stroke-linejoin="round"/>
<path d="M497.385 182.705L512.007 175.226C518.398 171.956 523.864 167.123 527.899 161.175" stroke="#3FAFEE" stroke-width="2" stroke-miterlimit="10" stroke-linecap="round" stroke-linejoin="round"/>
<path d="M655.847 169.276L657.575 168.218C660.447 166.461 664.201 167.494 665.776 170.475C667.168 173.112 666.359 176.377 663.897 178.054L657.069 182.705C652.232 186 646.519 187.762 640.67 187.762H575.158" stroke="#3FAFEE" stroke-width="2" stroke-miterlimit="10" stroke-linecap="round" stroke-linejoin="round"/>
<path d="M657.069 182.705L642.448 175.226C636.056 171.956 630.591 167.123 626.556 161.175" stroke="#3FAFEE" stroke-width="2" stroke-miterlimit="10" stroke-linecap="round" stroke-linejoin="round"/>
<path d="M512.439 137.463L511.014 136.592C508.648 135.143 505.553 135.995 504.257 138.452C503.109 140.625 503.776 143.316 505.804 144.697L511.431 148.53C515.417 151.246 520.126 152.698 524.945 152.698H578.932" stroke="#3FAFEE" stroke-width="2" stroke-miterlimit="10" stroke-linecap="round" stroke-linejoin="round"/>
<path d="M511.431 148.53L523.48 142.366C528.747 139.672 533.251 135.689 536.576 130.787L541.315 123.802" stroke="#3FAFEE" stroke-width="2" stroke-miterlimit="10" stroke-linecap="round" stroke-linejoin="round"/>
<path d="M642.016 137.463L643.44 136.591C645.807 135.143 648.901 135.995 650.198 138.452C651.346 140.625 650.679 143.316 648.65 144.697L643.024 148.53C639.038 151.246 634.329 152.698 629.51 152.698H575.522" stroke="#3FAFEE" stroke-width="2" stroke-miterlimit="10" stroke-linecap="round" stroke-linejoin="round"/>
<path d="M643.024 148.53L630.975 142.366C625.708 139.672 621.203 135.689 617.878 130.787L613.14 123.801" stroke="#3FAFEE" stroke-width="2" stroke-miterlimit="10" stroke-linecap="round" stroke-linejoin="round"/>
<path d="M528.458 101.279L527.386 100.623C525.605 99.5326 523.275 100.174 522.299 102.023C521.435 103.659 521.937 105.684 523.464 106.724L527.699 109.61C530.7 111.654 534.244 112.747 537.872 112.747H566.307" stroke="#3FAFEE" stroke-width="2" stroke-miterlimit="10" stroke-linecap="round" stroke-linejoin="round"/>
<path d="M533.754 110.856L537.75 106.342C543.508 99.8369 547.158 91.73 548.214 83.0969" stroke="#3FAFEE" stroke-width="2" stroke-miterlimit="10" stroke-linecap="round" stroke-linejoin="round"/>
<path d="M625.996 101.279L627.069 100.623C628.85 99.5326 631.179 100.174 632.156 102.023C633.019 103.659 632.518 105.684 630.991 106.724L626.755 109.61C623.755 111.654 620.21 112.747 616.583 112.747H588.821" stroke="#3FAFEE" stroke-width="2" stroke-miterlimit="10" stroke-linecap="round" stroke-linejoin="round"/>
<path d="M620.7 110.856L616.705 106.342C610.946 99.8369 607.297 91.73 606.241 83.0969" stroke="#3FAFEE" stroke-width="2" stroke-miterlimit="10" stroke-linecap="round" stroke-linejoin="round"/>
<path d="M541.927 61.1603L541.15 60.6854C539.861 59.8965 538.175 60.3607 537.468 61.6991C536.843 62.8831 537.206 64.3491 538.311 65.102L541.377 67.1903C543.549 68.6699 546.114 69.461 548.74 69.461H578.156" stroke="#3FAFEE" stroke-width="2" stroke-miterlimit="10" stroke-linecap="round" stroke-linejoin="round"/>
<path d="M541.377 67.1904L552.317 61.8954L557.66 48" stroke="#3FAFEE" stroke-width="2" stroke-miterlimit="10" stroke-linecap="round" stroke-linejoin="round"/>
<path d="M612.528 61.1603L613.304 60.6854C614.593 59.8965 616.279 60.3607 616.986 61.6991C617.612 62.8831 617.248 64.3491 616.143 65.102L613.078 67.1903C610.905 68.6699 608.34 69.461 605.714 69.461H576.299" stroke="#3FAFEE" stroke-width="2" stroke-miterlimit="10" stroke-linecap="round" stroke-linejoin="round"/>
<path d="M613.077 67.1904L602.138 61.8954L596.795 48" stroke="#3FAFEE" stroke-width="2" stroke-miterlimit="10" stroke-linecap="round" stroke-linejoin="round"/>
<path d="M557.59 69.4609H596.81V88.7289H557.59V69.4609Z" stroke="#3FAFEE" stroke-width="2" stroke-miterlimit="10" stroke-linecap="round" stroke-linejoin="round"/>
<path d="M556.213 51.7628H598.242" stroke="#3FAFEE" stroke-width="2" stroke-miterlimit="10" stroke-linecap="round" stroke-linejoin="round"/>
<path d="M552.503 130.859L577.246 98.3955L603.431 130.859H552.503Z" stroke="#3FAFEE" stroke-width="2" stroke-miterlimit="10" stroke-linecap="round" stroke-linejoin="round"/>
<path d="M538.326 174.04L546.167 163.752L554.466 174.04" stroke="#3FAFEE" stroke-width="2" stroke-miterlimit="10" stroke-linecap="round" stroke-linejoin="round"/>
<path d="M599.367 174.04L607.209 163.752L615.508 174.04" stroke="#3FAFEE" stroke-width="2" stroke-miterlimit="10" stroke-linecap="round" stroke-linejoin="round"/>
<path d="M569.13 174.04L576.971 163.752L585.27 174.04" stroke="#3FAFEE" stroke-width="2" stroke-miterlimit="10" stroke-linecap="round" stroke-linejoin="round"/>
<path d="M528.844 202.008V210.634" stroke="#3FAFEE" stroke-width="2" stroke-miterlimit="10" stroke-linecap="round" stroke-linejoin="round"/>
<path d="M543.096 202.008V210.634" stroke="#3FAFEE" stroke-width="2" stroke-miterlimit="10" stroke-linecap="round" stroke-linejoin="round"/>
<path d="M557.349 202.008V210.634" stroke="#3FAFEE" stroke-width="2" stroke-miterlimit="10" stroke-linecap="round" stroke-linejoin="round"/>
<path d="M571.602 202.008V210.634" stroke="#3FAFEE" stroke-width="2" stroke-miterlimit="10" stroke-linecap="round" stroke-linejoin="round"/>
<path d="M585.854 202.008V210.634" stroke="#3FAFEE" stroke-width="2" stroke-miterlimit="10" stroke-linecap="round" stroke-linejoin="round"/>
<path d="M600.107 202.008V210.634" stroke="#3FAFEE" stroke-width="2" stroke-miterlimit="10" stroke-linecap="round" stroke-linejoin="round"/>
<path d="M614.36 202.008V210.634" stroke="#3FAFEE" stroke-width="2" stroke-miterlimit="10" stroke-linecap="round" stroke-linejoin="round"/>
<path d="M628.613 202.008V210.634" stroke="#3FAFEE" stroke-width="2" stroke-miterlimit="10" stroke-linecap="round" stroke-linejoin="round"/>
<path d="M496.223 230.099C496.223 230.099 513.129 220.609 523.155 232.548C533.181 244.487 521.189 252.053 516.864 253" stroke="#3FAFEE" stroke-width="2" stroke-miterlimit="10" stroke-linecap="round" stroke-linejoin="round"/>
<path d="M513.631 212.096C513.631 212.096 507.788 225.366 518.813 228.407C529.839 231.449 547.728 222.276 536.719 212.096" stroke="#3FAFEE" stroke-width="2" stroke-miterlimit="10" stroke-linecap="round" stroke-linejoin="round"/>
<path d="M555.002 212.096C555.002 212.096 541.86 215.426 539.388 221.58C536.916 227.734 545.959 237.756 559.13 232.548C572.301 227.34 571.289 214.667 562.836 212.105" stroke="#3FAFEE" stroke-width="2" stroke-miterlimit="10" stroke-linecap="round" stroke-linejoin="round"/>
<path d="M548.664 233.654C560.212 236.622 561.489 249.687 555.985 253" stroke="#3FAFEE" stroke-width="2" stroke-miterlimit="10" stroke-linecap="round" stroke-linejoin="round"/>
<path d="M568.798 223.048C568.798 223.048 572.086 236.315 589.319 226.749C599.573 220.752 594.317 212.096 594.317 212.096" stroke="#3FAFEE" stroke-width="2" stroke-miterlimit="10" stroke-linecap="round" stroke-linejoin="round"/>
<path d="M569.8 226.523C569.8 226.523 588.905 238.826 590.757 253" stroke="#3FAFEE" stroke-width="2" stroke-miterlimit="10" stroke-linecap="round" stroke-linejoin="round"/>
<path d="M643.309 212.096C643.309 212.096 624.649 230.361 641.812 242.183" stroke="#3FAFEE" stroke-width="2" stroke-miterlimit="10" stroke-linecap="round" stroke-linejoin="round"/>
<path d="M647.867 253C647.867 253 637.613 246.328 645.731 240.188C653.849 234.048 657.196 226.461 665.278 235.609" stroke="#3FAFEE" stroke-width="2" stroke-miterlimit="10" stroke-linecap="round" stroke-linejoin="round"/>
<path d="M591.511 225.248C583.334 229.383 582.846 243.36 594.175 243.074C605.503 242.789 620.806 226.523 607.438 212.096" stroke="#3FAFEE" stroke-width="2" stroke-miterlimit="10" stroke-linecap="round" stroke-linejoin="round"/>
<path d="M623.218 253C620.984 241.829 610.896 231.366 610.896 231.366C610.896 231.366 626.556 235.791 635.182 225.439" stroke="#3FAFEE" stroke-width="2" stroke-miterlimit="10" stroke-linecap="round" stroke-linejoin="round"/>
<path d="M102.5 1V13.8611M26.2305 253C41.336 229.88 53.1876 208.021 62.4782 185.423M68.4103 169.916C77.5917 144.012 83.732 116.601 87.8159 84.842C90.4584 64.2915 93.1847 43.0855 94.9218 29.5794M73.2551 119.508H131.744M80.4666 134.719H124.533M148.295 170.212H56.7052M110.079 185.423H142.523V170.212M62.4766 170.212V185.423H94.9212M57.744 200.635H147.256M90.7731 29.5794H114.226M110.079 29.5794H94.9212L89.6459 14.3682H115.354L110.079 29.5794ZM110.079 29.5794C110.838 35.4804 111.785 42.8508 112.832 50.9939M87.9887 169.869L96.4613 119.508M85.2487 185.761L60.5759 253L65.109 240.646C77.912 205.754 127.087 205.754 139.891 240.646L144.424 253L119.752 185.761M164.368 229.611C168.805 237.313 173.597 245.083 178.769 253M142.522 185.423C146.539 195.192 151.033 204.822 156.063 214.476M114.767 66.0464C115.56 72.2136 116.376 78.5587 117.184 84.842C121.267 116.601 127.408 144.011 136.59 169.916M117.011 169.869L108.539 119.508M102.5 90.2146V119" stroke="#3FAFEE" stroke-width="2" stroke-miterlimit="10" stroke-linecap="round" stroke-linejoin="round"/>
<path d="M374.21 111.216C362.682 111.216 353.336 120.646 353.336 132.279C353.336 143.912 362.682 153.342 374.21 153.342C385.739 153.342 395.084 143.912 395.084 132.279C395.084 120.646 385.739 111.216 374.21 111.216ZM374.21 111.216V136.96M357.199 144.489L380.157 128.01M360.527 64.4096H387.892M352.787 106.536H342.899C340.978 106.536 339.42 108.107 339.42 110.046V163.874C339.42 165.812 340.978 167.384 342.899 167.384M342.899 167.384H405.521M342.899 167.384C342.899 167.384 346.378 170.583 346.378 179.086V253H323.185V224.916M405.521 167.384C407.442 167.384 409 165.812 409 163.874V136.96M405.521 167.384C405.521 167.384 402.042 170.583 402.042 179.086V253M409 122.918V110.046C409 108.107 407.442 106.536 405.521 106.536H395.632M347.45 92.4936H400.97M402.042 106.536V92.4936L388.503 78.4516M388.503 78.4516H383.487M388.503 78.4516V64.4096C388.503 64.4096 377.755 49.249 374.21 26.0849M369.571 78.4516H359.918M359.918 78.4516L346.378 92.4936V106.536M359.918 78.4516V64.4096C359.918 64.4096 370.666 49.249 374.21 26.0849M374.21 26.0849V20M302.311 224.916H323.185M302.311 224.916V253M302.311 224.916C302.311 224.916 310.16 209.755 312.748 186.591C315.336 209.755 323.185 224.916 323.185 224.916M312.748 186.591V180.506M248.782 224.916H269.202M269.429 253V224.916C269.429 224.916 261.58 209.755 258.992 186.591C256.403 209.755 248.555 224.916 248.555 224.916V253H230M258.992 186.591V180.506M383.487 216.518V253M383.487 202.476V181.426M364.933 181.426V253M347.438 224.916H400.982M347.438 196.832H400.982M269.893 238.958H301.847M285.87 224.916V253" stroke="#3FAFEE" stroke-width="2" stroke-miterlimit="10" stroke-linecap="round" stroke-linejoin="round"/>
<path d="M760.752 220.833H836.248V226.193H760.752V220.833Z" stroke="#3FAFEE" stroke-width="2" stroke-miterlimit="10" stroke-linecap="round" stroke-linejoin="round"/>
<path d="M749.961 226.193H847.035V253H749.961V226.193Z" stroke="#3FAFEE" stroke-width="2" stroke-miterlimit="10" stroke-linecap="round" stroke-linejoin="round"/>
<path d="M744.573 92.1652H723L728.395 97.5271L744.573 99.5365V92.1652Z" stroke="#3FAFEE" stroke-width="2" stroke-miterlimit="10" stroke-linecap="round" stroke-linejoin="round"/>
<path d="M852.426 102.889L825.461 113.611V183.304L771.535 167.223V113.611L744.573 102.889V86.8053H852.426V102.889Z" stroke="#3FAFEE" stroke-width="2" stroke-miterlimit="10" stroke-linecap="round" stroke-linejoin="round"/>
<path d="M852.426 92.1652V99.5365L868.605 97.5271L874 92.1652H852.426Z" stroke="#3FAFEE" stroke-width="2" stroke-miterlimit="10" stroke-linecap="round" stroke-linejoin="round"/>
<path d="M811.981 86.8053H785.016L791.76 60H805.24L811.981 86.8053Z" stroke="#3FAFEE" stroke-width="2" stroke-miterlimit="10" stroke-linecap="round" stroke-linejoin="round"/>
<path d="M776.93 168.831V220.833H820.073V181.697L776.93 168.831Z" stroke="#3FAFEE" stroke-width="2" stroke-miterlimit="10" stroke-linecap="round" stroke-linejoin="round"/>
<path d="M785.019 86.8053L825.461 146.978" stroke="#3FAFEE" stroke-width="2" stroke-miterlimit="10" stroke-linecap="round" stroke-linejoin="round"/>
<path d="M771.535 113.612L797.04 174.828" stroke="#3FAFEE" stroke-width="2" stroke-miterlimit="10" stroke-linecap="round" stroke-linejoin="round"/>
<path d="M744.573 86.8053L825.461 120.117" stroke="#3FAFEE" stroke-width="2" stroke-miterlimit="10" stroke-linecap="round" stroke-linejoin="round"/>
<path d="M783.67 188.666V220.833" stroke="#3FAFEE" stroke-width="2" stroke-miterlimit="10" stroke-linecap="round" stroke-linejoin="round"/>
<path d="M791.087 188.666V220.833" stroke="#3FAFEE" stroke-width="2" stroke-miterlimit="10" stroke-linecap="round" stroke-linejoin="round"/>
<path d="M798.5 188.666V220.833" stroke="#3FAFEE" stroke-width="2" stroke-miterlimit="10" stroke-linecap="round" stroke-linejoin="round"/>
<path d="M805.913 188.666V220.833" stroke="#3FAFEE" stroke-width="2" stroke-miterlimit="10" stroke-linecap="round" stroke-linejoin="round"/>
<path d="M813.329 188.666V220.833" stroke="#3FAFEE" stroke-width="2" stroke-miterlimit="10" stroke-linecap="round" stroke-linejoin="round"/>
<mask id="mask0_684_2772" style="mask-type:luminance" maskUnits="userSpaceOnUse" x="957" y="47" width="216" height="215">
<path d="M957.922 47.1275H1172.46V261.667H957.922V47.1275Z" fill="white"/>
</mask>
<g mask="url(#mask0_684_2772)">
<path d="M1110.96 258.524H996.74C994.9 258.524 993.696 256.596 994.503 254.942L997.373 249.066C999.108 245.513 1002.72 243.259 1006.67 243.259H1123.71C1127.67 243.259 1131.27 245.513 1133.01 249.066L1135.88 254.942C1136.69 256.596 1135.48 258.524 1133.64 258.524H1126.15" stroke="#3FAFEE" stroke-width="2" stroke-miterlimit="10" stroke-linecap="round" stroke-linejoin="round"/>
<path d="M1088.7 140.259C1088.7 127.274 1078.18 116.747 1065.19 116.747C1052.21 116.747 1041.68 127.274 1041.68 140.259C1041.68 153.244 1052.21 163.77 1065.19 163.77C1078.18 163.77 1088.7 153.244 1088.7 140.259Z" stroke="#3FAFEE" stroke-width="2" stroke-miterlimit="10" stroke-linecap="round" stroke-linejoin="round"/>
<path d="M1075.18 140.259C1075.18 134.74 1070.71 130.267 1065.19 130.267C1059.67 130.267 1055.2 134.74 1055.2 140.259C1055.2 145.777 1059.67 150.25 1065.19 150.25C1070.71 150.25 1075.18 145.777 1075.18 140.259Z" stroke="#3FAFEE" stroke-width="2" stroke-miterlimit="10" stroke-linecap="round" stroke-linejoin="round"/>
<path d="M1048.83 157.133L1013.15 243.259" stroke="#3FAFEE" stroke-width="2" stroke-miterlimit="10" stroke-linecap="round" stroke-linejoin="round"/>
<path d="M1031.9 243.259L1064.83 163.761" stroke="#3FAFEE" stroke-width="2" stroke-miterlimit="10" stroke-linecap="round" stroke-linejoin="round"/>
<path d="M1117.23 243.259L1081.56 157.133" stroke="#3FAFEE" stroke-width="2" stroke-miterlimit="10" stroke-linecap="round" stroke-linejoin="round"/>
<path d="M1065.55 163.761L1098.48 243.259" stroke="#3FAFEE" stroke-width="2" stroke-miterlimit="10" stroke-linecap="round" stroke-linejoin="round"/>
<path d="M1044.26 213.414C1050.91 215.313 1057.93 216.331 1065.19 216.331C1072.45 216.331 1079.47 215.313 1086.12 213.414" stroke="#3FAFEE" stroke-width="2" stroke-miterlimit="10" stroke-linecap="round" stroke-linejoin="round"/>
<path d="M1079.77 198.085C1075.1 199.258 1070.22 199.884 1065.19 199.884C1060.16 199.884 1055.28 199.258 1050.61 198.085" stroke="#3FAFEE" stroke-width="2" stroke-miterlimit="10" stroke-linecap="round" stroke-linejoin="round"/>
<path d="M991.36 121.859C989.896 127.751 989.119 133.914 989.119 140.259C989.119 168.87 1004.92 193.788 1028.26 206.777" stroke="#3FAFEE" stroke-width="2" stroke-miterlimit="10" stroke-linecap="round" stroke-linejoin="round"/>
<path d="M1102.12 206.776C1125.46 193.788 1141.26 168.871 1141.26 140.259C1141.26 98.2456 1107.2 64.1867 1065.19 64.1867C1034.84 64.1867 1008.63 81.9662 996.429 107.679" stroke="#3FAFEE" stroke-width="2" stroke-miterlimit="10" stroke-linecap="round" stroke-linejoin="round"/>
<path d="M1034.61 191.452C1017.22 181.037 1005.57 162.01 1005.57 140.259C1005.57 107.329 1032.26 80.6338 1065.19 80.6338C1098.12 80.6338 1124.82 107.329 1124.82 140.259C1124.82 162.01 1113.17 181.037 1095.77 191.452" stroke="#3FAFEE" stroke-width="2" stroke-miterlimit="10" stroke-linecap="round" stroke-linejoin="round"/>
<path d="M1076.26 64.9913C1077.16 63.6002 1077.67 62.0192 1077.67 60.3414C1077.67 54.7794 1072.08 50.2703 1065.19 50.2703C1058.3 50.2703 1052.71 54.7794 1052.71 60.3414C1052.71 62.0192 1053.22 63.6002 1054.12 64.9913" stroke="#3FAFEE" stroke-width="2" stroke-miterlimit="10" stroke-linecap="round" stroke-linejoin="round"/>
<path d="M1019.81 79.1989C1017.75 75.9238 1013.54 73.6778 1008.68 73.6778C1001.79 73.6778 996.201 78.1865 996.201 83.7486C996.201 88.3474 1000.02 92.2233 1005.24 93.4288" stroke="#3FAFEE" stroke-width="2" stroke-miterlimit="10" stroke-linecap="round" stroke-linejoin="round"/>
<path d="M1076.26 215.526C1077.16 216.917 1077.67 218.498 1077.67 220.176C1077.67 225.738 1072.08 230.247 1065.19 230.247C1058.3 230.247 1052.71 225.738 1052.71 220.176C1052.71 218.498 1053.22 216.917 1054.12 215.526" stroke="#3FAFEE" stroke-width="2" stroke-miterlimit="10" stroke-linecap="round" stroke-linejoin="round"/>
<path d="M1019.81 201.319C1017.75 204.594 1013.54 206.84 1008.68 206.84C1001.79 206.84 996.201 202.331 996.201 196.769C996.201 192.17 1000.02 188.294 1005.24 187.089" stroke="#3FAFEE" stroke-width="2" stroke-miterlimit="10" stroke-linecap="round" stroke-linejoin="round"/>
<path d="M989.707 130.844C988.329 130.421 986.836 130.187 985.274 130.187C978.381 130.187 972.793 134.697 972.793 140.259C972.793 145.821 978.381 150.33 985.274 150.33C986.833 150.33 988.324 150.097 989.7 149.676" stroke="#3FAFEE" stroke-width="2" stroke-miterlimit="10" stroke-linecap="round" stroke-linejoin="round"/>
<path d="M1110.57 79.1989C1112.63 75.9238 1116.84 73.6778 1121.7 73.6778C1128.59 73.6778 1134.18 78.1865 1134.18 83.7486C1134.18 88.3474 1130.36 92.2233 1125.14 93.4288" stroke="#3FAFEE" stroke-width="2" stroke-miterlimit="10" stroke-linecap="round" stroke-linejoin="round"/>
<path d="M1110.57 201.319C1112.63 204.594 1116.84 206.84 1121.7 206.84C1128.59 206.84 1134.18 202.331 1134.18 196.769C1134.18 192.17 1130.36 188.294 1125.14 187.089" stroke="#3FAFEE" stroke-width="2" stroke-miterlimit="10" stroke-linecap="round" stroke-linejoin="round"/>
<path d="M1140.68 130.844C1142.05 130.421 1143.55 130.187 1145.11 130.187C1152 130.187 1157.59 134.697 1157.59 140.259C1157.59 145.821 1152 150.33 1145.11 150.33C1143.55 150.33 1142.06 150.097 1140.68 149.676" stroke="#3FAFEE" stroke-width="2" stroke-miterlimit="10" stroke-linecap="round" stroke-linejoin="round"/>
<path d="M1042.37 85.1732L1056.19 118.532" stroke="#3FAFEE" stroke-width="2" stroke-miterlimit="10" stroke-linecap="round" stroke-linejoin="round"/>
<path d="M1010.11 117.442L1043.47 131.26" stroke="#3FAFEE" stroke-width="2" stroke-miterlimit="10" stroke-linecap="round" stroke-linejoin="round"/>
<path d="M1010.11 163.076L1043.47 149.258" stroke="#3FAFEE" stroke-width="2" stroke-miterlimit="10" stroke-linecap="round" stroke-linejoin="round"/>
<path d="M1088.01 85.1732L1074.19 118.532" stroke="#3FAFEE" stroke-width="2" stroke-miterlimit="10" stroke-linecap="round" stroke-linejoin="round"/>
<path d="M1120.28 117.442L1086.92 131.26" stroke="#3FAFEE" stroke-width="2" stroke-miterlimit="10" stroke-linecap="round" stroke-linejoin="round"/>
<path d="M1120.28 163.076L1086.92 149.258" stroke="#3FAFEE" stroke-width="2" stroke-miterlimit="10" stroke-linecap="round" stroke-linejoin="round"/>
</g>
</svg>
