<svg width="829" height="493" viewBox="0 0 829 493" fill="none" xmlns="http://www.w3.org/2000/svg">
<g opacity="0.1">
<path d="M414.5 -336C186.251 -336 0 -149.719 0 78.5C0 306.75 186.281 493 414.5 493C642.749 493 829 306.719 829 78.5C829 -149.75 642.719 -336 414.5 -336ZM414.5 444.426C212.728 444.426 48.5742 280.273 48.5742 78.5C48.5742 -123.272 212.728 -287.426 414.5 -287.426C616.273 -287.426 780.426 -123.272 780.426 78.5C780.426 280.273 616.273 444.426 414.5 444.426Z" fill="#3FAFEE"/>
<path d="M414.5 -238.852C240.706 -238.852 97.1484 -96.3202 97.1484 78.5C97.1484 252.605 240.033 395.852 414.5 395.852C588.8 395.852 731.852 252.815 731.852 78.5C731.852 -96.5129 588.114 -238.852 414.5 -238.852ZM414.5 -190.277C517.783 -190.277 607.631 -131.71 652.617 -46.0492C592.576 -68.3674 507.831 -91.5098 414.5 -91.5098C321.169 -91.5098 236.424 -68.3674 176.383 -46.0492C221.369 -131.71 311.217 -190.277 414.5 -190.277ZM159.672 164.01L180.183 166.941C255.337 177.677 315.324 237.665 326.059 312.819L328.99 333.33C249.451 306.567 186.431 243.547 159.672 164.01ZM500.01 333.329L502.941 312.817C513.676 237.663 573.663 177.677 648.817 166.941L669.329 164.01C642.569 243.547 579.549 306.567 500.01 333.329ZM641.949 118.854C545.56 132.623 468.623 209.56 454.854 305.947L449.269 345.033C437.884 346.508 426.281 347.277 414.5 347.277C402.719 347.277 391.116 346.508 379.731 345.032L374.146 305.947C360.377 209.558 283.44 132.623 187.051 118.854L147.968 113.271C146.492 101.885 145.723 90.2809 145.723 78.5C145.723 56.9104 148.299 35.9118 153.129 15.7826C207.083 -8.08353 304.696 -42.9355 414.5 -42.9355C524.304 -42.9355 621.917 -8.08353 675.871 15.7826C680.701 35.9118 683.277 56.9104 683.277 78.5C683.277 90.2809 682.508 101.885 681.032 113.271L641.949 118.854Z" fill="#3FAFEE"/>
<path d="M414.5 5.6387C374.324 5.6387 341.639 38.3243 341.639 78.5C341.639 118.676 374.324 151.361 414.5 151.361C454.676 151.361 487.361 118.676 487.361 78.5C487.361 38.3243 454.676 5.6387 414.5 5.6387Z" fill="#3FAFEE"/>
</g>
</svg>
