<svg width="474" height="56" viewBox="0 0 474 56" fill="none" xmlns="http://www.w3.org/2000/svg">
<g filter="url(#filter0_d_303_4702)">
<rect x="4" y="2" width="466" height="48" rx="24" fill="#0052A5" shape-rendering="crispEdges"/>
<path d="M186.977 31H184.868L188.708 20.0909H191.148L194.994 31H192.884L189.971 22.3281H189.885L186.977 31ZM187.046 26.7227H192.799V28.31H187.046V26.7227ZM196.095 34.0682V22.8182H197.992V24.1712H198.103C198.203 23.9723 198.343 23.761 198.524 23.5373C198.705 23.31 198.95 23.1165 199.259 22.9567C199.568 22.7933 199.962 22.7116 200.442 22.7116C201.074 22.7116 201.644 22.8732 202.152 23.1964C202.663 23.516 203.068 23.9901 203.366 24.6186C203.668 25.2436 203.819 26.0107 203.819 26.9197C203.819 27.8182 203.672 28.5817 203.377 29.2102C203.082 29.8388 202.681 30.3182 202.173 30.6484C201.665 30.9787 201.09 31.1438 200.447 31.1438C199.978 31.1438 199.59 31.0657 199.281 30.9094C198.972 30.7532 198.723 30.565 198.535 30.3448C198.35 30.1211 198.206 29.9098 198.103 29.7109H198.024V34.0682H196.095ZM197.986 26.9091C197.986 27.4382 198.061 27.9016 198.21 28.2994C198.363 28.6971 198.581 29.0078 198.865 29.2315C199.153 29.4517 199.501 29.5618 199.909 29.5618C200.335 29.5618 200.692 29.4482 200.98 29.2209C201.267 28.9901 201.484 28.6758 201.63 28.2781C201.779 27.8768 201.853 27.4205 201.853 26.9091C201.853 26.4013 201.781 25.9503 201.635 25.5561C201.489 25.1619 201.273 24.853 200.985 24.6293C200.698 24.4055 200.339 24.2937 199.909 24.2937C199.497 24.2937 199.147 24.402 198.86 24.6186C198.572 24.8352 198.354 25.1388 198.205 25.5295C198.059 25.9201 197.986 26.38 197.986 26.9091ZM205.22 34.0682V22.8182H207.117V24.1712H207.228C207.328 23.9723 207.468 23.761 207.649 23.5373C207.83 23.31 208.075 23.1165 208.384 22.9567C208.693 22.7933 209.087 22.7116 209.567 22.7116C210.199 22.7116 210.769 22.8732 211.277 23.1964C211.788 23.516 212.193 23.9901 212.491 24.6186C212.793 25.2436 212.944 26.0107 212.944 26.9197C212.944 27.8182 212.797 28.5817 212.502 29.2102C212.207 29.8388 211.806 30.3182 211.298 30.6484C210.79 30.9787 210.215 31.1438 209.572 31.1438C209.103 31.1438 208.715 31.0657 208.406 30.9094C208.097 30.7532 207.848 30.565 207.66 30.3448C207.475 30.1211 207.331 29.9098 207.228 29.7109H207.149V34.0682H205.22ZM207.111 26.9091C207.111 27.4382 207.186 27.9016 207.335 28.2994C207.488 28.6971 207.706 29.0078 207.99 29.2315C208.278 29.4517 208.626 29.5618 209.034 29.5618C209.46 29.5618 209.817 29.4482 210.105 29.2209C210.392 28.9901 210.609 28.6758 210.755 28.2781C210.904 27.8768 210.978 27.4205 210.978 26.9091C210.978 26.4013 210.906 25.9503 210.76 25.5561C210.614 25.1619 210.398 24.853 210.11 24.6293C209.823 24.4055 209.464 24.2937 209.034 24.2937C208.622 24.2937 208.272 24.402 207.985 24.6186C207.697 24.8352 207.479 25.1388 207.33 25.5295C207.184 25.9201 207.111 26.38 207.111 26.9091ZM216.274 20.0909V31H214.345V20.0909H216.274ZM219.205 34.0682C218.942 34.0682 218.699 34.0469 218.475 34.0043C218.255 33.9652 218.079 33.919 217.948 33.8658L218.395 32.3636C218.676 32.4453 218.926 32.4844 219.146 32.4808C219.366 32.4773 219.56 32.408 219.727 32.2731C219.897 32.1417 220.041 31.9215 220.158 31.6126L220.324 31.1705L217.357 22.8182H219.402L221.288 28.9972H221.373L223.264 22.8182H225.315L222.039 31.9908C221.886 32.424 221.684 32.7951 221.431 33.104C221.179 33.4165 220.87 33.6545 220.505 33.8178C220.142 33.9847 219.709 34.0682 219.205 34.0682ZM238.92 20.0909V31H237.162L232.022 23.5692H231.931V31H229.955V20.0909H231.723L236.858 27.527H236.954V20.0909H238.92ZM244.307 31.1598C243.508 31.1598 242.815 30.984 242.229 30.6325C241.643 30.2809 241.189 29.7891 240.866 29.157C240.546 28.5249 240.386 27.7862 240.386 26.9411C240.386 26.0959 240.546 25.3555 240.866 24.7198C241.189 24.0842 241.643 23.5906 242.229 23.239C242.815 22.8874 243.508 22.7116 244.307 22.7116C245.106 22.7116 245.798 22.8874 246.384 23.239C246.97 23.5906 247.423 24.0842 247.742 24.7198C248.066 25.3555 248.227 26.0959 248.227 26.9411C248.227 27.7862 248.066 28.5249 247.742 29.157C247.423 29.7891 246.97 30.2809 246.384 30.6325C245.798 30.984 245.106 31.1598 244.307 31.1598ZM244.317 29.6151C244.751 29.6151 245.113 29.4961 245.404 29.2582C245.695 29.0167 245.912 28.6935 246.054 28.2887C246.199 27.8839 246.272 27.4329 246.272 26.9357C246.272 26.435 246.199 25.9822 246.054 25.5774C245.912 25.169 245.695 24.8441 245.404 24.6026C245.113 24.3612 244.751 24.2404 244.317 24.2404C243.873 24.2404 243.504 24.3612 243.209 24.6026C242.918 24.8441 242.7 25.169 242.554 25.5774C242.412 25.9822 242.341 26.435 242.341 26.9357C242.341 27.4329 242.412 27.8839 242.554 28.2887C242.7 28.6935 242.918 29.0167 243.209 29.2582C243.504 29.4961 243.873 29.6151 244.317 29.6151ZM251.068 31L248.756 22.8182H250.722L252.16 28.571H252.235L253.705 22.8182H255.649L257.119 28.5391H257.199L258.616 22.8182H260.587L258.27 31H256.262L254.727 25.4709H254.616L253.081 31H251.068Z" fill="white"/>
<path d="M272.833 26H286.167M286.167 26C282.485 26 279.5 23.0152 279.5 19.3333M286.167 26C282.485 26 279.5 28.9848 279.5 32.6667" stroke="white" stroke-width="2" stroke-linecap="square"/>
</g>
<defs>
<filter id="filter0_d_303_4702" x="0" y="0" width="474" height="56" filterUnits="userSpaceOnUse" color-interpolation-filters="sRGB">
<feFlood flood-opacity="0" result="BackgroundImageFix"/>
<feColorMatrix in="SourceAlpha" type="matrix" values="0 0 0 0 0 0 0 0 0 0 0 0 0 0 0 0 0 0 127 0" result="hardAlpha"/>
<feOffset dy="2"/>
<feGaussianBlur stdDeviation="2"/>
<feComposite in2="hardAlpha" operator="out"/>
<feColorMatrix type="matrix" values="0 0 0 0 0.82176 0 0 0 0 0.836369 0 0 0 0 0.851157 0 0 0 1 0"/>
<feBlend mode="normal" in2="BackgroundImageFix" result="effect1_dropShadow_303_4702"/>
<feBlend mode="normal" in="SourceGraphic" in2="effect1_dropShadow_303_4702" result="shape"/>
</filter>
</defs>
</svg>
