<svg width="466" height="56" viewBox="0 0 466 56" fill="none" xmlns="http://www.w3.org/2000/svg">
<rect width="466" height="56" rx="16" fill="#E2F0FF"/>
<rect x="16" y="16" width="24" height="24" rx="12" fill="#3FAFEE"/>
<path d="M34 23.8L25.75 32.2L22 28.3818" stroke="white" stroke-width="1.5" stroke-linecap="round" stroke-linejoin="round"/>
<path d="M56.4055 25.5078C56.3459 24.9496 56.0945 24.5149 55.6513 24.2038C55.2124 23.8928 54.6413 23.7372 53.9382 23.7372C53.4439 23.7372 53.0199 23.8118 52.6662 23.9609C52.3125 24.1101 52.0419 24.3125 51.8544 24.5682C51.6669 24.8239 51.571 25.1158 51.5668 25.4439C51.5668 25.7166 51.6286 25.9531 51.7521 26.1534C51.88 26.3537 52.0526 26.5241 52.2699 26.6648C52.4872 26.8011 52.728 26.9162 52.9922 27.0099C53.2564 27.1037 53.5227 27.1825 53.7912 27.2464L55.0185 27.5533C55.5128 27.6683 55.9879 27.8239 56.4439 28.0199C56.9041 28.2159 57.3153 28.4631 57.6776 28.7614C58.044 29.0597 58.3338 29.4197 58.5469 29.8416C58.7599 30.2635 58.8665 30.7578 58.8665 31.3246C58.8665 32.0916 58.6705 32.767 58.2784 33.3509C57.8864 33.9304 57.3196 34.3842 56.5781 34.7124C55.8409 35.0362 54.9482 35.1982 53.8999 35.1982C52.8814 35.1982 51.9972 35.0405 51.2472 34.7251C50.5014 34.4098 49.9176 33.9496 49.4957 33.3445C49.0781 32.7393 48.8523 32.0021 48.8182 31.1328H51.1513C51.1854 31.5888 51.326 31.968 51.5732 32.2706C51.8203 32.5732 52.142 32.799 52.5384 32.9482C52.9389 33.0973 53.3864 33.1719 53.8807 33.1719C54.3963 33.1719 54.848 33.0952 55.2358 32.9418C55.6278 32.7841 55.9347 32.5668 56.1562 32.2898C56.3778 32.0085 56.4908 31.6804 56.495 31.3054C56.4908 30.9645 56.3906 30.6832 56.1946 30.4616C55.9986 30.2358 55.7237 30.0483 55.37 29.8991C55.0206 29.7457 54.6115 29.6094 54.1428 29.4901L52.6534 29.1065C51.5753 28.8295 50.723 28.4098 50.0966 27.8473C49.4744 27.2805 49.1634 26.5284 49.1634 25.5909C49.1634 24.8196 49.3722 24.1442 49.7898 23.5646C50.2116 22.9851 50.7848 22.5355 51.5092 22.2159C52.2337 21.892 53.054 21.7301 53.9702 21.7301C54.8991 21.7301 55.7131 21.892 56.4119 22.2159C57.1151 22.5355 57.6669 22.9808 58.0675 23.5518C58.468 24.1186 58.6747 24.7706 58.6875 25.5078H56.4055ZM60.6284 38.6818V25.1818H62.9039V26.8054H63.0382C63.1575 26.5668 63.3258 26.3132 63.5431 26.0447C63.7605 25.772 64.0545 25.5398 64.4252 25.348C64.796 25.152 65.269 25.054 65.8443 25.054C66.6028 25.054 67.2868 25.2479 67.8961 25.6357C68.5098 26.0192 68.9956 26.5881 69.3535 27.3423C69.7157 28.0923 69.8968 29.0128 69.8968 30.1037C69.8968 31.1818 69.72 32.098 69.3663 32.8523C69.0126 33.6065 68.5311 34.1818 67.9217 34.5781C67.3123 34.9744 66.622 35.1726 65.8507 35.1726C65.2882 35.1726 64.8216 35.0788 64.4508 34.8913C64.0801 34.7038 63.7818 34.478 63.5559 34.2138C63.3343 33.9453 63.1618 33.6918 63.0382 33.4531H62.9423V38.6818H60.6284ZM62.8975 30.0909C62.8975 30.7259 62.987 31.282 63.166 31.7592C63.3493 32.2365 63.6113 32.6094 63.9522 32.8778C64.2974 33.142 64.715 33.2741 65.2051 33.2741C65.7164 33.2741 66.1447 33.1378 66.4899 32.8651C66.835 32.5881 67.095 32.2109 67.2697 31.7337C67.4487 31.2521 67.5382 30.7045 67.5382 30.0909C67.5382 29.4815 67.4508 28.9403 67.2761 28.4673C67.1014 27.9943 66.8414 27.6236 66.4963 27.3551C66.1511 27.0866 65.7207 26.9524 65.2051 26.9524C64.7108 26.9524 64.291 27.0824 63.9458 27.3423C63.6007 27.6023 63.3386 27.9666 63.1596 28.4354C62.9849 28.9041 62.8975 29.456 62.8975 30.0909ZM74.4537 35.1982C73.8315 35.1982 73.2711 35.0874 72.7725 34.8658C72.2782 34.6399 71.8862 34.3075 71.5964 33.8686C71.3109 33.4297 71.1681 32.8885 71.1681 32.245C71.1681 31.6911 71.2704 31.233 71.475 30.8707C71.6795 30.5085 71.9586 30.2188 72.3123 30.0014C72.666 29.7841 73.0645 29.62 73.5076 29.5092C73.9551 29.3942 74.4174 29.3111 74.8947 29.2599C75.47 29.2003 75.9366 29.147 76.2946 29.1001C76.6525 29.049 76.9125 28.9723 77.0744 28.87C77.2406 28.7635 77.3237 28.5994 77.3237 28.3778V28.3395C77.3237 27.858 77.1809 27.4851 76.8954 27.2209C76.6099 26.9567 76.1987 26.8246 75.6618 26.8246C75.095 26.8246 74.6454 26.9482 74.313 27.1953C73.9849 27.4425 73.7633 27.7344 73.6483 28.071L71.4877 27.7642C71.6582 27.1676 71.9395 26.669 72.3315 26.2685C72.7235 25.8636 73.2029 25.5611 73.7697 25.3608C74.3365 25.1562 74.9629 25.054 75.649 25.054C76.122 25.054 76.5929 25.1094 77.0616 25.2202C77.5304 25.331 77.9586 25.5142 78.3464 25.7699C78.7342 26.0213 79.0453 26.3643 79.2797 26.799C79.5183 27.2337 79.6376 27.777 79.6376 28.429V35H77.4132V33.6513H77.3365C77.1958 33.924 76.9977 34.1797 76.742 34.4183C76.4906 34.6527 76.1731 34.8423 75.7896 34.9872C75.4103 35.1278 74.965 35.1982 74.4537 35.1982ZM75.0545 33.4979C75.519 33.4979 75.9217 33.4062 76.2626 33.223C76.6035 33.0355 76.8656 32.7884 77.0488 32.4815C77.2363 32.1747 77.3301 31.8402 77.3301 31.478V30.321C77.2576 30.3807 77.1341 30.4361 76.9593 30.4872C76.7889 30.5384 76.5971 30.5831 76.3841 30.6214C76.171 30.6598 75.96 30.6939 75.7512 30.7237C75.5424 30.7536 75.3613 30.7791 75.2079 30.8004C74.8627 30.8473 74.5538 30.924 74.2811 31.0305C74.0083 31.1371 73.7931 31.2862 73.6355 31.478C73.4778 31.6655 73.399 31.9084 73.399 32.2067C73.399 32.6328 73.5545 32.9545 73.8656 33.1719C74.1767 33.3892 74.573 33.4979 75.0545 33.4979ZM81.7143 35V25.1818H84.0282V35H81.7143ZM82.8777 23.7884C82.5112 23.7884 82.1958 23.6669 81.9316 23.424C81.6674 23.1768 81.5353 22.8807 81.5353 22.5355C81.5353 22.1861 81.6674 21.8899 81.9316 21.647C82.1958 21.3999 82.5112 21.2763 82.8777 21.2763C83.2484 21.2763 83.5637 21.3999 83.8237 21.647C84.0879 21.8899 84.22 22.1861 84.22 22.5355C84.22 22.8807 84.0879 23.1768 83.8237 23.424C83.5637 23.6669 83.2484 23.7884 82.8777 23.7884ZM88.4716 29.2472V35H86.1577V25.1818H88.3693V26.8501H88.4844C88.7102 26.3004 89.0703 25.8636 89.5646 25.5398C90.0632 25.2159 90.679 25.054 91.4119 25.054C92.0895 25.054 92.6797 25.1989 93.1825 25.4886C93.6896 25.7784 94.0817 26.1982 94.3587 26.7479C94.6399 27.2976 94.7784 27.9645 94.7741 28.7486V35H92.4602V29.1065C92.4602 28.4503 92.2898 27.9368 91.9489 27.5661C91.6122 27.1953 91.1456 27.0099 90.549 27.0099C90.1442 27.0099 89.7841 27.0994 89.4688 27.2784C89.1577 27.4531 88.9126 27.7067 88.7337 28.0391C88.5589 28.3714 88.4716 28.7741 88.4716 29.2472ZM101.091 35V25.1818H103.335V26.8182H103.437C103.616 26.2514 103.923 25.8146 104.358 25.5078C104.797 25.1967 105.297 25.0412 105.86 25.0412C105.988 25.0412 106.13 25.0476 106.288 25.0604C106.45 25.0689 106.584 25.0838 106.691 25.1051V27.2337C106.593 27.1996 106.437 27.1697 106.224 27.1442C106.015 27.1143 105.813 27.0994 105.617 27.0994C105.195 27.0994 104.816 27.1911 104.479 27.3743C104.147 27.5533 103.885 27.8026 103.693 28.1222C103.501 28.4418 103.405 28.8104 103.405 29.228V35H101.091ZM111.92 35.1918C110.936 35.1918 110.086 34.9872 109.37 34.5781C108.658 34.1648 108.111 33.581 107.727 32.8267C107.344 32.0682 107.152 31.1754 107.152 30.1484C107.152 29.1385 107.344 28.2521 107.727 27.4893C108.115 26.7223 108.656 26.1257 109.351 25.6996C110.045 25.2692 110.861 25.054 111.799 25.054C112.404 25.054 112.975 25.152 113.512 25.348C114.053 25.5398 114.53 25.8381 114.944 26.2429C115.361 26.6477 115.689 27.1634 115.928 27.7898C116.167 28.4119 116.286 29.1534 116.286 30.0142V30.7237H108.238V29.1641H114.068C114.064 28.7209 113.968 28.3267 113.78 27.9815C113.593 27.6321 113.331 27.3572 112.994 27.157C112.662 26.9567 112.274 26.8565 111.831 26.8565C111.358 26.8565 110.942 26.9716 110.584 27.2017C110.226 27.4276 109.947 27.7259 109.747 28.0966C109.551 28.4631 109.451 28.8658 109.447 29.3047V30.6662C109.447 31.2372 109.551 31.7273 109.76 32.1364C109.969 32.5412 110.26 32.8523 110.635 33.0696C111.01 33.2827 111.449 33.3892 111.952 33.3892C112.289 33.3892 112.594 33.3423 112.866 33.2486C113.139 33.1506 113.376 33.0078 113.576 32.8203C113.776 32.6328 113.927 32.4006 114.03 32.1236L116.19 32.3665C116.054 32.9375 115.794 33.4361 115.41 33.8622C115.031 34.2841 114.545 34.6122 113.953 34.8466C113.361 35.0767 112.683 35.1918 111.92 35.1918ZM124.545 38.6818V33.4531H124.45C124.33 33.6918 124.158 33.9453 123.932 34.2138C123.706 34.478 123.408 34.7038 123.037 34.8913C122.666 35.0788 122.2 35.1726 121.637 35.1726C120.866 35.1726 120.175 34.9744 119.566 34.5781C118.957 34.1818 118.475 33.6065 118.121 32.8523C117.768 32.098 117.591 31.1818 117.591 30.1037C117.591 29.0128 117.77 28.0923 118.128 27.3423C118.49 26.5881 118.978 26.0192 119.592 25.6357C120.205 25.2479 120.889 25.054 121.643 25.054C122.219 25.054 122.692 25.152 123.062 25.348C123.433 25.5398 123.727 25.772 123.945 26.0447C124.162 26.3132 124.33 26.5668 124.45 26.8054H124.59V25.1818H126.866V38.6818H124.545ZM122.283 33.2741C122.773 33.2741 123.19 33.142 123.536 32.8778C123.881 32.6094 124.143 32.2365 124.322 31.7592C124.501 31.282 124.59 30.7259 124.59 30.0909C124.59 29.456 124.501 28.9041 124.322 28.4354C124.147 27.9666 123.887 27.6023 123.542 27.3423C123.201 27.0824 122.781 26.9524 122.283 26.9524C121.767 26.9524 121.337 27.0866 120.991 27.3551C120.646 27.6236 120.386 27.9943 120.212 28.4673C120.037 28.9403 119.95 29.4815 119.95 30.0909C119.95 30.7045 120.037 31.2521 120.212 31.7337C120.391 32.2109 120.653 32.5881 120.998 32.8651C121.347 33.1378 121.776 33.2741 122.283 33.2741ZM135.251 30.8707V25.1818H137.565V35H135.322V33.255H135.219C134.998 33.8047 134.634 34.2543 134.126 34.6037C133.624 34.9531 133.004 35.1278 132.266 35.1278C131.623 35.1278 131.054 34.9851 130.56 34.6996C130.07 34.4098 129.686 33.9901 129.409 33.4403C129.132 32.8864 128.994 32.2173 128.994 31.4332V25.1818H131.308V31.0753C131.308 31.6974 131.478 32.1918 131.819 32.5582C132.16 32.9247 132.607 33.108 133.161 33.108C133.502 33.108 133.832 33.0249 134.152 32.8587C134.472 32.6925 134.734 32.4453 134.938 32.1172C135.147 31.7848 135.251 31.3693 135.251 30.8707ZM139.695 35V25.1818H142.009V35H139.695ZM140.858 23.7884C140.492 23.7884 140.176 23.6669 139.912 23.424C139.648 23.1768 139.516 22.8807 139.516 22.5355C139.516 22.1861 139.648 21.8899 139.912 21.647C140.176 21.3999 140.492 21.2763 140.858 21.2763C141.229 21.2763 141.544 21.3999 141.804 21.647C142.068 21.8899 142.2 22.1861 142.2 22.5355C142.2 22.8807 142.068 23.1768 141.804 23.424C141.544 23.6669 141.229 23.7884 140.858 23.7884ZM144.138 35V25.1818H146.382V26.8182H146.484C146.663 26.2514 146.97 25.8146 147.404 25.5078C147.843 25.1967 148.344 25.0412 148.907 25.0412C149.034 25.0412 149.177 25.0476 149.335 25.0604C149.497 25.0689 149.631 25.0838 149.738 25.1051V27.2337C149.64 27.1996 149.484 27.1697 149.271 27.1442C149.062 27.1143 148.86 27.0994 148.664 27.0994C148.242 27.0994 147.863 27.1911 147.526 27.3743C147.194 27.5533 146.931 27.8026 146.74 28.1222C146.548 28.4418 146.452 28.8104 146.452 29.228V35H144.138ZM154.967 35.1918C153.983 35.1918 153.133 34.9872 152.417 34.5781C151.705 34.1648 151.157 33.581 150.774 32.8267C150.39 32.0682 150.199 31.1754 150.199 30.1484C150.199 29.1385 150.39 28.2521 150.774 27.4893C151.162 26.7223 151.703 26.1257 152.398 25.6996C153.092 25.2692 153.908 25.054 154.846 25.054C155.451 25.054 156.022 25.152 156.559 25.348C157.1 25.5398 157.577 25.8381 157.991 26.2429C158.408 26.6477 158.736 27.1634 158.975 27.7898C159.214 28.4119 159.333 29.1534 159.333 30.0142V30.7237H151.285V29.1641H157.115C157.111 28.7209 157.015 28.3267 156.827 27.9815C156.64 27.6321 156.378 27.3572 156.041 27.157C155.709 26.9567 155.321 26.8565 154.878 26.8565C154.405 26.8565 153.989 26.9716 153.631 27.2017C153.273 27.4276 152.994 27.7259 152.794 28.0966C152.598 28.4631 152.498 28.8658 152.493 29.3047V30.6662C152.493 31.2372 152.598 31.7273 152.807 32.1364C153.015 32.5412 153.307 32.8523 153.682 33.0696C154.057 33.2827 154.496 33.3892 154.999 33.3892C155.336 33.3892 155.64 33.3423 155.913 33.2486C156.186 33.1506 156.422 33.0078 156.623 32.8203C156.823 32.6328 156.974 32.4006 157.077 32.1236L159.237 32.3665C159.101 32.9375 158.841 33.4361 158.457 33.8622C158.078 34.2841 157.592 34.6122 157 34.8466C156.407 35.0767 155.73 35.1918 154.967 35.1918ZM168.8 27.777L166.691 28.0071C166.631 27.794 166.527 27.5938 166.378 27.4062C166.233 27.2188 166.037 27.0675 165.79 26.9524C165.543 26.8374 165.24 26.7798 164.882 26.7798C164.401 26.7798 163.996 26.8842 163.668 27.093C163.344 27.3018 163.184 27.5724 163.188 27.9048C163.184 28.1903 163.288 28.4226 163.501 28.6016C163.719 28.7805 164.077 28.9276 164.575 29.0426L166.25 29.4006C167.179 29.6009 167.869 29.9183 168.321 30.353C168.777 30.7876 169.007 31.3565 169.011 32.0597C169.007 32.6776 168.826 33.223 168.468 33.696C168.114 34.1648 167.622 34.5312 166.991 34.7955C166.361 35.0597 165.636 35.1918 164.818 35.1918C163.616 35.1918 162.649 34.9403 161.916 34.4375C161.183 33.9304 160.746 33.2251 160.606 32.3217L162.862 32.1044C162.964 32.5476 163.182 32.8821 163.514 33.108C163.847 33.3338 164.279 33.4467 164.812 33.4467C165.362 33.4467 165.803 33.3338 166.135 33.108C166.472 32.8821 166.64 32.603 166.64 32.2706C166.64 31.9893 166.531 31.7571 166.314 31.5739C166.101 31.3906 165.768 31.25 165.317 31.152L163.642 30.8004C162.7 30.6044 162.004 30.2741 161.552 29.8097C161.1 29.3409 160.876 28.7486 160.881 28.0327C160.876 27.4276 161.04 26.9034 161.373 26.4602C161.71 26.0128 162.176 25.6676 162.773 25.4247C163.374 25.1776 164.066 25.054 164.85 25.054C166.001 25.054 166.906 25.299 167.567 25.7891C168.232 26.2791 168.643 26.9418 168.8 27.777ZM179.944 25.1818V26.4602H174.855V25.1818H179.944ZM176.338 22.8295H177.847V32.1875C177.847 32.6136 177.909 32.9332 178.032 33.1463C178.16 33.3551 178.322 33.4957 178.518 33.5682C178.718 33.6364 178.929 33.6705 179.151 33.6705C179.317 33.6705 179.453 33.6619 179.56 33.6449C179.667 33.6236 179.752 33.6065 179.816 33.5938L180.123 34.9489C180.02 34.9872 179.877 35.0256 179.694 35.0639C179.511 35.1065 179.279 35.1278 178.998 35.1278C178.571 35.1278 178.154 35.0362 177.745 34.853C177.34 34.6697 177.003 34.3906 176.735 34.0156C176.471 33.6406 176.338 33.1676 176.338 32.5966V22.8295ZM183.682 29.0938V35H182.174V21.9091H183.682V26.7159H183.81C184.04 26.2088 184.385 25.8061 184.846 25.5078C185.31 25.2053 185.928 25.054 186.699 25.054C187.368 25.054 187.954 25.1882 188.457 25.4567C188.96 25.7209 189.35 26.1278 189.627 26.6776C189.908 27.223 190.049 27.9176 190.049 28.7614V35H188.54V28.8636C188.54 28.0838 188.338 27.4808 187.933 27.0547C187.532 26.6243 186.976 26.4091 186.265 26.4091C185.77 26.4091 185.327 26.5135 184.935 26.7223C184.547 26.9311 184.24 27.2358 184.015 27.6364C183.793 28.0369 183.682 28.5227 183.682 29.0938ZM196.675 35.2045C195.729 35.2045 194.913 34.9957 194.227 34.5781C193.545 34.1562 193.019 33.5682 192.648 32.8139C192.281 32.0554 192.098 31.1733 192.098 30.1676C192.098 29.1619 192.281 28.2756 192.648 27.5085C193.019 26.7372 193.534 26.1364 194.195 25.706C194.86 25.2713 195.635 25.054 196.521 25.054C197.033 25.054 197.538 25.1392 198.036 25.3097C198.535 25.4801 198.989 25.7571 199.398 26.1406C199.807 26.5199 200.133 27.0227 200.376 27.6491C200.619 28.2756 200.74 29.0469 200.74 29.9631V30.6023H193.172V29.2983H199.206C199.206 28.7443 199.095 28.25 198.874 27.8153C198.656 27.3807 198.345 27.0376 197.941 26.7862C197.54 26.5348 197.067 26.4091 196.521 26.4091C195.921 26.4091 195.401 26.5582 194.962 26.8565C194.527 27.1506 194.193 27.5341 193.958 28.0071C193.724 28.4801 193.607 28.9872 193.607 29.5284V30.3977C193.607 31.1392 193.735 31.7678 193.99 32.2834C194.25 32.7947 194.61 33.1847 195.07 33.4531C195.531 33.7173 196.066 33.8494 196.675 33.8494C197.071 33.8494 197.429 33.794 197.749 33.6832C198.073 33.5682 198.352 33.3977 198.586 33.1719C198.82 32.9418 199.002 32.6562 199.129 32.3153L200.587 32.7244C200.433 33.2188 200.176 33.6534 199.813 34.0284C199.451 34.3991 199.004 34.6889 198.471 34.8977C197.938 35.1023 197.34 35.2045 196.675 35.2045ZM209.387 21.9091V35H207.802V21.9091H209.387ZM216.355 35H212.316V21.9091H216.534C217.804 21.9091 218.891 22.1712 219.794 22.6953C220.698 23.2152 221.39 23.9631 221.872 24.9389C222.353 25.9105 222.594 27.0739 222.594 28.429C222.594 29.7926 222.351 30.9666 221.865 31.951C221.38 32.9311 220.672 33.6854 219.743 34.2138C218.814 34.7379 217.685 35 216.355 35ZM213.901 33.5938H216.253C217.336 33.5938 218.233 33.3849 218.944 32.9673C219.656 32.5497 220.186 31.9553 220.536 31.1839C220.885 30.4126 221.06 29.4943 221.06 28.429C221.06 27.3722 220.887 26.4624 220.542 25.6996C220.197 24.9325 219.681 24.3445 218.995 23.9354C218.309 23.522 217.455 23.3153 216.432 23.3153H213.901V33.5938ZM225.003 35V21.9091H229.426C230.453 21.9091 231.293 22.0945 231.945 22.4652C232.601 22.8317 233.087 23.3281 233.402 23.9545C233.718 24.581 233.875 25.2798 233.875 26.0511C233.875 26.8224 233.718 27.5234 233.402 28.1541C233.091 28.7848 232.61 29.2876 231.958 29.6626C231.306 30.0334 230.471 30.2188 229.452 30.2188H226.282V28.8125H229.401C230.104 28.8125 230.669 28.6911 231.095 28.4482C231.521 28.2053 231.83 27.8771 232.022 27.4638C232.218 27.0462 232.316 26.5753 232.316 26.0511C232.316 25.527 232.218 25.0582 232.022 24.6449C231.83 24.2315 231.519 23.9077 231.088 23.6733C230.658 23.4347 230.087 23.3153 229.375 23.3153H226.588V35H225.003ZM245.057 25.1818V26.4602H239.969V25.1818H245.057ZM241.452 22.8295H242.96V32.1875C242.96 32.6136 243.022 32.9332 243.146 33.1463C243.273 33.3551 243.435 33.4957 243.631 33.5682C243.832 33.6364 244.043 33.6705 244.264 33.6705C244.43 33.6705 244.567 33.6619 244.673 33.6449C244.78 33.6236 244.865 33.6065 244.929 33.5938L245.236 34.9489C245.134 34.9872 244.991 35.0256 244.808 35.0639C244.624 35.1065 244.392 35.1278 244.111 35.1278C243.685 35.1278 243.267 35.0362 242.858 34.853C242.453 34.6697 242.116 34.3906 241.848 34.0156C241.584 33.6406 241.452 33.1676 241.452 32.5966V22.8295ZM250.959 35.2045C250.073 35.2045 249.295 34.9936 248.626 34.5717C247.961 34.1499 247.441 33.5597 247.066 32.8011C246.696 32.0426 246.51 31.1562 246.51 30.142C246.51 29.1193 246.696 28.2266 247.066 27.4638C247.441 26.701 247.961 26.1087 248.626 25.6868C249.295 25.2649 250.073 25.054 250.959 25.054C251.846 25.054 252.621 25.2649 253.286 25.6868C253.955 26.1087 254.475 26.701 254.846 27.4638C255.221 28.2266 255.408 29.1193 255.408 30.142C255.408 31.1562 255.221 32.0426 254.846 32.8011C254.475 33.5597 253.955 34.1499 253.286 34.5717C252.621 34.9936 251.846 35.2045 250.959 35.2045ZM250.959 33.8494C251.632 33.8494 252.186 33.6768 252.621 33.3317C253.056 32.9865 253.377 32.5327 253.586 31.9702C253.795 31.4077 253.9 30.7983 253.9 30.142C253.9 29.4858 253.795 28.8743 253.586 28.3075C253.377 27.7408 253.056 27.2827 252.621 26.9332C252.186 26.5838 251.632 26.4091 250.959 26.4091C250.286 26.4091 249.732 26.5838 249.297 26.9332C248.863 27.2827 248.541 27.7408 248.332 28.3075C248.123 28.8743 248.019 29.4858 248.019 30.142C248.019 30.7983 248.123 31.4077 248.332 31.9702C248.541 32.5327 248.863 32.9865 249.297 33.3317C249.732 33.6768 250.286 33.8494 250.959 33.8494ZM265.981 35.2045C265.162 35.2045 264.44 34.9979 263.814 34.5845C263.187 34.1669 262.697 33.5788 262.344 32.8203C261.99 32.0575 261.813 31.1562 261.813 30.1165C261.813 29.0852 261.99 28.1903 262.344 27.4318C262.697 26.6733 263.189 26.0874 263.82 25.674C264.451 25.2607 265.18 25.054 266.006 25.054C266.645 25.054 267.15 25.1605 267.521 25.3736C267.896 25.5824 268.182 25.821 268.378 26.0895C268.578 26.3537 268.733 26.571 268.844 26.7415H268.972V21.9091H270.481V35H269.023V33.4915H268.844C268.733 33.6705 268.576 33.8963 268.371 34.169C268.167 34.4375 267.875 34.6783 267.496 34.8913C267.116 35.1001 266.611 35.2045 265.981 35.2045ZM266.185 33.8494C266.79 33.8494 267.302 33.6918 267.719 33.3764C268.137 33.0568 268.454 32.6158 268.672 32.0533C268.889 31.4865 268.998 30.8324 268.998 30.0909C268.998 29.358 268.891 28.7166 268.678 28.1669C268.465 27.6129 268.15 27.1825 267.732 26.8757C267.314 26.5646 266.799 26.4091 266.185 26.4091C265.546 26.4091 265.013 26.5732 264.587 26.9013C264.165 27.2251 263.848 27.6662 263.635 28.2244C263.426 28.7784 263.322 29.4006 263.322 30.0909C263.322 30.7898 263.428 31.4247 263.641 31.9957C263.858 32.5625 264.178 33.0142 264.6 33.3509C265.026 33.6832 265.555 33.8494 266.185 33.8494ZM273.203 35V25.1818H274.66V26.6648H274.763C274.942 26.179 275.265 25.7848 275.734 25.4822C276.203 25.1797 276.731 25.0284 277.319 25.0284C277.43 25.0284 277.569 25.0305 277.735 25.0348C277.901 25.0391 278.027 25.0455 278.112 25.054V26.5881C278.061 26.5753 277.944 26.5561 277.76 26.5305C277.581 26.5007 277.392 26.4858 277.192 26.4858C276.714 26.4858 276.288 26.5859 275.913 26.7862C275.542 26.9822 275.248 27.255 275.031 27.6044C274.818 27.9496 274.711 28.3437 274.711 28.7869V35H273.203ZM279.65 35V25.1818H281.159V35H279.65ZM280.417 23.5455C280.123 23.5455 279.87 23.4453 279.657 23.245C279.448 23.0447 279.343 22.804 279.343 22.5227C279.343 22.2415 279.448 22.0007 279.657 21.8004C279.87 21.6001 280.123 21.5 280.417 21.5C280.711 21.5 280.963 21.6001 281.172 21.8004C281.385 22.0007 281.491 22.2415 281.491 22.5227C281.491 22.804 281.385 23.0447 281.172 23.245C280.963 23.4453 280.711 23.5455 280.417 23.5455ZM291.7 25.1818L288.069 35H286.535L282.905 25.1818H284.541L287.251 33.0057H287.354L290.064 25.1818H291.7ZM297.206 35.2045C296.26 35.2045 295.444 34.9957 294.758 34.5781C294.076 34.1562 293.55 33.5682 293.179 32.8139C292.813 32.0554 292.629 31.1733 292.629 30.1676C292.629 29.1619 292.813 28.2756 293.179 27.5085C293.55 26.7372 294.066 26.1364 294.726 25.706C295.391 25.2713 296.166 25.054 297.053 25.054C297.564 25.054 298.069 25.1392 298.568 25.3097C299.066 25.4801 299.52 25.7571 299.929 26.1406C300.338 26.5199 300.664 27.0227 300.907 27.6491C301.15 28.2756 301.271 29.0469 301.271 29.9631V30.6023H293.703V29.2983H299.737C299.737 28.7443 299.627 28.25 299.405 27.8153C299.188 27.3807 298.877 27.0376 298.472 26.7862C298.071 26.5348 297.598 26.4091 297.053 26.4091C296.452 26.4091 295.932 26.5582 295.493 26.8565C295.058 27.1506 294.724 27.5341 294.49 28.0071C294.255 28.4801 294.138 28.9872 294.138 29.5284V30.3977C294.138 31.1392 294.266 31.7678 294.521 32.2834C294.781 32.7947 295.142 33.1847 295.602 33.4531C296.062 33.7173 296.597 33.8494 297.206 33.8494C297.602 33.8494 297.96 33.794 298.28 33.6832C298.604 33.5682 298.883 33.3977 299.117 33.1719C299.352 32.9418 299.533 32.6562 299.661 32.3153L301.118 32.7244C300.965 33.2188 300.707 33.6534 300.345 34.0284C299.982 34.3991 299.535 34.6889 299.002 34.8977C298.47 35.1023 297.871 35.2045 297.206 35.2045ZM309.637 21.9091V35H308.129V21.9091H309.637ZM316.267 35.2045C315.321 35.2045 314.505 34.9957 313.819 34.5781C313.137 34.1562 312.61 33.5682 312.24 32.8139C311.873 32.0554 311.69 31.1733 311.69 30.1676C311.69 29.1619 311.873 28.2756 312.24 27.5085C312.61 26.7372 313.126 26.1364 313.787 25.706C314.451 25.2713 315.227 25.054 316.113 25.054C316.625 25.054 317.13 25.1392 317.628 25.3097C318.127 25.4801 318.581 25.7571 318.99 26.1406C319.399 26.5199 319.725 27.0227 319.968 27.6491C320.211 28.2756 320.332 29.0469 320.332 29.9631V30.6023H312.764V29.2983H318.798C318.798 28.7443 318.687 28.25 318.466 27.8153C318.248 27.3807 317.937 27.0376 317.532 26.7862C317.132 26.5348 316.659 26.4091 316.113 26.4091C315.512 26.4091 314.993 26.5582 314.554 26.8565C314.119 27.1506 313.784 27.5341 313.55 28.0071C313.316 28.4801 313.199 28.9872 313.199 29.5284V30.3977C313.199 31.1392 313.326 31.7678 313.582 32.2834C313.842 32.7947 314.202 33.1847 314.662 33.4531C315.123 33.7173 315.657 33.8494 316.267 33.8494C316.663 33.8494 317.021 33.794 317.341 33.6832C317.664 33.5682 317.944 33.3977 318.178 33.1719C318.412 32.9418 318.593 32.6562 318.721 32.3153L320.179 32.7244C320.025 33.2188 319.767 33.6534 319.405 34.0284C319.043 34.3991 318.596 34.6889 318.063 34.8977C317.53 35.1023 316.931 35.2045 316.267 35.2045ZM326.34 38.8864C325.611 38.8864 324.985 38.7926 324.461 38.6051C323.936 38.4219 323.5 38.179 323.15 37.8764C322.805 37.5781 322.53 37.2585 322.326 36.9176L323.527 36.0739C323.664 36.2528 323.836 36.4574 324.045 36.6875C324.254 36.9219 324.539 37.1243 324.902 37.2947C325.268 37.4695 325.748 37.5568 326.34 37.5568C327.132 37.5568 327.787 37.3651 328.302 36.9815C328.818 36.598 329.076 35.9972 329.076 35.179V33.1847H328.948C328.837 33.3636 328.679 33.5852 328.475 33.8494C328.275 34.1094 327.985 34.3416 327.605 34.5462C327.23 34.7464 326.723 34.8466 326.084 34.8466C325.292 34.8466 324.58 34.6591 323.949 34.2841C323.323 33.9091 322.826 33.3636 322.46 32.6477C322.098 31.9318 321.917 31.0625 321.917 30.0398C321.917 29.0341 322.093 28.1584 322.447 27.4126C322.801 26.6626 323.293 26.0831 323.924 25.674C324.554 25.2607 325.283 25.054 326.11 25.054C326.749 25.054 327.256 25.1605 327.631 25.3736C328.01 25.5824 328.3 25.821 328.5 26.0895C328.705 26.3537 328.863 26.571 328.973 26.7415H329.127V25.1818H330.584V35.2812C330.584 36.125 330.392 36.8111 330.009 37.3395C329.63 37.8722 329.118 38.2621 328.475 38.5092C327.836 38.7607 327.124 38.8864 326.34 38.8864ZM326.289 33.4915C326.894 33.4915 327.405 33.353 327.823 33.076C328.24 32.799 328.558 32.4006 328.775 31.8807C328.993 31.3608 329.101 30.7386 329.101 30.0142C329.101 29.3068 328.995 28.6825 328.782 28.1413C328.569 27.6001 328.253 27.1761 327.836 26.8693C327.418 26.5625 326.902 26.4091 326.289 26.4091C325.65 26.4091 325.117 26.571 324.691 26.8949C324.269 27.2187 323.951 27.6534 323.738 28.1989C323.529 28.7443 323.425 29.3494 323.425 30.0142C323.425 30.696 323.532 31.299 323.745 31.8232C323.962 32.343 324.282 32.7521 324.703 33.0504C325.13 33.3445 325.658 33.4915 326.289 33.4915ZM335.985 35.2301C335.363 35.2301 334.798 35.1129 334.291 34.8786C333.784 34.6399 333.381 34.2969 333.083 33.8494C332.784 33.3977 332.635 32.8523 332.635 32.2131C332.635 31.6506 332.746 31.1946 332.968 30.8452C333.189 30.4915 333.485 30.2145 333.856 30.0142C334.227 29.8139 334.636 29.6648 335.083 29.5668C335.535 29.4645 335.989 29.3835 336.445 29.3239C337.042 29.2472 337.525 29.1896 337.896 29.1513C338.271 29.1087 338.544 29.0384 338.714 28.9403C338.889 28.8423 338.976 28.6719 338.976 28.429V28.3778C338.976 27.7472 338.804 27.2571 338.458 26.9077C338.118 26.5582 337.6 26.3835 336.905 26.3835C336.185 26.3835 335.62 26.5412 335.211 26.8565C334.802 27.1719 334.515 27.5085 334.348 27.8665L332.917 27.3551C333.172 26.7585 333.513 26.294 333.939 25.9616C334.37 25.625 334.838 25.3906 335.346 25.2585C335.857 25.1222 336.36 25.054 336.854 25.054C337.169 25.054 337.532 25.0923 337.941 25.169C338.354 25.2415 338.752 25.3928 339.136 25.6229C339.524 25.853 339.846 26.2003 340.101 26.6648C340.357 27.1293 340.485 27.7514 340.485 28.5312V35H338.976V33.6705H338.9C338.797 33.8835 338.627 34.1115 338.388 34.3544C338.15 34.5973 337.832 34.804 337.436 34.9744C337.039 35.1449 336.556 35.2301 335.985 35.2301ZM336.215 33.875C336.811 33.875 337.314 33.7578 337.723 33.5234C338.137 33.2891 338.448 32.9865 338.657 32.6158C338.87 32.245 338.976 31.8551 338.976 31.446V30.0653C338.912 30.142 338.772 30.2124 338.554 30.2763C338.341 30.3359 338.094 30.3892 337.813 30.4361C337.536 30.4787 337.265 30.517 337.001 30.5511C336.741 30.581 336.53 30.6065 336.368 30.6278C335.976 30.679 335.61 30.7621 335.269 30.8771C334.932 30.9879 334.659 31.1562 334.451 31.3821C334.246 31.6037 334.144 31.9062 334.144 32.2898C334.144 32.8139 334.338 33.2102 334.725 33.4787C335.118 33.7429 335.614 33.875 336.215 33.875ZM344.497 21.9091V35H342.988V21.9091H344.497ZM348.518 21.9091V35H347.01V21.9091H348.518ZM352.003 38.6818C351.747 38.6818 351.519 38.6605 351.319 38.6179C351.118 38.5795 350.98 38.5412 350.903 38.5028L351.287 37.1733C351.653 37.267 351.977 37.3011 352.258 37.2756C352.54 37.25 352.789 37.1243 353.006 36.8984C353.228 36.6768 353.43 36.3168 353.613 35.8182L353.895 35.0511L350.264 25.1818H351.9L354.611 33.0057H354.713L357.423 25.1818H359.059L354.892 36.4318C354.704 36.9389 354.472 37.3587 354.195 37.6911C353.918 38.0277 353.596 38.277 353.23 38.4389C352.868 38.6009 352.459 38.6818 352.003 38.6818ZM361.285 35.1023C360.969 35.1023 360.699 34.9893 360.473 34.7635C360.247 34.5376 360.134 34.267 360.134 33.9517C360.134 33.6364 360.247 33.3658 360.473 33.1399C360.699 32.9141 360.969 32.8011 361.285 32.8011C361.6 32.8011 361.871 32.9141 362.097 33.1399C362.322 33.3658 362.435 33.6364 362.435 33.9517C362.435 34.1605 362.382 34.3523 362.276 34.527C362.173 34.7017 362.035 34.8423 361.86 34.9489C361.69 35.0511 361.498 35.1023 361.285 35.1023Z" fill="#282F37"/>
</svg>
