<svg width="24" height="64" viewBox="0 0 24 64" fill="none" xmlns="http://www.w3.org/2000/svg">
<g clip-path="url(#clip0_675_108)">
<path d="M12 44C15.8396 44 19.2549 42.1953 21.4513 39.3897H15.1311C14.3152 42.1094 13.8598 44 12 44Z" fill="#C42126"/>
<path d="M11.2884 43.9792C11.2861 43.9792 11.284 43.979 11.2817 43.979C11.284 43.979 11.2863 43.9792 11.2884 43.9792Z" fill="#C42126"/>
<path d="M15.1311 24.6103H21.4514C19.2548 21.8051 15.8395 20 12 20C13.8598 20 14.3152 21.8906 15.1311 24.6103Z" fill="#C42126"/>
<path d="M11.2817 20.0214C11.284 20.0214 11.2861 20.0211 11.2884 20.0211C11.2863 20.021 11.284 20.021 11.2817 20.0214Z" fill="#C42126"/>
<path d="M21.4516 24.6103H15.1311C16.4067 28.8618 16.4067 35.1387 15.1311 39.3896H21.4511C23.0464 37.3524 24.0001 34.7886 24.0001 32.0001C24.0003 29.2118 23.0466 26.6478 21.4516 24.6103Z" fill="#FFC40C"/>
<path d="M12 44C11.7613 44 11.524 43.993 11.2883 43.9793C11.5274 43.9926 11.7651 44 12 44Z" fill="#C42126"/>
<path d="M11.2883 20.021C11.524 20.007 11.7613 20 12 20C11.7651 20 11.5274 20.0078 11.2883 20.021Z" fill="#C42126"/>
<path d="M16.0138 39.3897H2.54907C4.60735 42.019 7.73675 43.7694 11.2816 43.979C11.2839 43.979 11.286 43.9793 11.2883 43.9793C11.524 43.993 11.7612 44 11.9999 44C13.8598 44 15.1977 42.1094 16.0138 39.3897Z" fill="#D32030"/>
<path d="M2.54907 24.6103H16.0138C15.1977 21.8906 13.8598 20 12 20C11.7613 20 11.524 20.007 11.2883 20.021C11.286 20.021 11.284 20.0214 11.2817 20.0214C7.73675 20.2308 4.60735 21.9814 2.54907 24.6103Z" fill="#D32030"/>
<path d="M0 32.0001C0 34.7886 0.95362 37.3524 2.549 39.3896H16.0137C17.2893 35.1385 17.2893 28.8616 16.0137 24.6103H2.549C0.95362 26.6478 0 29.2118 0 32.0001Z" fill="#FFD034"/>
</g>
<defs>
<clipPath id="clip0_675_108">
<rect width="24" height="24" fill="white" transform="translate(0 20)"/>
</clipPath>
</defs>
</svg>
