<svg width="566" height="347" viewBox="0 0 566 347" fill="none" xmlns="http://www.w3.org/2000/svg">
<g clip-path="url(#clip0_39_2323)">
<path d="M240 144C279.765 144 312 111.765 312 72C312 32.2355 279.765 0 240 0C200.235 0 168 32.2355 168 72C168 111.765 200.235 144 240 144Z" fill="#27273D"/>
<path d="M240 144C279.765 144 312 111.765 312 72C312 32.2355 279.765 0 240 0C200.235 0 168 32.2355 168 72C168 111.765 200.235 144 240 144Z" fill="#04A558"/>
<path d="M251.109 143.156C247.433 143.723 243.719 144.005 240 144C200.237 144 168 111.766 168 72.0001C168 32.2341 200.237 5.69966e-05 240 5.69966e-05C243.719 -0.00461114 247.433 0.277475 251.109 0.843807C220.045 5.66443 195.54 30.3357 190.981 61.4841C189.965 68.4579 189.965 75.5422 190.981 82.516C195.54 113.667 220.045 138.339 251.109 143.156Z" fill="#03914A"/>
<path d="M240 33.0469L172.854 72L240 110.953L307.146 72L240 33.0469Z" fill="#FCC13D"/>
<path d="M190.219 72C190.218 75.5191 190.473 79.0336 190.981 82.5159L172.854 72L190.981 61.4841C190.473 64.9664 190.218 68.4809 190.219 72Z" fill="#DDA22C"/>
<path d="M295.212 43.9566C297.741 43.9566 299.791 41.9066 299.791 39.3778C299.791 36.849 297.741 34.7991 295.212 34.7991C292.683 34.7991 290.633 36.849 290.633 39.3778C290.633 41.9066 292.683 43.9566 295.212 43.9566Z" fill="#00B564"/>
<path d="M288.957 35.4206C290.748 35.4206 292.2 33.9688 292.2 32.1778C292.2 30.3869 290.748 28.935 288.957 28.935C287.166 28.935 285.714 30.3869 285.714 32.1778C285.714 33.9688 287.166 35.4206 288.957 35.4206Z" fill="#00B564"/>
<path d="M267.844 72V72.2081C267.816 79.5091 264.893 86.5008 259.716 91.6488C254.539 96.7968 247.53 99.6803 240.229 99.6665C232.928 99.6527 225.931 96.7428 220.773 91.5753C215.616 86.4078 212.719 79.4051 212.719 72.1041C212.719 64.803 215.616 57.8003 220.773 52.6328C225.931 47.4654 232.928 44.5554 240.229 44.5416C247.53 44.5278 254.539 47.4114 259.716 52.5593C264.893 57.7073 267.816 64.699 267.844 72Z" fill="#3E436D"/>
<path d="M267.844 72.2081C267.823 75.6775 267.15 79.1121 265.861 82.3331C260.329 72.3431 251.216 65.1994 238.653 61.0284C229.11 57.8644 220.183 57.3722 216.322 57.3441C217.974 54.6738 220.066 52.3022 222.509 50.3297C228.7 50.8676 234.81 52.1036 240.723 54.0141C252.187 57.7828 261.33 63.9478 267.844 72.2081Z" fill="white"/>
<path d="M220.875 82.6875C221.962 82.6875 222.844 81.8061 222.844 80.7188C222.844 79.6314 221.962 78.75 220.875 78.75C219.788 78.75 218.906 79.6314 218.906 80.7188C218.906 81.8061 219.788 82.6875 220.875 82.6875Z" fill="white"/>
<path d="M230.156 94.2188C231.244 94.2188 232.125 93.3373 232.125 92.25C232.125 91.1627 231.244 90.2812 230.156 90.2812C229.069 90.2812 228.188 91.1627 228.188 92.25C228.188 93.3373 229.069 94.2188 230.156 94.2188Z" fill="white"/>
<path d="M240 89.0634C241.087 89.0634 241.969 88.182 241.969 87.0947C241.969 86.0074 241.087 85.1259 240 85.1259C238.913 85.1259 238.031 86.0074 238.031 87.0947C238.031 88.182 238.913 89.0634 240 89.0634Z" fill="white"/>
<path d="M243.938 96.1875C245.025 96.1875 245.906 95.3061 245.906 94.2188C245.906 93.1314 245.025 92.25 243.938 92.25C242.85 92.25 241.969 93.1314 241.969 94.2188C241.969 95.3061 242.85 96.1875 243.938 96.1875Z" fill="white"/>
<path d="M257.438 86.2509C258.525 86.2509 259.406 85.3695 259.406 84.2822C259.406 83.1949 258.525 82.3134 257.438 82.3134C256.35 82.3134 255.469 83.1949 255.469 84.2822C255.469 85.3695 256.35 86.2509 257.438 86.2509Z" fill="white"/>
<path d="M252.094 92.6269C253.181 92.6269 254.062 91.7454 254.062 90.6581C254.062 89.5708 253.181 88.6894 252.094 88.6894C251.006 88.6894 250.125 89.5708 250.125 90.6581C250.125 91.7454 251.006 92.6269 252.094 92.6269Z" fill="white"/>
<path d="M243.938 73.9688C245.025 73.9688 245.906 73.0873 245.906 72C245.906 70.9127 245.025 70.0312 243.938 70.0312C242.85 70.0312 241.969 70.9127 241.969 72C241.969 73.0873 242.85 73.9688 243.938 73.9688Z" fill="white"/>
<path d="M220.875 66.6562C221.962 66.6562 222.844 65.7748 222.844 64.6875C222.844 63.6002 221.962 62.7188 220.875 62.7188C219.788 62.7188 218.906 63.6002 218.906 64.6875C218.906 65.7748 219.788 66.6562 220.875 66.6562Z" fill="white"/>
<path d="M230.156 84.6562C231.244 84.6562 232.125 83.7748 232.125 82.6875C232.125 81.6002 231.244 80.7188 230.156 80.7188C229.069 80.7188 228.188 81.6002 228.188 82.6875C228.188 83.7748 229.069 84.6562 230.156 84.6562Z" fill="white"/>
</g>
<g clip-path="url(#clip1_39_2323)">
<path d="M96.0038 207.115L87.6016 230.411C95.3572 256.005 95.3572 293.994 87.6016 319.59L96.0038 342.884C123.964 332.997 144 306.345 144 274.998C144 243.655 123.964 217.002 96.0038 207.115Z" fill="#E61E25"/>
<path d="M96.0039 230.411V207.115C88.4951 204.459 80.419 203.001 71.9994 203.001C83.1018 203.001 67.7078 240.628 96.0039 230.411Z" fill="#E4E4E4"/>
<path d="M71.9994 346.999C80.4186 346.999 88.495 345.541 96.0038 342.885V319.591C67.992 316.796 71.9994 346.999 71.9994 346.999Z" fill="#E4E4E4"/>
<path d="M0 274.998C0 306.45 20.1719 333.173 48.277 342.98L48.277 207.022C20.1719 216.829 0 243.551 0 274.998Z" fill="#3757A6"/>
<path d="M96.0039 230.411V319.59C103.76 293.994 103.76 256.005 96.0039 230.411Z" fill="#EF4F4E"/>
<path d="M96.0039 319.591V230.411C91.1019 214.229 83.1018 203.001 71.9994 203.001C63.6847 203.001 55.7075 204.428 48.2771 207.022L48.2771 342.981C55.7075 345.574 63.6847 347 71.9994 347C83.1018 346.999 91.1019 335.771 96.0039 319.591Z" fill="#F3F4F5"/>
</g>
<g clip-path="url(#clip2_39_2323)">
<path d="M408 144C447.765 144 480 111.765 480 72C480 32.2355 447.765 0 408 0C368.235 0 336 32.2355 336 72C336 111.765 368.235 144 408 144Z" fill="#F0F0F0"/>
<path d="M350.884 28.1649C345.228 35.5233 340.964 44.0044 338.48 53.2178H375.937L350.884 28.1649Z" fill="#0052B4"/>
<path d="M477.52 53.2178C475.037 44.0047 470.772 35.5236 465.116 28.1652L440.064 53.2178H477.52Z" fill="#0052B4"/>
<path d="M338.48 90.783C340.964 99.9962 345.228 108.477 350.884 115.835L375.936 90.783H338.48Z" fill="#0052B4"/>
<path d="M451.835 14.884C444.477 9.22838 435.996 4.96378 426.782 2.48035V39.9364L451.835 14.884Z" fill="#0052B4"/>
<path d="M364.165 129.116C371.523 134.772 380.004 139.036 389.218 141.52V104.064L364.165 129.116Z" fill="#0052B4"/>
<path d="M389.217 2.48035C380.004 4.96378 371.523 9.22838 364.165 14.8838L389.217 39.9361V2.48035Z" fill="#0052B4"/>
<path d="M426.783 141.52C435.996 139.036 444.477 134.772 451.835 129.116L426.783 104.064V141.52Z" fill="#0052B4"/>
<path d="M440.064 90.783L465.116 115.836C470.772 108.478 475.037 99.9962 477.52 90.783H440.064Z" fill="#0052B4"/>
<path d="M479.391 62.6088L417.392 62.6088H417.392V0.609469C414.317 0.20925 411.183 0 408 0C404.817 0 401.683 0.20925 398.609 0.609469V62.6082V62.6085H336.609C336.209 65.6828 336 68.8171 336 72C336 75.1835 336.209 78.3172 336.609 81.3912H398.608H398.609V143.391C401.683 143.791 404.817 144 408 144C411.183 144 414.317 143.791 417.391 143.391V81.3918V81.3915H479.391C479.791 78.3172 480 75.1835 480 72C480 68.8171 479.791 65.6828 479.391 62.6088Z" fill="#D80027"/>
<path d="M426.783 90.783L458.912 122.912C460.389 121.435 461.799 119.89 463.144 118.29L435.637 90.7827H426.783V90.783Z" fill="#D80027"/>
<path d="M389.217 90.783H389.217L357.088 122.912C358.565 124.389 360.11 125.799 361.71 127.144L389.217 99.6365V90.783Z" fill="#D80027"/>
<path d="M389.217 53.2178V53.2173L357.088 21.0881C355.611 22.5653 354.201 24.1096 352.856 25.7105L380.363 53.2176L389.217 53.2178Z" fill="#D80027"/>
<path d="M426.783 53.2178L458.912 21.0884C457.435 19.6107 455.89 18.2011 454.29 16.8564L426.783 44.3635V53.2178Z" fill="#D80027"/>
</g>
<g clip-path="url(#clip3_39_2323)">
<path d="M240 347C263.037 347 283.529 336.172 296.708 319.338H258.786C253.891 335.657 251.159 347 240 347Z" fill="#C42126"/>
<path d="M235.73 346.876C235.716 346.876 235.704 346.874 235.69 346.874C235.704 346.874 235.717 346.876 235.73 346.876Z" fill="#C42126"/>
<path d="M258.786 230.662H296.708C283.529 213.831 263.037 203 240 203C251.159 203 253.891 214.343 258.786 230.662Z" fill="#C42126"/>
<path d="M235.69 203.129C235.704 203.129 235.716 203.126 235.73 203.126C235.717 203.126 235.704 203.126 235.69 203.129Z" fill="#C42126"/>
<path d="M296.709 230.662H258.786C266.44 256.171 266.44 293.832 258.786 319.338H296.706C306.278 307.114 312 291.731 312 275C312.001 258.271 306.279 242.887 296.709 230.662Z" fill="#FFC40C"/>
<path d="M240 347C238.567 347 237.144 346.958 235.73 346.876C237.164 346.956 238.59 347 240 347Z" fill="#C42126"/>
<path d="M235.73 203.126C237.144 203.042 238.567 203 240 203C238.59 203 237.164 203.047 235.73 203.126Z" fill="#C42126"/>
<path d="M264.082 319.338H183.294C195.644 335.114 214.42 345.616 235.69 346.874C235.703 346.874 235.716 346.876 235.729 346.876C237.144 346.958 238.567 347 240 347C251.159 347 259.186 335.657 264.082 319.338Z" fill="#D32030"/>
<path d="M183.294 230.662H264.083C259.186 214.343 251.159 203 240 203C238.567 203 237.144 203.042 235.73 203.126C235.716 203.126 235.704 203.128 235.69 203.128C214.42 204.385 195.644 214.888 183.294 230.662Z" fill="#D32030"/>
<path d="M168 275C168 291.731 173.722 307.114 183.294 319.338H264.083C271.736 293.831 271.736 256.169 264.083 230.662H183.294C173.722 242.887 168 258.271 168 275Z" fill="#FFD034"/>
</g>
<g clip-path="url(#clip4_39_2323)">
<path d="M576 144C615.765 144 648 111.765 648 72C648 32.2355 615.765 0 576 0C536.235 0 504 32.2355 504 72C504 111.765 536.235 144 576 144Z" fill="#27273D"/>
<path d="M648 72V72.0253L504 72.0253V72C504 32.2369 536.237 0 576 0C615.763 0 648 32.2369 648 72Z" fill="white"/>
<path d="M648 72V72.0253C648 111.777 615.755 144 576 144C536.245 144 504.014 111.777 504 72.0253V72L648 72Z" fill="#DB1B1B"/>
<path d="M586.547 0.767817C551.784 5.86969 525.094 35.82 525.094 72V72.0253H504V72C504 32.2369 536.237 4.88887e-06 576 4.88887e-06C579.53 -0.00129173 583.055 0.255329 586.547 0.767817Z" fill="#DDDDDD"/>
<path d="M586.547 143.232C583.055 143.745 579.53 144.001 576 144C536.245 144 504.014 111.777 504 72.0253V72H525.094V72.0253C525.108 108.194 551.793 138.13 586.547 143.232Z" fill="#AA1818"/>
</g>
<g clip-path="url(#clip5_39_2323)">
<path d="M408.003 347C447.766 347 480 314.766 480 275.003C480 235.24 447.766 203.006 408.003 203.006C368.24 203.006 336.006 235.24 336.006 275.003C336.006 314.766 368.24 347 408.003 347Z" fill="white"/>
<path d="M408.003 347C447.766 347 480 314.766 480 275.003C480 235.24 447.766 203.006 408.003 203.006C368.24 203.006 336.006 235.24 336.006 275.003C336.006 314.766 368.24 347 408.003 347Z" fill="white"/>
<path d="M475.885 250.994C475.877 250.971 475.87 250.952 475.862 250.931C466.647 224.949 442.945 205.833 414.466 203.295C425.485 209.337 428.703 228.477 431.523 250.994C433.449 266.374 433.461 283.321 431.56 298.721C428.764 321.36 425.532 340.635 414.466 346.701C442.996 344.159 466.732 324.977 475.911 298.925C475.935 298.856 475.956 298.788 475.98 298.721C478.572 291.292 479.999 283.313 479.999 275.001C479.999 266.579 478.54 258.503 475.885 250.994Z" fill="#EFECEC"/>
<path d="M435.23 250.994C432.412 228.477 425.486 209.337 414.466 203.296C412.334 203.107 410.179 203 407.998 203C376.677 203 350.041 223.004 340.137 250.931C340.129 250.952 340.122 250.971 340.114 250.994C337.459 258.503 336 266.579 336 275.001C336 283.314 337.427 291.291 340.019 298.721C340.043 298.788 340.064 298.856 340.088 298.925C349.953 326.925 376.626 346.999 407.998 346.999C410.179 346.999 412.334 346.892 414.466 346.701C425.532 340.635 432.471 321.359 435.266 298.72C437.168 283.32 437.156 266.374 435.23 250.994Z" fill="#F3F2F2"/>
<path d="M408.003 301.527C422.652 301.527 434.527 289.652 434.527 275.003C434.527 260.354 422.652 248.479 408.003 248.479C393.354 248.479 381.479 260.354 381.479 275.003C381.479 289.652 393.354 301.527 408.003 301.527Z" fill="#EC1C24"/>
</g>
<g clip-path="url(#clip6_39_2323)">
<path d="M576 347C615.765 347 648 314.765 648 275C648 235.235 615.765 203 576 203C536.235 203 504 235.235 504 275C504 314.765 536.235 347 576 347Z" fill="#F0F0F0"/>
<path d="M504 275C504 303.545 520.612 328.21 544.696 339.856V210.144C520.612 221.79 504 246.455 504 275Z" fill="#6DA544"/>
<path d="M557.217 275C557.217 285.373 565.627 293.783 576 293.783C586.373 293.783 594.783 285.373 594.783 275V268.739H557.217V275Z" fill="#6DA544"/>
<path d="M601.043 262.478H582.261C582.261 259.021 579.457 256.217 576 256.217C572.542 256.217 569.739 259.021 569.739 262.478H550.956C550.956 265.936 553.968 268.739 557.425 268.739H557.217C557.217 272.197 560.02 275 563.478 275C563.478 278.458 566.281 281.261 569.739 281.261H582.261C585.719 281.261 588.521 278.458 588.521 275C591.979 275 594.782 272.197 594.782 268.739H594.574C598.032 268.739 601.043 265.936 601.043 262.478Z" fill="#FF9811"/>
</g>
<defs>
<clipPath id="clip0_39_2323">
<rect width="144" height="144" fill="white" transform="translate(168)"/>
</clipPath>
<clipPath id="clip1_39_2323">
<rect width="144" height="144" fill="white" transform="translate(0 203)"/>
</clipPath>
<clipPath id="clip2_39_2323">
<rect width="144" height="144" fill="white" transform="translate(336)"/>
</clipPath>
<clipPath id="clip3_39_2323">
<rect width="144" height="144" fill="white" transform="translate(168 203)"/>
</clipPath>
<clipPath id="clip4_39_2323">
<rect width="144" height="144" fill="white" transform="translate(504)"/>
</clipPath>
<clipPath id="clip5_39_2323">
<rect width="144" height="144" fill="white" transform="translate(336 203)"/>
</clipPath>
<clipPath id="clip6_39_2323">
<rect width="144" height="144" fill="white" transform="translate(504 203)"/>
</clipPath>
</defs>
</svg>
