<svg width="176" height="56" viewBox="0 0 176 56" fill="none" xmlns="http://www.w3.org/2000/svg">
<g filter="url(#filter0_d_185_1623)">
<rect x="4" y="2" width="168" height="48" rx="24" fill="#0052A5" shape-rendering="crispEdges"/>
<path d="M30.4769 31H28.3675L32.2081 20.0909H34.6477L38.4936 31H36.3842L33.4705 22.3281H33.3853L30.4769 31ZM30.5462 26.7227H36.299V28.31H30.5462V26.7227ZM39.5953 34.0682V22.8182H41.4916V24.1712H41.6034C41.7029 23.9723 41.8431 23.761 42.0242 23.5373C42.2053 23.31 42.4504 23.1165 42.7593 22.9567C43.0683 22.7933 43.4624 22.7116 43.9419 22.7116C44.574 22.7116 45.1439 22.8732 45.6517 23.1964C46.1631 23.516 46.5679 23.9901 46.8662 24.6186C47.1681 25.2436 47.319 26.0107 47.319 26.9197C47.319 27.8182 47.1716 28.5817 46.8769 29.2102C46.5821 29.8388 46.1808 30.3182 45.673 30.6484C45.1652 30.9787 44.5899 31.1438 43.9472 31.1438C43.4784 31.1438 43.0896 31.0657 42.7806 30.9094C42.4717 30.7532 42.2231 30.565 42.0349 30.3448C41.8502 30.1211 41.7064 29.9098 41.6034 29.7109H41.5235V34.0682H39.5953ZM41.4862 26.9091C41.4862 27.4382 41.5608 27.9016 41.71 28.2994C41.8627 28.6971 42.0811 29.0078 42.3651 29.2315C42.6528 29.4517 43.0008 29.5618 43.4092 29.5618C43.8353 29.5618 44.1922 29.4482 44.4798 29.2209C44.7675 28.9901 44.9841 28.6758 45.1297 28.2781C45.2789 27.8768 45.3534 27.4205 45.3534 26.9091C45.3534 26.4013 45.2806 25.9503 45.135 25.5561C44.9894 25.1619 44.7728 24.853 44.4852 24.6293C44.1975 24.4055 43.8389 24.2937 43.4092 24.2937C42.9972 24.2937 42.6475 24.402 42.3598 24.6186C42.0722 24.8352 41.8538 25.1388 41.7046 25.5295C41.559 25.9201 41.4862 26.38 41.4862 26.9091ZM48.7203 34.0682V22.8182H50.6166V24.1712H50.7284C50.8279 23.9723 50.9681 23.761 51.1492 23.5373C51.3303 23.31 51.5754 23.1165 51.8843 22.9567C52.1933 22.7933 52.5874 22.7116 53.0669 22.7116C53.699 22.7116 54.2689 22.8732 54.7767 23.1964C55.2881 23.516 55.6929 23.9901 55.9912 24.6186C56.2931 25.2436 56.444 26.0107 56.444 26.9197C56.444 27.8182 56.2966 28.5817 56.0019 29.2102C55.7071 29.8388 55.3058 30.3182 54.798 30.6484C54.2902 30.9787 53.7149 31.1438 53.0722 31.1438C52.6034 31.1438 52.2146 31.0657 51.9056 30.9094C51.5967 30.7532 51.3481 30.565 51.1599 30.3448C50.9752 30.1211 50.8314 29.9098 50.7284 29.7109H50.6485V34.0682H48.7203ZM50.6112 26.9091C50.6112 27.4382 50.6858 27.9016 50.835 28.2994C50.9877 28.6971 51.2061 29.0078 51.4901 29.2315C51.7778 29.4517 52.1258 29.5618 52.5342 29.5618C52.9603 29.5618 53.3172 29.4482 53.6048 29.2209C53.8925 28.9901 54.1091 28.6758 54.2547 28.2781C54.4039 27.8768 54.4784 27.4205 54.4784 26.9091C54.4784 26.4013 54.4056 25.9503 54.26 25.5561C54.1144 25.1619 53.8978 24.853 53.6102 24.6293C53.3225 24.4055 52.9639 24.2937 52.5342 24.2937C52.1222 24.2937 51.7725 24.402 51.4848 24.6186C51.1972 24.8352 50.9788 25.1388 50.8296 25.5295C50.684 25.9201 50.6112 26.38 50.6112 26.9091ZM59.7735 20.0909V31H57.8453V20.0909H59.7735ZM62.7049 34.0682C62.4421 34.0682 62.1989 34.0469 61.9751 34.0043C61.755 33.9652 61.5792 33.919 61.4478 33.8658L61.8952 32.3636C62.1758 32.4453 62.4261 32.4844 62.6463 32.4808C62.8665 32.4773 63.06 32.408 63.2269 32.2731C63.3974 32.1417 63.5412 31.9215 63.6584 31.6126L63.8235 31.1705L60.8565 22.8182H62.902L64.7876 28.9972H64.8729L66.7638 22.8182H68.8146L65.5387 31.9908C65.386 32.424 65.1836 32.7951 64.9315 33.104C64.6793 33.4165 64.3704 33.6545 64.0046 33.8178C63.6424 33.9847 63.2092 34.0682 62.7049 34.0682ZM77.5138 22.8182V24.3097H72.6772V22.8182H77.5138ZM73.8864 31V22.0458C73.8864 21.4954 74 21.0373 74.2273 20.6715C74.4581 20.3058 74.767 20.0323 75.1541 19.8512C75.5412 19.6701 75.9709 19.5795 76.4432 19.5795C76.777 19.5795 77.0735 19.6062 77.3327 19.6594C77.592 19.7127 77.7837 19.7607 77.908 19.8033L77.5245 21.2947C77.4428 21.2699 77.3398 21.245 77.2156 21.2202C77.0913 21.1918 76.9528 21.1776 76.8001 21.1776C76.4414 21.1776 76.1875 21.2646 76.0384 21.4386C75.8928 21.609 75.82 21.854 75.82 22.1737V31H73.8864ZM82.0352 31.1598C81.2362 31.1598 80.5438 30.984 79.9578 30.6325C79.3719 30.2809 78.9173 29.7891 78.5942 29.157C78.2746 28.5249 78.1148 27.7862 78.1148 26.9411C78.1148 26.0959 78.2746 25.3555 78.5942 24.7198C78.9173 24.0842 79.3719 23.5906 79.9578 23.239C80.5438 22.8874 81.2362 22.7116 82.0352 22.7116C82.8343 22.7116 83.5267 22.8874 84.1127 23.239C84.6986 23.5906 85.1514 24.0842 85.471 24.7198C85.7941 25.3555 85.9557 26.0959 85.9557 26.9411C85.9557 27.7862 85.7941 28.5249 85.471 29.157C85.1514 29.7891 84.6986 30.2809 84.1127 30.6325C83.5267 30.984 82.8343 31.1598 82.0352 31.1598ZM82.0459 29.6151C82.4791 29.6151 82.8414 29.4961 83.1325 29.2582C83.4237 29.0167 83.6404 28.6935 83.7824 28.2887C83.928 27.8839 84.0008 27.4329 84.0008 26.9357C84.0008 26.435 83.928 25.9822 83.7824 25.5774C83.6404 25.169 83.4237 24.8441 83.1325 24.6026C82.8414 24.3612 82.4791 24.2404 82.0459 24.2404C81.602 24.2404 81.2327 24.3612 80.9379 24.6026C80.6468 24.8441 80.4284 25.169 80.2828 25.5774C80.1407 25.9822 80.0697 26.435 80.0697 26.9357C80.0697 27.4329 80.1407 27.8839 80.2828 28.2887C80.4284 28.6935 80.6468 29.0167 80.9379 29.2582C81.2327 29.4961 81.602 29.6151 82.0459 29.6151ZM87.3423 31V22.8182H89.212V24.1818H89.2972C89.4464 23.7095 89.7021 23.3455 90.0643 23.0898C90.43 22.8306 90.8473 22.701 91.3161 22.701C91.4226 22.701 91.5415 22.7063 91.6729 22.717C91.8079 22.7241 91.9197 22.7365 92.0085 22.7543V24.5281C91.9268 24.4996 91.7972 24.4748 91.6197 24.4535C91.4457 24.4286 91.277 24.4162 91.1136 24.4162C90.7621 24.4162 90.446 24.4925 90.1655 24.6452C89.8885 24.7944 89.6701 25.0021 89.5103 25.2685C89.3505 25.5348 89.2706 25.842 89.2706 26.19V31H87.3423ZM98.5717 20.0909V31H96.5955V20.0909H98.5717ZM104.158 31H100.462V20.0909H104.233C105.316 20.0909 106.247 20.3093 107.024 20.7461C107.805 21.1793 108.406 21.8026 108.825 22.6158C109.244 23.429 109.453 24.402 109.453 25.5348C109.453 26.6712 109.242 27.6477 108.819 28.4645C108.4 29.2812 107.795 29.908 107.003 30.3448C106.215 30.7816 105.266 31 104.158 31ZM102.438 29.2901H104.063C104.823 29.2901 105.456 29.1516 105.964 28.8746C106.472 28.5941 106.854 28.1768 107.109 27.6229C107.365 27.0653 107.493 26.3693 107.493 25.5348C107.493 24.7003 107.365 24.0078 107.109 23.4574C106.854 22.9034 106.476 22.4897 105.975 22.2163C105.478 21.9393 104.86 21.8008 104.121 21.8008H102.438V29.2901ZM111.081 31V20.0909H115.172C116.01 20.0909 116.713 20.2472 117.281 20.5597C117.853 20.8722 118.284 21.3018 118.576 21.8487C118.87 22.392 119.018 23.0099 119.018 23.7024C119.018 24.402 118.87 25.0234 118.576 25.5668C118.281 26.1101 117.846 26.538 117.271 26.8505C116.695 27.1594 115.987 27.3139 115.145 27.3139H112.434V25.6893H114.879C115.369 25.6893 115.77 25.604 116.083 25.4336C116.395 25.2631 116.626 25.0288 116.775 24.7305C116.928 24.4322 117.004 24.0895 117.004 23.7024C117.004 23.3153 116.928 22.9744 116.775 22.6797C116.626 22.3849 116.393 22.1559 116.077 21.9925C115.765 21.8256 115.362 21.7422 114.868 21.7422H113.057V31H111.081Z" fill="white"/>
<path d="M131.333 26.0002H144.667M144.667 26.0002C140.985 26.0002 138 23.0154 138 19.3335M144.667 26.0002C140.985 26.0002 138 28.9849 138 32.6668" stroke="white" stroke-width="2" stroke-linecap="square"/>
</g>
<defs>
<filter id="filter0_d_185_1623" x="0" y="0" width="176" height="56" filterUnits="userSpaceOnUse" color-interpolation-filters="sRGB">
<feFlood flood-opacity="0" result="BackgroundImageFix"/>
<feColorMatrix in="SourceAlpha" type="matrix" values="0 0 0 0 0 0 0 0 0 0 0 0 0 0 0 0 0 0 127 0" result="hardAlpha"/>
<feOffset dy="2"/>
<feGaussianBlur stdDeviation="2"/>
<feComposite in2="hardAlpha" operator="out"/>
<feColorMatrix type="matrix" values="0 0 0 0 0.82176 0 0 0 0 0.836369 0 0 0 0 0.851157 0 0 0 1 0"/>
<feBlend mode="normal" in2="BackgroundImageFix" result="effect1_dropShadow_185_1623"/>
<feBlend mode="normal" in="SourceGraphic" in2="effect1_dropShadow_185_1623" result="shape"/>
</filter>
</defs>
</svg>
