<svg width="91" height="48" viewBox="0 0 91 48" fill="none" xmlns="http://www.w3.org/2000/svg">
<rect x="1" y="1" width="89" height="46" rx="23" stroke="#0052A5" stroke-width="2"/>
<path d="M25.076 29V18.0909H27.0522V27.3434H31.8569V29H25.076ZM36.8058 29.1598C36.0067 29.1598 35.3143 28.984 34.7283 28.6325C34.1424 28.2809 33.6879 27.7891 33.3647 27.157C33.0451 26.5249 32.8853 25.7862 32.8853 24.9411C32.8853 24.0959 33.0451 23.3555 33.3647 22.7198C33.6879 22.0842 34.1424 21.5906 34.7283 21.239C35.3143 20.8874 36.0067 20.7116 36.8058 20.7116C37.6048 20.7116 38.2972 20.8874 38.8832 21.239C39.4691 21.5906 39.9219 22.0842 40.2415 22.7198C40.5646 23.3555 40.7262 24.0959 40.7262 24.9411C40.7262 25.7862 40.5646 26.5249 40.2415 27.157C39.9219 27.7891 39.4691 28.2809 38.8832 28.6325C38.2972 28.984 37.6048 29.1598 36.8058 29.1598ZM36.8164 27.6151C37.2496 27.6151 37.6119 27.4961 37.9031 27.2582C38.1942 27.0167 38.4109 26.6935 38.5529 26.2887C38.6985 25.8839 38.7713 25.4329 38.7713 24.9357C38.7713 24.435 38.6985 23.9822 38.5529 23.5774C38.4109 23.169 38.1942 22.8441 37.9031 22.6026C37.6119 22.3612 37.2496 22.2404 36.8164 22.2404C36.3725 22.2404 36.0032 22.3612 35.7085 22.6026C35.4173 22.8441 35.1989 23.169 35.0533 23.5774C34.9112 23.9822 34.8402 24.435 34.8402 24.9357C34.8402 25.4329 34.9112 25.8839 35.0533 26.2887C35.1989 26.6935 35.4173 27.0167 35.7085 27.2582C36.0032 27.4961 36.3725 27.6151 36.8164 27.6151ZM45.6711 32.2386C44.9786 32.2386 44.3838 32.1445 43.8866 31.9563C43.3895 31.7717 42.99 31.5231 42.6881 31.2106C42.3863 30.8981 42.1768 30.5518 42.0596 30.1719L43.7961 29.7511C43.8742 29.9109 43.9878 30.0689 44.137 30.2251C44.2861 30.3849 44.4868 30.5163 44.7389 30.6193C44.9946 30.7259 45.316 30.7791 45.703 30.7791C46.2499 30.7791 46.7027 30.646 47.0613 30.3796C47.42 30.1168 47.5993 29.6836 47.5993 29.0799V27.5298H47.5035C47.404 27.7287 47.2584 27.9329 47.0667 28.1424C46.8785 28.3519 46.6281 28.5277 46.3156 28.6697C46.0067 28.8118 45.6178 28.8828 45.1491 28.8828C44.5205 28.8828 43.9506 28.7354 43.4392 28.4407C42.9314 28.1424 42.5265 27.6985 42.2247 27.109C41.9264 26.516 41.7773 25.7738 41.7773 24.8825C41.7773 23.984 41.9264 23.2259 42.2247 22.608C42.5265 21.9865 42.9331 21.516 43.4445 21.1964C43.9559 20.8732 44.5258 20.7116 45.1544 20.7116C45.6338 20.7116 46.028 20.7933 46.3369 20.9567C46.6494 21.1165 46.898 21.31 47.0827 21.5373C47.2673 21.761 47.4076 21.9723 47.5035 22.1712H47.61V20.8182H49.5116V29.1332C49.5116 29.8327 49.3447 30.4116 49.0109 30.8697C48.6771 31.3278 48.2208 31.6705 47.642 31.8977C47.0631 32.125 46.4062 32.2386 45.6711 32.2386ZM45.6871 27.37C46.0954 27.37 46.4434 27.2706 46.7311 27.0717C47.0187 26.8729 47.2371 26.587 47.3863 26.2141C47.5354 25.8413 47.61 25.3938 47.61 24.8718C47.61 24.3569 47.5354 23.9059 47.3863 23.5188C47.2407 23.1317 47.0241 22.8317 46.7364 22.6186C46.4523 22.402 46.1025 22.2937 45.6871 22.2937C45.2574 22.2937 44.8987 22.4055 44.6111 22.6293C44.3234 22.853 44.1068 23.1602 43.9612 23.5508C43.8156 23.9379 43.7428 24.3782 43.7428 24.8718C43.7428 25.3725 43.8156 25.8111 43.9612 26.1875C44.1104 26.5604 44.3287 26.8516 44.6164 27.0611C44.9076 27.267 45.2645 27.37 45.6871 27.37ZM54.7085 29V20.8182H56.6368V29H54.7085ZM55.678 19.657C55.3726 19.657 55.1098 19.5558 54.8896 19.3533C54.6695 19.1474 54.5594 18.9006 54.5594 18.6129C54.5594 18.3217 54.6695 18.0749 54.8896 17.8725C55.1098 17.6665 55.3726 17.5636 55.678 17.5636C55.9869 17.5636 56.2497 17.6665 56.4664 17.8725C56.6865 18.0749 56.7966 18.3217 56.7966 18.6129C56.7966 18.9006 56.6865 19.1474 56.4664 19.3533C56.2497 19.5558 55.9869 19.657 55.678 19.657ZM60.2979 24.206V29H58.3697V20.8182H60.2127V22.2085H60.3086C60.4968 21.7504 60.7969 21.3864 61.2088 21.1165C61.6243 20.8466 62.1374 20.7116 62.7482 20.7116C63.3129 20.7116 63.8047 20.8324 64.2237 21.0739C64.6463 21.3153 64.973 21.6651 65.2038 22.1232C65.4382 22.5813 65.5536 23.1371 65.5501 23.7905V29H63.6218V24.0888C63.6218 23.5419 63.4798 23.114 63.1957 22.805C62.9151 22.4961 62.5263 22.3416 62.0291 22.3416C61.6918 22.3416 61.3917 22.4162 61.1289 22.5653C60.8697 22.7109 60.6655 22.9222 60.5163 23.1992C60.3707 23.4762 60.2979 23.8118 60.2979 24.206Z" fill="#0052A5"/>
</svg>
