<svg width="190" height="48" viewBox="0 0 190 48" fill="none" xmlns="http://www.w3.org/2000/svg">
<g clip-path="url(#clip0_226_3753)">
<path d="M22 2C9.88548 2 0 11.887 0 24C0 36.1146 9.88702 46 22 46C34.1145 46 44 36.113 44 24C44 11.8854 34.113 2 22 2ZM22 43.4219C11.2907 43.4219 2.57812 34.7093 2.57812 24C2.57812 13.2907 11.2907 4.57812 22 4.57812C32.7093 4.57812 41.4219 13.2907 41.4219 24C41.4219 34.7093 32.7093 43.4219 22 43.4219Z" fill="#0052A5"/>
<path d="M22 7.15625C12.7757 7.15625 5.15625 14.7212 5.15625 24C5.15625 33.2408 12.74 40.8438 22 40.8438C31.2512 40.8438 38.8438 33.2519 38.8438 24C38.8438 14.711 31.2147 7.15625 22 7.15625ZM22 9.73438C27.4819 9.73438 32.2506 12.8429 34.6383 17.3894C31.4516 16.2049 26.9536 14.9766 22 14.9766C17.0464 14.9766 12.5484 16.2049 9.36169 17.3894C11.7494 12.8429 16.5181 9.73438 22 9.73438ZM8.47473 28.5385L9.56338 28.6941C13.5523 29.2639 16.7362 32.4478 17.3059 36.4367L17.4615 37.5254C13.2399 36.1049 9.89502 32.76 8.47473 28.5385ZM26.5385 37.5253L26.6941 36.4366C27.2638 32.4477 30.4477 29.2639 34.4366 28.6941L35.5253 28.5385C34.105 32.76 30.7601 36.1049 26.5385 37.5253ZM34.0721 26.1418C28.9561 26.8726 24.8726 30.9561 24.1418 36.072L23.8454 38.1465C23.2411 38.2248 22.6253 38.2656 22 38.2656C21.3747 38.2656 20.7589 38.2248 20.1546 38.1464L19.8582 36.072C19.1274 30.956 15.0439 26.8726 9.92793 26.1418L7.85357 25.8455C7.7752 25.2412 7.73438 24.6253 7.73438 24C7.73438 22.8541 7.8711 21.7396 8.12745 20.6712C10.9911 19.4045 16.1721 17.5547 22 17.5547C27.8279 17.5547 33.0089 19.4045 35.8725 20.6712C36.1289 21.7396 36.2656 22.8541 36.2656 24C36.2656 24.6253 36.2248 25.2412 36.1464 25.8455L34.0721 26.1418Z" fill="#0052A5"/>
<path d="M22 20.1328C19.8676 20.1328 18.1328 21.8676 18.1328 24C18.1328 26.1324 19.8676 27.8672 22 27.8672C24.1324 27.8672 25.8672 26.1324 25.8672 24C25.8672 21.8676 24.1324 20.1328 22 20.1328Z" fill="#0052A5"/>
</g>
<path d="M60.3636 20H55.4347V5.45455H60.4631C61.9072 5.45455 63.1477 5.74574 64.1847 6.32812C65.2263 6.90578 66.0265 7.73674 66.5852 8.82102C67.1439 9.9053 67.4233 11.2027 67.4233 12.7131C67.4233 14.2282 67.1416 15.5303 66.5781 16.6193C66.0194 17.7083 65.2121 18.544 64.1562 19.1264C63.1051 19.7088 61.8409 20 60.3636 20ZM58.0696 17.7202H60.2358C61.2491 17.7202 62.0942 17.5355 62.7713 17.1662C63.4484 16.7921 63.9574 16.2358 64.2983 15.4972C64.6392 14.7538 64.8097 13.8258 64.8097 12.7131C64.8097 11.6004 64.6392 10.6771 64.2983 9.94318C63.9574 9.20455 63.4531 8.65294 62.7855 8.28835C62.1226 7.91903 61.2988 7.73438 60.3139 7.73438H58.0696V17.7202ZM69.5632 20V9.09091H72.0561V10.9091H72.1697C72.3686 10.2794 72.7095 9.79403 73.1925 9.45312C73.6802 9.10748 74.2365 8.93466 74.8615 8.93466C75.0036 8.93466 75.1622 8.94176 75.3374 8.95597C75.5173 8.96544 75.6664 8.98201 75.7848 9.00568V11.3707C75.6759 11.3329 75.5031 11.2997 75.2663 11.2713C75.0343 11.2382 74.8094 11.2216 74.5916 11.2216C74.1229 11.2216 73.7015 11.3234 73.3274 11.527C72.9581 11.7259 72.6669 12.0028 72.4538 12.358C72.2408 12.7131 72.1342 13.1226 72.1342 13.5866V20H69.5632ZM77.2429 20V9.09091H79.8139V20H77.2429ZM78.5355 7.54261C78.1283 7.54261 77.7779 7.40767 77.4844 7.13778C77.1908 6.86316 77.044 6.53409 77.044 6.15057C77.044 5.76231 77.1908 5.43324 77.4844 5.16335C77.7779 4.88873 78.1283 4.75142 78.5355 4.75142C78.9474 4.75142 79.2978 4.88873 79.5866 5.16335C79.8802 5.43324 80.027 5.76231 80.027 6.15057C80.027 6.53409 79.8802 6.86316 79.5866 7.13778C79.2978 7.40767 78.9474 7.54261 78.5355 7.54261ZM91.9521 9.09091L88.0671 20H85.2262L81.3413 9.09091H84.0827L86.5898 17.1946H86.7035L89.2177 9.09091H91.9521ZM97.9396 20.2131C96.8459 20.2131 95.9013 19.9858 95.1058 19.5312C94.3151 19.072 93.7067 18.4233 93.2805 17.5852C92.8544 16.7424 92.6413 15.7505 92.6413 14.6094C92.6413 13.4872 92.8544 12.5024 93.2805 11.6548C93.7114 10.8026 94.3127 10.1397 95.0845 9.66619C95.8563 9.18797 96.763 8.94886 97.8047 8.94886C98.477 8.94886 99.1115 9.05777 99.7081 9.27557C100.309 9.48864 100.84 9.82008 101.299 10.2699C101.763 10.7197 102.128 11.2926 102.393 11.9886C102.658 12.6799 102.79 13.5038 102.79 14.4602V15.2486H93.8487V13.5156H100.326C100.321 13.0232 100.215 12.5852 100.006 12.2017C99.7981 11.8134 99.5069 11.508 99.1328 11.2855C98.7635 11.063 98.3326 10.9517 97.8402 10.9517C97.3146 10.9517 96.853 11.0795 96.4553 11.3352C96.0575 11.5862 95.7474 11.9176 95.5249 12.3295C95.3071 12.7367 95.1958 13.1842 95.1911 13.6719V15.1847C95.1911 15.8191 95.3071 16.3636 95.5391 16.8182C95.7711 17.268 96.0954 17.6136 96.5121 17.8551C96.9287 18.0919 97.4164 18.2102 97.9751 18.2102C98.3492 18.2102 98.6877 18.1581 98.9908 18.054C99.2938 17.9451 99.5566 17.7865 99.7791 17.5781C100.002 17.3698 100.17 17.1117 100.283 16.804L102.684 17.0739C102.532 17.7083 102.244 18.2623 101.817 18.7358C101.396 19.2045 100.856 19.5691 100.198 19.8295C99.54 20.0852 98.7872 20.2131 97.9396 20.2131ZM58.0696 27.4545V42H55.4347V27.4545H58.0696ZM63.1303 35.608V42H60.5593V31.0909H63.0167V32.9446H63.1445C63.3955 32.3338 63.7956 31.8485 64.3448 31.4886C64.8988 31.1288 65.583 30.9489 66.3974 30.9489C67.1502 30.9489 67.806 31.1098 68.3647 31.4318C68.9281 31.7538 69.3638 32.2202 69.6715 32.831C69.984 33.4418 70.1379 34.1828 70.1332 35.054V42H67.5621V35.4517C67.5621 34.7225 67.3728 34.152 66.994 33.7401C66.6199 33.3281 66.1014 33.1222 65.4386 33.1222C64.9888 33.1222 64.5887 33.2216 64.2383 33.4205C63.8926 33.6146 63.6204 33.8963 63.4215 34.2656C63.2274 34.6349 63.1303 35.0824 63.1303 35.608ZM77.9442 31.0909V33.0795H71.6729V31.0909H77.9442ZM73.2212 28.4773H75.7923V38.7188C75.7923 39.0644 75.8443 39.3295 75.9485 39.5142C76.0574 39.6941 76.1995 39.8172 76.3746 39.8835C76.5498 39.9498 76.744 39.983 76.957 39.983C77.118 39.983 77.2648 39.9711 77.3974 39.9474C77.5347 39.9238 77.6388 39.9025 77.7099 39.8835L78.1431 41.8935C78.0058 41.9408 77.8093 41.9929 77.5536 42.0497C77.3027 42.1065 76.9949 42.1397 76.6303 42.1491C75.9864 42.1681 75.4064 42.071 74.8903 41.858C74.3742 41.6402 73.9646 41.304 73.6616 40.8494C73.3633 40.3949 73.2165 39.8267 73.2212 39.1449V28.4773ZM84.5568 42.2131C83.4631 42.2131 82.5185 41.9858 81.723 41.5312C80.9323 41.072 80.3239 40.4233 79.8977 39.5852C79.4716 38.7424 79.2585 37.7505 79.2585 36.6094C79.2585 35.4872 79.4716 34.5024 79.8977 33.6548C80.3286 32.8026 80.9299 32.1397 81.7017 31.6662C82.4735 31.188 83.3802 30.9489 84.4219 30.9489C85.0942 30.9489 85.7287 31.0578 86.3253 31.2756C86.9266 31.4886 87.4569 31.8201 87.9162 32.2699C88.3802 32.7197 88.7448 33.2926 89.0099 33.9886C89.2751 34.6799 89.4077 35.5038 89.4077 36.4602V37.2486H80.4659V35.5156H86.9432C86.9384 35.0232 86.8319 34.5852 86.6236 34.2017C86.4152 33.8134 86.1241 33.508 85.75 33.2855C85.3807 33.063 84.9498 32.9517 84.4574 32.9517C83.9318 32.9517 83.4702 33.0795 83.0724 33.3352C82.6747 33.5862 82.3646 33.9176 82.142 34.3295C81.9242 34.7367 81.813 35.1842 81.8082 35.6719V37.1847C81.8082 37.8191 81.9242 38.3636 82.1562 38.8182C82.3883 39.268 82.7126 39.6136 83.1293 39.8551C83.5459 40.0919 84.0336 40.2102 84.5923 40.2102C84.9664 40.2102 85.3049 40.1581 85.608 40.054C85.911 39.9451 86.1738 39.7865 86.3963 39.5781C86.6188 39.3698 86.7869 39.1117 86.9006 38.804L89.3011 39.0739C89.1496 39.7083 88.8608 40.2623 88.4347 40.7358C88.0133 41.2045 87.4735 41.5691 86.8153 41.8295C86.1572 42.0852 85.4044 42.2131 84.5568 42.2131ZM91.3327 42V31.0909H93.8256V32.9091H93.9393C94.1381 32.2794 94.479 31.794 94.962 31.4531C95.4497 31.1075 96.006 30.9347 96.631 30.9347C96.7731 30.9347 96.9317 30.9418 97.1069 30.956C97.2868 30.9654 97.436 30.982 97.5543 31.0057V33.3707C97.4454 33.3329 97.2726 33.2997 97.0359 33.2713C96.8039 33.2382 96.579 33.2216 96.3612 33.2216C95.8924 33.2216 95.471 33.3234 95.0969 33.527C94.7276 33.7259 94.4364 34.0028 94.2234 34.358C94.0103 34.7131 93.9038 35.1226 93.9038 35.5866V42H91.3327ZM101.583 35.608V42H99.0124V31.0909H101.47V32.9446H101.598C101.849 32.3338 102.249 31.8485 102.798 31.4886C103.352 31.1288 104.036 30.9489 104.85 30.9489C105.603 30.9489 106.259 31.1098 106.818 31.4318C107.381 31.7538 107.817 32.2202 108.125 32.831C108.437 33.4418 108.591 34.1828 108.586 35.054V42H106.015V35.4517C106.015 34.7225 105.826 34.152 105.447 33.7401C105.073 33.3281 104.555 33.1222 103.892 33.1222C103.442 33.1222 103.042 33.2216 102.691 33.4205C102.346 33.6146 102.074 33.8963 101.875 34.2656C101.681 34.6349 101.583 35.0824 101.583 35.608ZM114.089 42.2202C113.398 42.2202 112.775 42.0971 112.221 41.8509C111.672 41.5999 111.236 41.2306 110.914 40.7429C110.597 40.2552 110.439 39.6539 110.439 38.9389C110.439 38.3234 110.552 37.8144 110.779 37.4119C111.007 37.0095 111.317 36.6875 111.71 36.446C112.103 36.2045 112.546 36.0223 113.038 35.8991C113.535 35.7713 114.049 35.679 114.579 35.6222C115.218 35.5559 115.737 35.4967 116.135 35.4446C116.532 35.3878 116.821 35.3026 117.001 35.1889C117.186 35.0705 117.278 34.8883 117.278 34.642V34.5994C117.278 34.0644 117.119 33.6501 116.802 33.3565C116.485 33.063 116.028 32.9162 115.431 32.9162C114.802 32.9162 114.302 33.0535 113.933 33.3281C113.568 33.6027 113.322 33.9271 113.194 34.3011L110.794 33.9602C110.983 33.2973 111.296 32.7434 111.731 32.2983C112.167 31.8485 112.699 31.5123 113.329 31.2898C113.959 31.0625 114.655 30.9489 115.417 30.9489C115.943 30.9489 116.466 31.0104 116.987 31.1335C117.508 31.2566 117.984 31.4602 118.414 31.7443C118.845 32.0237 119.191 32.4048 119.451 32.8878C119.717 33.3707 119.849 33.9744 119.849 34.6989V42H117.377V40.5014H117.292C117.136 40.8045 116.916 41.0885 116.632 41.3537C116.352 41.6141 116 41.8248 115.574 41.9858C115.152 42.142 114.657 42.2202 114.089 42.2202ZM114.757 40.331C115.273 40.331 115.72 40.2292 116.099 40.0256C116.478 39.8172 116.769 39.5426 116.973 39.2017C117.181 38.8608 117.285 38.4891 117.285 38.0866V36.8011C117.205 36.8674 117.067 36.929 116.873 36.9858C116.684 37.0426 116.471 37.0923 116.234 37.1349C115.997 37.1776 115.763 37.2154 115.531 37.2486C115.299 37.2817 115.098 37.3101 114.927 37.3338C114.544 37.3859 114.2 37.4711 113.897 37.5895C113.594 37.7079 113.355 37.8736 113.18 38.0866C113.005 38.295 112.917 38.5649 112.917 38.8963C112.917 39.3698 113.09 39.7273 113.436 39.9688C113.781 40.2102 114.222 40.331 114.757 40.331ZM127.632 31.0909V33.0795H121.36V31.0909H127.632ZM122.909 28.4773H125.48V38.7188C125.48 39.0644 125.532 39.3295 125.636 39.5142C125.745 39.6941 125.887 39.8172 126.062 39.8835C126.237 39.9498 126.431 39.983 126.645 39.983C126.806 39.983 126.952 39.9711 127.085 39.9474C127.222 39.9238 127.326 39.9025 127.397 39.8835L127.831 41.8935C127.693 41.9408 127.497 41.9929 127.241 42.0497C126.99 42.1065 126.682 42.1397 126.318 42.1491C125.674 42.1681 125.094 42.071 124.578 41.858C124.062 41.6402 123.652 41.304 123.349 40.8494C123.051 40.3949 122.904 39.8267 122.909 39.1449V28.4773ZM129.532 42V31.0909H132.103V42H129.532ZM130.825 29.5426C130.417 29.5426 130.067 29.4077 129.773 29.1378C129.48 28.8632 129.333 28.5341 129.333 28.1506C129.333 27.7623 129.48 27.4332 129.773 27.1634C130.067 26.8887 130.417 26.7514 130.825 26.7514C131.237 26.7514 131.587 26.8887 131.876 27.1634C132.169 27.4332 132.316 27.7623 132.316 28.1506C132.316 28.5341 132.169 28.8632 131.876 29.1378C131.587 29.4077 131.237 29.5426 130.825 29.5426ZM139.255 42.2131C138.19 42.2131 137.267 41.9787 136.485 41.5099C135.704 41.0412 135.098 40.3854 134.667 39.5426C134.241 38.6998 134.028 37.715 134.028 36.5881C134.028 35.4612 134.241 34.474 134.667 33.6264C135.098 32.7789 135.704 32.1207 136.485 31.652C137.267 31.1832 138.19 30.9489 139.255 30.9489C140.321 30.9489 141.244 31.1832 142.025 31.652C142.806 32.1207 143.41 32.7789 143.836 33.6264C144.267 34.474 144.483 35.4612 144.483 36.5881C144.483 37.715 144.267 38.6998 143.836 39.5426C143.41 40.3854 142.806 41.0412 142.025 41.5099C141.244 41.9787 140.321 42.2131 139.255 42.2131ZM139.27 40.1534C139.847 40.1534 140.33 39.9948 140.718 39.6776C141.107 39.3556 141.395 38.9247 141.585 38.3849C141.779 37.8452 141.876 37.2438 141.876 36.581C141.876 35.9134 141.779 35.3097 141.585 34.7699C141.395 34.2254 141.107 33.7921 140.718 33.4702C140.33 33.1482 139.847 32.9872 139.27 32.9872C138.678 32.9872 138.185 33.1482 137.792 33.4702C137.404 33.7921 137.113 34.2254 136.919 34.7699C136.729 35.3097 136.635 35.9134 136.635 36.581C136.635 37.2438 136.729 37.8452 136.919 38.3849C137.113 38.9247 137.404 39.3556 137.792 39.6776C138.185 39.9948 138.678 40.1534 139.27 40.1534ZM148.986 35.608V42H146.415V31.0909H148.872V32.9446H149C149.251 32.3338 149.651 31.8485 150.2 31.4886C150.754 31.1288 151.438 30.9489 152.253 30.9489C153.006 30.9489 153.661 31.1098 154.22 31.4318C154.784 31.7538 155.219 32.2202 155.527 32.831C155.839 33.4418 155.993 34.1828 155.989 35.054V42H153.418V35.4517C153.418 34.7225 153.228 34.152 152.849 33.7401C152.475 33.3281 151.957 33.1222 151.294 33.1222C150.844 33.1222 150.444 33.2216 150.094 33.4205C149.748 33.6146 149.476 33.8963 149.277 34.2656C149.083 34.6349 148.986 35.0824 148.986 35.608ZM161.491 42.2202C160.8 42.2202 160.178 42.0971 159.624 41.8509C159.074 41.5999 158.639 41.2306 158.317 40.7429C158 40.2552 157.841 39.6539 157.841 38.9389C157.841 38.3234 157.955 37.8144 158.182 37.4119C158.409 37.0095 158.719 36.6875 159.112 36.446C159.505 36.2045 159.948 36.0223 160.44 35.8991C160.938 35.7713 161.451 35.679 161.982 35.6222C162.621 35.5559 163.139 35.4967 163.537 35.4446C163.935 35.3878 164.223 35.3026 164.403 35.1889C164.588 35.0705 164.68 34.8883 164.68 34.642V34.5994C164.68 34.0644 164.522 33.6501 164.205 33.3565C163.887 33.063 163.43 32.9162 162.834 32.9162C162.204 32.9162 161.705 33.0535 161.335 33.3281C160.971 33.6027 160.724 33.9271 160.597 34.3011L158.196 33.9602C158.385 33.2973 158.698 32.7434 159.134 32.2983C159.569 31.8485 160.102 31.5123 160.732 31.2898C161.361 31.0625 162.057 30.9489 162.82 30.9489C163.345 30.9489 163.868 31.0104 164.389 31.1335C164.91 31.2566 165.386 31.4602 165.817 31.7443C166.248 32.0237 166.593 32.4048 166.854 32.8878C167.119 33.3707 167.251 33.9744 167.251 34.6989V42H164.78V40.5014H164.695C164.538 40.8045 164.318 41.0885 164.034 41.3537C163.755 41.6141 163.402 41.8248 162.976 41.9858C162.554 42.142 162.06 42.2202 161.491 42.2202ZM162.159 40.331C162.675 40.331 163.123 40.2292 163.501 40.0256C163.88 39.8172 164.171 39.5426 164.375 39.2017C164.583 38.8608 164.688 38.4891 164.688 38.0866V36.8011C164.607 36.8674 164.47 36.929 164.276 36.9858C164.086 37.0426 163.873 37.0923 163.636 37.1349C163.4 37.1776 163.165 37.2154 162.933 37.2486C162.701 37.2817 162.5 37.3101 162.33 37.3338C161.946 37.3859 161.603 37.4711 161.3 37.5895C160.997 37.7079 160.758 37.8736 160.582 38.0866C160.407 38.295 160.32 38.5649 160.32 38.8963C160.32 39.3698 160.492 39.7273 160.838 39.9688C161.184 40.2102 161.624 40.331 162.159 40.331ZM172.158 27.4545V42H169.587V27.4545H172.158ZM177.123 27.4545V42H174.551V27.4545H177.123ZM181.114 46.0909C180.764 46.0909 180.44 46.0625 180.141 46.0057C179.848 45.9536 179.613 45.892 179.438 45.821L180.035 43.8182C180.409 43.9271 180.743 43.9792 181.036 43.9744C181.33 43.9697 181.588 43.8774 181.81 43.6974C182.038 43.5223 182.229 43.2287 182.386 42.8168L182.606 42.2273L178.65 31.0909H181.377L183.891 39.3295H184.005L186.526 31.0909H189.261L184.893 43.321C184.689 43.8987 184.419 44.3935 184.083 44.8054C183.747 45.2221 183.335 45.5393 182.847 45.7571C182.364 45.9796 181.787 46.0909 181.114 46.0909Z" fill="#282F37"/>
<defs>
<clipPath id="clip0_226_3753">
<rect width="44" height="44" fill="white" transform="translate(0 2)"/>
</clipPath>
</defs>
</svg>
