<svg width="240" height="164" viewBox="0 0 240 164" fill="none" xmlns="http://www.w3.org/2000/svg">
<path d="M10.1023 9.90909C10.1023 11.0062 9.89678 11.9458 9.4858 12.728C9.07813 13.5069 8.52131 14.1035 7.81534 14.5178C7.11269 14.9321 6.31558 15.1392 5.42401 15.1392C4.53243 15.1392 3.73366 14.9321 3.0277 14.5178C2.32505 14.1001 1.76823 13.5019 1.35724 12.723C0.949574 11.9408 0.745739 11.0028 0.745739 9.90909C0.745739 8.81203 0.949574 7.87405 1.35724 7.09517C1.76823 6.31297 2.32505 5.71473 3.0277 5.30043C3.73366 4.88613 4.53243 4.67898 5.42401 4.67898C6.31558 4.67898 7.11269 4.88613 7.81534 5.30043C8.52131 5.71473 9.07813 6.31297 9.4858 7.09517C9.89678 7.87405 10.1023 8.81203 10.1023 9.90909ZM8.24787 9.90909C8.24787 9.13684 8.12689 8.48556 7.88494 7.95526C7.64631 7.42164 7.31487 7.01894 6.89062 6.74716C6.46638 6.47206 5.97751 6.33452 5.42401 6.33452C4.8705 6.33452 4.38163 6.47206 3.95739 6.74716C3.53314 7.01894 3.20005 7.42164 2.9581 7.95526C2.71946 8.48556 2.60014 9.13684 2.60014 9.90909C2.60014 10.6813 2.71946 11.3343 2.9581 11.8679C3.20005 12.3982 3.53314 12.8009 3.95739 13.076C4.38163 13.3478 4.8705 13.4837 5.42401 13.4837C5.97751 13.4837 6.46638 13.3478 6.89062 13.076C7.31487 12.8009 7.64631 12.3982 7.88494 11.8679C8.12689 11.3343 8.24787 10.6813 8.24787 9.90909ZM18.5875 7.36364L15.8681 15H13.8794L11.16 7.36364H13.079L14.834 13.0362H14.9135L16.6735 7.36364H18.5875ZM22.9538 15.1491C22.1882 15.1491 21.527 14.9901 20.9702 14.6719C20.4167 14.3504 19.9908 13.8963 19.6925 13.3097C19.3942 12.7197 19.245 12.0253 19.245 11.2266C19.245 10.4411 19.3942 9.75166 19.6925 9.15838C19.9941 8.56179 20.415 8.09777 20.9553 7.76633C21.4955 7.43158 22.1302 7.2642 22.8594 7.2642C23.33 7.2642 23.7741 7.34044 24.1918 7.4929C24.6127 7.64205 24.9839 7.87405 25.3054 8.18892C25.6302 8.50379 25.8854 8.90483 26.071 9.39205C26.2566 9.87595 26.3494 10.4527 26.3494 11.1222V11.674H20.0902V10.4609H24.6243C24.621 10.1162 24.5464 9.80966 24.4006 9.54119C24.2547 9.26941 24.0509 9.05563 23.7891 8.89986C23.5305 8.74408 23.2289 8.66619 22.8842 8.66619C22.5163 8.66619 22.1932 8.75568 21.9148 8.93466C21.6364 9.11032 21.4193 9.34233 21.2635 9.63068C21.111 9.91572 21.0331 10.2289 21.0298 10.5703V11.6293C21.0298 12.0734 21.111 12.4545 21.2734 12.7727C21.4358 13.0876 21.6629 13.3295 21.9545 13.4986C22.2462 13.6643 22.5876 13.7472 22.9787 13.7472C23.2405 13.7472 23.4775 13.7107 23.6896 13.6378C23.9018 13.5616 24.0857 13.4505 24.2415 13.3047C24.3973 13.1589 24.5149 12.9782 24.5945 12.7628L26.2749 12.9517C26.1688 13.3958 25.9666 13.7836 25.6683 14.1151C25.3733 14.4432 24.9955 14.6984 24.5348 14.8807C24.0741 15.0597 23.5471 15.1491 22.9538 15.1491ZM27.872 15V7.36364H29.617V8.63636H29.6966C29.8358 8.19555 30.0744 7.85582 30.4125 7.61719C30.7538 7.37524 31.1433 7.25426 31.5808 7.25426C31.6802 7.25426 31.7913 7.25923 31.9139 7.26918C32.0398 7.2758 32.1442 7.2874 32.2271 7.30398V8.95952C32.1509 8.933 32.0299 8.9098 31.8642 8.88991C31.7018 8.86671 31.5443 8.85511 31.3919 8.85511C31.0637 8.85511 30.7688 8.92637 30.5069 9.06889C30.2484 9.2081 30.0446 9.40199 29.8954 9.65057C29.7463 9.89915 29.6717 10.1858 29.6717 10.5107V15H27.872ZM35.4835 15.1541C34.9996 15.1541 34.5637 15.0679 34.176 14.8956C33.7915 14.7199 33.4866 14.4614 33.2612 14.12C33.0391 13.7786 32.9281 13.3577 32.9281 12.8572C32.9281 12.4264 33.0076 12.0701 33.1667 11.7884C33.3258 11.5066 33.5429 11.2812 33.818 11.1122C34.0931 10.9432 34.403 10.8156 34.7477 10.7294C35.0957 10.6399 35.4553 10.5753 35.8265 10.5355C36.274 10.4891 36.6369 10.4477 36.9153 10.4112C37.1937 10.3714 37.3959 10.3118 37.5218 10.2322C37.6511 10.1494 37.7157 10.0218 37.7157 9.84943V9.8196C37.7157 9.44508 37.6047 9.15507 37.3826 8.94957C37.1606 8.74408 36.8407 8.64134 36.4231 8.64134C35.9823 8.64134 35.6326 8.73745 35.3741 8.92969C35.1189 9.12192 34.9466 9.34896 34.8571 9.6108L33.1767 9.37216C33.3092 8.90814 33.528 8.52036 33.8329 8.20881C34.1378 7.89394 34.5107 7.65862 34.9515 7.50284C35.3923 7.34375 35.8796 7.2642 36.4132 7.2642C36.7811 7.2642 37.1473 7.30729 37.5119 7.39347C37.8765 7.47964 38.2096 7.62216 38.5112 7.82102C38.8128 8.01657 39.0547 8.28338 39.237 8.62145C39.4226 8.95952 39.5154 9.3821 39.5154 9.8892V15H37.7853V13.951H37.7257C37.6163 14.1631 37.4622 14.362 37.2633 14.5476C37.0678 14.7299 36.8208 14.8774 36.5225 14.9901C36.2276 15.0994 35.8812 15.1541 35.4835 15.1541ZM35.9508 13.8317C36.3121 13.8317 36.6253 13.7604 36.8904 13.6179C37.1556 13.4721 37.3594 13.2798 37.502 13.0412C37.6478 12.8026 37.7207 12.5424 37.7207 12.2607V11.3608C37.6644 11.4072 37.5682 11.4503 37.4324 11.4901C37.2998 11.5298 37.1506 11.5646 36.9849 11.5945C36.8192 11.6243 36.6551 11.6508 36.4927 11.674C36.3303 11.6972 36.1895 11.7171 36.0701 11.7337C35.8017 11.7701 35.5614 11.8298 35.3493 11.9126C35.1371 11.9955 34.9698 12.1115 34.8471 12.2607C34.7245 12.4065 34.6632 12.5954 34.6632 12.8274C34.6632 13.1589 34.7842 13.4091 35.0261 13.5781C35.2681 13.7472 35.5763 13.8317 35.9508 13.8317ZM43.1248 4.81818V15H41.3251V4.81818H43.1248ZM46.7752 4.81818V15H44.9755V4.81818H46.7752ZM58.1341 9.3821L56.4934 9.56108C56.447 9.39536 56.3658 9.23958 56.2498 9.09375C56.1371 8.94792 55.9847 8.83026 55.7924 8.74077C55.6002 8.65128 55.3649 8.60653 55.0865 8.60653C54.7119 8.60653 54.3971 8.68774 54.1419 8.85014C53.89 9.01255 53.7657 9.22301 53.769 9.48153C53.7657 9.7036 53.8469 9.88423 54.0126 10.0234C54.1816 10.1626 54.46 10.277 54.8478 10.3665L56.1504 10.6449C56.8729 10.8007 57.4099 11.0476 57.7612 11.3857C58.1158 11.7237 58.2948 12.1662 58.2981 12.7131C58.2948 13.1937 58.1539 13.6179 57.8755 13.9858C57.6004 14.3504 57.2176 14.6354 56.7271 14.8409C56.2366 15.0464 55.6731 15.1491 55.0368 15.1491C54.1021 15.1491 53.3497 14.9536 52.7797 14.5625C52.2096 14.1681 51.8699 13.6196 51.7605 12.9169L53.5154 12.7479C53.595 13.0926 53.764 13.3527 54.0225 13.5284C54.2811 13.7041 54.6175 13.7919 55.0318 13.7919C55.4593 13.7919 55.8024 13.7041 56.0609 13.5284C56.3227 13.3527 56.4537 13.1357 56.4537 12.8771C56.4537 12.6584 56.3691 12.4777 56.2001 12.3352C56.0344 12.1927 55.7759 12.0833 55.4245 12.0071L54.122 11.7337C53.3895 11.5812 52.8476 11.3243 52.4963 10.9631C52.1449 10.5985 51.9709 10.1378 51.9743 9.58097C51.9709 9.11032 52.0985 8.70265 52.3571 8.35795C52.6189 8.00994 52.9818 7.74148 53.4458 7.55256C53.9132 7.36032 54.4518 7.2642 55.0616 7.2642C55.9565 7.2642 56.6608 7.45478 57.1745 7.83594C57.6916 8.21709 58.0114 8.73248 58.1341 9.3821ZM63.5953 7.36364V8.75568H59.2054V7.36364H63.5953ZM60.2892 5.53409H62.089V12.7031C62.089 12.9451 62.1254 13.1307 62.1983 13.2599C62.2746 13.3859 62.374 13.4721 62.4966 13.5185C62.6193 13.5649 62.7551 13.5881 62.9043 13.5881C63.017 13.5881 63.1197 13.5798 63.2125 13.5632C63.3087 13.5466 63.3816 13.5317 63.4313 13.5185L63.7346 14.9254C63.6384 14.9586 63.5009 14.995 63.3219 15.0348C63.1462 15.0746 62.9308 15.0978 62.6756 15.1044C62.2248 15.1177 61.8188 15.0497 61.4576 14.9006C61.0963 14.7481 60.8096 14.5128 60.5975 14.1946C60.3887 13.8764 60.2859 13.4787 60.2892 13.0014V5.53409ZM67.2979 15.1541C66.814 15.1541 66.3782 15.0679 65.9904 14.8956C65.6059 14.7199 65.301 14.4614 65.0756 14.12C64.8536 13.7786 64.7425 13.3577 64.7425 12.8572C64.7425 12.4264 64.8221 12.0701 64.9812 11.7884C65.1403 11.5066 65.3574 11.2812 65.6325 11.1122C65.9076 10.9432 66.2174 10.8156 66.5621 10.7294C66.9102 10.6399 67.2698 10.5753 67.641 10.5355C68.0884 10.4891 68.4513 10.4477 68.7298 10.4112C69.0082 10.3714 69.2103 10.3118 69.3363 10.2322C69.4656 10.1494 69.5302 10.0218 69.5302 9.84943V9.8196C69.5302 9.44508 69.4192 9.15507 69.1971 8.94957C68.975 8.74408 68.6552 8.64134 68.2376 8.64134C67.7968 8.64134 67.4471 8.73745 67.1886 8.92969C66.9334 9.12192 66.761 9.34896 66.6715 9.6108L64.9911 9.37216C65.1237 8.90814 65.3424 8.52036 65.6474 8.20881C65.9523 7.89394 66.3252 7.65862 66.766 7.50284C67.2068 7.34375 67.694 7.2642 68.2276 7.2642C68.5955 7.2642 68.9618 7.30729 69.3263 7.39347C69.6909 7.47964 70.024 7.62216 70.3256 7.82102C70.6272 8.01657 70.8692 8.28338 71.0515 8.62145C71.2371 8.95952 71.3299 9.3821 71.3299 9.8892V15H69.5998V13.951H69.5401C69.4308 14.1631 69.2766 14.362 69.0778 14.5476C68.8822 14.7299 68.6353 14.8774 68.337 14.9901C68.042 15.0994 67.6957 15.1541 67.2979 15.1541ZM67.7653 13.8317C68.1265 13.8317 68.4397 13.7604 68.7049 13.6179C68.9701 13.4721 69.1739 13.2798 69.3164 13.0412C69.4622 12.8026 69.5352 12.5424 69.5352 12.2607V11.3608C69.4788 11.4072 69.3827 11.4503 69.2468 11.4901C69.1142 11.5298 68.9651 11.5646 68.7994 11.5945C68.6336 11.6243 68.4696 11.6508 68.3072 11.674C68.1448 11.6972 68.0039 11.7171 67.8846 11.7337C67.6161 11.7701 67.3758 11.8298 67.1637 11.9126C66.9516 11.9955 66.7842 12.1115 66.6616 12.2607C66.5389 12.4065 66.4776 12.5954 66.4776 12.8274C66.4776 13.1589 66.5986 13.4091 66.8406 13.5781C67.0825 13.7472 67.3907 13.8317 67.7653 13.8317ZM76.9528 7.36364V8.75568H72.5629V7.36364H76.9528ZM73.6467 5.53409H75.4464V12.7031C75.4464 12.9451 75.4828 13.1307 75.5558 13.2599C75.632 13.3859 75.7314 13.4721 75.854 13.5185C75.9767 13.5649 76.1126 13.5881 76.2617 13.5881C76.3744 13.5881 76.4772 13.5798 76.57 13.5632C76.6661 13.5466 76.739 13.5317 76.7887 13.5185L77.092 14.9254C76.9959 14.9586 76.8583 14.995 76.6793 15.0348C76.5037 15.0746 76.2882 15.0978 76.033 15.1044C75.5823 15.1177 75.1763 15.0497 74.815 14.9006C74.4537 14.7481 74.167 14.5128 73.9549 14.1946C73.7461 13.8764 73.6433 13.4787 73.6467 13.0014V5.53409ZM83.3251 11.7884V7.36364H85.1248V15H83.3798V13.6428H83.3002C83.1279 14.0703 82.8445 14.42 82.4501 14.6918C82.059 14.9635 81.5768 15.0994 81.0034 15.0994C80.5029 15.0994 80.0604 14.9884 79.676 14.7663C79.2948 14.541 78.9965 14.2145 78.7811 13.7869C78.5656 13.3561 78.4579 12.8357 78.4579 12.2259V7.36364H80.2576V11.9474C80.2576 12.4313 80.3902 12.8158 80.6554 13.1009C80.9205 13.3859 81.2685 13.5284 81.6994 13.5284C81.9645 13.5284 82.2214 13.4638 82.47 13.3345C82.7186 13.2053 82.9224 13.013 83.0815 12.7578C83.2439 12.4993 83.3251 12.1761 83.3251 11.7884ZM93.011 9.3821L91.3704 9.56108C91.324 9.39536 91.2428 9.23958 91.1268 9.09375C91.0141 8.94792 90.8616 8.83026 90.6694 8.74077C90.4772 8.65128 90.2418 8.60653 89.9634 8.60653C89.5889 8.60653 89.274 8.68774 89.0188 8.85014C88.7669 9.01255 88.6426 9.22301 88.646 9.48153C88.6426 9.7036 88.7238 9.88423 88.8896 10.0234C89.0586 10.1626 89.337 10.277 89.7248 10.3665L91.0273 10.6449C91.7499 10.8007 92.2868 11.0476 92.6381 11.3857C92.9928 11.7237 93.1718 12.1662 93.1751 12.7131C93.1718 13.1937 93.0309 13.6179 92.7525 13.9858C92.4774 14.3504 92.0946 14.6354 91.604 14.8409C91.1135 15.0464 90.5501 15.1491 89.9137 15.1491C88.979 15.1491 88.2267 14.9536 87.6566 14.5625C87.0865 14.1681 86.7468 13.6196 86.6374 12.9169L88.3924 12.7479C88.4719 13.0926 88.641 13.3527 88.8995 13.5284C89.158 13.7041 89.4944 13.7919 89.9087 13.7919C90.3363 13.7919 90.6793 13.7041 90.9379 13.5284C91.1997 13.3527 91.3306 13.1357 91.3306 12.8771C91.3306 12.6584 91.2461 12.4777 91.0771 12.3352C90.9113 12.1927 90.6528 12.0833 90.3015 12.0071L88.9989 11.7337C88.2665 11.5812 87.7246 11.3243 87.3732 10.9631C87.0219 10.5985 86.8479 10.1378 86.8512 9.58097C86.8479 9.11032 86.9755 8.70265 87.234 8.35795C87.4959 8.00994 87.8588 7.74148 88.3228 7.55256C88.7901 7.36032 89.3287 7.2642 89.9386 7.2642C90.8335 7.2642 91.5378 7.45478 92.0515 7.83594C92.5685 8.21709 92.8884 8.73248 93.011 9.3821Z" fill="#282F37"/>
<path d="M3.75 40H1.05682V31.2727H3.86932C4.71591 31.2727 5.44034 31.4474 6.04261 31.7969C6.64489 32.1435 7.10653 32.642 7.42756 33.2926C7.74858 33.9403 7.90909 34.7159 7.90909 35.6193C7.90909 36.5284 7.74716 37.3111 7.4233 37.9673C7.09943 38.6207 6.62784 39.1236 6.00852 39.4759C5.3892 39.8253 4.63636 40 3.75 40ZM2.11364 39.0625H3.68182C4.40341 39.0625 5.00142 38.9233 5.47585 38.6449C5.95028 38.3665 6.30398 37.9702 6.53693 37.456C6.76989 36.9418 6.88636 36.3295 6.88636 35.6193C6.88636 34.9148 6.77131 34.3082 6.54119 33.7997C6.31108 33.2884 5.96733 32.8963 5.50994 32.6236C5.05256 32.348 4.48295 32.2102 3.80114 32.2102H2.11364V39.0625ZM12.2045 40.1364C11.6136 40.1364 11.0952 39.9957 10.6491 39.7145C10.206 39.4332 9.85938 39.0398 9.60938 38.5341C9.36222 38.0284 9.23864 37.4375 9.23864 36.7614C9.23864 36.0795 9.36222 35.4844 9.60938 34.9759C9.85938 34.4673 10.206 34.0724 10.6491 33.7912C11.0952 33.5099 11.6136 33.3693 12.2045 33.3693C12.7955 33.3693 13.3125 33.5099 13.7557 33.7912C14.2017 34.0724 14.5483 34.4673 14.7955 34.9759C15.0455 35.4844 15.1705 36.0795 15.1705 36.7614C15.1705 37.4375 15.0455 38.0284 14.7955 38.5341C14.5483 39.0398 14.2017 39.4332 13.7557 39.7145C13.3125 39.9957 12.7955 40.1364 12.2045 40.1364ZM12.2045 39.233C12.6534 39.233 13.0227 39.1179 13.3125 38.8878C13.6023 38.6577 13.8168 38.3551 13.956 37.9801C14.0952 37.6051 14.1648 37.1989 14.1648 36.7614C14.1648 36.3239 14.0952 35.9162 13.956 35.5384C13.8168 35.1605 13.6023 34.8551 13.3125 34.6222C13.0227 34.3892 12.6534 34.2727 12.2045 34.2727C11.7557 34.2727 11.3864 34.3892 11.0966 34.6222C10.8068 34.8551 10.5923 35.1605 10.4531 35.5384C10.3139 35.9162 10.2443 36.3239 10.2443 36.7614C10.2443 37.1989 10.3139 37.6051 10.4531 37.9801C10.5923 38.3551 10.8068 38.6577 11.0966 38.8878C11.3864 39.1179 11.7557 39.233 12.2045 39.233ZM19.3647 40.1364C18.7511 40.1364 18.2227 39.9915 17.7795 39.7017C17.3363 39.4119 16.9954 39.0128 16.7567 38.5043C16.5181 37.9957 16.3988 37.4148 16.3988 36.7614C16.3988 36.0966 16.521 35.5099 16.7653 35.0014C17.0124 34.4901 17.3562 34.0909 17.7965 33.804C18.2397 33.5142 18.7567 33.3693 19.3477 33.3693C19.8079 33.3693 20.2227 33.4545 20.592 33.625C20.9613 33.7955 21.2638 34.0341 21.4996 34.3409C21.7354 34.6477 21.8817 35.0057 21.9386 35.4148H20.9329C20.8562 35.1165 20.6857 34.8523 20.4215 34.6222C20.1602 34.3892 19.8079 34.2727 19.3647 34.2727C18.9727 34.2727 18.6289 34.375 18.3335 34.5795C18.0408 34.7812 17.8121 35.0668 17.6474 35.4361C17.4854 35.8026 17.4045 36.233 17.4045 36.7273C17.4045 37.233 17.484 37.6733 17.6431 38.0483C17.805 38.4233 18.0323 38.7145 18.3249 38.9219C18.6204 39.1293 18.967 39.233 19.3647 39.233C19.6261 39.233 19.8633 39.1875 20.0763 39.0966C20.2894 39.0057 20.4698 38.875 20.6175 38.7045C20.7653 38.5341 20.8704 38.3295 20.9329 38.0909H21.9386C21.8817 38.4773 21.7411 38.8253 21.5167 39.1349C21.2951 39.4418 21.0011 39.6861 20.6346 39.8679C20.271 40.0469 19.8477 40.1364 19.3647 40.1364ZM27.5337 37.3239V33.4545H28.5394V40H27.5337V38.892H27.4656C27.3121 39.2244 27.0735 39.5071 26.7496 39.7401C26.4258 39.9702 26.0167 40.0852 25.5224 40.0852C25.1133 40.0852 24.7496 39.9957 24.4315 39.8168C24.1133 39.6349 23.8633 39.3622 23.6815 38.9986C23.4996 38.6321 23.4087 38.1705 23.4087 37.6136V33.4545H24.4144V37.5455C24.4144 38.0227 24.5479 38.4034 24.815 38.6875C25.0849 38.9716 25.4286 39.1136 25.8462 39.1136C26.0962 39.1136 26.3505 39.0497 26.609 38.9219C26.8704 38.794 27.0891 38.598 27.2653 38.3338C27.4442 38.0696 27.5337 37.733 27.5337 37.3239ZM30.3814 40V33.4545H31.353V34.4773H31.4382C31.5746 34.1278 31.7947 33.8565 32.0987 33.6634C32.4027 33.4673 32.7678 33.3693 33.1939 33.3693C33.6257 33.3693 33.9851 33.4673 34.272 33.6634C34.5618 33.8565 34.7876 34.1278 34.9496 34.4773H35.0178C35.1854 34.1392 35.4368 33.8707 35.772 33.6719C36.1072 33.4702 36.5092 33.3693 36.978 33.3693C37.5632 33.3693 38.0419 33.5526 38.4141 33.919C38.7862 34.2827 38.9723 34.8494 38.9723 35.6193V40H37.9666V35.6193C37.9666 35.1364 37.8345 34.7912 37.5703 34.5838C37.3061 34.3764 36.995 34.2727 36.6371 34.2727C36.1768 34.2727 35.8203 34.4119 35.5675 34.6903C35.3146 34.9659 35.1882 35.3153 35.1882 35.7386V40H34.1655V35.517C34.1655 35.1449 34.0447 34.8452 33.8033 34.6179C33.5618 34.3878 33.2507 34.2727 32.87 34.2727C32.6087 34.2727 32.3643 34.3423 32.1371 34.4815C31.9126 34.6207 31.7308 34.8139 31.5916 35.0611C31.4553 35.3054 31.3871 35.5881 31.3871 35.9091V40H30.3814ZM43.5554 40.1364C42.9247 40.1364 42.3807 39.9972 41.9233 39.7188C41.4688 39.4375 41.1179 39.0455 40.8707 38.5426C40.6264 38.0369 40.5043 37.4489 40.5043 36.7784C40.5043 36.108 40.6264 35.517 40.8707 35.0057C41.1179 34.4915 41.4616 34.0909 41.902 33.804C42.3452 33.5142 42.8622 33.3693 43.4531 33.3693C43.794 33.3693 44.1307 33.4261 44.4631 33.5398C44.7955 33.6534 45.098 33.8381 45.3707 34.0938C45.6435 34.3466 45.8608 34.6818 46.0227 35.0994C46.1847 35.517 46.2656 36.0312 46.2656 36.642V37.0682H41.2202V36.1989H45.2429C45.2429 35.8295 45.169 35.5 45.0213 35.2102C44.8764 34.9205 44.669 34.6918 44.3991 34.5241C44.1321 34.3565 43.8168 34.2727 43.4531 34.2727C43.0526 34.2727 42.706 34.3722 42.4134 34.571C42.1236 34.767 41.9006 35.0227 41.7443 35.3381C41.5881 35.6534 41.5099 35.9915 41.5099 36.3523V36.9318C41.5099 37.4261 41.5952 37.8452 41.7656 38.1889C41.9389 38.5298 42.179 38.7898 42.4858 38.9688C42.7926 39.1449 43.1491 39.233 43.5554 39.233C43.8196 39.233 44.0582 39.196 44.2713 39.1222C44.4872 39.0455 44.6733 38.9318 44.8295 38.7812C44.9858 38.6278 45.1065 38.4375 45.1918 38.2102L46.1634 38.483C46.0611 38.8125 45.8892 39.1023 45.6477 39.3523C45.4063 39.5994 45.108 39.7926 44.7528 39.9318C44.3977 40.0682 43.9986 40.1364 43.5554 40.1364ZM48.8011 36.0625V40H47.7955V33.4545H48.767V34.4773H48.8523C49.0057 34.1449 49.2386 33.8778 49.5511 33.6761C49.8636 33.4716 50.267 33.3693 50.7614 33.3693C51.2045 33.3693 51.5923 33.4602 51.9247 33.642C52.2571 33.821 52.5156 34.0938 52.7003 34.4602C52.8849 34.8239 52.9773 35.2841 52.9773 35.8409V40H51.9716V35.9091C51.9716 35.3949 51.8381 34.9943 51.571 34.7074C51.304 34.4176 50.9375 34.2727 50.4716 34.2727C50.1506 34.2727 49.8636 34.3423 49.6108 34.4815C49.3608 34.6207 49.1634 34.8239 49.0185 35.0909C48.8736 35.358 48.8011 35.6818 48.8011 36.0625ZM57.6616 33.4545V34.3068H54.2695V33.4545H57.6616ZM55.2582 31.8864H56.2638V38.125C56.2638 38.4091 56.305 38.6222 56.3874 38.7642C56.4727 38.9034 56.5806 38.9972 56.7113 39.0455C56.8448 39.0909 56.9854 39.1136 57.1332 39.1136C57.244 39.1136 57.3349 39.108 57.4059 39.0966C57.4769 39.0824 57.5337 39.071 57.5763 39.0625L57.7809 39.9659C57.7127 39.9915 57.6175 40.017 57.4954 40.0426C57.3732 40.071 57.2184 40.0852 57.0309 40.0852C56.7468 40.0852 56.4684 40.0241 56.1957 39.902C55.9258 39.7798 55.7013 39.5938 55.5224 39.3438C55.3462 39.0938 55.2582 38.7784 55.2582 38.3977V31.8864ZM62.6857 40V31.2727H67.9528V32.2102H63.7425V35.1591H67.68V36.0966H63.7425V39.0625H68.021V40H62.6857ZM70.4712 33.4545L72.0394 36.1307L73.6076 33.4545H74.7667L72.6531 36.7273L74.7667 40H73.6076L72.0394 37.4602L70.4712 40H69.3121L71.3917 36.7273L69.3121 33.4545H70.4712ZM76.2017 42.4545V33.4545H77.1733V34.4943H77.2926C77.3665 34.3807 77.4688 34.2358 77.5994 34.0597C77.733 33.8807 77.9233 33.7216 78.1705 33.5824C78.4205 33.4403 78.7585 33.3693 79.1847 33.3693C79.7358 33.3693 80.2216 33.5071 80.642 33.7827C81.0625 34.0582 81.3906 34.4489 81.6264 34.9545C81.8622 35.4602 81.9801 36.0568 81.9801 36.7443C81.9801 37.4375 81.8622 38.0384 81.6264 38.5469C81.3906 39.0526 81.0639 39.4446 80.6463 39.723C80.2287 39.9986 79.7472 40.1364 79.2017 40.1364C78.7813 40.1364 78.4446 40.0668 78.1918 39.9276C77.9389 39.7855 77.7443 39.625 77.608 39.446C77.4716 39.2642 77.3665 39.1136 77.2926 38.9943H77.2074V42.4545H76.2017ZM77.1903 36.7273C77.1903 37.2216 77.2628 37.6577 77.4077 38.0355C77.5526 38.4105 77.7642 38.7045 78.0426 38.9176C78.321 39.1278 78.6619 39.233 79.0653 39.233C79.4858 39.233 79.8366 39.1222 80.1179 38.9006C80.402 38.6761 80.6151 38.375 80.7571 37.9972C80.902 37.6165 80.9744 37.1932 80.9744 36.7273C80.9744 36.267 80.9034 35.8523 80.7614 35.483C80.6222 35.1108 80.4105 34.8168 80.1264 34.6009C79.8452 34.3821 79.4915 34.2727 79.0653 34.2727C78.6563 34.2727 78.3125 34.3764 78.0341 34.5838C77.7557 34.7884 77.5455 35.0753 77.4034 35.4446C77.2614 35.8111 77.1903 36.2386 77.1903 36.7273ZM83.5142 40V33.4545H84.5199V40H83.5142ZM84.0256 32.3636C83.8295 32.3636 83.6605 32.2969 83.5185 32.1634C83.3793 32.0298 83.3097 31.8693 83.3097 31.6818C83.3097 31.4943 83.3793 31.3338 83.5185 31.2003C83.6605 31.0668 83.8295 31 84.0256 31C84.2216 31 84.3892 31.0668 84.5284 31.2003C84.6705 31.3338 84.7415 31.4943 84.7415 31.6818C84.7415 31.8693 84.6705 32.0298 84.5284 32.1634C84.3892 32.2969 84.2216 32.3636 84.0256 32.3636ZM86.3619 40V33.4545H87.3335V34.4432H87.4016C87.521 34.1193 87.7369 33.8565 88.0494 33.6548C88.3619 33.4531 88.7141 33.3523 89.1062 33.3523C89.18 33.3523 89.2724 33.3537 89.3832 33.3565C89.494 33.3594 89.5778 33.3636 89.6346 33.3693V34.392C89.6005 34.3835 89.5224 34.3707 89.4002 34.3537C89.2809 34.3338 89.1545 34.3239 89.021 34.3239C88.7028 34.3239 88.4187 34.3906 88.1687 34.5241C87.9215 34.6548 87.7255 34.8366 87.5806 35.0696C87.4386 35.2997 87.3675 35.5625 87.3675 35.858V40H86.3619ZM91.6737 42.4545C91.5032 42.4545 91.3512 42.4403 91.2177 42.4119C91.0842 42.3864 90.9918 42.3608 90.9407 42.3352L91.1964 41.4489C91.4407 41.5114 91.6566 41.5341 91.8441 41.517C92.0316 41.5 92.1978 41.4162 92.3427 41.2656C92.4904 41.1179 92.6254 40.8778 92.7475 40.5455L92.935 40.0341L90.5146 33.4545H91.6055L93.4123 38.6705H93.4805L95.2873 33.4545H96.3782L93.5998 40.9545C93.4748 41.2926 93.32 41.5724 93.1353 41.794C92.9506 42.0185 92.7362 42.1847 92.4918 42.2926C92.2504 42.4006 91.9776 42.4545 91.6737 42.4545Z" fill="#282F37"/>
<path fill-rule="evenodd" clip-rule="evenodd" d="M232.001 28.8333C228.043 28.8333 224.834 32.0419 224.834 35.9999C224.834 39.958 228.043 43.1666 232.001 43.1666C235.959 43.1666 239.167 39.958 239.167 35.9999C239.167 32.0419 235.959 28.8333 232.001 28.8333ZM232.501 33.3333C232.501 33.0571 232.277 32.8333 232.001 32.8333C231.725 32.8333 231.501 33.0571 231.501 33.3333V36.6666C231.501 36.9427 231.725 37.1666 232.001 37.1666C232.277 37.1666 232.501 36.9427 232.501 36.6666V33.3333ZM232.667 38.6666C232.667 39.0348 232.369 39.3333 232.001 39.3333C231.632 39.3333 231.334 39.0348 231.334 38.6666C231.334 38.2984 231.632 37.9999 232.001 37.9999C232.369 37.9999 232.667 38.2984 232.667 38.6666Z" fill="#DF3232"/>
<path d="M3.75 64H1.05682V55.2727H3.86932C4.71591 55.2727 5.44034 55.4474 6.04261 55.7969C6.64489 56.1435 7.10653 56.642 7.42756 57.2926C7.74858 57.9403 7.90909 58.7159 7.90909 59.6193C7.90909 60.5284 7.74716 61.3111 7.4233 61.9673C7.09943 62.6207 6.62784 63.1236 6.00852 63.4759C5.3892 63.8253 4.63636 64 3.75 64ZM2.11364 63.0625H3.68182C4.40341 63.0625 5.00142 62.9233 5.47585 62.6449C5.95028 62.3665 6.30398 61.9702 6.53693 61.456C6.76989 60.9418 6.88636 60.3295 6.88636 59.6193C6.88636 58.9148 6.77131 58.3082 6.54119 57.7997C6.31108 57.2884 5.96733 56.8963 5.50994 56.6236C5.05256 56.348 4.48295 56.2102 3.80114 56.2102H2.11364V63.0625ZM12.2045 64.1364C11.6136 64.1364 11.0952 63.9957 10.6491 63.7145C10.206 63.4332 9.85938 63.0398 9.60938 62.5341C9.36222 62.0284 9.23864 61.4375 9.23864 60.7614C9.23864 60.0795 9.36222 59.4844 9.60938 58.9759C9.85938 58.4673 10.206 58.0724 10.6491 57.7912C11.0952 57.5099 11.6136 57.3693 12.2045 57.3693C12.7955 57.3693 13.3125 57.5099 13.7557 57.7912C14.2017 58.0724 14.5483 58.4673 14.7955 58.9759C15.0455 59.4844 15.1705 60.0795 15.1705 60.7614C15.1705 61.4375 15.0455 62.0284 14.7955 62.5341C14.5483 63.0398 14.2017 63.4332 13.7557 63.7145C13.3125 63.9957 12.7955 64.1364 12.2045 64.1364ZM12.2045 63.233C12.6534 63.233 13.0227 63.1179 13.3125 62.8878C13.6023 62.6577 13.8168 62.3551 13.956 61.9801C14.0952 61.6051 14.1648 61.1989 14.1648 60.7614C14.1648 60.3239 14.0952 59.9162 13.956 59.5384C13.8168 59.1605 13.6023 58.8551 13.3125 58.6222C13.0227 58.3892 12.6534 58.2727 12.2045 58.2727C11.7557 58.2727 11.3864 58.3892 11.0966 58.6222C10.8068 58.8551 10.5923 59.1605 10.4531 59.5384C10.3139 59.9162 10.2443 60.3239 10.2443 60.7614C10.2443 61.1989 10.3139 61.6051 10.4531 61.9801C10.5923 62.3551 10.8068 62.6577 11.0966 62.8878C11.3864 63.1179 11.7557 63.233 12.2045 63.233ZM19.3647 64.1364C18.7511 64.1364 18.2227 63.9915 17.7795 63.7017C17.3363 63.4119 16.9954 63.0128 16.7567 62.5043C16.5181 61.9957 16.3988 61.4148 16.3988 60.7614C16.3988 60.0966 16.521 59.5099 16.7653 59.0014C17.0124 58.4901 17.3562 58.0909 17.7965 57.804C18.2397 57.5142 18.7567 57.3693 19.3477 57.3693C19.8079 57.3693 20.2227 57.4545 20.592 57.625C20.9613 57.7955 21.2638 58.0341 21.4996 58.3409C21.7354 58.6477 21.8817 59.0057 21.9386 59.4148H20.9329C20.8562 59.1165 20.6857 58.8523 20.4215 58.6222C20.1602 58.3892 19.8079 58.2727 19.3647 58.2727C18.9727 58.2727 18.6289 58.375 18.3335 58.5795C18.0408 58.7812 17.8121 59.0668 17.6474 59.4361C17.4854 59.8026 17.4045 60.233 17.4045 60.7273C17.4045 61.233 17.484 61.6733 17.6431 62.0483C17.805 62.4233 18.0323 62.7145 18.3249 62.9219C18.6204 63.1293 18.967 63.233 19.3647 63.233C19.6261 63.233 19.8633 63.1875 20.0763 63.0966C20.2894 63.0057 20.4698 62.875 20.6175 62.7045C20.7653 62.5341 20.8704 62.3295 20.9329 62.0909H21.9386C21.8817 62.4773 21.7411 62.8253 21.5167 63.1349C21.2951 63.4418 21.0011 63.6861 20.6346 63.8679C20.271 64.0469 19.8477 64.1364 19.3647 64.1364ZM27.5337 61.3239V57.4545H28.5394V64H27.5337V62.892H27.4656C27.3121 63.2244 27.0735 63.5071 26.7496 63.7401C26.4258 63.9702 26.0167 64.0852 25.5224 64.0852C25.1133 64.0852 24.7496 63.9957 24.4315 63.8168C24.1133 63.6349 23.8633 63.3622 23.6815 62.9986C23.4996 62.6321 23.4087 62.1705 23.4087 61.6136V57.4545H24.4144V61.5455C24.4144 62.0227 24.5479 62.4034 24.815 62.6875C25.0849 62.9716 25.4286 63.1136 25.8462 63.1136C26.0962 63.1136 26.3505 63.0497 26.609 62.9219C26.8704 62.794 27.0891 62.598 27.2653 62.3338C27.4442 62.0696 27.5337 61.733 27.5337 61.3239ZM30.3814 64V57.4545H31.353V58.4773H31.4382C31.5746 58.1278 31.7947 57.8565 32.0987 57.6634C32.4027 57.4673 32.7678 57.3693 33.1939 57.3693C33.6257 57.3693 33.9851 57.4673 34.272 57.6634C34.5618 57.8565 34.7876 58.1278 34.9496 58.4773H35.0178C35.1854 58.1392 35.4368 57.8707 35.772 57.6719C36.1072 57.4702 36.5092 57.3693 36.978 57.3693C37.5632 57.3693 38.0419 57.5526 38.4141 57.919C38.7862 58.2827 38.9723 58.8494 38.9723 59.6193V64H37.9666V59.6193C37.9666 59.1364 37.8345 58.7912 37.5703 58.5838C37.3061 58.3764 36.995 58.2727 36.6371 58.2727C36.1768 58.2727 35.8203 58.4119 35.5675 58.6903C35.3146 58.9659 35.1882 59.3153 35.1882 59.7386V64H34.1655V59.517C34.1655 59.1449 34.0447 58.8452 33.8033 58.6179C33.5618 58.3878 33.2507 58.2727 32.87 58.2727C32.6087 58.2727 32.3643 58.3423 32.1371 58.4815C31.9126 58.6207 31.7308 58.8139 31.5916 59.0611C31.4553 59.3054 31.3871 59.5881 31.3871 59.9091V64H30.3814ZM43.5554 64.1364C42.9247 64.1364 42.3807 63.9972 41.9233 63.7188C41.4688 63.4375 41.1179 63.0455 40.8707 62.5426C40.6264 62.0369 40.5043 61.4489 40.5043 60.7784C40.5043 60.108 40.6264 59.517 40.8707 59.0057C41.1179 58.4915 41.4616 58.0909 41.902 57.804C42.3452 57.5142 42.8622 57.3693 43.4531 57.3693C43.794 57.3693 44.1307 57.4261 44.4631 57.5398C44.7955 57.6534 45.098 57.8381 45.3707 58.0938C45.6435 58.3466 45.8608 58.6818 46.0227 59.0994C46.1847 59.517 46.2656 60.0312 46.2656 60.642V61.0682H41.2202V60.1989H45.2429C45.2429 59.8295 45.169 59.5 45.0213 59.2102C44.8764 58.9205 44.669 58.6918 44.3991 58.5241C44.1321 58.3565 43.8168 58.2727 43.4531 58.2727C43.0526 58.2727 42.706 58.3722 42.4134 58.571C42.1236 58.767 41.9006 59.0227 41.7443 59.3381C41.5881 59.6534 41.5099 59.9915 41.5099 60.3523V60.9318C41.5099 61.4261 41.5952 61.8452 41.7656 62.1889C41.9389 62.5298 42.179 62.7898 42.4858 62.9688C42.7926 63.1449 43.1491 63.233 43.5554 63.233C43.8196 63.233 44.0582 63.196 44.2713 63.1222C44.4872 63.0455 44.6733 62.9318 44.8295 62.7812C44.9858 62.6278 45.1065 62.4375 45.1918 62.2102L46.1634 62.483C46.0611 62.8125 45.8892 63.1023 45.6477 63.3523C45.4063 63.5994 45.108 63.7926 44.7528 63.9318C44.3977 64.0682 43.9986 64.1364 43.5554 64.1364ZM48.8011 60.0625V64H47.7955V57.4545H48.767V58.4773H48.8523C49.0057 58.1449 49.2386 57.8778 49.5511 57.6761C49.8636 57.4716 50.267 57.3693 50.7614 57.3693C51.2045 57.3693 51.5923 57.4602 51.9247 57.642C52.2571 57.821 52.5156 58.0938 52.7003 58.4602C52.8849 58.8239 52.9773 59.2841 52.9773 59.8409V64H51.9716V59.9091C51.9716 59.3949 51.8381 58.9943 51.571 58.7074C51.304 58.4176 50.9375 58.2727 50.4716 58.2727C50.1506 58.2727 49.8636 58.3423 49.6108 58.4815C49.3608 58.6207 49.1634 58.8239 49.0185 59.0909C48.8736 59.358 48.8011 59.6818 48.8011 60.0625ZM57.6616 57.4545V58.3068H54.2695V57.4545H57.6616ZM55.2582 55.8864H56.2638V62.125C56.2638 62.4091 56.305 62.6222 56.3874 62.7642C56.4727 62.9034 56.5806 62.9972 56.7113 63.0455C56.8448 63.0909 56.9854 63.1136 57.1332 63.1136C57.244 63.1136 57.3349 63.108 57.4059 63.0966C57.4769 63.0824 57.5337 63.071 57.5763 63.0625L57.7809 63.9659C57.7127 63.9915 57.6175 64.017 57.4954 64.0426C57.3732 64.071 57.2184 64.0852 57.0309 64.0852C56.7468 64.0852 56.4684 64.0241 56.1957 63.902C55.9258 63.7798 55.7013 63.5938 55.5224 63.3438C55.3462 63.0938 55.2582 62.7784 55.2582 62.3977V55.8864ZM65.396 57.4545V58.3068H62.0039V57.4545H65.396ZM62.9925 55.8864H63.9982V62.125C63.9982 62.4091 64.0394 62.6222 64.1218 62.7642C64.207 62.9034 64.315 62.9972 64.4457 63.0455C64.5792 63.0909 64.7198 63.1136 64.8675 63.1136C64.9783 63.1136 65.0692 63.108 65.1403 63.0966C65.2113 63.0824 65.2681 63.071 65.3107 63.0625L65.5153 63.9659C65.4471 63.9915 65.3519 64.017 65.2298 64.0426C65.1076 64.071 64.9528 64.0852 64.7653 64.0852C64.4812 64.0852 64.2028 64.0241 63.93 63.902C63.6602 63.7798 63.4357 63.5938 63.2567 63.3438C63.0806 63.0938 62.9925 62.7784 62.9925 62.3977V55.8864ZM67.5565 66.4545C67.386 66.4545 67.234 66.4403 67.1005 66.4119C66.967 66.3864 66.8746 66.3608 66.8235 66.3352L67.0792 65.4489C67.3235 65.5114 67.5394 65.5341 67.7269 65.517C67.9144 65.5 68.0806 65.4162 68.2255 65.2656C68.3732 65.1179 68.5082 64.8778 68.6303 64.5455L68.8178 64.0341L66.3974 57.4545H67.4883L69.2951 62.6705H69.3633L71.1701 57.4545H72.261L69.4826 64.9545C69.3576 65.2926 69.2028 65.5724 69.0181 65.794C68.8335 66.0185 68.619 66.1847 68.3746 66.2926C68.1332 66.4006 67.8604 66.4545 67.5565 66.4545ZM73.5884 66.4545V57.4545H74.56V58.4943H74.6793C74.7532 58.3807 74.8555 58.2358 74.9862 58.0597C75.1197 57.8807 75.31 57.7216 75.5572 57.5824C75.8072 57.4403 76.1452 57.3693 76.5714 57.3693C77.1225 57.3693 77.6083 57.5071 78.0288 57.7827C78.4492 58.0582 78.7773 58.4489 79.0131 58.9545C79.2489 59.4602 79.3668 60.0568 79.3668 60.7443C79.3668 61.4375 79.2489 62.0384 79.0131 62.5469C78.7773 63.0526 78.4506 63.4446 78.033 63.723C77.6154 63.9986 77.1339 64.1364 76.5884 64.1364C76.168 64.1364 75.8313 64.0668 75.5785 63.9276C75.3256 63.7855 75.131 63.625 74.9947 63.446C74.8583 63.2642 74.7532 63.1136 74.6793 62.9943H74.5941V66.4545H73.5884ZM74.5771 60.7273C74.5771 61.2216 74.6495 61.6577 74.7944 62.0355C74.9393 62.4105 75.1509 62.7045 75.4293 62.9176C75.7077 63.1278 76.0487 63.233 76.4521 63.233C76.8725 63.233 77.2234 63.1222 77.5046 62.9006C77.7887 62.6761 78.0018 62.375 78.1438 61.9972C78.2887 61.6165 78.3612 61.1932 78.3612 60.7273C78.3612 60.267 78.2901 59.8523 78.1481 59.483C78.0089 59.1108 77.7972 58.8168 77.5131 58.6009C77.2319 58.3821 76.8782 58.2727 76.4521 58.2727C76.043 58.2727 75.6992 58.3764 75.4208 58.5838C75.1424 58.7884 74.9322 59.0753 74.7901 59.4446C74.6481 59.8111 74.5771 60.2386 74.5771 60.7273ZM83.6452 64.1364C83.0146 64.1364 82.4705 63.9972 82.0131 63.7188C81.5586 63.4375 81.2077 63.0455 80.9606 62.5426C80.7163 62.0369 80.5941 61.4489 80.5941 60.7784C80.5941 60.108 80.7163 59.517 80.9606 59.0057C81.2077 58.4915 81.5515 58.0909 81.9918 57.804C82.435 57.5142 82.9521 57.3693 83.543 57.3693C83.8839 57.3693 84.2205 57.4261 84.5529 57.5398C84.8853 57.6534 85.1879 57.8381 85.4606 58.0938C85.7333 58.3466 85.9506 58.6818 86.1126 59.0994C86.2745 59.517 86.3555 60.0312 86.3555 60.642V61.0682H81.31V60.1989H85.3327C85.3327 59.8295 85.2589 59.5 85.1112 59.2102C84.9663 58.9205 84.7589 58.6918 84.489 58.5241C84.2219 58.3565 83.9066 58.2727 83.543 58.2727C83.1424 58.2727 82.7958 58.3722 82.5032 58.571C82.2134 58.767 81.9904 59.0227 81.8342 59.3381C81.6779 59.6534 81.5998 59.9915 81.5998 60.3523V60.9318C81.5998 61.4261 81.685 61.8452 81.8555 62.1889C82.0288 62.5298 82.2688 62.7898 82.5756 62.9688C82.8825 63.1449 83.239 63.233 83.6452 63.233C83.9094 63.233 84.1481 63.196 84.3612 63.1222C84.5771 63.0455 84.7631 62.9318 84.9194 62.7812C85.0756 62.6278 85.1964 62.4375 85.2816 62.2102L86.2532 62.483C86.1509 62.8125 85.979 63.1023 85.7376 63.3523C85.4961 63.5994 85.1978 63.7926 84.8427 63.9318C84.4876 64.0682 84.0884 64.1364 83.6452 64.1364Z" fill="#282F37"/>
<path fill-rule="evenodd" clip-rule="evenodd" d="M232.001 52.8333C228.043 52.8333 224.834 56.0419 224.834 59.9999C224.834 63.958 228.043 67.1666 232.001 67.1666C235.959 67.1666 239.167 63.958 239.167 59.9999C239.167 56.0419 235.959 52.8333 232.001 52.8333ZM232.501 57.3333C232.501 57.0571 232.277 56.8333 232.001 56.8333C231.725 56.8333 231.501 57.0571 231.501 57.3333V60.6666C231.501 60.9427 231.725 61.1666 232.001 61.1666C232.277 61.1666 232.501 60.9427 232.501 60.6666V57.3333ZM232.667 62.6666C232.667 63.0348 232.369 63.3333 232.001 63.3333C231.632 63.3333 231.334 63.0348 231.334 62.6666C231.334 62.2984 231.632 61.9999 232.001 61.9999C232.369 61.9999 232.667 62.2984 232.667 62.6666Z" fill="#DF3232"/>
<path d="M0.579545 80.2102V79.2727H7.125V80.2102H4.38068V88H3.32386V80.2102H0.579545ZM10.4148 88.1364C9.78409 88.1364 9.24006 87.9972 8.78267 87.7188C8.32812 87.4375 7.97727 87.0455 7.73011 86.5426C7.4858 86.0369 7.36364 85.4489 7.36364 84.7784C7.36364 84.108 7.4858 83.517 7.73011 83.0057C7.97727 82.4915 8.32102 82.0909 8.76136 81.804C9.20455 81.5142 9.72159 81.3693 10.3125 81.3693C10.6534 81.3693 10.9901 81.4261 11.3224 81.5398C11.6548 81.6534 11.9574 81.8381 12.2301 82.0938C12.5028 82.3466 12.7202 82.6818 12.8821 83.0994C13.044 83.517 13.125 84.0312 13.125 84.642V85.0682H8.07955V84.1989H12.1023C12.1023 83.8295 12.0284 83.5 11.8807 83.2102C11.7358 82.9205 11.5284 82.6918 11.2585 82.5241C10.9915 82.3565 10.6761 82.2727 10.3125 82.2727C9.91193 82.2727 9.56534 82.3722 9.27273 82.571C8.98295 82.767 8.75994 83.0227 8.60369 83.3381C8.44744 83.6534 8.36932 83.9915 8.36932 84.3523V84.9318C8.36932 85.4261 8.45455 85.8452 8.625 86.1889C8.7983 86.5298 9.03835 86.7898 9.34517 86.9688C9.65199 87.1449 10.0085 87.233 10.4148 87.233C10.679 87.233 10.9176 87.196 11.1307 87.1222C11.3466 87.0455 11.5327 86.9318 11.6889 86.7812C11.8452 86.6278 11.9659 86.4375 12.0511 86.2102L13.0227 86.483C12.9205 86.8125 12.7486 87.1023 12.5071 87.3523C12.2656 87.5994 11.9673 87.7926 11.6122 87.9318C11.2571 88.0682 10.858 88.1364 10.4148 88.1364ZM15.229 81.4545L16.7972 84.1307L18.3654 81.4545H19.5245L17.4109 84.7273L19.5245 88H18.3654L16.7972 85.4602L15.229 88H14.07L16.1495 84.7273L14.07 81.4545H15.229ZM23.8061 81.4545V82.3068H20.4141V81.4545H23.8061ZM21.4027 79.8864H22.4084V86.125C22.4084 86.4091 22.4496 86.6222 22.532 86.7642C22.6172 86.9034 22.7251 86.9972 22.8558 87.0455C22.9893 87.0909 23.13 87.1136 23.2777 87.1136C23.3885 87.1136 23.4794 87.108 23.5504 87.0966C23.6214 87.0824 23.6783 87.071 23.7209 87.0625L23.9254 87.9659C23.8572 87.9915 23.7621 88.017 23.6399 88.0426C23.5178 88.071 23.3629 88.0852 23.1754 88.0852C22.8913 88.0852 22.6129 88.0241 22.3402 87.902C22.0703 87.7798 21.8459 87.5938 21.6669 87.3438C21.4908 87.0938 21.4027 86.7784 21.4027 86.3977V79.8864ZM31.6087 81.4545V82.3068H28.0803V81.4545H31.6087ZM29.1371 88V80.5511C29.1371 80.1761 29.2251 79.8636 29.4013 79.6136C29.5774 79.3636 29.8061 79.1761 30.0874 79.0511C30.3686 78.9261 30.6655 78.8636 30.978 78.8636C31.2251 78.8636 31.4268 78.8835 31.5831 78.9233C31.7393 78.9631 31.8558 79 31.9325 79.0341L31.6428 79.9034C31.5916 79.8864 31.5206 79.8651 31.4297 79.8395C31.3416 79.8139 31.2251 79.8011 31.0803 79.8011C30.7479 79.8011 30.5078 79.8849 30.3601 80.0526C30.2152 80.2202 30.1428 80.4659 30.1428 80.7898V88H29.1371ZM33.0181 88V81.4545H34.0238V88H33.0181ZM33.5295 80.3636C33.3335 80.3636 33.1644 80.2969 33.0224 80.1634C32.8832 80.0298 32.8136 79.8693 32.8136 79.6818C32.8136 79.4943 32.8832 79.3338 33.0224 79.2003C33.1644 79.0668 33.3335 79 33.5295 79C33.7255 79 33.8931 79.0668 34.0323 79.2003C34.1744 79.3338 34.2454 79.4943 34.2454 79.6818C34.2454 79.8693 34.1744 80.0298 34.0323 80.1634C33.8931 80.2969 33.7255 80.3636 33.5295 80.3636ZM38.6101 88.1364C37.9794 88.1364 37.4354 87.9972 36.978 87.7188C36.5234 87.4375 36.1726 87.0455 35.9254 86.5426C35.6811 86.0369 35.5589 85.4489 35.5589 84.7784C35.5589 84.108 35.6811 83.517 35.9254 83.0057C36.1726 82.4915 36.5163 82.0909 36.9567 81.804C37.3999 81.5142 37.9169 81.3693 38.5078 81.3693C38.8487 81.3693 39.1854 81.4261 39.5178 81.5398C39.8501 81.6534 40.1527 81.8381 40.4254 82.0938C40.6982 82.3466 40.9155 82.6818 41.0774 83.0994C41.2393 83.517 41.3203 84.0312 41.3203 84.642V85.0682H36.2749V84.1989H40.2976C40.2976 83.8295 40.2237 83.5 40.076 83.2102C39.9311 82.9205 39.7237 82.6918 39.4538 82.5241C39.1868 82.3565 38.8714 82.2727 38.5078 82.2727C38.1072 82.2727 37.7607 82.3722 37.468 82.571C37.1783 82.767 36.9553 83.0227 36.799 83.3381C36.6428 83.6534 36.5646 83.9915 36.5646 84.3523V84.9318C36.5646 85.4261 36.6499 85.8452 36.8203 86.1889C36.9936 86.5298 37.2337 86.7898 37.5405 86.9688C37.8473 87.1449 38.2038 87.233 38.6101 87.233C38.8743 87.233 39.1129 87.196 39.326 87.1222C39.5419 87.0455 39.728 86.9318 39.8842 86.7812C40.0405 86.6278 40.1612 86.4375 40.2464 86.2102L41.218 86.483C41.1158 86.8125 40.9439 87.1023 40.7024 87.3523C40.4609 87.5994 40.1626 87.7926 39.8075 87.9318C39.4524 88.0682 39.0533 88.1364 38.6101 88.1364ZM43.8558 79.2727V88H42.8501V79.2727H43.8558ZM48.1694 88.1364C47.6239 88.1364 47.1424 87.9986 46.7248 87.723C46.3072 87.4446 45.9805 87.0526 45.7447 86.5469C45.5089 86.0384 45.391 85.4375 45.391 84.7443C45.391 84.0568 45.5089 83.4602 45.7447 82.9545C45.9805 82.4489 46.3086 82.0582 46.729 81.7827C47.1495 81.5071 47.6353 81.3693 48.1864 81.3693C48.6126 81.3693 48.9492 81.4403 49.1964 81.5824C49.4464 81.7216 49.6367 81.8807 49.7674 82.0597C49.9009 82.2358 50.0046 82.3807 50.0785 82.4943H50.1637V79.2727H51.1694V88H50.1978V86.9943H50.0785C50.0046 87.1136 49.8995 87.2642 49.7631 87.446C49.6268 87.625 49.4322 87.7855 49.1793 87.9276C48.9265 88.0668 48.5898 88.1364 48.1694 88.1364ZM48.3058 87.233C48.7092 87.233 49.0501 87.1278 49.3285 86.9176C49.6069 86.7045 49.8185 86.4105 49.9634 86.0355C50.1083 85.6577 50.1808 85.2216 50.1808 84.7273C50.1808 84.2386 50.1097 83.8111 49.9677 83.4446C49.8256 83.0753 49.6154 82.7884 49.337 82.5838C49.0586 82.3764 48.7148 82.2727 48.3058 82.2727C47.8796 82.2727 47.5245 82.3821 47.2404 82.6009C46.9592 82.8168 46.7475 83.1108 46.6055 83.483C46.4663 83.8523 46.3967 84.267 46.3967 84.7273C46.3967 85.1932 46.4677 85.6165 46.6097 85.9972C46.7546 86.375 46.9677 86.6761 47.2489 86.9006C47.533 87.1222 47.8853 87.233 48.3058 87.233ZM57.7873 82.9205L56.8839 83.1761C56.8271 83.0256 56.7433 82.8793 56.6325 82.7372C56.5245 82.5923 56.3768 82.473 56.1893 82.3793C56.0018 82.2855 55.7617 82.2386 55.4691 82.2386C55.0685 82.2386 54.7347 82.331 54.4677 82.5156C54.2035 82.6974 54.0714 82.929 54.0714 83.2102C54.0714 83.4602 54.1623 83.6577 54.3441 83.8026C54.5259 83.9474 54.81 84.0682 55.1964 84.1648L56.168 84.4034C56.7532 84.5455 57.1893 84.7628 57.4762 85.0554C57.7631 85.3452 57.9066 85.7187 57.9066 86.1761C57.9066 86.5511 57.7987 86.8864 57.5827 87.1818C57.3697 87.4773 57.0714 87.7102 56.6879 87.8807C56.3043 88.0511 55.8583 88.1364 55.3498 88.1364C54.6822 88.1364 54.1296 87.9915 53.6921 87.7017C53.2546 87.4119 52.9776 86.9886 52.8612 86.4318L53.8157 86.1932C53.9066 86.5455 54.0785 86.8097 54.3313 86.9858C54.587 87.1619 54.9208 87.25 55.3327 87.25C55.8015 87.25 56.1737 87.1506 56.4492 86.9517C56.7276 86.75 56.8668 86.5085 56.8668 86.2273C56.8668 86 56.7873 85.8097 56.6282 85.6562C56.4691 85.5 56.2248 85.3835 55.8952 85.3068L54.8043 85.0511C54.2049 84.9091 53.7646 84.6889 53.4833 84.3906C53.2049 84.0895 53.0657 83.7131 53.0657 83.2614C53.0657 82.892 53.1694 82.5653 53.3768 82.2812C53.587 81.9972 53.8725 81.7741 54.2333 81.6122C54.5969 81.4503 55.0089 81.3693 55.4691 81.3693C56.1168 81.3693 56.6254 81.5114 56.9947 81.7955C57.3668 82.0795 57.631 82.4545 57.7873 82.9205Z" fill="#282F37"/>
<path fill-rule="evenodd" clip-rule="evenodd" d="M232.001 76.8333C228.043 76.8333 224.834 80.0419 224.834 83.9999C224.834 87.958 228.043 91.1666 232.001 91.1666C235.959 91.1666 239.167 87.958 239.167 83.9999C239.167 80.0419 235.959 76.8333 232.001 76.8333ZM232.501 81.3333C232.501 81.0571 232.277 80.8333 232.001 80.8333C231.725 80.8333 231.501 81.0571 231.501 81.3333V84.6666C231.501 84.9427 231.725 85.1666 232.001 85.1666C232.277 85.1666 232.501 84.9427 232.501 84.6666V81.3333ZM232.667 86.6666C232.667 87.0348 232.369 87.3333 232.001 87.3333C231.632 87.3333 231.334 87.0348 231.334 86.6666C231.334 86.2984 231.632 85.9999 232.001 85.9999C232.369 85.9999 232.667 86.2984 232.667 86.6666Z" fill="#DF3232"/>
<path d="M1.05682 103.273H2.31818L5.28409 110.517H5.38636L8.35227 103.273H9.61364V112H8.625V105.369H8.53977L5.8125 112H4.85795L2.13068 105.369H2.04545V112H1.05682V103.273ZM11.7326 112V103.273H14.6815C15.3633 103.273 15.9229 103.389 16.3604 103.622C16.7979 103.852 17.1218 104.169 17.332 104.572C17.5423 104.976 17.6474 105.435 17.6474 105.949C17.6474 106.463 17.5423 106.919 17.332 107.317C17.1218 107.714 16.7994 108.027 16.3647 108.254C15.93 108.479 15.3746 108.591 14.6985 108.591H12.3121V107.636H14.6644C15.1303 107.636 15.5053 107.568 15.7894 107.432C16.0763 107.295 16.2837 107.102 16.4116 106.852C16.5423 106.599 16.6076 106.298 16.6076 105.949C16.6076 105.599 16.5423 105.294 16.4116 105.033C16.2809 104.771 16.0721 104.57 15.7852 104.428C15.4982 104.283 15.119 104.21 14.6474 104.21H12.7894V112H11.7326ZM15.8406 108.08L17.9883 112H16.761L14.6474 108.08H15.8406ZM19.1186 112V111.233L23.8232 104.21H19.0675V103.273H25.0845V104.04L20.38 111.062H25.1357V112H19.1186Z" fill="#282F37"/>
<path fill-rule="evenodd" clip-rule="evenodd" d="M232.001 100.833C228.043 100.833 224.834 104.042 224.834 108C224.834 111.958 228.043 115.167 232.001 115.167C235.959 115.167 239.167 111.958 239.167 108C239.167 104.042 235.959 100.833 232.001 100.833ZM232.501 105.333C232.501 105.057 232.277 104.833 232.001 104.833C231.725 104.833 231.501 105.057 231.501 105.333V108.667C231.501 108.943 231.725 109.167 232.001 109.167C232.277 109.167 232.501 108.943 232.501 108.667V105.333ZM232.667 110.667C232.667 111.035 232.369 111.333 232.001 111.333C231.632 111.333 231.334 111.035 231.334 110.667C231.334 110.298 231.632 110 232.001 110C232.369 110 232.667 110.298 232.667 110.667Z" fill="#DF3232"/>
<path d="M5.82955 129.455C5.77841 129.023 5.57102 128.688 5.20739 128.449C4.84375 128.21 4.39773 128.091 3.86932 128.091C3.48295 128.091 3.14489 128.153 2.85511 128.278C2.56818 128.403 2.34375 128.575 2.18182 128.794C2.02273 129.013 1.94318 129.261 1.94318 129.54C1.94318 129.773 1.99858 129.973 2.10938 130.141C2.22301 130.305 2.3679 130.443 2.54403 130.554C2.72017 130.662 2.90483 130.751 3.09801 130.822C3.29119 130.891 3.46875 130.946 3.63068 130.989L4.51705 131.227C4.74432 131.287 4.99716 131.369 5.27557 131.474C5.55682 131.58 5.82528 131.723 6.08097 131.905C6.33949 132.084 6.55256 132.314 6.72017 132.595C6.88778 132.876 6.97159 133.222 6.97159 133.631C6.97159 134.102 6.84801 134.528 6.60085 134.909C6.35653 135.29 5.99858 135.592 5.52699 135.817C5.05824 136.041 4.48864 136.153 3.81818 136.153C3.19318 136.153 2.65199 136.053 2.1946 135.851C1.74006 135.649 1.3821 135.368 1.12074 135.007C0.862216 134.646 0.715909 134.227 0.681818 133.75H1.77273C1.80114 134.08 1.91193 134.352 2.10511 134.568C2.30114 134.781 2.5483 134.94 2.84659 135.045C3.14773 135.148 3.47159 135.199 3.81818 135.199C4.22159 135.199 4.58381 135.134 4.90483 135.003C5.22585 134.869 5.48011 134.685 5.66761 134.449C5.85511 134.21 5.94886 133.932 5.94886 133.614C5.94886 133.324 5.8679 133.088 5.70597 132.906C5.54403 132.724 5.33097 132.577 5.06676 132.463C4.80256 132.349 4.51705 132.25 4.21023 132.165L3.13636 131.858C2.45455 131.662 1.91477 131.382 1.51705 131.018C1.11932 130.655 0.920455 130.179 0.920455 129.591C0.920455 129.102 1.05256 128.676 1.31676 128.312C1.58381 127.946 1.94176 127.662 2.39062 127.46C2.84233 127.256 3.34659 127.153 3.90341 127.153C4.46591 127.153 4.96591 127.254 5.40341 127.456C5.84091 127.655 6.1875 127.928 6.44318 128.274C6.7017 128.621 6.83807 129.014 6.85227 129.455H5.82955ZM11.3171 136.136C10.6864 136.136 10.1424 135.997 9.68501 135.719C9.23047 135.438 8.87962 135.045 8.63246 134.543C8.38814 134.037 8.26598 133.449 8.26598 132.778C8.26598 132.108 8.38814 131.517 8.63246 131.006C8.87962 130.491 9.22337 130.091 9.66371 129.804C10.1069 129.514 10.6239 129.369 11.2148 129.369C11.5558 129.369 11.8924 129.426 12.2248 129.54C12.5572 129.653 12.8597 129.838 13.1325 130.094C13.4052 130.347 13.6225 130.682 13.7844 131.099C13.9464 131.517 14.0273 132.031 14.0273 132.642V133.068H8.98189V132.199H13.0046C13.0046 131.83 12.9308 131.5 12.783 131.21C12.6381 130.92 12.4308 130.692 12.1609 130.524C11.8938 130.357 11.5785 130.273 11.2148 130.273C10.8143 130.273 10.4677 130.372 10.1751 130.571C9.8853 130.767 9.66229 131.023 9.50604 131.338C9.34979 131.653 9.27166 131.991 9.27166 132.352V132.932C9.27166 133.426 9.35689 133.845 9.52734 134.189C9.70064 134.53 9.9407 134.79 10.2475 134.969C10.5543 135.145 10.9109 135.233 11.3171 135.233C11.5813 135.233 11.82 135.196 12.033 135.122C12.2489 135.045 12.435 134.932 12.5913 134.781C12.7475 134.628 12.8683 134.437 12.9535 134.21L13.9251 134.483C13.8228 134.812 13.6509 135.102 13.4094 135.352C13.168 135.599 12.8697 135.793 12.5146 135.932C12.1594 136.068 11.7603 136.136 11.3171 136.136ZM18.2163 136.136C17.6026 136.136 17.0742 135.991 16.631 135.702C16.1879 135.412 15.8469 135.013 15.6083 134.504C15.3697 133.996 15.2504 133.415 15.2504 132.761C15.2504 132.097 15.3725 131.51 15.6168 131.001C15.864 130.49 16.2077 130.091 16.6481 129.804C17.0913 129.514 17.6083 129.369 18.1992 129.369C18.6594 129.369 19.0742 129.455 19.4435 129.625C19.8129 129.795 20.1154 130.034 20.3512 130.341C20.587 130.648 20.7333 131.006 20.7901 131.415H19.7844C19.7077 131.116 19.5373 130.852 19.2731 130.622C19.0117 130.389 18.6594 130.273 18.2163 130.273C17.8242 130.273 17.4805 130.375 17.185 130.58C16.8924 130.781 16.6637 131.067 16.4989 131.436C16.337 131.803 16.256 132.233 16.256 132.727C16.256 133.233 16.3356 133.673 16.4947 134.048C16.6566 134.423 16.8839 134.714 17.1765 134.922C17.4719 135.129 17.8185 135.233 18.2163 135.233C18.4776 135.233 18.7148 135.188 18.9279 135.097C19.141 135.006 19.3214 134.875 19.4691 134.705C19.6168 134.534 19.7219 134.33 19.7844 134.091H20.7901C20.7333 134.477 20.5927 134.825 20.3683 135.135C20.1467 135.442 19.8526 135.686 19.4862 135.868C19.1225 136.047 18.6992 136.136 18.2163 136.136ZM26.3853 133.324V129.455H27.391V136H26.3853V134.892H26.3171C26.1637 135.224 25.9251 135.507 25.6012 135.74C25.2773 135.97 24.8683 136.085 24.3739 136.085C23.9648 136.085 23.6012 135.996 23.283 135.817C22.9648 135.635 22.7148 135.362 22.533 134.999C22.3512 134.632 22.2603 134.17 22.2603 133.614V129.455H23.266V133.545C23.266 134.023 23.3995 134.403 23.6665 134.688C23.9364 134.972 24.2802 135.114 24.6978 135.114C24.9478 135.114 25.2021 135.05 25.4606 134.922C25.7219 134.794 25.9407 134.598 26.1168 134.334C26.2958 134.07 26.3853 133.733 26.3853 133.324ZM29.233 136V129.455H30.2045V130.443H30.2727C30.392 130.119 30.608 129.857 30.9205 129.655C31.233 129.453 31.5852 129.352 31.9773 129.352C32.0511 129.352 32.1435 129.354 32.2543 129.357C32.3651 129.359 32.4489 129.364 32.5057 129.369V130.392C32.4716 130.384 32.3935 130.371 32.2713 130.354C32.152 130.334 32.0256 130.324 31.892 130.324C31.5739 130.324 31.2898 130.391 31.0398 130.524C30.7926 130.655 30.5966 130.837 30.4517 131.07C30.3097 131.3 30.2386 131.562 30.2386 131.858V136H29.233ZM33.6978 136V129.455H34.7035V136H33.6978ZM34.2092 128.364C34.0131 128.364 33.8441 128.297 33.7021 128.163C33.5629 128.03 33.4933 127.869 33.4933 127.682C33.4933 127.494 33.5629 127.334 33.7021 127.2C33.8441 127.067 34.0131 127 34.2092 127C34.4052 127 34.5728 127.067 34.712 127.2C34.854 127.334 34.9251 127.494 34.9251 127.682C34.9251 127.869 34.854 128.03 34.712 128.163C34.5728 128.297 34.4052 128.364 34.2092 128.364ZM39.392 129.455V130.307H36V129.455H39.392ZM36.9886 127.886H37.9943V134.125C37.9943 134.409 38.0355 134.622 38.1179 134.764C38.2031 134.903 38.3111 134.997 38.4418 135.045C38.5753 135.091 38.7159 135.114 38.8636 135.114C38.9744 135.114 39.0653 135.108 39.1364 135.097C39.2074 135.082 39.2642 135.071 39.3068 135.062L39.5114 135.966C39.4432 135.991 39.348 136.017 39.2259 136.043C39.1037 136.071 38.9489 136.085 38.7614 136.085C38.4773 136.085 38.1989 136.024 37.9261 135.902C37.6563 135.78 37.4318 135.594 37.2528 135.344C37.0767 135.094 36.9886 134.778 36.9886 134.398V127.886ZM41.5526 138.455C41.3821 138.455 41.2301 138.44 41.0966 138.412C40.9631 138.386 40.8707 138.361 40.8196 138.335L41.0753 137.449C41.3196 137.511 41.5355 137.534 41.723 137.517C41.9105 137.5 42.0767 137.416 42.2216 137.266C42.3693 137.118 42.5043 136.878 42.6264 136.545L42.8139 136.034L40.3935 129.455H41.4844L43.2912 134.67H43.3594L45.1662 129.455H46.2571L43.4787 136.955C43.3537 137.293 43.1989 137.572 43.0142 137.794C42.8295 138.018 42.6151 138.185 42.3707 138.293C42.1293 138.401 41.8565 138.455 41.5526 138.455ZM53.6186 136.136C53.005 136.136 52.4766 135.991 52.0334 135.702C51.5902 135.412 51.2493 135.013 51.0107 134.504C50.772 133.996 50.6527 133.415 50.6527 132.761C50.6527 132.097 50.7749 131.51 51.0192 131.001C51.2663 130.49 51.6101 130.091 52.0504 129.804C52.4936 129.514 53.0107 129.369 53.6016 129.369C54.0618 129.369 54.4766 129.455 54.8459 129.625C55.2152 129.795 55.5178 130.034 55.7536 130.341C55.9893 130.648 56.1357 131.006 56.1925 131.415H55.1868C55.1101 131.116 54.9396 130.852 54.6754 130.622C54.4141 130.389 54.0618 130.273 53.6186 130.273C53.2266 130.273 52.8828 130.375 52.5874 130.58C52.2947 130.781 52.0661 131.067 51.9013 131.436C51.7393 131.803 51.6584 132.233 51.6584 132.727C51.6584 133.233 51.7379 133.673 51.897 134.048C52.0589 134.423 52.2862 134.714 52.5788 134.922C52.8743 135.129 53.2209 135.233 53.6186 135.233C53.88 135.233 54.1172 135.188 54.3303 135.097C54.5433 135.006 54.7237 134.875 54.8714 134.705C55.0192 134.534 55.1243 134.33 55.1868 134.091H56.1925C56.1357 134.477 55.995 134.825 55.7706 135.135C55.549 135.442 55.255 135.686 54.8885 135.868C54.5249 136.047 54.1016 136.136 53.6186 136.136ZM58.6683 132.062V136H57.6626V127.273H58.6683V130.477H58.7536C58.907 130.139 59.1371 129.871 59.4439 129.672C59.7536 129.47 60.1655 129.369 60.6797 129.369C61.1257 129.369 61.5163 129.459 61.8516 129.638C62.1868 129.814 62.4467 130.085 62.6314 130.452C62.8189 130.815 62.9126 131.278 62.9126 131.841V136H61.907V131.909C61.907 131.389 61.772 130.987 61.5021 130.703C61.2351 130.416 60.8643 130.273 60.3899 130.273C60.0604 130.273 59.7649 130.342 59.5036 130.482C59.245 130.621 59.0405 130.824 58.8899 131.091C58.7422 131.358 58.6683 131.682 58.6683 132.062ZM67.4968 136.136C66.8661 136.136 66.3221 135.997 65.8647 135.719C65.4102 135.438 65.0593 135.045 64.8121 134.543C64.5678 134.037 64.4457 133.449 64.4457 132.778C64.4457 132.108 64.5678 131.517 64.8121 131.006C65.0593 130.491 65.4031 130.091 65.8434 129.804C66.2866 129.514 66.8036 129.369 67.3945 129.369C67.7354 129.369 68.0721 129.426 68.4045 129.54C68.7369 129.653 69.0394 129.838 69.3121 130.094C69.5849 130.347 69.8022 130.682 69.9641 131.099C70.1261 131.517 70.207 132.031 70.207 132.642V133.068H65.1616V132.199H69.1843C69.1843 131.83 69.1104 131.5 68.9627 131.21C68.8178 130.92 68.6104 130.692 68.3406 130.524C68.0735 130.357 67.7582 130.273 67.3945 130.273C66.994 130.273 66.6474 130.372 66.3548 130.571C66.065 130.767 65.842 131.023 65.6857 131.338C65.5295 131.653 65.4513 131.991 65.4513 132.352V132.932C65.4513 133.426 65.5366 133.845 65.707 134.189C65.8803 134.53 66.1204 134.79 66.4272 134.969C66.734 135.145 67.0906 135.233 67.4968 135.233C67.761 135.233 67.9996 135.196 68.2127 135.122C68.4286 135.045 68.6147 134.932 68.771 134.781C68.9272 134.628 69.0479 134.437 69.1332 134.21L70.1048 134.483C70.0025 134.812 69.8306 135.102 69.5891 135.352C69.3477 135.599 69.0494 135.793 68.6942 135.932C68.3391 136.068 67.94 136.136 67.4968 136.136ZM74.396 136.136C73.7823 136.136 73.2539 135.991 72.8107 135.702C72.3675 135.412 72.0266 135.013 71.788 134.504C71.5494 133.996 71.43 133.415 71.43 132.761C71.43 132.097 71.5522 131.51 71.7965 131.001C72.0437 130.49 72.3874 130.091 72.8278 129.804C73.271 129.514 73.788 129.369 74.3789 129.369C74.8391 129.369 75.2539 129.455 75.6232 129.625C75.9925 129.795 76.2951 130.034 76.5309 130.341C76.7667 130.648 76.913 131.006 76.9698 131.415H75.9641C75.8874 131.116 75.717 130.852 75.4528 130.622C75.1914 130.389 74.8391 130.273 74.396 130.273C74.0039 130.273 73.6602 130.375 73.3647 130.58C73.0721 130.781 72.8434 131.067 72.6786 131.436C72.5167 131.803 72.4357 132.233 72.4357 132.727C72.4357 133.233 72.5153 133.673 72.6744 134.048C72.8363 134.423 73.0636 134.714 73.3562 134.922C73.6516 135.129 73.9982 135.233 74.396 135.233C74.6573 135.233 74.8945 135.188 75.1076 135.097C75.3207 135.006 75.5011 134.875 75.6488 134.705C75.7965 134.534 75.9016 134.33 75.9641 134.091H76.9698C76.913 134.477 76.7724 134.825 76.5479 135.135C76.3263 135.442 76.0323 135.686 75.6658 135.868C75.3022 136.047 74.8789 136.136 74.396 136.136ZM79.3775 133.614L79.3604 132.369H79.565L82.4286 129.455H83.6729L80.6218 132.54H80.5366L79.3775 133.614ZM78.44 136V127.273H79.4457V136H78.44ZM82.5991 136L80.0423 132.761L80.7582 132.062L83.8775 136H82.5991ZM89.6037 130.92L88.7003 131.176C88.6435 131.026 88.5597 130.879 88.4489 130.737C88.3409 130.592 88.1932 130.473 88.0057 130.379C87.8182 130.286 87.5781 130.239 87.2855 130.239C86.8849 130.239 86.5511 130.331 86.2841 130.516C86.0199 130.697 85.8878 130.929 85.8878 131.21C85.8878 131.46 85.9787 131.658 86.1605 131.803C86.3423 131.947 86.6264 132.068 87.0128 132.165L87.9844 132.403C88.5696 132.545 89.0057 132.763 89.2926 133.055C89.5795 133.345 89.723 133.719 89.723 134.176C89.723 134.551 89.6151 134.886 89.3991 135.182C89.1861 135.477 88.8878 135.71 88.5043 135.881C88.1207 136.051 87.6747 136.136 87.1662 136.136C86.4986 136.136 85.946 135.991 85.5085 135.702C85.071 135.412 84.794 134.989 84.6776 134.432L85.6321 134.193C85.723 134.545 85.8949 134.81 86.1477 134.986C86.4034 135.162 86.7372 135.25 87.1491 135.25C87.6179 135.25 87.9901 135.151 88.2656 134.952C88.544 134.75 88.6832 134.509 88.6832 134.227C88.6832 134 88.6037 133.81 88.4446 133.656C88.2855 133.5 88.0412 133.384 87.7116 133.307L86.6207 133.051C86.0213 132.909 85.581 132.689 85.2997 132.391C85.0213 132.089 84.8821 131.713 84.8821 131.261C84.8821 130.892 84.9858 130.565 85.1932 130.281C85.4034 129.997 85.6889 129.774 86.0497 129.612C86.4134 129.45 86.8253 129.369 87.2855 129.369C87.9332 129.369 88.4418 129.511 88.8111 129.795C89.1832 130.08 89.4474 130.455 89.6037 130.92Z" fill="#282F37"/>
<path fill-rule="evenodd" clip-rule="evenodd" d="M232.001 124.833C228.043 124.833 224.834 128.042 224.834 132C224.834 135.958 228.043 139.167 232.001 139.167C235.959 139.167 239.167 135.958 239.167 132C239.167 128.042 235.959 124.833 232.001 124.833ZM232.501 129.333C232.501 129.057 232.277 128.833 232.001 128.833C231.725 128.833 231.501 129.057 231.501 129.333V132.667C231.501 132.943 231.725 133.167 232.001 133.167C232.277 133.167 232.501 132.943 232.501 132.667V129.333ZM232.667 134.667C232.667 135.035 232.369 135.333 232.001 135.333C231.632 135.333 231.334 135.035 231.334 134.667C231.334 134.298 231.632 134 232.001 134C232.369 134 232.667 134.298 232.667 134.667Z" fill="#DF3232"/>
<path d="M1.05682 160V151.273H4.00568C4.69034 151.273 5.25 151.396 5.68466 151.643C6.12216 151.888 6.44602 152.219 6.65625 152.636C6.86648 153.054 6.97159 153.52 6.97159 154.034C6.97159 154.548 6.86648 155.016 6.65625 155.436C6.44886 155.857 6.12784 156.192 5.69318 156.442C5.25852 156.689 4.7017 156.812 4.02273 156.812H1.90909V155.875H3.98864C4.45739 155.875 4.83381 155.794 5.1179 155.632C5.40199 155.47 5.60795 155.251 5.7358 154.976C5.86648 154.697 5.93182 154.384 5.93182 154.034C5.93182 153.685 5.86648 153.372 5.7358 153.097C5.60795 152.821 5.40057 152.605 5.11364 152.449C4.8267 152.29 4.44602 152.21 3.97159 152.21H2.11364V160H1.05682ZM11.1264 160.136C10.5355 160.136 10.017 159.996 9.57102 159.714C9.12784 159.433 8.78125 159.04 8.53125 158.534C8.28409 158.028 8.16051 157.437 8.16051 156.761C8.16051 156.08 8.28409 155.484 8.53125 154.976C8.78125 154.467 9.12784 154.072 9.57102 153.791C10.017 153.51 10.5355 153.369 11.1264 153.369C11.7173 153.369 12.2344 153.51 12.6776 153.791C13.1236 154.072 13.4702 154.467 13.7173 154.976C13.9673 155.484 14.0923 156.08 14.0923 156.761C14.0923 157.437 13.9673 158.028 13.7173 158.534C13.4702 159.04 13.1236 159.433 12.6776 159.714C12.2344 159.996 11.7173 160.136 11.1264 160.136ZM11.1264 159.233C11.5753 159.233 11.9446 159.118 12.2344 158.888C12.5241 158.658 12.7386 158.355 12.8778 157.98C13.017 157.605 13.0866 157.199 13.0866 156.761C13.0866 156.324 13.017 155.916 12.8778 155.538C12.7386 155.161 12.5241 154.855 12.2344 154.622C11.9446 154.389 11.5753 154.273 11.1264 154.273C10.6776 154.273 10.3082 154.389 10.0185 154.622C9.72869 154.855 9.5142 155.161 9.375 155.538C9.2358 155.916 9.16619 156.324 9.16619 156.761C9.16619 157.199 9.2358 157.605 9.375 157.98C9.5142 158.355 9.72869 158.658 10.0185 158.888C10.3082 159.118 10.6776 159.233 11.1264 159.233ZM15.6275 160V153.455H16.5991V154.443H16.6673C16.7866 154.119 17.0025 153.857 17.315 153.655C17.6275 153.453 17.9798 153.352 18.3718 153.352C18.4457 153.352 18.538 153.354 18.6488 153.357C18.7596 153.359 18.8434 153.364 18.9002 153.369V154.392C18.8661 154.384 18.788 154.371 18.6658 154.354C18.5465 154.334 18.4201 154.324 18.2866 154.324C17.9684 154.324 17.6843 154.391 17.4343 154.524C17.1871 154.655 16.9911 154.837 16.8462 155.07C16.7042 155.3 16.6332 155.562 16.6332 155.858V160H15.6275ZM23.3491 153.455V154.307H19.957V153.455H23.3491ZM20.9457 151.886H21.9513V158.125C21.9513 158.409 21.9925 158.622 22.0749 158.764C22.1602 158.903 22.2681 158.997 22.3988 159.045C22.5323 159.091 22.6729 159.114 22.8207 159.114C22.9315 159.114 23.0224 159.108 23.0934 159.097C23.1644 159.082 23.2212 159.071 23.2638 159.062L23.4684 159.966C23.4002 159.991 23.305 160.017 23.1829 160.043C23.0607 160.071 22.9059 160.085 22.7184 160.085C22.4343 160.085 22.1559 160.024 21.8832 159.902C21.6133 159.78 21.3888 159.594 21.2099 159.344C21.0337 159.094 20.9457 158.778 20.9457 158.398V151.886ZM24.8619 160V153.455H25.8335V154.443H25.9016C26.021 154.119 26.2369 153.857 26.5494 153.655C26.8619 153.453 27.2141 153.352 27.6062 153.352C27.68 153.352 27.7724 153.354 27.8832 153.357C27.994 153.359 28.0778 153.364 28.1346 153.369V154.392C28.1005 154.384 28.0224 154.371 27.9002 154.354C27.7809 154.334 27.6545 154.324 27.521 154.324C27.2028 154.324 26.9187 154.391 26.6687 154.524C26.4215 154.655 26.2255 154.837 26.0806 155.07C25.9386 155.3 25.8675 155.562 25.8675 155.858V160H24.8619ZM31.2528 160.153C30.8381 160.153 30.4616 160.075 30.1236 159.919C29.7855 159.76 29.517 159.531 29.3182 159.233C29.1193 158.932 29.0199 158.568 29.0199 158.142C29.0199 157.767 29.0938 157.463 29.2415 157.23C29.3892 156.994 29.5866 156.81 29.8338 156.676C30.081 156.543 30.3537 156.443 30.652 156.378C30.9531 156.31 31.2557 156.256 31.5597 156.216C31.9574 156.165 32.2798 156.126 32.527 156.101C32.777 156.072 32.9588 156.026 33.0724 155.96C33.1889 155.895 33.2472 155.781 33.2472 155.619V155.585C33.2472 155.165 33.1321 154.838 32.902 154.605C32.6747 154.372 32.3295 154.256 31.8665 154.256C31.3864 154.256 31.0099 154.361 30.7372 154.571C30.4645 154.781 30.2727 155.006 30.1619 155.244L29.2074 154.903C29.3778 154.506 29.6051 154.196 29.8892 153.974C30.1761 153.75 30.4886 153.594 30.8267 153.506C31.1676 153.415 31.5028 153.369 31.8324 153.369C32.0426 153.369 32.2841 153.395 32.5568 153.446C32.8324 153.494 33.098 153.595 33.3537 153.749C33.6122 153.902 33.8267 154.134 33.9972 154.443C34.1676 154.753 34.2528 155.168 34.2528 155.688V160H33.2472V159.114H33.196C33.1278 159.256 33.0142 159.408 32.8551 159.57C32.696 159.732 32.4844 159.869 32.2202 159.983C31.956 160.097 31.6335 160.153 31.2528 160.153ZM31.4062 159.25C31.804 159.25 32.1392 159.172 32.4119 159.016C32.6875 158.859 32.8949 158.658 33.0341 158.411C33.1761 158.163 33.2472 157.903 33.2472 157.631V156.71C33.2045 156.761 33.1108 156.808 32.9659 156.851C32.8239 156.891 32.6591 156.926 32.4716 156.957C32.2869 156.986 32.1065 157.011 31.9304 157.034C31.7571 157.054 31.6165 157.071 31.5085 157.085C31.2472 157.119 31.0028 157.175 30.7756 157.251C30.5511 157.325 30.3693 157.437 30.2301 157.588C30.0938 157.736 30.0256 157.937 30.0256 158.193C30.0256 158.543 30.1548 158.807 30.4134 158.986C30.6747 159.162 31.0057 159.25 31.4062 159.25ZM36.0884 160V153.455H37.0941V160H36.0884ZM36.5998 152.364C36.4038 152.364 36.2347 152.297 36.0927 152.163C35.9535 152.03 35.8839 151.869 35.8839 151.682C35.8839 151.494 35.9535 151.334 36.0927 151.2C36.2347 151.067 36.4038 151 36.5998 151C36.7958 151 36.9634 151.067 37.1026 151.2C37.2447 151.334 37.3157 151.494 37.3157 151.682C37.3157 151.869 37.2447 152.03 37.1026 152.163C36.9634 152.297 36.7958 152.364 36.5998 152.364ZM41.7827 153.455V154.307H38.3906V153.455H41.7827ZM39.3793 151.886H40.3849V158.125C40.3849 158.409 40.4261 158.622 40.5085 158.764C40.5938 158.903 40.7017 158.997 40.8324 159.045C40.9659 159.091 41.1065 159.114 41.2543 159.114C41.3651 159.114 41.456 159.108 41.527 159.097C41.598 159.082 41.6548 159.071 41.6974 159.062L41.902 159.966C41.8338 159.991 41.7386 160.017 41.6165 160.043C41.4943 160.071 41.3395 160.085 41.152 160.085C40.8679 160.085 40.5895 160.024 40.3168 159.902C40.0469 159.78 39.8224 159.594 39.6435 159.344C39.4673 159.094 39.3793 158.778 39.3793 158.398V151.886ZM47.8146 154.92L46.9112 155.176C46.8544 155.026 46.7706 154.879 46.6598 154.737C46.5518 154.592 46.4041 154.473 46.2166 154.379C46.0291 154.286 45.7891 154.239 45.4964 154.239C45.0959 154.239 44.7621 154.331 44.495 154.516C44.2308 154.697 44.0987 154.929 44.0987 155.21C44.0987 155.46 44.1896 155.658 44.3714 155.803C44.5533 155.947 44.8374 156.068 45.2237 156.165L46.1953 156.403C46.7805 156.545 47.2166 156.763 47.5036 157.055C47.7905 157.345 47.9339 157.719 47.9339 158.176C47.9339 158.551 47.826 158.886 47.6101 159.182C47.397 159.477 47.0987 159.71 46.7152 159.881C46.3317 160.051 45.8857 160.136 45.3771 160.136C44.7095 160.136 44.157 159.991 43.7195 159.702C43.282 159.412 43.005 158.989 42.8885 158.432L43.843 158.193C43.9339 158.545 44.1058 158.81 44.3587 158.986C44.6143 159.162 44.9482 159.25 45.3601 159.25C45.8288 159.25 46.201 159.151 46.4766 158.952C46.755 158.75 46.8942 158.509 46.8942 158.227C46.8942 158 46.8146 157.81 46.6555 157.656C46.4964 157.5 46.2521 157.384 45.9226 157.307L44.8317 157.051C44.2322 156.909 43.7919 156.689 43.5107 156.391C43.2322 156.089 43.093 155.713 43.093 155.261C43.093 154.892 43.1967 154.565 43.4041 154.281C43.6143 153.997 43.8999 153.774 44.2607 153.612C44.6243 153.45 45.0362 153.369 45.4964 153.369C46.1442 153.369 46.6527 153.511 47.022 153.795C47.3942 154.08 47.6584 154.455 47.8146 154.92ZM55.4819 160.136C54.8683 160.136 54.3398 159.991 53.8967 159.702C53.4535 159.412 53.1126 159.013 52.8739 158.504C52.6353 157.996 52.516 157.415 52.516 156.761C52.516 156.097 52.6381 155.51 52.8825 155.001C53.1296 154.49 53.4734 154.091 53.9137 153.804C54.3569 153.514 54.8739 153.369 55.4648 153.369C55.9251 153.369 56.3398 153.455 56.7092 153.625C57.0785 153.795 57.381 154.034 57.6168 154.341C57.8526 154.648 57.9989 155.006 58.0558 155.415H57.0501C56.9734 155.116 56.8029 154.852 56.5387 154.622C56.2773 154.389 55.9251 154.273 55.4819 154.273C55.0898 154.273 54.7461 154.375 54.4506 154.58C54.158 154.781 53.9293 155.067 53.7646 155.436C53.6026 155.803 53.5217 156.233 53.5217 156.727C53.5217 157.233 53.6012 157.673 53.7603 158.048C53.9222 158.423 54.1495 158.714 54.4421 158.922C54.7376 159.129 55.0842 159.233 55.4819 159.233C55.7433 159.233 55.9805 159.188 56.1935 159.097C56.4066 159.006 56.587 158.875 56.7347 158.705C56.8825 158.534 56.9876 158.33 57.0501 158.091H58.0558C57.9989 158.477 57.8583 158.825 57.6339 159.135C57.4123 159.442 57.1183 159.686 56.7518 159.868C56.3881 160.047 55.9648 160.136 55.4819 160.136ZM62.185 160.136C61.5941 160.136 61.0756 159.996 60.6296 159.714C60.1864 159.433 59.8398 159.04 59.5898 158.534C59.3427 158.028 59.2191 157.437 59.2191 156.761C59.2191 156.08 59.3427 155.484 59.5898 154.976C59.8398 154.467 60.1864 154.072 60.6296 153.791C61.0756 153.51 61.5941 153.369 62.185 153.369C62.7759 153.369 63.293 153.51 63.7362 153.791C64.1822 154.072 64.5288 154.467 64.7759 154.976C65.0259 155.484 65.1509 156.08 65.1509 156.761C65.1509 157.437 65.0259 158.028 64.7759 158.534C64.5288 159.04 64.1822 159.433 63.7362 159.714C63.293 159.996 62.7759 160.136 62.185 160.136ZM62.185 159.233C62.6339 159.233 63.0032 159.118 63.293 158.888C63.5827 158.658 63.7972 158.355 63.9364 157.98C64.0756 157.605 64.1452 157.199 64.1452 156.761C64.1452 156.324 64.0756 155.916 63.9364 155.538C63.7972 155.161 63.5827 154.855 63.293 154.622C63.0032 154.389 62.6339 154.273 62.185 154.273C61.7362 154.273 61.3668 154.389 61.0771 154.622C60.7873 154.855 60.5728 155.161 60.4336 155.538C60.2944 155.916 60.2248 156.324 60.2248 156.761C60.2248 157.199 60.2944 157.605 60.4336 157.98C60.5728 158.355 60.7873 158.658 61.0771 158.888C61.3668 159.118 61.7362 159.233 62.185 159.233ZM66.6861 160V153.455H67.6577V154.477H67.7429C67.8793 154.128 68.0994 153.857 68.4034 153.663C68.7074 153.467 69.0724 153.369 69.4986 153.369C69.9304 153.369 70.2898 153.467 70.5767 153.663C70.8665 153.857 71.0923 154.128 71.2543 154.477H71.3224C71.4901 154.139 71.7415 153.871 72.0767 153.672C72.4119 153.47 72.8139 153.369 73.2827 153.369C73.8679 153.369 74.3466 153.553 74.7188 153.919C75.0909 154.283 75.277 154.849 75.277 155.619V160H74.2713V155.619C74.2713 155.136 74.1392 154.791 73.875 154.584C73.6108 154.376 73.2997 154.273 72.9418 154.273C72.4815 154.273 72.125 154.412 71.8722 154.69C71.6193 154.966 71.4929 155.315 71.4929 155.739V160H70.4702V155.517C70.4702 155.145 70.3494 154.845 70.108 154.618C69.8665 154.388 69.5554 154.273 69.1747 154.273C68.9134 154.273 68.669 154.342 68.4418 154.482C68.2173 154.621 68.0355 154.814 67.8963 155.061C67.7599 155.305 67.6918 155.588 67.6918 155.909V160H66.6861ZM77.1158 162.455V153.455H78.0874V154.494H78.2067C78.2805 154.381 78.3828 154.236 78.5135 154.06C78.647 153.881 78.8374 153.722 79.0845 153.582C79.3345 153.44 79.6726 153.369 80.0987 153.369C80.6499 153.369 81.1357 153.507 81.5561 153.783C81.9766 154.058 82.3047 154.449 82.5405 154.955C82.7763 155.46 82.8942 156.057 82.8942 156.744C82.8942 157.438 82.7763 158.038 82.5405 158.547C82.3047 159.053 81.978 159.445 81.5604 159.723C81.1428 159.999 80.6612 160.136 80.1158 160.136C79.6953 160.136 79.3587 160.067 79.1058 159.928C78.853 159.786 78.6584 159.625 78.522 159.446C78.3857 159.264 78.2805 159.114 78.2067 158.994H78.1214V162.455H77.1158ZM78.1044 156.727C78.1044 157.222 78.1768 157.658 78.3217 158.036C78.4666 158.411 78.6783 158.705 78.9567 158.918C79.2351 159.128 79.576 159.233 79.9794 159.233C80.3999 159.233 80.7507 159.122 81.032 158.901C81.3161 158.676 81.5291 158.375 81.6712 157.997C81.8161 157.616 81.8885 157.193 81.8885 156.727C81.8885 156.267 81.8175 155.852 81.6754 155.483C81.5362 155.111 81.3246 154.817 81.0405 154.601C80.7592 154.382 80.4055 154.273 79.9794 154.273C79.5703 154.273 79.2266 154.376 78.9482 154.584C78.6697 154.788 78.4595 155.075 78.3175 155.445C78.1754 155.811 78.1044 156.239 78.1044 156.727ZM86.3544 160.153C85.9396 160.153 85.5632 160.075 85.2251 159.919C84.8871 159.76 84.6186 159.531 84.4197 159.233C84.2209 158.932 84.1214 158.568 84.1214 158.142C84.1214 157.767 84.1953 157.463 84.343 157.23C84.4908 156.994 84.6882 156.81 84.9354 156.676C85.1825 156.543 85.4553 156.443 85.7536 156.378C86.0547 156.31 86.3572 156.256 86.6612 156.216C87.0589 156.165 87.3814 156.126 87.6286 156.101C87.8786 156.072 88.0604 156.026 88.174 155.96C88.2905 155.895 88.3487 155.781 88.3487 155.619V155.585C88.3487 155.165 88.2337 154.838 88.0036 154.605C87.7763 154.372 87.4311 154.256 86.968 154.256C86.4879 154.256 86.1115 154.361 85.8388 154.571C85.5661 154.781 85.3743 155.006 85.2635 155.244L84.3089 154.903C84.4794 154.506 84.7067 154.196 84.9908 153.974C85.2777 153.75 85.5902 153.594 85.9283 153.506C86.2692 153.415 86.6044 153.369 86.9339 153.369C87.1442 153.369 87.3857 153.395 87.6584 153.446C87.9339 153.494 88.1996 153.595 88.4553 153.749C88.7138 153.902 88.9283 154.134 89.0987 154.443C89.2692 154.753 89.3544 155.168 89.3544 155.688V160H88.3487V159.114H88.2976C88.2294 159.256 88.1158 159.408 87.9567 159.57C87.7976 159.732 87.5859 159.869 87.3217 159.983C87.0575 160.097 86.7351 160.153 86.3544 160.153ZM86.5078 159.25C86.9055 159.25 87.2408 159.172 87.5135 159.016C87.7891 158.859 87.9964 158.658 88.1357 158.411C88.2777 158.163 88.3487 157.903 88.3487 157.631V156.71C88.3061 156.761 88.2124 156.808 88.0675 156.851C87.9254 156.891 87.7607 156.926 87.5732 156.957C87.3885 156.986 87.2081 157.011 87.032 157.034C86.8587 157.054 86.718 157.071 86.6101 157.085C86.3487 157.119 86.1044 157.175 85.8771 157.251C85.6527 157.325 85.4709 157.437 85.3317 157.588C85.1953 157.736 85.1271 157.937 85.1271 158.193C85.1271 158.543 85.2564 158.807 85.5149 158.986C85.7763 159.162 86.1072 159.25 86.5078 159.25ZM91.19 160V153.455H92.1616V154.443H92.2298C92.3491 154.119 92.565 153.857 92.8775 153.655C93.19 153.453 93.5423 153.352 93.9343 153.352C94.0082 153.352 94.1005 153.354 94.2113 153.357C94.3221 153.359 94.4059 153.364 94.4627 153.369V154.392C94.4286 154.384 94.3505 154.371 94.2283 154.354C94.109 154.334 93.9826 154.324 93.8491 154.324C93.5309 154.324 93.2468 154.391 92.9968 154.524C92.7496 154.655 92.5536 154.837 92.4087 155.07C92.2667 155.3 92.1957 155.562 92.1957 155.858V160H91.19ZM95.6548 160V153.455H96.6605V160H95.6548ZM96.1662 152.364C95.9702 152.364 95.8011 152.297 95.6591 152.163C95.5199 152.03 95.4503 151.869 95.4503 151.682C95.4503 151.494 95.5199 151.334 95.6591 151.2C95.8011 151.067 95.9702 151 96.1662 151C96.3622 151 96.5298 151.067 96.669 151.2C96.8111 151.334 96.8821 151.494 96.8821 151.682C96.8821 151.869 96.8111 152.03 96.669 152.163C96.5298 152.297 96.3622 152.364 96.1662 152.364ZM103.139 154.92L102.235 155.176C102.179 155.026 102.095 154.879 101.984 154.737C101.876 154.592 101.728 154.473 101.541 154.379C101.353 154.286 101.113 154.239 100.821 154.239C100.42 154.239 100.086 154.331 99.8192 154.516C99.555 154.697 99.4229 154.929 99.4229 155.21C99.4229 155.46 99.5138 155.658 99.6957 155.803C99.8775 155.947 100.162 156.068 100.548 156.165L101.52 156.403C102.105 156.545 102.541 156.763 102.828 157.055C103.115 157.345 103.258 157.719 103.258 158.176C103.258 158.551 103.15 158.886 102.934 159.182C102.721 159.477 102.423 159.71 102.039 159.881C101.656 160.051 101.21 160.136 100.701 160.136C100.034 160.136 99.4812 159.991 99.0437 159.702C98.6062 159.412 98.3292 158.989 98.2127 158.432L99.1673 158.193C99.2582 158.545 99.43 158.81 99.6829 158.986C99.9386 159.162 100.272 159.25 100.684 159.25C101.153 159.25 101.525 159.151 101.801 158.952C102.079 158.75 102.218 158.509 102.218 158.227C102.218 158 102.139 157.81 101.98 157.656C101.821 157.5 101.576 157.384 101.247 157.307L100.156 157.051C99.5565 156.909 99.1161 156.689 98.8349 156.391C98.5565 156.089 98.4173 155.713 98.4173 155.261C98.4173 154.892 98.521 154.565 98.7283 154.281C98.9386 153.997 99.2241 153.774 99.5849 153.612C99.9485 153.45 100.36 153.369 100.821 153.369C101.468 153.369 101.977 153.511 102.346 153.795C102.718 154.08 102.983 154.455 103.139 154.92ZM107.431 160.136C106.84 160.136 106.322 159.996 105.876 159.714C105.433 159.433 105.086 159.04 104.836 158.534C104.589 158.028 104.465 157.437 104.465 156.761C104.465 156.08 104.589 155.484 104.836 154.976C105.086 154.467 105.433 154.072 105.876 153.791C106.322 153.51 106.84 153.369 107.431 153.369C108.022 153.369 108.539 153.51 108.982 153.791C109.428 154.072 109.775 154.467 110.022 154.976C110.272 155.484 110.397 156.08 110.397 156.761C110.397 157.437 110.272 158.028 110.022 158.534C109.775 159.04 109.428 159.433 108.982 159.714C108.539 159.996 108.022 160.136 107.431 160.136ZM107.431 159.233C107.88 159.233 108.249 159.118 108.539 158.888C108.829 158.658 109.043 158.355 109.183 157.98C109.322 157.605 109.391 157.199 109.391 156.761C109.391 156.324 109.322 155.916 109.183 155.538C109.043 155.161 108.829 154.855 108.539 154.622C108.249 154.389 107.88 154.273 107.431 154.273C106.982 154.273 106.613 154.389 106.323 154.622C106.033 154.855 105.819 155.161 105.68 155.538C105.54 155.916 105.471 156.324 105.471 156.761C105.471 157.199 105.54 157.605 105.68 157.98C105.819 158.355 106.033 158.658 106.323 158.888C106.613 159.118 106.982 159.233 107.431 159.233ZM112.938 156.062V160H111.932V153.455H112.904V154.477H112.989C113.142 154.145 113.375 153.878 113.688 153.676C114 153.472 114.404 153.369 114.898 153.369C115.341 153.369 115.729 153.46 116.061 153.642C116.394 153.821 116.652 154.094 116.837 154.46C117.022 154.824 117.114 155.284 117.114 155.841V160H116.108V155.909C116.108 155.395 115.975 154.994 115.708 154.707C115.441 154.418 115.074 154.273 114.608 154.273C114.287 154.273 114 154.342 113.748 154.482C113.498 154.621 113.3 154.824 113.155 155.091C113.01 155.358 112.938 155.682 112.938 156.062Z" fill="#282F37"/>
<path fill-rule="evenodd" clip-rule="evenodd" d="M232.001 148.833C228.043 148.833 224.834 152.042 224.834 156C224.834 159.958 228.043 163.167 232.001 163.167C235.959 163.167 239.167 159.958 239.167 156C239.167 152.042 235.959 148.833 232.001 148.833ZM232.501 153.333C232.501 153.057 232.277 152.833 232.001 152.833C231.725 152.833 231.501 153.057 231.501 153.333V156.667C231.501 156.943 231.725 157.167 232.001 157.167C232.277 157.167 232.501 156.943 232.501 156.667V153.333ZM232.667 158.667C232.667 159.035 232.369 159.333 232.001 159.333C231.632 159.333 231.334 159.035 231.334 158.667C231.334 158.298 231.632 158 232.001 158C232.369 158 232.667 158.298 232.667 158.667Z" fill="#DF3232"/>
</svg>
