<svg width="240" height="188" viewBox="0 0 240 188" fill="none" xmlns="http://www.w3.org/2000/svg">
<path d="M2.84872 4.81818V15H1.00426V4.81818H2.84872ZM4.76651 15V7.36364H6.48668V8.66122H6.57617C6.73526 8.22372 6.99876 7.88234 7.36665 7.63707C7.73455 7.38849 8.17371 7.2642 8.68413 7.2642C9.20117 7.2642 9.63701 7.39015 9.99166 7.64205C10.3496 7.89062 10.6015 8.23035 10.7473 8.66122H10.8269C10.9959 8.23698 11.281 7.89891 11.682 7.64702C12.0864 7.39181 12.5653 7.2642 13.1188 7.2642C13.8214 7.2642 14.3948 7.48627 14.839 7.9304C15.2831 8.37453 15.5051 9.02249 15.5051 9.87429V15H13.7005V10.1527C13.7005 9.67874 13.5745 9.33239 13.3226 9.11364C13.0707 8.89157 12.7625 8.78054 12.3979 8.78054C11.9637 8.78054 11.624 8.91643 11.3787 9.18821C11.1368 9.45668 11.0158 9.80634 11.0158 10.2372V15H9.25089V10.0781C9.25089 9.68371 9.13157 9.36884 8.89293 9.13352C8.65761 8.8982 8.34937 8.78054 7.96822 8.78054C7.70969 8.78054 7.47437 8.84683 7.26225 8.9794C7.05013 9.10866 6.8811 9.29261 6.75515 9.53125C6.6292 9.76657 6.56623 10.0417 6.56623 10.3565V15H4.76651ZM19.5284 15.1541C19.0445 15.1541 18.6087 15.0679 18.2209 14.8956C17.8364 14.7199 17.5315 14.4614 17.3061 14.12C17.084 13.7786 16.973 13.3577 16.973 12.8572C16.973 12.4264 17.0526 12.0701 17.2116 11.7884C17.3707 11.5066 17.5878 11.2812 17.8629 11.1122C18.138 10.9432 18.4479 10.8156 18.7926 10.7294C19.1406 10.6399 19.5002 10.5753 19.8714 10.5355C20.3189 10.4891 20.6818 10.4477 20.9602 10.4112C21.2386 10.3714 21.4408 10.3118 21.5668 10.2322C21.696 10.1494 21.7607 10.0218 21.7607 9.84943V9.8196C21.7607 9.44508 21.6496 9.15507 21.4276 8.94957C21.2055 8.74408 20.8857 8.64134 20.468 8.64134C20.0272 8.64134 19.6776 8.73745 19.419 8.92969C19.1638 9.12192 18.9915 9.34896 18.902 9.6108L17.2216 9.37216C17.3542 8.90814 17.5729 8.52036 17.8778 8.20881C18.1828 7.89394 18.5556 7.65862 18.9964 7.50284C19.4373 7.34375 19.9245 7.2642 20.4581 7.2642C20.826 7.2642 21.1922 7.30729 21.5568 7.39347C21.9214 7.47964 22.2545 7.62216 22.5561 7.82102C22.8577 8.01657 23.0997 8.28338 23.282 8.62145C23.4676 8.95952 23.5604 9.3821 23.5604 9.8892V15H21.8303V13.951H21.7706C21.6612 14.1631 21.5071 14.362 21.3082 14.5476C21.1127 14.7299 20.8658 14.8774 20.5675 14.9901C20.2725 15.0994 19.9261 15.1541 19.5284 15.1541ZM19.9957 13.8317C20.357 13.8317 20.6702 13.7604 20.9354 13.6179C21.2005 13.4721 21.4044 13.2798 21.5469 13.0412C21.6927 12.8026 21.7656 12.5424 21.7656 12.2607V11.3608C21.7093 11.4072 21.6132 11.4503 21.4773 11.4901C21.3447 11.5298 21.1955 11.5646 21.0298 11.5945C20.8641 11.6243 20.7 11.6508 20.5376 11.674C20.3752 11.6972 20.2344 11.7171 20.1151 11.7337C19.8466 11.7701 19.6063 11.8298 19.3942 11.9126C19.1821 11.9955 19.0147 12.1115 18.892 12.2607C18.7694 12.4065 18.7081 12.5954 18.7081 12.8274C18.7081 13.1589 18.8291 13.4091 19.071 13.5781C19.313 13.7472 19.6212 13.8317 19.9957 13.8317ZM28.6911 18.0227C28.0447 18.0227 27.4896 17.9349 27.0256 17.7592C26.5616 17.5869 26.1887 17.3549 25.907 17.0632C25.6252 16.7715 25.4297 16.4484 25.3203 16.0938L26.9411 15.701C27.014 15.8501 27.12 15.9976 27.2592 16.1435C27.3984 16.2926 27.5857 16.4152 27.821 16.5114C28.0597 16.6108 28.3596 16.6605 28.7209 16.6605C29.2313 16.6605 29.6539 16.5362 29.9886 16.2876C30.3234 16.0424 30.4908 15.638 30.4908 15.0746V13.6278H30.4013C30.3085 13.8134 30.1726 14.004 29.9936 14.1996C29.8179 14.3951 29.5843 14.5592 29.2926 14.6918C29.0043 14.8243 28.6413 14.8906 28.2038 14.8906C27.6172 14.8906 27.0852 14.7531 26.608 14.478C26.134 14.1996 25.7562 13.7853 25.4744 13.2351C25.196 12.6816 25.0568 11.9889 25.0568 11.157C25.0568 10.3184 25.196 9.6108 25.4744 9.03409C25.7562 8.45407 26.1357 8.01491 26.6129 7.71662C27.0902 7.41501 27.6222 7.2642 28.2088 7.2642C28.6563 7.2642 29.0241 7.34044 29.3125 7.4929C29.6042 7.64205 29.8362 7.82268 30.0085 8.0348C30.1809 8.24361 30.3118 8.44081 30.4013 8.62642H30.5007V7.36364H32.2756V15.1243C32.2756 15.7772 32.1198 16.3175 31.8082 16.745C31.4967 17.1726 31.0708 17.4924 30.5305 17.7045C29.9903 17.9167 29.3771 18.0227 28.6911 18.0227ZM28.706 13.4787C29.0871 13.4787 29.4119 13.3859 29.6804 13.2003C29.9489 13.0147 30.1527 12.7479 30.2919 12.3999C30.4311 12.0518 30.5007 11.6342 30.5007 11.147C30.5007 10.6664 30.4311 10.2455 30.2919 9.88423C30.156 9.52296 29.9538 9.2429 29.6854 9.04403C29.4202 8.84186 29.0938 8.74077 28.706 8.74077C28.3049 8.74077 27.9702 8.84517 27.7017 9.05398C27.4332 9.26278 27.2311 9.54948 27.0952 9.91406C26.9593 10.2753 26.8913 10.6863 26.8913 11.147C26.8913 11.6143 26.9593 12.0237 27.0952 12.375C27.2344 12.723 27.4382 12.9948 27.7067 13.1903C27.9785 13.3826 28.3116 13.4787 28.706 13.4787ZM37.5007 15.1491C36.7351 15.1491 36.0739 14.9901 35.517 14.6719C34.9635 14.3504 34.5376 13.8963 34.2393 13.3097C33.9411 12.7197 33.7919 12.0253 33.7919 11.2266C33.7919 10.4411 33.9411 9.75166 34.2393 9.15838C34.541 8.56179 34.9619 8.09777 35.5021 7.76633C36.0424 7.43158 36.6771 7.2642 37.4062 7.2642C37.8769 7.2642 38.321 7.34044 38.7386 7.4929C39.1596 7.64205 39.5308 7.87405 39.8523 8.18892C40.1771 8.50379 40.4323 8.90483 40.6179 9.39205C40.8035 9.87595 40.8963 10.4527 40.8963 11.1222V11.674H34.6371V10.4609H39.1712C39.1679 10.1162 39.0933 9.80966 38.9474 9.54119C38.8016 9.26941 38.5978 9.05563 38.3359 8.89986C38.0774 8.74408 37.7758 8.66619 37.4311 8.66619C37.0632 8.66619 36.7401 8.75568 36.4616 8.93466C36.1832 9.11032 35.9661 9.34233 35.8104 9.63068C35.6579 9.91572 35.58 10.2289 35.5767 10.5703V11.6293C35.5767 12.0734 35.6579 12.4545 35.8203 12.7727C35.9827 13.0876 36.2098 13.3295 36.5014 13.4986C36.7931 13.6643 37.1345 13.7472 37.5256 13.7472C37.7874 13.7472 38.0244 13.7107 38.2365 13.6378C38.4486 13.5616 38.6326 13.4505 38.7884 13.3047C38.9441 13.1589 39.0618 12.9782 39.1413 12.7628L40.8217 12.9517C40.7157 13.3958 40.5135 13.7836 40.2152 14.1151C39.9202 14.4432 39.5424 14.6984 39.0817 14.8807C38.621 15.0597 38.094 15.1491 37.5007 15.1491ZM50.9874 17.8636V13.7969H50.9128C50.82 13.9825 50.6858 14.1797 50.5101 14.3885C50.3345 14.594 50.1025 14.7696 49.8141 14.9155C49.5257 15.0613 49.1628 15.1342 48.7253 15.1342C48.1254 15.1342 47.5885 14.9801 47.1145 14.6719C46.6406 14.3636 46.266 13.9162 45.9909 13.3295C45.7158 12.7429 45.5783 12.0303 45.5783 11.1918C45.5783 10.3433 45.7175 9.62737 45.9959 9.04403C46.2776 8.45739 46.6571 8.01491 47.1344 7.71662C47.6117 7.41501 48.1436 7.2642 48.7303 7.2642C49.1777 7.2642 49.5456 7.34044 49.834 7.4929C50.1223 7.64205 50.351 7.82268 50.5201 8.0348C50.6891 8.24361 50.82 8.44081 50.9128 8.62642H51.0222V7.36364H52.7921V17.8636H50.9874ZM49.2275 13.6577C49.6086 13.6577 49.9334 13.5549 50.2019 13.3494C50.4703 13.1406 50.6742 12.8506 50.8134 12.4794C50.9526 12.1082 51.0222 11.6757 51.0222 11.1818C51.0222 10.688 50.9526 10.2588 50.8134 9.89418C50.6775 9.52959 50.4753 9.24621 50.2069 9.04403C49.9417 8.84186 49.6152 8.74077 49.2275 8.74077C48.8264 8.74077 48.4917 8.84517 48.2232 9.05398C47.9547 9.26278 47.7525 9.55114 47.6167 9.91903C47.4808 10.2869 47.4128 10.7079 47.4128 11.1818C47.4128 11.6591 47.4808 12.085 47.6167 12.4595C47.7559 12.8307 47.9597 13.1241 48.2282 13.3395C48.4999 13.5516 48.833 13.6577 49.2275 13.6577ZM59.5087 11.7884V7.36364H61.3084V15H59.5634V13.6428H59.4838C59.3115 14.0703 59.0281 14.42 58.6337 14.6918C58.2426 14.9635 57.7604 15.0994 57.187 15.0994C56.6865 15.0994 56.244 14.9884 55.8596 14.7663C55.4784 14.541 55.1801 14.2145 54.9647 13.7869C54.7492 13.3561 54.6415 12.8357 54.6415 12.2259V7.36364H56.4412V11.9474C56.4412 12.4313 56.5738 12.8158 56.839 13.1009C57.1041 13.3859 57.4521 13.5284 57.883 13.5284C58.1481 13.5284 58.405 13.4638 58.6536 13.3345C58.9022 13.2053 59.106 13.013 59.2651 12.7578C59.4275 12.4993 59.5087 12.1761 59.5087 11.7884ZM65.3565 15.1541C64.8726 15.1541 64.4368 15.0679 64.049 14.8956C63.6645 14.7199 63.3596 14.4614 63.1342 14.12C62.9122 13.7786 62.8011 13.3577 62.8011 12.8572C62.8011 12.4264 62.8807 12.0701 63.0398 11.7884C63.1989 11.5066 63.416 11.2812 63.6911 11.1122C63.9661 10.9432 64.276 10.8156 64.6207 10.7294C64.9688 10.6399 65.3284 10.5753 65.6996 10.5355C66.147 10.4891 66.5099 10.4477 66.7884 10.4112C67.0668 10.3714 67.2689 10.3118 67.3949 10.2322C67.5241 10.1494 67.5888 10.0218 67.5888 9.84943V9.8196C67.5888 9.44508 67.4777 9.15507 67.2557 8.94957C67.0336 8.74408 66.7138 8.64134 66.2962 8.64134C65.8554 8.64134 65.5057 8.73745 65.2472 8.92969C64.992 9.12192 64.8196 9.34896 64.7301 9.6108L63.0497 9.37216C63.1823 8.90814 63.401 8.52036 63.706 8.20881C64.0109 7.89394 64.3838 7.65862 64.8246 7.50284C65.2654 7.34375 65.7526 7.2642 66.2862 7.2642C66.6541 7.2642 67.0204 7.30729 67.3849 7.39347C67.7495 7.47964 68.0826 7.62216 68.3842 7.82102C68.6858 8.01657 68.9278 8.28338 69.1101 8.62145C69.2957 8.95952 69.3885 9.3821 69.3885 9.8892V15H67.6584V13.951H67.5987C67.4893 14.1631 67.3352 14.362 67.1364 14.5476C66.9408 14.7299 66.6939 14.8774 66.3956 14.9901C66.1006 15.0994 65.7543 15.1541 65.3565 15.1541ZM65.8239 13.8317C66.1851 13.8317 66.4983 13.7604 66.7635 13.6179C67.0286 13.4721 67.2325 13.2798 67.375 13.0412C67.5208 12.8026 67.5938 12.5424 67.5938 12.2607V11.3608C67.5374 11.4072 67.4413 11.4503 67.3054 11.4901C67.1728 11.5298 67.0237 11.5646 66.858 11.5945C66.6922 11.6243 66.5282 11.6508 66.3658 11.674C66.2034 11.6972 66.0625 11.7171 65.9432 11.7337C65.6747 11.7701 65.4344 11.8298 65.2223 11.9126C65.0102 11.9955 64.8428 12.1115 64.7202 12.2607C64.5975 12.4065 64.5362 12.5954 64.5362 12.8274C64.5362 13.1589 64.6572 13.4091 64.8991 13.5781C65.1411 13.7472 65.4493 13.8317 65.8239 13.8317ZM72.9979 4.81818V15H71.1982V4.81818H72.9979ZM74.8485 15V7.36364H76.6483V15H74.8485ZM75.7534 6.27983C75.4683 6.27983 75.2231 6.18537 75.0176 5.99645C74.8121 5.80421 74.7093 5.57386 74.7093 5.3054C74.7093 5.03362 74.8121 4.80327 75.0176 4.61435C75.2231 4.42211 75.4683 4.32599 75.7534 4.32599C76.0417 4.32599 76.287 4.42211 76.4892 4.61435C76.6947 4.80327 76.7974 5.03362 76.7974 5.3054C76.7974 5.57386 76.6947 5.80421 76.4892 5.99645C76.287 6.18537 76.0417 6.27983 75.7534 6.27983ZM82.3121 7.36364V8.75568H77.9222V7.36364H82.3121ZM79.006 5.53409H80.8058V12.7031C80.8058 12.9451 80.8422 13.1307 80.9151 13.2599C80.9914 13.3859 81.0908 13.4721 81.2134 13.5185C81.3361 13.5649 81.4719 13.5881 81.6211 13.5881C81.7338 13.5881 81.8365 13.5798 81.9293 13.5632C82.0254 13.5466 82.0984 13.5317 82.1481 13.5185L82.4513 14.9254C82.3552 14.9586 82.2177 14.995 82.0387 15.0348C81.863 15.0746 81.6476 15.0978 81.3924 15.1044C80.9416 15.1177 80.5356 15.0497 80.1744 14.9006C79.8131 14.7481 79.5264 14.5128 79.3143 14.1946C79.1055 13.8764 79.0027 13.4787 79.006 13.0014V5.53409ZM84.9359 17.8636C84.6906 17.8636 84.4636 17.8438 84.2548 17.804C84.0493 17.7675 83.8852 17.7244 83.7626 17.6747L84.1802 16.2727C84.4421 16.349 84.6757 16.3854 84.8812 16.3821C85.0867 16.3788 85.2673 16.3142 85.4231 16.1882C85.5822 16.0656 85.7164 15.8601 85.8258 15.5717L85.9799 15.1591L83.2108 7.36364H85.1199L86.8798 13.1307H86.9593L88.7243 7.36364H90.6383L87.5808 15.9247C87.4383 16.3291 87.2493 16.6754 87.014 16.9638C86.7787 17.2554 86.4904 17.4775 86.149 17.63C85.8109 17.7857 85.4065 17.8636 84.9359 17.8636Z" fill="#282F37"/>
<path d="M3.75 40H1.05682V31.2727H3.86932C4.71591 31.2727 5.44034 31.4474 6.04261 31.7969C6.64489 32.1435 7.10653 32.642 7.42756 33.2926C7.74858 33.9403 7.90909 34.7159 7.90909 35.6193C7.90909 36.5284 7.74716 37.3111 7.4233 37.9673C7.09943 38.6207 6.62784 39.1236 6.00852 39.4759C5.3892 39.8253 4.63636 40 3.75 40ZM2.11364 39.0625H3.68182C4.40341 39.0625 5.00142 38.9233 5.47585 38.6449C5.95028 38.3665 6.30398 37.9702 6.53693 37.456C6.76989 36.9418 6.88636 36.3295 6.88636 35.6193C6.88636 34.9148 6.77131 34.3082 6.54119 33.7997C6.31108 33.2884 5.96733 32.8963 5.50994 32.6236C5.05256 32.348 4.48295 32.2102 3.80114 32.2102H2.11364V39.0625ZM12.2045 40.1364C11.6136 40.1364 11.0952 39.9957 10.6491 39.7145C10.206 39.4332 9.85938 39.0398 9.60938 38.5341C9.36222 38.0284 9.23864 37.4375 9.23864 36.7614C9.23864 36.0795 9.36222 35.4844 9.60938 34.9759C9.85938 34.4673 10.206 34.0724 10.6491 33.7912C11.0952 33.5099 11.6136 33.3693 12.2045 33.3693C12.7955 33.3693 13.3125 33.5099 13.7557 33.7912C14.2017 34.0724 14.5483 34.4673 14.7955 34.9759C15.0455 35.4844 15.1705 36.0795 15.1705 36.7614C15.1705 37.4375 15.0455 38.0284 14.7955 38.5341C14.5483 39.0398 14.2017 39.4332 13.7557 39.7145C13.3125 39.9957 12.7955 40.1364 12.2045 40.1364ZM12.2045 39.233C12.6534 39.233 13.0227 39.1179 13.3125 38.8878C13.6023 38.6577 13.8168 38.3551 13.956 37.9801C14.0952 37.6051 14.1648 37.1989 14.1648 36.7614C14.1648 36.3239 14.0952 35.9162 13.956 35.5384C13.8168 35.1605 13.6023 34.8551 13.3125 34.6222C13.0227 34.3892 12.6534 34.2727 12.2045 34.2727C11.7557 34.2727 11.3864 34.3892 11.0966 34.6222C10.8068 34.8551 10.5923 35.1605 10.4531 35.5384C10.3139 35.9162 10.2443 36.3239 10.2443 36.7614C10.2443 37.1989 10.3139 37.6051 10.4531 37.9801C10.5923 38.3551 10.8068 38.6577 11.0966 38.8878C11.3864 39.1179 11.7557 39.233 12.2045 39.233ZM19.3647 40.1364C18.7511 40.1364 18.2227 39.9915 17.7795 39.7017C17.3363 39.4119 16.9954 39.0128 16.7567 38.5043C16.5181 37.9957 16.3988 37.4148 16.3988 36.7614C16.3988 36.0966 16.521 35.5099 16.7653 35.0014C17.0124 34.4901 17.3562 34.0909 17.7965 33.804C18.2397 33.5142 18.7567 33.3693 19.3477 33.3693C19.8079 33.3693 20.2227 33.4545 20.592 33.625C20.9613 33.7955 21.2638 34.0341 21.4996 34.3409C21.7354 34.6477 21.8817 35.0057 21.9386 35.4148H20.9329C20.8562 35.1165 20.6857 34.8523 20.4215 34.6222C20.1602 34.3892 19.8079 34.2727 19.3647 34.2727C18.9727 34.2727 18.6289 34.375 18.3335 34.5795C18.0408 34.7812 17.8121 35.0668 17.6474 35.4361C17.4854 35.8026 17.4045 36.233 17.4045 36.7273C17.4045 37.233 17.484 37.6733 17.6431 38.0483C17.805 38.4233 18.0323 38.7145 18.3249 38.9219C18.6204 39.1293 18.967 39.233 19.3647 39.233C19.6261 39.233 19.8633 39.1875 20.0763 39.0966C20.2894 39.0057 20.4698 38.875 20.6175 38.7045C20.7653 38.5341 20.8704 38.3295 20.9329 38.0909H21.9386C21.8817 38.4773 21.7411 38.8253 21.5167 39.1349C21.2951 39.4418 21.0011 39.6861 20.6346 39.8679C20.271 40.0469 19.8477 40.1364 19.3647 40.1364ZM27.5337 37.3239V33.4545H28.5394V40H27.5337V38.892H27.4656C27.3121 39.2244 27.0735 39.5071 26.7496 39.7401C26.4258 39.9702 26.0167 40.0852 25.5224 40.0852C25.1133 40.0852 24.7496 39.9957 24.4315 39.8168C24.1133 39.6349 23.8633 39.3622 23.6815 38.9986C23.4996 38.6321 23.4087 38.1705 23.4087 37.6136V33.4545H24.4144V37.5455C24.4144 38.0227 24.5479 38.4034 24.815 38.6875C25.0849 38.9716 25.4286 39.1136 25.8462 39.1136C26.0962 39.1136 26.3505 39.0497 26.609 38.9219C26.8704 38.794 27.0891 38.598 27.2653 38.3338C27.4442 38.0696 27.5337 37.733 27.5337 37.3239ZM30.3814 40V33.4545H31.353V34.4773H31.4382C31.5746 34.1278 31.7947 33.8565 32.0987 33.6634C32.4027 33.4673 32.7678 33.3693 33.1939 33.3693C33.6257 33.3693 33.9851 33.4673 34.272 33.6634C34.5618 33.8565 34.7876 34.1278 34.9496 34.4773H35.0178C35.1854 34.1392 35.4368 33.8707 35.772 33.6719C36.1072 33.4702 36.5092 33.3693 36.978 33.3693C37.5632 33.3693 38.0419 33.5526 38.4141 33.919C38.7862 34.2827 38.9723 34.8494 38.9723 35.6193V40H37.9666V35.6193C37.9666 35.1364 37.8345 34.7912 37.5703 34.5838C37.3061 34.3764 36.995 34.2727 36.6371 34.2727C36.1768 34.2727 35.8203 34.4119 35.5675 34.6903C35.3146 34.9659 35.1882 35.3153 35.1882 35.7386V40H34.1655V35.517C34.1655 35.1449 34.0447 34.8452 33.8033 34.6179C33.5618 34.3878 33.2507 34.2727 32.87 34.2727C32.6087 34.2727 32.3643 34.3423 32.1371 34.4815C31.9126 34.6207 31.7308 34.8139 31.5916 35.0611C31.4553 35.3054 31.3871 35.5881 31.3871 35.9091V40H30.3814ZM43.5554 40.1364C42.9247 40.1364 42.3807 39.9972 41.9233 39.7188C41.4688 39.4375 41.1179 39.0455 40.8707 38.5426C40.6264 38.0369 40.5043 37.4489 40.5043 36.7784C40.5043 36.108 40.6264 35.517 40.8707 35.0057C41.1179 34.4915 41.4616 34.0909 41.902 33.804C42.3452 33.5142 42.8622 33.3693 43.4531 33.3693C43.794 33.3693 44.1307 33.4261 44.4631 33.5398C44.7955 33.6534 45.098 33.8381 45.3707 34.0938C45.6435 34.3466 45.8608 34.6818 46.0227 35.0994C46.1847 35.517 46.2656 36.0312 46.2656 36.642V37.0682H41.2202V36.1989H45.2429C45.2429 35.8295 45.169 35.5 45.0213 35.2102C44.8764 34.9205 44.669 34.6918 44.3991 34.5241C44.1321 34.3565 43.8168 34.2727 43.4531 34.2727C43.0526 34.2727 42.706 34.3722 42.4134 34.571C42.1236 34.767 41.9006 35.0227 41.7443 35.3381C41.5881 35.6534 41.5099 35.9915 41.5099 36.3523V36.9318C41.5099 37.4261 41.5952 37.8452 41.7656 38.1889C41.9389 38.5298 42.179 38.7898 42.4858 38.9688C42.7926 39.1449 43.1491 39.233 43.5554 39.233C43.8196 39.233 44.0582 39.196 44.2713 39.1222C44.4872 39.0455 44.6733 38.9318 44.8295 38.7812C44.9858 38.6278 45.1065 38.4375 45.1918 38.2102L46.1634 38.483C46.0611 38.8125 45.8892 39.1023 45.6477 39.3523C45.4063 39.5994 45.108 39.7926 44.7528 39.9318C44.3977 40.0682 43.9986 40.1364 43.5554 40.1364ZM48.8011 36.0625V40H47.7955V33.4545H48.767V34.4773H48.8523C49.0057 34.1449 49.2386 33.8778 49.5511 33.6761C49.8636 33.4716 50.267 33.3693 50.7614 33.3693C51.2045 33.3693 51.5923 33.4602 51.9247 33.642C52.2571 33.821 52.5156 34.0938 52.7003 34.4602C52.8849 34.8239 52.9773 35.2841 52.9773 35.8409V40H51.9716V35.9091C51.9716 35.3949 51.8381 34.9943 51.571 34.7074C51.304 34.4176 50.9375 34.2727 50.4716 34.2727C50.1506 34.2727 49.8636 34.3423 49.6108 34.4815C49.3608 34.6207 49.1634 34.8239 49.0185 35.0909C48.8736 35.358 48.8011 35.6818 48.8011 36.0625ZM57.6616 33.4545V34.3068H54.2695V33.4545H57.6616ZM55.2582 31.8864H56.2638V38.125C56.2638 38.4091 56.305 38.6222 56.3874 38.7642C56.4727 38.9034 56.5806 38.9972 56.7113 39.0455C56.8448 39.0909 56.9854 39.1136 57.1332 39.1136C57.244 39.1136 57.3349 39.108 57.4059 39.0966C57.4769 39.0824 57.5337 39.071 57.5763 39.0625L57.7809 39.9659C57.7127 39.9915 57.6175 40.017 57.4954 40.0426C57.3732 40.071 57.2184 40.0852 57.0309 40.0852C56.7468 40.0852 56.4684 40.0241 56.1957 39.902C55.9258 39.7798 55.7013 39.5938 55.5224 39.3438C55.3462 39.0938 55.2582 38.7784 55.2582 38.3977V31.8864ZM63.7425 31.2727V40H62.6857V31.2727H63.7425ZM65.7251 40V33.4545H66.6967V34.4773H66.782C66.9183 34.1278 67.1385 33.8565 67.4425 33.6634C67.7464 33.4673 68.1115 33.3693 68.5376 33.3693C68.9695 33.3693 69.3288 33.4673 69.6158 33.6634C69.9055 33.8565 70.1314 34.1278 70.2933 34.4773H70.3615C70.5291 34.1392 70.7805 33.8707 71.1158 33.6719C71.451 33.4702 71.853 33.3693 72.3217 33.3693C72.907 33.3693 73.3857 33.5526 73.7578 33.919C74.13 34.2827 74.3161 34.8494 74.3161 35.6193V40H73.3104V35.6193C73.3104 35.1364 73.1783 34.7912 72.9141 34.5838C72.6499 34.3764 72.3388 34.2727 71.9808 34.2727C71.5206 34.2727 71.1641 34.4119 70.9112 34.6903C70.6584 34.9659 70.532 35.3153 70.532 35.7386V40H69.5092V35.517C69.5092 35.1449 69.3885 34.8452 69.147 34.6179C68.9055 34.3878 68.5945 34.2727 68.2138 34.2727C67.9524 34.2727 67.7081 34.3423 67.4808 34.4815C67.2564 34.6207 67.0746 34.8139 66.9354 35.0611C66.799 35.3054 66.7308 35.5881 66.7308 35.9091V40H65.7251ZM78.081 40.1534C77.6662 40.1534 77.2898 40.0753 76.9517 39.919C76.6136 39.7599 76.3452 39.5312 76.1463 39.233C75.9474 38.9318 75.848 38.5682 75.848 38.142C75.848 37.767 75.9219 37.4631 76.0696 37.2301C76.2173 36.9943 76.4148 36.8097 76.6619 36.6761C76.9091 36.5426 77.1818 36.4432 77.4801 36.3778C77.7813 36.3097 78.0838 36.2557 78.3878 36.2159C78.7855 36.1648 79.108 36.1264 79.3551 36.1009C79.6051 36.0724 79.7869 36.0256 79.9006 35.9602C80.017 35.8949 80.0753 35.7812 80.0753 35.6193V35.5852C80.0753 35.1648 79.9602 34.8381 79.7301 34.6051C79.5028 34.3722 79.1577 34.2557 78.6946 34.2557C78.2145 34.2557 77.8381 34.3608 77.5653 34.571C77.2926 34.7812 77.1009 35.0057 76.9901 35.2443L76.0355 34.9034C76.206 34.5057 76.4332 34.196 76.7173 33.9744C77.0043 33.75 77.3168 33.5937 77.6548 33.5057C77.9957 33.4148 78.331 33.3693 78.6605 33.3693C78.8707 33.3693 79.1122 33.3949 79.3849 33.446C79.6605 33.4943 79.9261 33.5952 80.1818 33.7486C80.4403 33.902 80.6548 34.1335 80.8253 34.4432C80.9957 34.7528 81.081 35.1676 81.081 35.6875V40H80.0753V39.1136H80.0241C79.956 39.2557 79.8423 39.4077 79.6832 39.5696C79.5241 39.7315 79.3125 39.8693 79.0483 39.983C78.7841 40.0966 78.4616 40.1534 78.081 40.1534ZM78.2344 39.25C78.6321 39.25 78.9673 39.1719 79.2401 39.0156C79.5156 38.8594 79.723 38.6577 79.8622 38.4105C80.0043 38.1634 80.0753 37.9034 80.0753 37.6307V36.7102C80.0327 36.7614 79.9389 36.8082 79.794 36.8509C79.652 36.8906 79.4872 36.9261 79.2997 36.9574C79.1151 36.9858 78.9347 37.0114 78.7585 37.0341C78.5852 37.054 78.4446 37.071 78.3366 37.0852C78.0753 37.1193 77.831 37.1747 77.6037 37.2514C77.3793 37.3253 77.1974 37.4375 77.0582 37.5881C76.9219 37.7358 76.8537 37.9375 76.8537 38.1932C76.8537 38.5426 76.983 38.8068 77.2415 38.9858C77.5028 39.1619 77.8338 39.25 78.2344 39.25ZM85.5586 42.5909C85.0728 42.5909 84.6552 42.5284 84.3058 42.4034C83.9563 42.2812 83.6651 42.1193 83.4322 41.9176C83.2021 41.7188 83.0188 41.5057 82.8825 41.2784L83.6836 40.7159C83.7745 40.8352 83.8896 40.9716 84.0288 41.125C84.168 41.2812 84.3583 41.4162 84.5998 41.5298C84.8441 41.6463 85.1637 41.7045 85.5586 41.7045C86.087 41.7045 86.5231 41.5767 86.8668 41.321C87.2106 41.0653 87.3825 40.6648 87.3825 40.1193V38.7898H87.2972C87.2234 38.9091 87.1183 39.0568 86.9819 39.233C86.8484 39.4062 86.6552 39.5611 86.4023 39.6974C86.1523 39.831 85.8143 39.8977 85.3881 39.8977C84.8597 39.8977 84.3853 39.7727 83.9648 39.5227C83.5472 39.2727 83.2163 38.9091 82.9719 38.4318C82.7305 37.9545 82.6097 37.375 82.6097 36.6932C82.6097 36.0227 82.7276 35.4389 82.9634 34.9418C83.1992 34.4418 83.5273 34.0554 83.9478 33.7827C84.3683 33.5071 84.854 33.3693 85.4052 33.3693C85.8313 33.3693 86.1694 33.4403 86.4194 33.5824C86.6722 33.7216 86.8654 33.8807 86.9989 34.0597C87.1353 34.2358 87.2404 34.3807 87.3143 34.4943H87.4165V33.4545H88.3881V40.1875C88.3881 40.75 88.2603 41.2074 88.0046 41.5597C87.7518 41.9148 87.4109 42.1747 86.9819 42.3395C86.5558 42.5071 86.0813 42.5909 85.5586 42.5909ZM85.5245 38.9943C85.9279 38.9943 86.2688 38.902 86.5472 38.7173C86.8256 38.5327 87.0373 38.267 87.1822 37.9205C87.3271 37.5739 87.3995 37.1591 87.3995 36.6761C87.3995 36.2045 87.3285 35.7884 87.1864 35.4276C87.0444 35.0668 86.8342 34.7841 86.5558 34.5795C86.2773 34.375 85.9336 34.2727 85.5245 34.2727C85.0984 34.2727 84.7433 34.3807 84.4592 34.5966C84.1779 34.8125 83.9663 35.1023 83.8242 35.4659C83.685 35.8295 83.6154 36.233 83.6154 36.6761C83.6154 37.1307 83.6864 37.5327 83.8285 37.8821C83.9734 38.2287 84.1864 38.5014 84.4677 38.7003C84.7518 38.8963 85.104 38.9943 85.5245 38.9943ZM92.9734 40.1364C92.3427 40.1364 91.7987 39.9972 91.3413 39.7188C90.8867 39.4375 90.5359 39.0455 90.2887 38.5426C90.0444 38.0369 89.9222 37.4489 89.9222 36.7784C89.9222 36.108 90.0444 35.517 90.2887 35.0057C90.5359 34.4915 90.8796 34.0909 91.32 33.804C91.7631 33.5142 92.2802 33.3693 92.8711 33.3693C93.212 33.3693 93.5487 33.4261 93.881 33.5398C94.2134 33.6534 94.516 33.8381 94.7887 34.0938C95.0614 34.3466 95.2788 34.6818 95.4407 35.0994C95.6026 35.517 95.6836 36.0312 95.6836 36.642V37.0682H90.6381V36.1989H94.6609C94.6609 35.8295 94.587 35.5 94.4393 35.2102C94.2944 34.9205 94.087 34.6918 93.8171 34.5241C93.5501 34.3565 93.2347 34.2727 92.8711 34.2727C92.4705 34.2727 92.1239 34.3722 91.8313 34.571C91.5415 34.767 91.3185 35.0227 91.1623 35.3381C91.006 35.6534 90.9279 35.9915 90.9279 36.3523V36.9318C90.9279 37.4261 91.0131 37.8452 91.1836 38.1889C91.3569 38.5298 91.5969 38.7898 91.9038 38.9688C92.2106 39.1449 92.5671 39.233 92.9734 39.233C93.2376 39.233 93.4762 39.196 93.6893 39.1222C93.9052 39.0455 94.0913 38.9318 94.2475 38.7812C94.4038 38.6278 94.5245 38.4375 94.6097 38.2102L95.5813 38.483C95.479 38.8125 95.3072 39.1023 95.0657 39.3523C94.8242 39.5994 94.5259 39.7926 94.1708 39.9318C93.8157 40.0682 93.4165 40.1364 92.9734 40.1364Z" fill="#282F37"/>
<path fill-rule="evenodd" clip-rule="evenodd" d="M232.001 28.8333C228.043 28.8333 224.834 32.0419 224.834 35.9999C224.834 39.958 228.043 43.1666 232.001 43.1666C235.959 43.1666 239.167 39.958 239.167 35.9999C239.167 32.0419 235.959 28.8333 232.001 28.8333ZM235.021 33.6464C235.216 33.8416 235.216 34.1582 235.021 34.3535L231.688 37.6868C231.594 37.7806 231.467 37.8333 231.334 37.8333C231.201 37.8333 231.074 37.7806 230.98 37.6868L229.647 36.3535C229.452 36.1582 229.452 35.8416 229.647 35.6464C229.842 35.4511 230.159 35.4511 230.354 35.6464L231.334 36.6261L234.314 33.6464C234.509 33.4511 234.826 33.4511 235.021 33.6464Z" fill="#84D252"/>
<path d="M1.05682 64V55.2727H6.28977V56.2102H2.11364V59.1591H5.89773V60.0966H2.11364V64H1.05682ZM10.142 64.1364C9.55114 64.1364 9.03267 63.9957 8.58665 63.7145C8.14347 63.4332 7.79688 63.0398 7.54688 62.5341C7.29972 62.0284 7.17614 61.4375 7.17614 60.7614C7.17614 60.0795 7.29972 59.4844 7.54688 58.9759C7.79688 58.4673 8.14347 58.0724 8.58665 57.7912C9.03267 57.5099 9.55114 57.3693 10.142 57.3693C10.733 57.3693 11.25 57.5099 11.6932 57.7912C12.1392 58.0724 12.4858 58.4673 12.733 58.9759C12.983 59.4844 13.108 60.0795 13.108 60.7614C13.108 61.4375 12.983 62.0284 12.733 62.5341C12.4858 63.0398 12.1392 63.4332 11.6932 63.7145C11.25 63.9957 10.733 64.1364 10.142 64.1364ZM10.142 63.233C10.5909 63.233 10.9602 63.1179 11.25 62.8878C11.5398 62.6577 11.7543 62.3551 11.8935 61.9801C12.0327 61.6051 12.1023 61.1989 12.1023 60.7614C12.1023 60.3239 12.0327 59.9162 11.8935 59.5384C11.7543 59.1605 11.5398 58.8551 11.25 58.6222C10.9602 58.3892 10.5909 58.2727 10.142 58.2727C9.69318 58.2727 9.32386 58.3892 9.03409 58.6222C8.74432 58.8551 8.52983 59.1605 8.39062 59.5384C8.25142 59.9162 8.18182 60.3239 8.18182 60.7614C8.18182 61.1989 8.25142 61.6051 8.39062 61.9801C8.52983 62.3551 8.74432 62.6577 9.03409 62.8878C9.32386 63.1179 9.69318 63.233 10.142 63.233ZM17.3022 64.1364C16.6886 64.1364 16.1602 63.9915 15.717 63.7017C15.2738 63.4119 14.9329 63.0128 14.6942 62.5043C14.4556 61.9957 14.3363 61.4148 14.3363 60.7614C14.3363 60.0966 14.4585 59.5099 14.7028 59.0014C14.9499 58.4901 15.2937 58.0909 15.734 57.804C16.1772 57.5142 16.6942 57.3693 17.2852 57.3693C17.7454 57.3693 18.1602 57.4545 18.5295 57.625C18.8988 57.7955 19.2013 58.0341 19.4371 58.3409C19.6729 58.6477 19.8192 59.0057 19.8761 59.4148H18.8704C18.7937 59.1165 18.6232 58.8523 18.359 58.6222C18.0977 58.3892 17.7454 58.2727 17.3022 58.2727C16.9102 58.2727 16.5664 58.375 16.271 58.5795C15.9783 58.7812 15.7496 59.0668 15.5849 59.4361C15.4229 59.8026 15.342 60.233 15.342 60.7273C15.342 61.233 15.4215 61.6733 15.5806 62.0483C15.7425 62.4233 15.9698 62.7145 16.2624 62.9219C16.5579 63.1293 16.9045 63.233 17.3022 63.233C17.5636 63.233 17.8008 63.1875 18.0138 63.0966C18.2269 63.0057 18.4073 62.875 18.555 62.7045C18.7028 62.5341 18.8079 62.3295 18.8704 62.0909H19.8761C19.8192 62.4773 19.6786 62.8253 19.4542 63.1349C19.2326 63.4418 18.9386 63.6861 18.5721 63.8679C18.2085 64.0469 17.7852 64.1364 17.3022 64.1364ZM25.4712 61.3239V57.4545H26.4769V64H25.4712V62.892H25.4031C25.2496 63.2244 25.011 63.5071 24.6871 63.7401C24.3633 63.9702 23.9542 64.0852 23.4599 64.0852C23.0508 64.0852 22.6871 63.9957 22.369 63.8168C22.0508 63.6349 21.8008 63.3622 21.619 62.9986C21.4371 62.6321 21.3462 62.1705 21.3462 61.6136V57.4545H22.3519V61.5455C22.3519 62.0227 22.4854 62.4034 22.7525 62.6875C23.0224 62.9716 23.3661 63.1136 23.7837 63.1136C24.0337 63.1136 24.288 63.0497 24.5465 62.9219C24.8079 62.794 25.0266 62.598 25.2028 62.3338C25.3817 62.0696 25.4712 61.733 25.4712 61.3239ZM32.9553 58.9205L32.0518 59.1761C31.995 59.0256 31.9112 58.8793 31.8004 58.7372C31.6925 58.5923 31.5447 58.473 31.3572 58.3793C31.1697 58.2855 30.9297 58.2386 30.6371 58.2386C30.2365 58.2386 29.9027 58.331 29.6357 58.5156C29.3714 58.6974 29.2393 58.929 29.2393 59.2102C29.2393 59.4602 29.3303 59.6577 29.5121 59.8026C29.6939 59.9474 29.978 60.0682 30.3643 60.1648L31.3359 60.4034C31.9212 60.5455 32.3572 60.7628 32.6442 61.0554C32.9311 61.3452 33.0746 61.7187 33.0746 62.1761C33.0746 62.5511 32.9666 62.8864 32.7507 63.1818C32.5376 63.4773 32.2393 63.7102 31.8558 63.8807C31.4723 64.0511 31.0263 64.1364 30.5178 64.1364C29.8501 64.1364 29.2976 63.9915 28.8601 63.7017C28.4226 63.4119 28.1456 62.9886 28.0291 62.4318L28.9837 62.1932C29.0746 62.5455 29.2464 62.8097 29.4993 62.9858C29.755 63.1619 30.0888 63.25 30.5007 63.25C30.9695 63.25 31.3416 63.1506 31.6172 62.9517C31.8956 62.75 32.0348 62.5085 32.0348 62.2273C32.0348 62 31.9553 61.8097 31.7962 61.6562C31.6371 61.5 31.3928 61.3835 31.0632 61.3068L29.9723 61.0511C29.3729 60.9091 28.9325 60.6889 28.6513 60.3906C28.3729 60.0895 28.2337 59.7131 28.2337 59.2614C28.2337 58.892 28.3374 58.5653 28.5447 58.2812C28.755 57.9972 29.0405 57.7741 29.4013 57.6122C29.7649 57.4503 30.1768 57.3693 30.6371 57.3693C31.2848 57.3693 31.7933 57.5114 32.1626 57.7955C32.5348 58.0795 32.799 58.4545 32.9553 58.9205Z" fill="#282F37"/>
<path fill-rule="evenodd" clip-rule="evenodd" d="M232.001 52.8333C228.043 52.8333 224.834 56.0419 224.834 59.9999C224.834 63.958 228.043 67.1666 232.001 67.1666C235.959 67.1666 239.167 63.958 239.167 59.9999C239.167 56.0419 235.959 52.8333 232.001 52.8333ZM235.021 57.6464C235.216 57.8416 235.216 58.1582 235.021 58.3535L231.688 61.6868C231.594 61.7806 231.467 61.8333 231.334 61.8333C231.201 61.8333 231.074 61.7806 230.98 61.6868L229.647 60.3535C229.452 60.1582 229.452 59.8416 229.647 59.6464C229.842 59.4511 230.159 59.4511 230.354 59.6464L231.334 60.6261L234.314 57.6464C234.509 57.4511 234.826 57.4511 235.021 57.6464Z" fill="#84D252"/>
<path d="M7.02273 82C6.92898 81.7131 6.8054 81.456 6.65199 81.2287C6.50142 80.9986 6.32102 80.8026 6.1108 80.6406C5.90341 80.4787 5.66761 80.3551 5.40341 80.2699C5.1392 80.1847 4.84943 80.142 4.53409 80.142C4.01705 80.142 3.54688 80.2756 3.12358 80.5426C2.70028 80.8097 2.36364 81.2031 2.11364 81.723C1.86364 82.2429 1.73864 82.8807 1.73864 83.6364C1.73864 84.392 1.86506 85.0298 2.1179 85.5497C2.37074 86.0696 2.71307 86.4631 3.14489 86.7301C3.5767 86.9972 4.0625 87.1307 4.60227 87.1307C5.10227 87.1307 5.54261 87.0241 5.9233 86.8111C6.30682 86.5952 6.60511 86.2912 6.81818 85.8991C7.03409 85.5043 7.14205 85.0398 7.14205 84.5057L7.46591 84.5739H4.84091V83.6364H8.16477V84.5739C8.16477 85.2926 8.01136 85.9176 7.70455 86.4489C7.40057 86.9801 6.98011 87.392 6.44318 87.6847C5.90909 87.9744 5.29545 88.1193 4.60227 88.1193C3.82955 88.1193 3.15057 87.9375 2.56534 87.5739C1.98295 87.2102 1.52841 86.6932 1.2017 86.0227C0.877841 85.3523 0.715909 84.5568 0.715909 83.6364C0.715909 82.946 0.808239 82.3253 0.992898 81.7741C1.1804 81.2202 1.4446 80.7486 1.78551 80.3594C2.12642 79.9702 2.52983 79.6719 2.99574 79.4645C3.46165 79.2571 3.97443 79.1534 4.53409 79.1534C4.99432 79.1534 5.4233 79.223 5.82102 79.3622C6.22159 79.4986 6.57812 79.6932 6.89062 79.946C7.20597 80.196 7.46875 80.4957 7.67898 80.8452C7.8892 81.1918 8.03409 81.5767 8.11364 82H7.02273ZM10.8441 79.2727V88H9.83842V79.2727H10.8441ZM14.6122 88.1534C14.1974 88.1534 13.821 88.0753 13.483 87.919C13.1449 87.7599 12.8764 87.5312 12.6776 87.233C12.4787 86.9318 12.3793 86.5682 12.3793 86.142C12.3793 85.767 12.4531 85.4631 12.6009 85.2301C12.7486 84.9943 12.946 84.8097 13.1932 84.6761C13.4403 84.5426 13.7131 84.4432 14.0114 84.3778C14.3125 84.3097 14.6151 84.2557 14.919 84.2159C15.3168 84.1648 15.6392 84.1264 15.8864 84.1009C16.1364 84.0724 16.3182 84.0256 16.4318 83.9602C16.5483 83.8949 16.6065 83.7812 16.6065 83.6193V83.5852C16.6065 83.1648 16.4915 82.8381 16.2614 82.6051C16.0341 82.3722 15.6889 82.2557 15.2259 82.2557C14.7457 82.2557 14.3693 82.3608 14.0966 82.571C13.8239 82.7812 13.6321 83.0057 13.5213 83.2443L12.5668 82.9034C12.7372 82.5057 12.9645 82.196 13.2486 81.9744C13.5355 81.75 13.848 81.5937 14.1861 81.5057C14.527 81.4148 14.8622 81.3693 15.1918 81.3693C15.402 81.3693 15.6435 81.3949 15.9162 81.446C16.1918 81.4943 16.4574 81.5952 16.7131 81.7486C16.9716 81.902 17.1861 82.1335 17.3565 82.4432C17.527 82.7528 17.6122 83.1676 17.6122 83.6875V88H16.6065V87.1136H16.5554C16.4872 87.2557 16.3736 87.4077 16.2145 87.5696C16.0554 87.7315 15.8438 87.8693 15.5795 87.983C15.3153 88.0966 14.9929 88.1534 14.6122 88.1534ZM14.7656 87.25C15.1634 87.25 15.4986 87.1719 15.7713 87.0156C16.0469 86.8594 16.2543 86.6577 16.3935 86.4105C16.5355 86.1634 16.6065 85.9034 16.6065 85.6307V84.7102C16.5639 84.7614 16.4702 84.8082 16.3253 84.8509C16.1832 84.8906 16.0185 84.9261 15.831 84.9574C15.6463 84.9858 15.4659 85.0114 15.2898 85.0341C15.1165 85.054 14.9759 85.071 14.8679 85.0852C14.6065 85.1193 14.3622 85.1747 14.1349 85.2514C13.9105 85.3253 13.7287 85.4375 13.5895 85.5881C13.4531 85.7358 13.3849 85.9375 13.3849 86.1932C13.3849 86.5426 13.5142 86.8068 13.7727 86.9858C14.0341 87.1619 14.3651 87.25 14.7656 87.25ZM19.4478 88V81.4545H20.4194V82.4432H20.4876C20.6069 82.1193 20.8228 81.8565 21.1353 81.6548C21.4478 81.4531 21.8001 81.3523 22.1921 81.3523C22.266 81.3523 22.3583 81.3537 22.4691 81.3565C22.5799 81.3594 22.6637 81.3636 22.7205 81.3693V82.392C22.6864 82.3835 22.6083 82.3707 22.4862 82.3537C22.3668 82.3338 22.2404 82.3239 22.1069 82.3239C21.7887 82.3239 21.5046 82.3906 21.2546 82.5241C21.0075 82.6548 20.8114 82.8366 20.6665 83.0696C20.5245 83.2997 20.4535 83.5625 20.4535 83.858V88H19.4478ZM26.4577 88.1364C25.8271 88.1364 25.283 87.9972 24.8256 87.7188C24.3711 87.4375 24.0202 87.0455 23.7731 86.5426C23.5288 86.0369 23.4066 85.4489 23.4066 84.7784C23.4066 84.108 23.5288 83.517 23.7731 83.0057C24.0202 82.4915 24.364 82.0909 24.8043 81.804C25.2475 81.5142 25.7646 81.3693 26.3555 81.3693C26.6964 81.3693 27.033 81.4261 27.3654 81.5398C27.6978 81.6534 28.0004 81.8381 28.2731 82.0938C28.5458 82.3466 28.7631 82.6818 28.9251 83.0994C29.087 83.517 29.168 84.0312 29.168 84.642V85.0682H24.1225V84.1989H28.1452C28.1452 83.8295 28.0714 83.5 27.9237 83.2102C27.7788 82.9205 27.5714 82.6918 27.3015 82.5241C27.0344 82.3565 26.7191 82.2727 26.3555 82.2727C25.9549 82.2727 25.6083 82.3722 25.3157 82.571C25.0259 82.767 24.8029 83.0227 24.6467 83.3381C24.4904 83.6534 24.4123 83.9915 24.4123 84.3523V84.9318C24.4123 85.4261 24.4975 85.8452 24.668 86.1889C24.8413 86.5298 25.0813 86.7898 25.3881 86.9688C25.695 87.1449 26.0515 87.233 26.4577 87.233C26.7219 87.233 26.9606 87.196 27.1737 87.1222C27.3896 87.0455 27.5756 86.9318 27.7319 86.7812C27.8881 86.6278 28.0089 86.4375 28.0941 86.2102L29.0657 86.483C28.9634 86.8125 28.7915 87.1023 28.5501 87.3523C28.3086 87.5994 28.0103 87.7926 27.6552 87.9318C27.3001 88.0682 26.9009 88.1364 26.4577 88.1364ZM35.3342 82.9205L34.4308 83.1761C34.3739 83.0256 34.2901 82.8793 34.1793 82.7372C34.0714 82.5923 33.9237 82.473 33.7362 82.3793C33.5487 82.2855 33.3086 82.2386 33.016 82.2386C32.6154 82.2386 32.2816 82.331 32.0146 82.5156C31.7504 82.6974 31.6183 82.929 31.6183 83.2102C31.6183 83.4602 31.7092 83.6577 31.891 83.8026C32.0728 83.9474 32.3569 84.0682 32.7433 84.1648L33.7148 84.4034C34.3001 84.5455 34.7362 84.7628 35.0231 85.0554C35.31 85.3452 35.4535 85.7187 35.4535 86.1761C35.4535 86.5511 35.3455 86.8864 35.1296 87.1818C34.9165 87.4773 34.6183 87.7102 34.2347 87.8807C33.8512 88.0511 33.4052 88.1364 32.8967 88.1364C32.229 88.1364 31.6765 87.9915 31.239 87.7017C30.8015 87.4119 30.5245 86.9886 30.408 86.4318L31.3626 86.1932C31.4535 86.5455 31.6254 86.8097 31.8782 86.9858C32.1339 87.1619 32.4677 87.25 32.8796 87.25C33.3484 87.25 33.7205 87.1506 33.9961 86.9517C34.2745 86.75 34.4137 86.5085 34.4137 86.2273C34.4137 86 34.3342 85.8097 34.1751 85.6562C34.016 85.5 33.7717 85.3835 33.4421 85.3068L32.3512 85.0511C31.7518 84.9091 31.3114 84.6889 31.0302 84.3906C30.7518 84.0895 30.6126 83.7131 30.6126 83.2614C30.6126 82.892 30.7163 82.5653 30.9237 82.2812C31.1339 81.9972 31.4194 81.7741 31.7802 81.6122C32.1438 81.4503 32.5558 81.3693 33.016 81.3693C33.6637 81.3693 34.1722 81.5114 34.5415 81.7955C34.9137 82.0795 35.1779 82.4545 35.3342 82.9205Z" fill="#282F37"/>
<path fill-rule="evenodd" clip-rule="evenodd" d="M232.001 76.8333C228.043 76.8333 224.834 80.0419 224.834 83.9999C224.834 87.958 228.043 91.1666 232.001 91.1666C235.959 91.1666 239.167 87.958 239.167 83.9999C239.167 80.0419 235.959 76.8333 232.001 76.8333ZM235.021 81.6464C235.216 81.8416 235.216 82.1582 235.021 82.3535L231.688 85.6868C231.594 85.7806 231.467 85.8333 231.334 85.8333C231.201 85.8333 231.074 85.7806 230.98 85.6868L229.647 84.3535C229.452 84.1582 229.452 83.8416 229.647 83.6464C229.842 83.4511 230.159 83.4511 230.354 83.6464L231.334 84.6261L234.314 81.6464C234.509 81.4511 234.826 81.4511 235.021 81.6464Z" fill="#84D252"/>
<path d="M1.05682 112V103.273H4.00568C4.69034 103.273 5.25 103.396 5.68466 103.643C6.12216 103.888 6.44602 104.219 6.65625 104.636C6.86648 105.054 6.97159 105.52 6.97159 106.034C6.97159 106.548 6.86648 107.016 6.65625 107.436C6.44886 107.857 6.12784 108.192 5.69318 108.442C5.25852 108.689 4.7017 108.812 4.02273 108.812H1.90909V107.875H3.98864C4.45739 107.875 4.83381 107.794 5.1179 107.632C5.40199 107.47 5.60795 107.251 5.7358 106.976C5.86648 106.697 5.93182 106.384 5.93182 106.034C5.93182 105.685 5.86648 105.372 5.7358 105.097C5.60795 104.821 5.40057 104.605 5.11364 104.449C4.8267 104.29 4.44602 104.21 3.97159 104.21H2.11364V112H1.05682ZM11.1264 112.136C10.5355 112.136 10.017 111.996 9.57102 111.714C9.12784 111.433 8.78125 111.04 8.53125 110.534C8.28409 110.028 8.16051 109.437 8.16051 108.761C8.16051 108.08 8.28409 107.484 8.53125 106.976C8.78125 106.467 9.12784 106.072 9.57102 105.791C10.017 105.51 10.5355 105.369 11.1264 105.369C11.7173 105.369 12.2344 105.51 12.6776 105.791C13.1236 106.072 13.4702 106.467 13.7173 106.976C13.9673 107.484 14.0923 108.08 14.0923 108.761C14.0923 109.437 13.9673 110.028 13.7173 110.534C13.4702 111.04 13.1236 111.433 12.6776 111.714C12.2344 111.996 11.7173 112.136 11.1264 112.136ZM11.1264 111.233C11.5753 111.233 11.9446 111.118 12.2344 110.888C12.5241 110.658 12.7386 110.355 12.8778 109.98C13.017 109.605 13.0866 109.199 13.0866 108.761C13.0866 108.324 13.017 107.916 12.8778 107.538C12.7386 107.161 12.5241 106.855 12.2344 106.622C11.9446 106.389 11.5753 106.273 11.1264 106.273C10.6776 106.273 10.3082 106.389 10.0185 106.622C9.72869 106.855 9.5142 107.161 9.375 107.538C9.2358 107.916 9.16619 108.324 9.16619 108.761C9.16619 109.199 9.2358 109.605 9.375 109.98C9.5142 110.355 9.72869 110.658 10.0185 110.888C10.3082 111.118 10.6776 111.233 11.1264 111.233ZM15.6275 112V105.455H16.5991V106.443H16.6673C16.7866 106.119 17.0025 105.857 17.315 105.655C17.6275 105.453 17.9798 105.352 18.3718 105.352C18.4457 105.352 18.538 105.354 18.6488 105.357C18.7596 105.359 18.8434 105.364 18.9002 105.369V106.392C18.8661 106.384 18.788 106.371 18.6658 106.354C18.5465 106.334 18.4201 106.324 18.2866 106.324C17.9684 106.324 17.6843 106.391 17.4343 106.524C17.1871 106.655 16.9911 106.837 16.8462 107.07C16.7042 107.3 16.6332 107.562 16.6332 107.858V112H15.6275ZM23.3491 105.455V106.307H19.957V105.455H23.3491ZM20.9457 103.886H21.9513V110.125C21.9513 110.409 21.9925 110.622 22.0749 110.764C22.1602 110.903 22.2681 110.997 22.3988 111.045C22.5323 111.091 22.6729 111.114 22.8207 111.114C22.9315 111.114 23.0224 111.108 23.0934 111.097C23.1644 111.082 23.2212 111.071 23.2638 111.062L23.4684 111.966C23.4002 111.991 23.305 112.017 23.1829 112.043C23.0607 112.071 22.9059 112.085 22.7184 112.085C22.4343 112.085 22.1559 112.024 21.8832 111.902C21.6133 111.78 21.3888 111.594 21.2099 111.344C21.0337 111.094 20.9457 110.778 20.9457 110.398V103.886ZM24.8619 112V105.455H25.8335V106.443H25.9016C26.021 106.119 26.2369 105.857 26.5494 105.655C26.8619 105.453 27.2141 105.352 27.6062 105.352C27.68 105.352 27.7724 105.354 27.8832 105.357C27.994 105.359 28.0778 105.364 28.1346 105.369V106.392C28.1005 106.384 28.0224 106.371 27.9002 106.354C27.7809 106.334 27.6545 106.324 27.521 106.324C27.2028 106.324 26.9187 106.391 26.6687 106.524C26.4215 106.655 26.2255 106.837 26.0806 107.07C25.9386 107.3 25.8675 107.562 25.8675 107.858V112H24.8619ZM31.2528 112.153C30.8381 112.153 30.4616 112.075 30.1236 111.919C29.7855 111.76 29.517 111.531 29.3182 111.233C29.1193 110.932 29.0199 110.568 29.0199 110.142C29.0199 109.767 29.0938 109.463 29.2415 109.23C29.3892 108.994 29.5866 108.81 29.8338 108.676C30.081 108.543 30.3537 108.443 30.652 108.378C30.9531 108.31 31.2557 108.256 31.5597 108.216C31.9574 108.165 32.2798 108.126 32.527 108.101C32.777 108.072 32.9588 108.026 33.0724 107.96C33.1889 107.895 33.2472 107.781 33.2472 107.619V107.585C33.2472 107.165 33.1321 106.838 32.902 106.605C32.6747 106.372 32.3295 106.256 31.8665 106.256C31.3864 106.256 31.0099 106.361 30.7372 106.571C30.4645 106.781 30.2727 107.006 30.1619 107.244L29.2074 106.903C29.3778 106.506 29.6051 106.196 29.8892 105.974C30.1761 105.75 30.4886 105.594 30.8267 105.506C31.1676 105.415 31.5028 105.369 31.8324 105.369C32.0426 105.369 32.2841 105.395 32.5568 105.446C32.8324 105.494 33.098 105.595 33.3537 105.749C33.6122 105.902 33.8267 106.134 33.9972 106.443C34.1676 106.753 34.2528 107.168 34.2528 107.688V112H33.2472V111.114H33.196C33.1278 111.256 33.0142 111.408 32.8551 111.57C32.696 111.732 32.4844 111.869 32.2202 111.983C31.956 112.097 31.6335 112.153 31.2528 112.153ZM31.4062 111.25C31.804 111.25 32.1392 111.172 32.4119 111.016C32.6875 110.859 32.8949 110.658 33.0341 110.411C33.1761 110.163 33.2472 109.903 33.2472 109.631V108.71C33.2045 108.761 33.1108 108.808 32.9659 108.851C32.8239 108.891 32.6591 108.926 32.4716 108.957C32.2869 108.986 32.1065 109.011 31.9304 109.034C31.7571 109.054 31.6165 109.071 31.5085 109.085C31.2472 109.119 31.0028 109.175 30.7756 109.251C30.5511 109.325 30.3693 109.437 30.2301 109.588C30.0938 109.736 30.0256 109.937 30.0256 110.193C30.0256 110.543 30.1548 110.807 30.4134 110.986C30.6747 111.162 31.0057 111.25 31.4062 111.25ZM36.0884 112V105.455H37.0941V112H36.0884ZM36.5998 104.364C36.4038 104.364 36.2347 104.297 36.0927 104.163C35.9535 104.03 35.8839 103.869 35.8839 103.682C35.8839 103.494 35.9535 103.334 36.0927 103.2C36.2347 103.067 36.4038 103 36.5998 103C36.7958 103 36.9634 103.067 37.1026 103.2C37.2447 103.334 37.3157 103.494 37.3157 103.682C37.3157 103.869 37.2447 104.03 37.1026 104.163C36.9634 104.297 36.7958 104.364 36.5998 104.364ZM41.7827 105.455V106.307H38.3906V105.455H41.7827ZM39.3793 103.886H40.3849V110.125C40.3849 110.409 40.4261 110.622 40.5085 110.764C40.5938 110.903 40.7017 110.997 40.8324 111.045C40.9659 111.091 41.1065 111.114 41.2543 111.114C41.3651 111.114 41.456 111.108 41.527 111.097C41.598 111.082 41.6548 111.071 41.6974 111.062L41.902 111.966C41.8338 111.991 41.7386 112.017 41.6165 112.043C41.4943 112.071 41.3395 112.085 41.152 112.085C40.8679 112.085 40.5895 112.024 40.3168 111.902C40.0469 111.78 39.8224 111.594 39.6435 111.344C39.4673 111.094 39.3793 110.778 39.3793 110.398V103.886Z" fill="#282F37"/>
<path fill-rule="evenodd" clip-rule="evenodd" d="M232.001 100.833C228.043 100.833 224.834 104.042 224.834 108C224.834 111.958 228.043 115.167 232.001 115.167C235.959 115.167 239.167 111.958 239.167 108C239.167 104.042 235.959 100.833 232.001 100.833ZM235.021 105.646C235.216 105.842 235.216 106.158 235.021 106.353L231.688 109.687C231.594 109.781 231.467 109.833 231.334 109.833C231.201 109.833 231.074 109.781 230.98 109.687L229.647 108.353C229.452 108.158 229.452 107.842 229.647 107.646C229.842 107.451 230.159 107.451 230.354 107.646L231.334 108.626L234.314 105.646C234.509 105.451 234.826 105.451 235.021 105.646Z" fill="#84D252"/>
<path d="M1.05682 136V127.273H4.10795C4.71591 127.273 5.21733 127.378 5.61222 127.588C6.0071 127.795 6.30114 128.075 6.49432 128.428C6.6875 128.777 6.78409 129.165 6.78409 129.591C6.78409 129.966 6.71733 130.276 6.58381 130.52C6.45313 130.764 6.27983 130.957 6.06392 131.099C5.85085 131.241 5.61932 131.347 5.36932 131.415V131.5C5.63636 131.517 5.90483 131.611 6.17472 131.781C6.4446 131.952 6.67045 132.196 6.85227 132.514C7.03409 132.832 7.125 133.222 7.125 133.682C7.125 134.119 7.02557 134.513 6.8267 134.862C6.62784 135.212 6.31392 135.489 5.88494 135.693C5.45597 135.898 4.89773 136 4.21023 136H1.05682ZM2.11364 135.062H4.21023C4.90057 135.062 5.39063 134.929 5.6804 134.662C5.97301 134.392 6.11932 134.065 6.11932 133.682C6.11932 133.386 6.04403 133.114 5.89347 132.864C5.7429 132.611 5.52841 132.409 5.25 132.259C4.97159 132.105 4.64205 132.028 4.26136 132.028H2.11364V135.062ZM2.11364 131.108H4.07386C4.39205 131.108 4.67898 131.045 4.93466 130.92C5.19318 130.795 5.39773 130.619 5.5483 130.392C5.7017 130.165 5.77841 129.898 5.77841 129.591C5.77841 129.207 5.64489 128.882 5.37784 128.615C5.1108 128.345 4.6875 128.21 4.10795 128.21H2.11364V131.108ZM11.3842 136.136C10.7933 136.136 10.2749 135.996 9.82884 135.714C9.38565 135.433 9.03906 135.04 8.78906 134.534C8.5419 134.028 8.41832 133.437 8.41832 132.761C8.41832 132.08 8.5419 131.484 8.78906 130.976C9.03906 130.467 9.38565 130.072 9.82884 129.791C10.2749 129.51 10.7933 129.369 11.3842 129.369C11.9751 129.369 12.4922 129.51 12.9354 129.791C13.3814 130.072 13.728 130.467 13.9751 130.976C14.2251 131.484 14.3501 132.08 14.3501 132.761C14.3501 133.437 14.2251 134.028 13.9751 134.534C13.728 135.04 13.3814 135.433 12.9354 135.714C12.4922 135.996 11.9751 136.136 11.3842 136.136ZM11.3842 135.233C11.8331 135.233 12.2024 135.118 12.4922 134.888C12.782 134.658 12.9964 134.355 13.1357 133.98C13.2749 133.605 13.3445 133.199 13.3445 132.761C13.3445 132.324 13.2749 131.916 13.1357 131.538C12.9964 131.161 12.782 130.855 12.4922 130.622C12.2024 130.389 11.8331 130.273 11.3842 130.273C10.9354 130.273 10.5661 130.389 10.2763 130.622C9.98651 130.855 9.77202 131.161 9.63281 131.538C9.49361 131.916 9.42401 132.324 9.42401 132.761C9.42401 133.199 9.49361 133.605 9.63281 133.98C9.77202 134.355 9.98651 134.658 10.2763 134.888C10.5661 135.118 10.9354 135.233 11.3842 135.233ZM20.0103 133.324V129.455H21.016V136H20.0103V134.892H19.9421C19.7887 135.224 19.5501 135.507 19.2262 135.74C18.9023 135.97 18.4933 136.085 17.9989 136.085C17.5898 136.085 17.2262 135.996 16.908 135.817C16.5898 135.635 16.3398 135.362 16.158 134.999C15.9762 134.632 15.8853 134.17 15.8853 133.614V129.455H16.891V133.545C16.891 134.023 17.0245 134.403 17.2915 134.688C17.5614 134.972 17.9052 135.114 18.3228 135.114C18.5728 135.114 18.8271 135.05 19.0856 134.922C19.3469 134.794 19.5657 134.598 19.7418 134.334C19.9208 134.07 20.0103 133.733 20.0103 133.324ZM23.8636 132.062V136H22.858V129.455H23.8295V130.477H23.9148C24.0682 130.145 24.3011 129.878 24.6136 129.676C24.9261 129.472 25.3295 129.369 25.8239 129.369C26.267 129.369 26.6548 129.46 26.9872 129.642C27.3196 129.821 27.5781 130.094 27.7628 130.46C27.9474 130.824 28.0398 131.284 28.0398 131.841V136H27.0341V131.909C27.0341 131.395 26.9006 130.994 26.6335 130.707C26.3665 130.418 26 130.273 25.5341 130.273C25.2131 130.273 24.9261 130.342 24.6733 130.482C24.4233 130.621 24.2259 130.824 24.081 131.091C23.9361 131.358 23.8636 131.682 23.8636 132.062ZM32.3491 136.136C31.8036 136.136 31.3221 135.999 30.9045 135.723C30.4869 135.445 30.1602 135.053 29.9244 134.547C29.6886 134.038 29.5707 133.438 29.5707 132.744C29.5707 132.057 29.6886 131.46 29.9244 130.955C30.1602 130.449 30.4883 130.058 30.9087 129.783C31.3292 129.507 31.815 129.369 32.3661 129.369C32.7923 129.369 33.1289 129.44 33.3761 129.582C33.6261 129.722 33.8164 129.881 33.9471 130.06C34.0806 130.236 34.1843 130.381 34.2582 130.494H34.3434V127.273H35.3491V136H34.3775V134.994H34.2582C34.1843 135.114 34.0792 135.264 33.9428 135.446C33.8065 135.625 33.6119 135.786 33.359 135.928C33.1062 136.067 32.7695 136.136 32.3491 136.136ZM32.4854 135.233C32.8888 135.233 33.2298 135.128 33.5082 134.918C33.7866 134.705 33.9982 134.411 34.1431 134.036C34.288 133.658 34.3604 133.222 34.3604 132.727C34.3604 132.239 34.2894 131.811 34.1474 131.445C34.0053 131.075 33.7951 130.788 33.5167 130.584C33.2383 130.376 32.8945 130.273 32.4854 130.273C32.0593 130.273 31.7042 130.382 31.4201 130.601C31.1388 130.817 30.9272 131.111 30.7852 131.483C30.646 131.852 30.5763 132.267 30.5763 132.727C30.5763 133.193 30.6474 133.616 30.7894 133.997C30.9343 134.375 31.1474 134.676 31.4286 134.901C31.7127 135.122 32.065 135.233 32.4854 135.233ZM41.967 130.92L41.0636 131.176C41.0067 131.026 40.9229 130.879 40.8121 130.737C40.7042 130.592 40.5565 130.473 40.369 130.379C40.1815 130.286 39.9414 130.239 39.6488 130.239C39.2482 130.239 38.9144 130.331 38.6474 130.516C38.3832 130.697 38.2511 130.929 38.2511 131.21C38.2511 131.46 38.342 131.658 38.5238 131.803C38.7056 131.947 38.9897 132.068 39.3761 132.165L40.3477 132.403C40.9329 132.545 41.369 132.763 41.6559 133.055C41.9428 133.345 42.0863 133.719 42.0863 134.176C42.0863 134.551 41.9783 134.886 41.7624 135.182C41.5494 135.477 41.2511 135.71 40.8675 135.881C40.484 136.051 40.038 136.136 39.5295 136.136C38.8619 136.136 38.3093 135.991 37.8718 135.702C37.4343 135.412 37.1573 134.989 37.0408 134.432L37.9954 134.193C38.0863 134.545 38.2582 134.81 38.511 134.986C38.7667 135.162 39.1005 135.25 39.5124 135.25C39.9812 135.25 40.3533 135.151 40.6289 134.952C40.9073 134.75 41.0465 134.509 41.0465 134.227C41.0465 134 40.967 133.81 40.8079 133.656C40.6488 133.5 40.4045 133.384 40.0749 133.307L38.984 133.051C38.3846 132.909 37.9442 132.689 37.663 132.391C37.3846 132.089 37.2454 131.713 37.2454 131.261C37.2454 130.892 37.3491 130.565 37.5565 130.281C37.7667 129.997 38.0522 129.774 38.413 129.612C38.7766 129.45 39.1886 129.369 39.6488 129.369C40.2965 129.369 40.805 129.511 41.1744 129.795C41.5465 130.08 41.8107 130.455 41.967 130.92Z" fill="#282F37"/>
<path fill-rule="evenodd" clip-rule="evenodd" d="M232.001 124.833C228.043 124.833 224.834 128.042 224.834 132C224.834 135.958 228.043 139.167 232.001 139.167C235.959 139.167 239.167 135.958 239.167 132C239.167 128.042 235.959 124.833 232.001 124.833ZM235.021 129.646C235.216 129.842 235.216 130.158 235.021 130.353L231.688 133.687C231.594 133.781 231.467 133.833 231.334 133.833C231.201 133.833 231.074 133.781 230.98 133.687L229.647 132.353C229.452 132.158 229.452 131.842 229.647 131.646C229.842 131.451 230.159 131.451 230.354 131.646L231.334 132.626L234.314 129.646C234.509 129.451 234.826 129.451 235.021 129.646Z" fill="#84D252"/>
<path d="M1.05682 160V151.273H4.00568C4.69034 151.273 5.25 151.396 5.68466 151.643C6.12216 151.888 6.44602 152.219 6.65625 152.636C6.86648 153.054 6.97159 153.52 6.97159 154.034C6.97159 154.548 6.86648 155.016 6.65625 155.436C6.44886 155.857 6.12784 156.192 5.69318 156.442C5.25852 156.689 4.7017 156.812 4.02273 156.812H1.90909V155.875H3.98864C4.45739 155.875 4.83381 155.794 5.1179 155.632C5.40199 155.47 5.60795 155.251 5.7358 154.976C5.86648 154.697 5.93182 154.384 5.93182 154.034C5.93182 153.685 5.86648 153.372 5.7358 153.097C5.60795 152.821 5.40057 152.605 5.11364 152.449C4.8267 152.29 4.44602 152.21 3.97159 152.21H2.11364V160H1.05682ZM11.2116 160.136C10.581 160.136 10.0369 159.997 9.57955 159.719C9.125 159.438 8.77415 159.045 8.52699 158.543C8.28267 158.037 8.16051 157.449 8.16051 156.778C8.16051 156.108 8.28267 155.517 8.52699 155.006C8.77415 154.491 9.1179 154.091 9.55824 153.804C10.0014 153.514 10.5185 153.369 11.1094 153.369C11.4503 153.369 11.7869 153.426 12.1193 153.54C12.4517 153.653 12.7543 153.838 13.027 154.094C13.2997 154.347 13.517 154.682 13.679 155.099C13.8409 155.517 13.9219 156.031 13.9219 156.642V157.068H8.87642V156.199H12.8991C12.8991 155.83 12.8253 155.5 12.6776 155.21C12.5327 154.92 12.3253 154.692 12.0554 154.524C11.7884 154.357 11.473 154.273 11.1094 154.273C10.7088 154.273 10.3622 154.372 10.0696 154.571C9.77983 154.767 9.55682 155.023 9.40057 155.338C9.24432 155.653 9.16619 155.991 9.16619 156.352V156.932C9.16619 157.426 9.25142 157.845 9.42188 158.189C9.59517 158.53 9.83523 158.79 10.142 158.969C10.4489 159.145 10.8054 159.233 11.2116 159.233C11.4759 159.233 11.7145 159.196 11.9276 159.122C12.1435 159.045 12.3295 158.932 12.4858 158.781C12.642 158.628 12.7628 158.437 12.848 158.21L13.8196 158.483C13.7173 158.812 13.5455 159.102 13.304 159.352C13.0625 159.599 12.7642 159.793 12.4091 159.932C12.054 160.068 11.6548 160.136 11.2116 160.136ZM15.4517 160V153.455H16.4233V154.443H16.4915C16.6108 154.119 16.8267 153.857 17.1392 153.655C17.4517 153.453 17.804 153.352 18.196 153.352C18.2699 153.352 18.3622 153.354 18.473 153.357C18.5838 153.359 18.6676 153.364 18.7244 153.369V154.392C18.6903 154.384 18.6122 154.371 18.4901 154.354C18.3707 154.334 18.2443 154.324 18.1108 154.324C17.7926 154.324 17.5085 154.391 17.2585 154.524C17.0114 154.655 16.8153 154.837 16.6705 155.07C16.5284 155.3 16.4574 155.562 16.4574 155.858V160H15.4517ZM24.5529 154.92L23.6495 155.176C23.5927 155.026 23.5089 154.879 23.3981 154.737C23.2901 154.592 23.1424 154.473 22.9549 154.379C22.7674 154.286 22.5273 154.239 22.2347 154.239C21.8342 154.239 21.5004 154.331 21.2333 154.516C20.9691 154.697 20.837 154.929 20.837 155.21C20.837 155.46 20.9279 155.658 21.1097 155.803C21.2915 155.947 21.5756 156.068 21.962 156.165L22.9336 156.403C23.5188 156.545 23.9549 156.763 24.2418 157.055C24.5288 157.345 24.6722 157.719 24.6722 158.176C24.6722 158.551 24.5643 158.886 24.3484 159.182C24.1353 159.477 23.837 159.71 23.4535 159.881C23.07 160.051 22.6239 160.136 22.1154 160.136C21.4478 160.136 20.8952 159.991 20.4577 159.702C20.0202 159.412 19.7433 158.989 19.6268 158.432L20.5813 158.193C20.6722 158.545 20.8441 158.81 21.0969 158.986C21.3526 159.162 21.6864 159.25 22.0984 159.25C22.5671 159.25 22.9393 159.151 23.2148 158.952C23.4933 158.75 23.6325 158.509 23.6325 158.227C23.6325 158 23.5529 157.81 23.3938 157.656C23.2347 157.5 22.9904 157.384 22.6609 157.307L21.57 157.051C20.9705 156.909 20.5302 156.689 20.2489 156.391C19.9705 156.089 19.8313 155.713 19.8313 155.261C19.8313 154.892 19.935 154.565 20.1424 154.281C20.3526 153.997 20.6381 153.774 20.9989 153.612C21.3626 153.45 21.7745 153.369 22.2347 153.369C22.8825 153.369 23.391 153.511 23.7603 153.795C24.1325 154.08 24.3967 154.455 24.5529 154.92ZM26.1861 162.455V153.455H27.1577V154.494H27.277C27.3509 154.381 27.4531 154.236 27.5838 154.06C27.7173 153.881 27.9077 153.722 28.1548 153.582C28.4048 153.44 28.7429 153.369 29.169 153.369C29.7202 153.369 30.206 153.507 30.6264 153.783C31.0469 154.058 31.375 154.449 31.6108 154.955C31.8466 155.46 31.9645 156.057 31.9645 156.744C31.9645 157.438 31.8466 158.038 31.6108 158.547C31.375 159.053 31.0483 159.445 30.6307 159.723C30.2131 159.999 29.7315 160.136 29.1861 160.136C28.7656 160.136 28.429 160.067 28.1761 159.928C27.9233 159.786 27.7287 159.625 27.5923 159.446C27.456 159.264 27.3509 159.114 27.277 158.994H27.1918V162.455H26.1861ZM27.1747 156.727C27.1747 157.222 27.2472 157.658 27.392 158.036C27.5369 158.411 27.7486 158.705 28.027 158.918C28.3054 159.128 28.6463 159.233 29.0497 159.233C29.4702 159.233 29.821 159.122 30.1023 158.901C30.3864 158.676 30.5994 158.375 30.7415 157.997C30.8864 157.616 30.9588 157.193 30.9588 156.727C30.9588 156.267 30.8878 155.852 30.7457 155.483C30.6065 155.111 30.3949 154.817 30.1108 154.601C29.8295 154.382 29.4759 154.273 29.0497 154.273C28.6406 154.273 28.2969 154.376 28.0185 154.584C27.7401 154.788 27.5298 155.075 27.3878 155.445C27.2457 155.811 27.1747 156.239 27.1747 156.727ZM36.2429 160.136C35.6122 160.136 35.0682 159.997 34.6108 159.719C34.1562 159.438 33.8054 159.045 33.5582 158.543C33.3139 158.037 33.1918 157.449 33.1918 156.778C33.1918 156.108 33.3139 155.517 33.5582 155.006C33.8054 154.491 34.1491 154.091 34.5895 153.804C35.0327 153.514 35.5497 153.369 36.1406 153.369C36.4815 153.369 36.8182 153.426 37.1506 153.54C37.483 153.653 37.7855 153.838 38.0582 154.094C38.331 154.347 38.5483 154.682 38.7102 155.099C38.8722 155.517 38.9531 156.031 38.9531 156.642V157.068H33.9077V156.199H37.9304C37.9304 155.83 37.8565 155.5 37.7088 155.21C37.5639 154.92 37.3565 154.692 37.0866 154.524C36.8196 154.357 36.5043 154.273 36.1406 154.273C35.7401 154.273 35.3935 154.372 35.1009 154.571C34.8111 154.767 34.5881 155.023 34.4318 155.338C34.2756 155.653 34.1974 155.991 34.1974 156.352V156.932C34.1974 157.426 34.2827 157.845 34.4531 158.189C34.6264 158.53 34.8665 158.79 35.1733 158.969C35.4801 159.145 35.8366 159.233 36.2429 159.233C36.5071 159.233 36.7457 159.196 36.9588 159.122C37.1747 159.045 37.3608 158.932 37.517 158.781C37.6733 158.628 37.794 158.437 37.8793 158.21L38.8509 158.483C38.7486 158.812 38.5767 159.102 38.3352 159.352C38.0938 159.599 37.7955 159.793 37.4403 159.932C37.0852 160.068 36.6861 160.136 36.2429 160.136ZM43.142 160.136C42.5284 160.136 42 159.991 41.5568 159.702C41.1136 159.412 40.7727 159.013 40.5341 158.504C40.2955 157.996 40.1761 157.415 40.1761 156.761C40.1761 156.097 40.2983 155.51 40.5426 155.001C40.7898 154.49 41.1335 154.091 41.5739 153.804C42.017 153.514 42.5341 153.369 43.125 153.369C43.5852 153.369 44 153.455 44.3693 153.625C44.7386 153.795 45.0412 154.034 45.277 154.341C45.5128 154.648 45.6591 155.006 45.7159 155.415H44.7102C44.6335 155.116 44.4631 154.852 44.1989 154.622C43.9375 154.389 43.5852 154.273 43.142 154.273C42.75 154.273 42.4063 154.375 42.1108 154.58C41.8182 154.781 41.5895 155.067 41.4247 155.436C41.2628 155.803 41.1818 156.233 41.1818 156.727C41.1818 157.233 41.2614 157.673 41.4205 158.048C41.5824 158.423 41.8097 158.714 42.1023 158.922C42.3977 159.129 42.7443 159.233 43.142 159.233C43.4034 159.233 43.6406 159.188 43.8537 159.097C44.0668 159.006 44.2472 158.875 44.3949 158.705C44.5426 158.534 44.6477 158.33 44.7102 158.091H45.7159C45.6591 158.477 45.5185 158.825 45.294 159.135C45.0724 159.442 44.7784 159.686 44.4119 159.868C44.0483 160.047 43.625 160.136 43.142 160.136ZM50.0327 153.455V154.307H46.6406V153.455H50.0327ZM47.6293 151.886H48.6349V158.125C48.6349 158.409 48.6761 158.622 48.7585 158.764C48.8438 158.903 48.9517 158.997 49.0824 159.045C49.2159 159.091 49.3565 159.114 49.5043 159.114C49.6151 159.114 49.706 159.108 49.777 159.097C49.848 159.082 49.9048 159.071 49.9474 159.062L50.152 159.966C50.0838 159.991 49.9886 160.017 49.8665 160.043C49.7443 160.071 49.5895 160.085 49.402 160.085C49.1179 160.085 48.8395 160.024 48.5668 159.902C48.2969 159.78 48.0724 159.594 47.8935 159.344C47.7173 159.094 47.6293 158.778 47.6293 158.398V151.886ZM51.5455 160V153.455H52.5511V160H51.5455ZM52.0568 152.364C51.8608 152.364 51.6918 152.297 51.5497 152.163C51.4105 152.03 51.3409 151.869 51.3409 151.682C51.3409 151.494 51.4105 151.334 51.5497 151.2C51.6918 151.067 51.8608 151 52.0568 151C52.2528 151 52.4205 151.067 52.5597 151.2C52.7017 151.334 52.7727 151.494 52.7727 151.682C52.7727 151.869 52.7017 152.03 52.5597 152.163C52.4205 152.297 52.2528 152.364 52.0568 152.364ZM59.7454 153.455L57.3249 160H56.3022L53.8817 153.455H54.9727L56.7795 158.67H56.8477L58.6545 153.455H59.7454ZM63.5827 160.136C62.9521 160.136 62.408 159.997 61.9506 159.719C61.4961 159.438 61.1452 159.045 60.8981 158.543C60.6538 158.037 60.5316 157.449 60.5316 156.778C60.5316 156.108 60.6538 155.517 60.8981 155.006C61.1452 154.491 61.489 154.091 61.9293 153.804C62.3725 153.514 62.8896 153.369 63.4805 153.369C63.8214 153.369 64.158 153.426 64.4904 153.54C64.8228 153.653 65.1254 153.838 65.3981 154.094C65.6708 154.347 65.8881 154.682 66.0501 155.099C66.212 155.517 66.293 156.031 66.293 156.642V157.068H61.2475V156.199H65.2702C65.2702 155.83 65.1964 155.5 65.0487 155.21C64.9038 154.92 64.6964 154.692 64.4265 154.524C64.1594 154.357 63.8441 154.273 63.4805 154.273C63.0799 154.273 62.7333 154.372 62.4407 154.571C62.1509 154.767 61.9279 155.023 61.7717 155.338C61.6154 155.653 61.5373 155.991 61.5373 156.352V156.932C61.5373 157.426 61.6225 157.845 61.793 158.189C61.9663 158.53 62.2063 158.79 62.5131 158.969C62.82 159.145 63.1765 159.233 63.5827 159.233C63.8469 159.233 64.0856 159.196 64.2987 159.122C64.5146 159.045 64.7006 158.932 64.8569 158.781C65.0131 158.628 65.1339 158.437 65.2191 158.21L66.1907 158.483C66.0884 158.812 65.9165 159.102 65.6751 159.352C65.4336 159.599 65.1353 159.793 64.7802 159.932C64.4251 160.068 64.0259 160.136 63.5827 160.136ZM73.1239 160.153C72.7092 160.153 72.3327 160.075 71.9947 159.919C71.6566 159.76 71.3881 159.531 71.1893 159.233C70.9904 158.932 70.891 158.568 70.891 158.142C70.891 157.767 70.9648 157.463 71.1126 157.23C71.2603 156.994 71.4577 156.81 71.7049 156.676C71.9521 156.543 72.2248 156.443 72.5231 156.378C72.8242 156.31 73.1268 156.256 73.4308 156.216C73.8285 156.165 74.1509 156.126 74.3981 156.101C74.6481 156.072 74.8299 156.026 74.9435 155.96C75.06 155.895 75.1183 155.781 75.1183 155.619V155.585C75.1183 155.165 75.0032 154.838 74.7731 154.605C74.5458 154.372 74.2006 154.256 73.7376 154.256C73.2575 154.256 72.881 154.361 72.6083 154.571C72.3356 154.781 72.1438 155.006 72.033 155.244L71.0785 154.903C71.2489 154.506 71.4762 154.196 71.7603 153.974C72.0472 153.75 72.3597 153.594 72.6978 153.506C73.0387 153.415 73.3739 153.369 73.7035 153.369C73.9137 153.369 74.1552 153.395 74.4279 153.446C74.7035 153.494 74.9691 153.595 75.2248 153.749C75.4833 153.902 75.6978 154.134 75.8683 154.443C76.0387 154.753 76.1239 155.168 76.1239 155.688V160H75.1183V159.114H75.0671C74.9989 159.256 74.8853 159.408 74.7262 159.57C74.5671 159.732 74.3555 159.869 74.0913 159.983C73.8271 160.097 73.5046 160.153 73.1239 160.153ZM73.2773 159.25C73.6751 159.25 74.0103 159.172 74.283 159.016C74.5586 158.859 74.766 158.658 74.9052 158.411C75.0472 158.163 75.1183 157.903 75.1183 157.631V156.71C75.0756 156.761 74.9819 156.808 74.837 156.851C74.695 156.891 74.5302 156.926 74.3427 156.957C74.158 156.986 73.9776 157.011 73.8015 157.034C73.6282 157.054 73.4876 157.071 73.3796 157.085C73.1183 157.119 72.8739 157.175 72.6467 157.251C72.4222 157.325 72.2404 157.437 72.1012 157.588C71.9648 157.736 71.8967 157.937 71.8967 158.193C71.8967 158.543 72.0259 158.807 72.2844 158.986C72.5458 159.162 72.8768 159.25 73.2773 159.25ZM78.9652 156.062V160H77.9595V153.455H78.9311V154.477H79.0163C79.1697 154.145 79.4027 153.878 79.7152 153.676C80.0277 153.472 80.4311 153.369 80.9254 153.369C81.3686 153.369 81.7564 153.46 82.0888 153.642C82.4212 153.821 82.6797 154.094 82.8643 154.46C83.049 154.824 83.1413 155.284 83.1413 155.841V160H82.1357V155.909C82.1357 155.395 82.0021 154.994 81.7351 154.707C81.468 154.418 81.1016 154.273 80.6357 154.273C80.3146 154.273 80.0277 154.342 79.7749 154.482C79.5249 154.621 79.3274 154.824 79.1825 155.091C79.0376 155.358 78.9652 155.682 78.9652 156.062ZM87.6211 162.591C87.1353 162.591 86.7177 162.528 86.3683 162.403C86.0188 162.281 85.7276 162.119 85.4947 161.918C85.2646 161.719 85.0813 161.506 84.945 161.278L85.7461 160.716C85.837 160.835 85.9521 160.972 86.0913 161.125C86.2305 161.281 86.4208 161.416 86.6623 161.53C86.9066 161.646 87.2262 161.705 87.6211 161.705C88.1495 161.705 88.5856 161.577 88.9293 161.321C89.2731 161.065 89.445 160.665 89.445 160.119V158.79H89.3597C89.2859 158.909 89.1808 159.057 89.0444 159.233C88.9109 159.406 88.7177 159.561 88.4648 159.697C88.2148 159.831 87.8768 159.898 87.4506 159.898C86.9222 159.898 86.4478 159.773 86.0273 159.523C85.6097 159.273 85.2788 158.909 85.0344 158.432C84.793 157.955 84.6722 157.375 84.6722 156.693C84.6722 156.023 84.7901 155.439 85.0259 154.942C85.2617 154.442 85.5898 154.055 86.0103 153.783C86.4308 153.507 86.9165 153.369 87.4677 153.369C87.8938 153.369 88.2319 153.44 88.4819 153.582C88.7347 153.722 88.9279 153.881 89.0614 154.06C89.1978 154.236 89.3029 154.381 89.3768 154.494H89.479V153.455H90.4506V160.188C90.4506 160.75 90.3228 161.207 90.0671 161.56C89.8143 161.915 89.4734 162.175 89.0444 162.339C88.6183 162.507 88.1438 162.591 87.6211 162.591ZM87.587 158.994C87.9904 158.994 88.3313 158.902 88.6097 158.717C88.8881 158.533 89.0998 158.267 89.2447 157.92C89.3896 157.574 89.462 157.159 89.462 156.676C89.462 156.205 89.391 155.788 89.2489 155.428C89.1069 155.067 88.8967 154.784 88.6183 154.58C88.3398 154.375 87.9961 154.273 87.587 154.273C87.1609 154.273 86.8058 154.381 86.5217 154.597C86.2404 154.812 86.0288 155.102 85.8867 155.466C85.7475 155.83 85.6779 156.233 85.6779 156.676C85.6779 157.131 85.7489 157.533 85.891 157.882C86.0359 158.229 86.2489 158.501 86.5302 158.7C86.8143 158.896 87.1665 158.994 87.587 158.994ZM93.2972 151.273V160H92.2915V151.273H93.2972ZM97.8835 160.136C97.2528 160.136 96.7088 159.997 96.2514 159.719C95.7969 159.438 95.446 159.045 95.1989 158.543C94.9545 158.037 94.8324 157.449 94.8324 156.778C94.8324 156.108 94.9545 155.517 95.1989 155.006C95.446 154.491 95.7898 154.091 96.2301 153.804C96.6733 153.514 97.1903 153.369 97.7812 153.369C98.1222 153.369 98.4588 153.426 98.7912 153.54C99.1236 153.653 99.4261 153.838 99.6989 154.094C99.9716 154.347 100.189 154.682 100.351 155.099C100.513 155.517 100.594 156.031 100.594 156.642V157.068H95.5483V156.199H99.571C99.571 155.83 99.4972 155.5 99.3494 155.21C99.2045 154.92 98.9972 154.692 98.7273 154.524C98.4602 154.357 98.1449 154.273 97.7812 154.273C97.3807 154.273 97.0341 154.372 96.7415 154.571C96.4517 154.767 96.2287 155.023 96.0724 155.338C95.9162 155.653 95.8381 155.991 95.8381 156.352V156.932C95.8381 157.426 95.9233 157.845 96.0938 158.189C96.267 158.53 96.5071 158.79 96.8139 158.969C97.1207 159.145 97.4773 159.233 97.8835 159.233C98.1477 159.233 98.3864 159.196 98.5994 159.122C98.8153 159.045 99.0014 158.932 99.1577 158.781C99.3139 158.628 99.4347 158.437 99.5199 158.21L100.491 158.483C100.389 158.812 100.217 159.102 99.9759 159.352C99.7344 159.599 99.4361 159.793 99.081 159.932C98.7259 160.068 98.3267 160.136 97.8835 160.136Z" fill="#282F37"/>
<path fill-rule="evenodd" clip-rule="evenodd" d="M232.001 148.833C228.043 148.833 224.834 152.042 224.834 156C224.834 159.958 228.043 163.167 232.001 163.167C235.959 163.167 239.167 159.958 239.167 156C239.167 152.042 235.959 148.833 232.001 148.833ZM235.021 153.646C235.216 153.842 235.216 154.158 235.021 154.353L231.688 157.687C231.594 157.781 231.467 157.833 231.334 157.833C231.201 157.833 231.074 157.781 230.98 157.687L229.647 156.353C229.452 156.158 229.452 155.842 229.647 155.646C229.842 155.451 230.159 155.451 230.354 155.646L231.334 156.626L234.314 153.646C234.509 153.451 234.826 153.451 235.021 153.646Z" fill="#84D252"/>
<path d="M1.05682 184V175.273H4.00568C4.6875 175.273 5.24716 175.389 5.68466 175.622C6.12216 175.852 6.44602 176.169 6.65625 176.572C6.86648 176.976 6.97159 177.435 6.97159 177.949C6.97159 178.463 6.86648 178.919 6.65625 179.317C6.44602 179.714 6.12358 180.027 5.68892 180.254C5.25426 180.479 4.69886 180.591 4.02273 180.591H1.63636V179.636H3.98864C4.45455 179.636 4.82955 179.568 5.11364 179.432C5.40057 179.295 5.60795 179.102 5.7358 178.852C5.86648 178.599 5.93182 178.298 5.93182 177.949C5.93182 177.599 5.86648 177.294 5.7358 177.033C5.60511 176.771 5.39631 176.57 5.10938 176.428C4.82244 176.283 4.44318 176.21 3.97159 176.21H2.11364V184H1.05682ZM5.16477 180.08L7.3125 184H6.08523L3.97159 180.08H5.16477ZM11.2702 184.136C10.6396 184.136 10.0955 183.997 9.63814 183.719C9.18359 183.438 8.83274 183.045 8.58558 182.543C8.34126 182.037 8.21911 181.449 8.21911 180.778C8.21911 180.108 8.34126 179.517 8.58558 179.006C8.83274 178.491 9.17649 178.091 9.61683 177.804C10.06 177.514 10.5771 177.369 11.168 177.369C11.5089 177.369 11.8455 177.426 12.1779 177.54C12.5103 177.653 12.8129 177.838 13.0856 178.094C13.3583 178.347 13.5756 178.682 13.7376 179.099C13.8995 179.517 13.9805 180.031 13.9805 180.642V181.068H8.93501V180.199H12.9577C12.9577 179.83 12.8839 179.5 12.7362 179.21C12.5913 178.92 12.3839 178.692 12.114 178.524C11.8469 178.357 11.5316 178.273 11.168 178.273C10.7674 178.273 10.4208 178.372 10.1282 178.571C9.83842 178.767 9.61541 179.023 9.45916 179.338C9.30291 179.653 9.22479 179.991 9.22479 180.352V180.932C9.22479 181.426 9.31001 181.845 9.48047 182.189C9.65376 182.53 9.89382 182.79 10.2006 182.969C10.5075 183.145 10.864 183.233 11.2702 183.233C11.5344 183.233 11.7731 183.196 11.9862 183.122C12.2021 183.045 12.3881 182.932 12.5444 182.781C12.7006 182.628 12.8214 182.437 12.9066 182.21L13.8782 182.483C13.7759 182.812 13.604 183.102 13.3626 183.352C13.1211 183.599 12.8228 183.793 12.4677 183.932C12.1126 184.068 11.7134 184.136 11.2702 184.136ZM20.1467 178.92L19.2433 179.176C19.1864 179.026 19.1026 178.879 18.9918 178.737C18.8839 178.592 18.7362 178.473 18.5487 178.379C18.3612 178.286 18.1211 178.239 17.8285 178.239C17.4279 178.239 17.0941 178.331 16.8271 178.516C16.5629 178.697 16.4308 178.929 16.4308 179.21C16.4308 179.46 16.5217 179.658 16.7035 179.803C16.8853 179.947 17.1694 180.068 17.5558 180.165L18.5273 180.403C19.1126 180.545 19.5487 180.763 19.8356 181.055C20.1225 181.345 20.266 181.719 20.266 182.176C20.266 182.551 20.158 182.886 19.9421 183.182C19.729 183.477 19.4308 183.71 19.0472 183.881C18.6637 184.051 18.2177 184.136 17.7092 184.136C17.0415 184.136 16.489 183.991 16.0515 183.702C15.614 183.412 15.337 182.989 15.2205 182.432L16.1751 182.193C16.266 182.545 16.4379 182.81 16.6907 182.986C16.9464 183.162 17.2802 183.25 17.6921 183.25C18.1609 183.25 18.533 183.151 18.8086 182.952C19.087 182.75 19.2262 182.509 19.2262 182.227C19.2262 182 19.1467 181.81 18.9876 181.656C18.8285 181.5 18.5842 181.384 18.2546 181.307L17.1637 181.051C16.5643 180.909 16.1239 180.689 15.8427 180.391C15.5643 180.089 15.4251 179.713 15.4251 179.261C15.4251 178.892 15.5288 178.565 15.7362 178.281C15.9464 177.997 16.2319 177.774 16.5927 177.612C16.9563 177.45 17.3683 177.369 17.8285 177.369C18.4762 177.369 18.9847 177.511 19.354 177.795C19.7262 178.08 19.9904 178.455 20.1467 178.92ZM24.4389 184.136C23.848 184.136 23.3295 183.996 22.8835 183.714C22.4403 183.433 22.0938 183.04 21.8438 182.534C21.5966 182.028 21.473 181.437 21.473 180.761C21.473 180.08 21.5966 179.484 21.8438 178.976C22.0938 178.467 22.4403 178.072 22.8835 177.791C23.3295 177.51 23.848 177.369 24.4389 177.369C25.0298 177.369 25.5469 177.51 25.9901 177.791C26.4361 178.072 26.7827 178.467 27.0298 178.976C27.2798 179.484 27.4048 180.08 27.4048 180.761C27.4048 181.437 27.2798 182.028 27.0298 182.534C26.7827 183.04 26.4361 183.433 25.9901 183.714C25.5469 183.996 25.0298 184.136 24.4389 184.136ZM24.4389 183.233C24.8878 183.233 25.2571 183.118 25.5469 182.888C25.8366 182.658 26.0511 182.355 26.1903 181.98C26.3295 181.605 26.3991 181.199 26.3991 180.761C26.3991 180.324 26.3295 179.916 26.1903 179.538C26.0511 179.161 25.8366 178.855 25.5469 178.622C25.2571 178.389 24.8878 178.273 24.4389 178.273C23.9901 178.273 23.6207 178.389 23.331 178.622C23.0412 178.855 22.8267 179.161 22.6875 179.538C22.5483 179.916 22.4787 180.324 22.4787 180.761C22.4787 181.199 22.5483 181.605 22.6875 181.98C22.8267 182.355 23.0412 182.658 23.331 182.888C23.6207 183.118 23.9901 183.233 24.4389 183.233ZM29.9457 175.273V184H28.94V175.273H29.9457ZM35.9126 181.324V177.455H36.9183V184H35.9126V182.892H35.8445C35.6911 183.224 35.4524 183.507 35.1286 183.74C34.8047 183.97 34.3956 184.085 33.9013 184.085C33.4922 184.085 33.1286 183.996 32.8104 183.817C32.4922 183.635 32.2422 183.362 32.0604 182.999C31.8786 182.632 31.7876 182.17 31.7876 181.614V177.455H32.7933V181.545C32.7933 182.023 32.9268 182.403 33.1939 182.688C33.4638 182.972 33.8075 183.114 34.2251 183.114C34.4751 183.114 34.7294 183.05 34.9879 182.922C35.2493 182.794 35.468 182.598 35.6442 182.334C35.8232 182.07 35.9126 181.733 35.9126 181.324ZM41.6069 177.455V178.307H38.2148V177.455H41.6069ZM39.2035 175.886H40.2092V182.125C40.2092 182.409 40.2504 182.622 40.3327 182.764C40.418 182.903 40.5259 182.997 40.6566 183.045C40.7901 183.091 40.9308 183.114 41.0785 183.114C41.1893 183.114 41.2802 183.108 41.3512 183.097C41.4222 183.082 41.479 183.071 41.5217 183.062L41.7262 183.966C41.658 183.991 41.5629 184.017 41.4407 184.043C41.3185 184.071 41.1637 184.085 40.9762 184.085C40.6921 184.085 40.4137 184.024 40.141 183.902C39.8711 183.78 39.6467 183.594 39.4677 183.344C39.2915 183.094 39.2035 182.778 39.2035 182.398V175.886ZM43.1197 184V177.455H44.1254V184H43.1197ZM43.631 176.364C43.435 176.364 43.266 176.297 43.1239 176.163C42.9847 176.03 42.9151 175.869 42.9151 175.682C42.9151 175.494 42.9847 175.334 43.1239 175.2C43.266 175.067 43.435 175 43.631 175C43.8271 175 43.9947 175.067 44.1339 175.2C44.2759 175.334 44.3469 175.494 44.3469 175.682C44.3469 175.869 44.2759 176.03 44.1339 176.163C43.9947 176.297 43.8271 176.364 43.631 176.364ZM48.6264 184.136C48.0355 184.136 47.517 183.996 47.071 183.714C46.6278 183.433 46.2812 183.04 46.0312 182.534C45.7841 182.028 45.6605 181.437 45.6605 180.761C45.6605 180.08 45.7841 179.484 46.0312 178.976C46.2812 178.467 46.6278 178.072 47.071 177.791C47.517 177.51 48.0355 177.369 48.6264 177.369C49.2173 177.369 49.7344 177.51 50.1776 177.791C50.6236 178.072 50.9702 178.467 51.2173 178.976C51.4673 179.484 51.5923 180.08 51.5923 180.761C51.5923 181.437 51.4673 182.028 51.2173 182.534C50.9702 183.04 50.6236 183.433 50.1776 183.714C49.7344 183.996 49.2173 184.136 48.6264 184.136ZM48.6264 183.233C49.0753 183.233 49.4446 183.118 49.7344 182.888C50.0241 182.658 50.2386 182.355 50.3778 181.98C50.517 181.605 50.5866 181.199 50.5866 180.761C50.5866 180.324 50.517 179.916 50.3778 179.538C50.2386 179.161 50.0241 178.855 49.7344 178.622C49.4446 178.389 49.0753 178.273 48.6264 178.273C48.1776 178.273 47.8082 178.389 47.5185 178.622C47.2287 178.855 47.0142 179.161 46.875 179.538C46.7358 179.916 46.6662 180.324 46.6662 180.761C46.6662 181.199 46.7358 181.605 46.875 181.98C47.0142 182.355 47.2287 182.658 47.5185 182.888C47.8082 183.118 48.1776 183.233 48.6264 183.233ZM54.1332 180.062V184H53.1275V177.455H54.0991V178.477H54.1843C54.3377 178.145 54.5707 177.878 54.8832 177.676C55.1957 177.472 55.5991 177.369 56.0934 177.369C56.5366 177.369 56.9244 177.46 57.2567 177.642C57.5891 177.821 57.8477 178.094 58.0323 178.46C58.217 178.824 58.3093 179.284 58.3093 179.841V184H57.3036V179.909C57.3036 179.395 57.1701 178.994 56.9031 178.707C56.636 178.418 56.2695 178.273 55.8036 178.273C55.4826 178.273 55.1957 178.342 54.9428 178.482C54.6928 178.621 54.4954 178.824 54.3505 179.091C54.2056 179.358 54.1332 179.682 54.1332 180.062Z" fill="#282F37"/>
<path fill-rule="evenodd" clip-rule="evenodd" d="M232.001 172.833C228.043 172.833 224.834 176.042 224.834 180C224.834 183.958 228.043 187.167 232.001 187.167C235.959 187.167 239.167 183.958 239.167 180C239.167 176.042 235.959 172.833 232.001 172.833ZM235.021 177.646C235.216 177.842 235.216 178.158 235.021 178.353L231.688 181.687C231.594 181.781 231.467 181.833 231.334 181.833C231.201 181.833 231.074 181.781 230.98 181.687L229.647 180.353C229.452 180.158 229.452 179.842 229.647 179.646C229.842 179.451 230.159 179.451 230.354 179.646L231.334 180.626L234.314 177.646C234.509 177.451 234.826 177.451 235.021 177.646Z" fill="#84D252"/>
</svg>
