<svg width="328" height="236" viewBox="0 0 328 236" fill="none" xmlns="http://www.w3.org/2000/svg">
<g clip-path="url(#clip0_568_2771)">
<rect width="328" height="68" rx="16" fill="white"/>
<path opacity="0.6" d="M17.0387 27V17.5455H22.9016V18.7734H18.4652V21.6541H22.4815V22.8775H18.4652V27H17.0387ZM24.2951 27V19.9091H25.6754V27H24.2951ZM24.9922 18.815C24.7521 18.815 24.5459 18.735 24.3736 18.5749C24.2043 18.4118 24.1197 18.2179 24.1197 17.9933C24.1197 17.7655 24.2043 17.5716 24.3736 17.4116C24.5459 17.2485 24.7521 17.1669 24.9922 17.1669C25.2322 17.1669 25.4369 17.2485 25.6062 17.4116C25.7785 17.5716 25.8647 17.7655 25.8647 17.9933C25.8647 18.2179 25.7785 18.4118 25.6062 18.5749C25.4369 18.735 25.2322 18.815 24.9922 18.815ZM27.2824 27V19.9091H28.6166V21.0355H28.6904C28.8197 20.6539 29.0474 20.3538 29.3737 20.1353C29.703 19.9137 30.0754 19.8029 30.4909 19.8029C30.577 19.8029 30.6786 19.806 30.7955 19.8121C30.9156 19.8183 31.0094 19.826 31.0771 19.8352V21.1555C31.0218 21.1402 30.9233 21.1232 30.7817 21.1048C30.6401 21.0832 30.4985 21.0724 30.357 21.0724C30.0307 21.0724 29.7399 21.1417 29.4845 21.2802C29.2321 21.4156 29.032 21.6049 28.8843 21.848C28.7366 22.0881 28.6627 22.362 28.6627 22.6697V27H27.2824ZM37.3352 21.6403L36.0842 21.8619C36.0318 21.7018 35.9487 21.5495 35.8349 21.4048C35.7241 21.2602 35.5733 21.1417 35.3825 21.0494C35.1916 20.957 34.9531 20.9109 34.6669 20.9109C34.276 20.9109 33.9498 20.9986 33.6882 21.174C33.4266 21.3464 33.2958 21.5695 33.2958 21.8434C33.2958 22.0804 33.3835 22.2712 33.5589 22.4158C33.7344 22.5605 34.0175 22.679 34.4084 22.7713L35.5348 23.0298C36.1873 23.1806 36.6735 23.413 36.9936 23.7269C37.3137 24.0408 37.4737 24.4486 37.4737 24.9503C37.4737 25.375 37.3506 25.7536 37.1044 26.0859C36.8613 26.4152 36.5212 26.6738 36.0842 26.8615C35.6502 27.0492 35.147 27.1431 34.5746 27.1431C33.7805 27.1431 33.1327 26.9738 32.631 26.6353C32.1294 26.2937 31.8216 25.8089 31.7077 25.1811L33.0419 24.978C33.125 25.3258 33.2958 25.5889 33.5543 25.7674C33.8129 25.9428 34.1499 26.0305 34.5653 26.0305C35.0178 26.0305 35.3794 25.9367 35.6502 25.7489C35.921 25.5581 36.0565 25.3258 36.0565 25.0518C36.0565 24.8303 35.9734 24.6441 35.8072 24.4933C35.6441 24.3424 35.3932 24.2286 35.0547 24.1516L33.8544 23.8885C33.1927 23.7377 32.7034 23.4976 32.3864 23.1683C32.0724 22.839 31.9155 22.422 31.9155 21.9173C31.9155 21.4987 32.0324 21.1325 32.2663 20.8185C32.5002 20.5046 32.8234 20.2599 33.2358 20.0845C33.6482 19.906 34.1206 19.8168 34.6531 19.8168C35.4194 19.8168 36.0226 19.983 36.4627 20.3153C36.9028 20.6446 37.1937 21.0863 37.3352 21.6403ZM42.0514 19.9091V21.017H38.1782V19.9091H42.0514ZM39.2169 18.2102H40.5972V24.918C40.5972 25.1857 40.6372 25.3873 40.7172 25.5227C40.7973 25.6551 40.9004 25.7459 41.0265 25.7951C41.1558 25.8413 41.2958 25.8643 41.4466 25.8643C41.5574 25.8643 41.6544 25.8567 41.7375 25.8413C41.8206 25.8259 41.8852 25.8136 41.9314 25.8043L42.1807 26.9446C42.1006 26.9754 41.9868 27.0062 41.839 27.0369C41.6913 27.0708 41.5067 27.0893 41.2851 27.0923C40.9219 27.0985 40.5834 27.0339 40.2694 26.8984C39.9555 26.763 39.7016 26.5537 39.5077 26.2706C39.3138 25.9875 39.2169 25.632 39.2169 25.2042V18.2102ZM54.2606 17.5455V27H52.9495L48.1437 20.0661H48.056V27H46.6295V17.5455H47.9498L52.7602 24.4886H52.8479V17.5455H54.2606ZM58.0442 27.157C57.5949 27.157 57.1886 27.0739 56.8255 26.9077C56.4623 26.7384 56.1745 26.4937 55.9622 26.1737C55.7529 25.8536 55.6483 25.4612 55.6483 24.9964C55.6483 24.5964 55.7252 24.267 55.8791 24.0085C56.033 23.75 56.2407 23.5453 56.5023 23.3945C56.7639 23.2437 57.0563 23.1299 57.3794 23.0529C57.7026 22.976 58.0319 22.9175 58.3674 22.8775C58.7921 22.8282 59.1368 22.7882 59.4015 22.7575C59.6661 22.7236 59.8585 22.6697 59.9785 22.5959C60.0985 22.522 60.1586 22.402 60.1586 22.2358V22.2035C60.1586 21.8003 60.0447 21.4879 59.8169 21.2663C59.5923 21.0447 59.2568 20.9339 58.8105 20.9339C58.3458 20.9339 57.9796 21.037 57.7118 21.2433C57.4471 21.4464 57.264 21.6726 57.1625 21.9219L55.8652 21.6264C56.0191 21.1955 56.2438 20.8478 56.5392 20.5831C56.8378 20.3153 57.1809 20.1214 57.5687 20.0014C57.9565 19.8783 58.3643 19.8168 58.7921 19.8168C59.0752 19.8168 59.3753 19.8506 59.6923 19.9183C60.0124 19.983 60.3109 20.103 60.5879 20.2784C60.868 20.4538 61.0972 20.7047 61.2757 21.0309C61.4542 21.354 61.5435 21.7741 61.5435 22.2912V27H60.1955V26.0305H60.1401C60.0508 26.209 59.917 26.3845 59.7385 26.5568C59.56 26.7292 59.3307 26.8723 59.0506 26.9862C58.7705 27.1 58.4351 27.157 58.0442 27.157ZM58.3443 26.049C58.7259 26.049 59.0521 25.9736 59.323 25.8228C59.5969 25.672 59.8046 25.475 59.9462 25.2319C60.0909 24.9857 60.1632 24.7225 60.1632 24.4425V23.5284C60.1139 23.5777 60.0185 23.6238 59.877 23.6669C59.7385 23.7069 59.58 23.7423 59.4015 23.7731C59.223 23.8008 59.0491 23.8269 58.8798 23.8516C58.7105 23.8731 58.569 23.8916 58.4551 23.907C58.1873 23.9408 57.9426 23.9978 57.7211 24.0778C57.5025 24.1578 57.3271 24.2732 57.1948 24.424C57.0655 24.5717 57.0009 24.7687 57.0009 25.0149C57.0009 25.3565 57.1271 25.6151 57.3794 25.7905C57.6318 25.9628 57.9534 26.049 58.3443 26.049ZM63.132 27V19.9091H64.4569V21.0632H64.5447C64.6924 20.6723 64.934 20.3677 65.2694 20.1491C65.6049 19.9276 66.0065 19.8168 66.4743 19.8168C66.9483 19.8168 67.3453 19.9276 67.6654 20.1491C67.9885 20.3707 68.2271 20.6754 68.3809 21.0632H68.4548C68.6241 20.6847 68.8934 20.383 69.2627 20.1584C69.632 19.9306 70.0721 19.8168 70.583 19.8168C71.2262 19.8168 71.751 20.0183 72.1572 20.4215C72.5666 20.8247 72.7712 21.4325 72.7712 22.245V27H71.3909V22.3743C71.3909 21.8942 71.2601 21.5464 70.9985 21.331C70.7369 21.1155 70.4245 21.0078 70.0613 21.0078C69.612 21.0078 69.2627 21.1463 69.0134 21.4233C68.7641 21.6972 68.6395 22.0496 68.6395 22.4805V27H67.2638V22.2866C67.2638 21.9019 67.1437 21.5926 66.9037 21.3587C66.6636 21.1248 66.3512 21.0078 65.9665 21.0078C65.7049 21.0078 65.4633 21.0771 65.2417 21.2156C65.0232 21.351 64.8463 21.5402 64.7108 21.7834C64.5785 22.0265 64.5123 22.3081 64.5123 22.6282V27H63.132ZM77.4274 27.1431C76.7288 27.1431 76.1271 26.9938 75.6223 26.6953C75.1207 26.3937 74.7329 25.9705 74.459 25.4258C74.1882 24.878 74.0527 24.2363 74.0527 23.5007C74.0527 22.7744 74.1882 22.1342 74.459 21.5803C74.7329 21.0263 75.1145 20.5939 75.6039 20.283C76.0963 19.9722 76.6718 19.8168 77.3304 19.8168C77.7305 19.8168 78.1183 19.8829 78.4938 20.0153C78.8693 20.1476 79.2063 20.3554 79.5048 20.6385C79.8033 20.9216 80.0388 21.2894 80.2111 21.7418C80.3835 22.1912 80.4696 22.7375 80.4696 23.3807V23.87H74.8329V22.8359H79.117C79.117 22.4728 79.0431 22.1512 78.8954 21.8711C78.7477 21.5879 78.54 21.3648 78.2722 21.2017C78.0075 21.0386 77.6967 20.957 77.3397 20.957C76.9519 20.957 76.6133 21.0524 76.324 21.2433C76.0378 21.431 75.8162 21.6772 75.6593 21.9819C75.5054 22.2835 75.4284 22.6113 75.4284 22.9652V23.7731C75.4284 24.247 75.5115 24.6502 75.6777 24.9826C75.847 25.315 76.0824 25.5689 76.3841 25.7443C76.6857 25.9167 77.0381 26.0028 77.4412 26.0028C77.7028 26.0028 77.9413 25.9659 78.1568 25.892C78.3722 25.8151 78.5584 25.7012 78.7154 25.5504C78.8723 25.3996 78.9924 25.2134 79.0755 24.9918L80.3819 25.2273C80.2773 25.612 80.0895 25.949 79.8187 26.2383C79.551 26.5245 79.214 26.7476 78.8077 26.9077C78.4045 27.0646 77.9444 27.1431 77.4274 27.1431Z" fill="#282F37"/>
<path d="M22.5263 37.9091H24.495V47.1903C24.495 48.0298 24.3288 48.7479 23.9964 49.3445C23.6683 49.9411 23.206 50.397 22.6094 50.7124C22.0128 51.0234 21.3139 51.179 20.5128 51.179C19.7756 51.179 19.1129 51.0447 18.5249 50.7763C17.9411 50.5078 17.4787 50.1179 17.1378 49.6065C16.8011 49.0909 16.6328 48.4645 16.6328 47.7273H18.5952C18.5952 48.0895 18.6783 48.4027 18.8445 48.6669C19.0149 48.9311 19.2472 49.1378 19.5412 49.2869C19.8395 49.4318 20.1804 49.5043 20.5639 49.5043C20.9815 49.5043 21.3352 49.4169 21.625 49.2422C21.919 49.0632 22.1428 48.8011 22.2962 48.456C22.4496 48.1108 22.5263 47.6889 22.5263 47.1903V37.9091ZM31.1021 51.1982C30.1816 51.1982 29.3784 50.9872 28.6923 50.5653C28.0062 50.1435 27.4735 49.5533 27.0943 48.7947C26.715 48.0362 26.5254 47.1499 26.5254 46.1357C26.5254 45.1172 26.715 44.2266 27.0943 43.4638C27.4735 42.701 28.0062 42.1087 28.6923 41.6868C29.3784 41.2649 30.1816 41.054 31.1021 41.054C32.0225 41.054 32.8258 41.2649 33.5119 41.6868C34.198 42.1087 34.7306 42.701 35.1099 43.4638C35.4892 44.2266 35.6788 45.1172 35.6788 46.1357C35.6788 47.1499 35.4892 48.0362 35.1099 48.7947C34.7306 49.5533 34.198 50.1435 33.5119 50.5653C32.8258 50.9872 32.0225 51.1982 31.1021 51.1982ZM31.1085 49.5938C31.7051 49.5938 32.1994 49.4361 32.5914 49.1207C32.9835 48.8054 33.2733 48.3857 33.4608 47.8615C33.6525 47.3374 33.7484 46.7599 33.7484 46.1293C33.7484 45.5028 33.6525 44.9276 33.4608 44.4034C33.2733 43.875 32.9835 43.451 32.5914 43.1314C32.1994 42.8118 31.7051 42.652 31.1085 42.652C30.5076 42.652 30.0091 42.8118 29.6127 43.1314C29.2207 43.451 28.9288 43.875 28.737 44.4034C28.5495 44.9276 28.4558 45.5028 28.4558 46.1293C28.4558 46.7599 28.5495 47.3374 28.737 47.8615C28.9288 48.3857 29.2207 48.8054 29.6127 49.1207C30.0091 49.4361 30.5076 49.5938 31.1085 49.5938ZM39.4734 45.1705V51H37.5621V37.9091H39.4478V42.7798H39.5692C39.7994 42.2514 40.1509 41.8317 40.6239 41.5206C41.0969 41.2095 41.7148 41.054 42.4776 41.054C43.1509 41.054 43.739 41.1925 44.2418 41.4695C44.7489 41.7464 45.141 42.1598 45.418 42.7095C45.6992 43.255 45.8398 43.9368 45.8398 44.755V51H43.9286V44.9851C43.9286 44.2649 43.7433 43.7067 43.3725 43.3104C43.0018 42.9098 42.4862 42.7095 41.8256 42.7095C41.3739 42.7095 40.9691 42.8054 40.6112 42.9972C40.2575 43.1889 39.9783 43.4702 39.7738 43.8409C39.5735 44.2074 39.4734 44.6506 39.4734 45.1705ZM50.0515 45.1705V51H48.1403V41.1818H49.9748V42.7798H50.0962C50.3221 42.2599 50.6758 41.8423 51.1573 41.527C51.6431 41.2116 52.2546 41.054 52.9918 41.054C53.6609 41.054 54.2468 41.1946 54.7496 41.4759C55.2525 41.7528 55.6424 42.1662 55.9194 42.7159C56.1964 43.2656 56.3349 43.9453 56.3349 44.755V51H54.4237V44.9851C54.4237 44.2734 54.2383 43.7173 53.8675 43.3168C53.4968 42.9119 52.9876 42.7095 52.3398 42.7095C51.8967 42.7095 51.5025 42.8054 51.1573 42.9972C50.8164 43.1889 50.5458 43.4702 50.3455 43.8409C50.1495 44.2074 50.0515 44.6506 50.0515 45.1705ZM67.5531 51H63.3152V37.9091H67.6873C68.97 37.9091 70.0716 38.1712 70.992 38.6953C71.9125 39.2152 72.6177 39.9631 73.1078 40.9389C73.6021 41.9105 73.8493 43.076 73.8493 44.4354C73.8493 45.799 73.6 46.9709 73.1014 47.951C72.6071 48.9311 71.8912 49.6854 70.9537 50.2138C70.0162 50.7379 68.8826 51 67.5531 51ZM65.2903 49.2741H67.4444C68.4416 49.2741 69.2704 49.0866 69.9309 48.7116C70.5914 48.3324 71.0858 47.7848 71.4139 47.0689C71.742 46.3487 71.9061 45.4709 71.9061 44.4354C71.9061 43.4084 71.742 42.5369 71.4139 41.821C71.09 41.1051 70.6064 40.5618 69.9629 40.1911C69.3194 39.8203 68.5204 39.6349 67.5659 39.6349H65.2903V49.2741ZM80.0376 51.1982C79.1172 51.1982 78.3139 50.9872 77.6278 50.5653C76.9418 50.1435 76.4091 49.5533 76.0298 48.7947C75.6506 48.0362 75.4609 47.1499 75.4609 46.1357C75.4609 45.1172 75.6506 44.2266 76.0298 43.4638C76.4091 42.701 76.9418 42.1087 77.6278 41.6868C78.3139 41.2649 79.1172 41.054 80.0376 41.054C80.9581 41.054 81.7614 41.2649 82.4474 41.6868C83.1335 42.1087 83.6662 42.701 84.0455 43.4638C84.4247 44.2266 84.6143 45.1172 84.6143 46.1357C84.6143 47.1499 84.4247 48.0362 84.0455 48.7947C83.6662 49.5533 83.1335 50.1435 82.4474 50.5653C81.7614 50.9872 80.9581 51.1982 80.0376 51.1982ZM80.044 49.5938C80.6406 49.5938 81.1349 49.4361 81.527 49.1207C81.919 48.8054 82.2088 48.3857 82.3963 47.8615C82.5881 47.3374 82.6839 46.7599 82.6839 46.1293C82.6839 45.5028 82.5881 44.9276 82.3963 44.4034C82.2088 43.875 81.919 43.451 81.527 43.1314C81.1349 42.8118 80.6406 42.652 80.044 42.652C79.4432 42.652 78.9446 42.8118 78.5483 43.1314C78.1563 43.451 77.8643 43.875 77.6726 44.4034C77.4851 44.9276 77.3913 45.5028 77.3913 46.1293C77.3913 46.7599 77.4851 47.3374 77.6726 47.8615C77.8643 48.3857 78.1563 48.8054 78.5483 49.1207C78.9446 49.4361 79.4432 49.5938 80.044 49.5938ZM90.7292 51.1982C89.7619 51.1982 88.9288 50.9915 88.2299 50.5781C87.5353 50.1605 86.9984 49.5746 86.6191 48.8203C86.2441 48.0618 86.0566 47.1733 86.0566 46.1548C86.0566 45.1491 86.2441 44.2628 86.6191 43.4957C86.9984 42.7287 87.5268 42.13 88.2044 41.6996C88.8862 41.2692 89.6831 41.054 90.595 41.054C91.149 41.054 91.6859 41.1456 92.2058 41.3288C92.7257 41.5121 93.1923 41.7997 93.6056 42.1918C94.019 42.5838 94.345 43.093 94.5836 43.7195C94.8223 44.3416 94.9416 45.098 94.9416 45.9886V46.6662H87.1369V45.2344H93.0687C93.0687 44.7315 92.9664 44.2862 92.7619 43.8984C92.5574 43.5064 92.2697 43.1974 91.899 42.9716C91.5325 42.7457 91.1021 42.6328 90.6078 42.6328C90.0708 42.6328 89.6021 42.7649 89.2015 43.0291C88.8052 43.2891 88.4984 43.63 88.2811 44.0518C88.068 44.4695 87.9615 44.9233 87.9615 45.4134V46.532C87.9615 47.1882 88.0765 47.7464 88.3066 48.2067C88.541 48.6669 88.867 49.0185 89.2846 49.2614C89.7022 49.5 90.1902 49.6193 90.7484 49.6193C91.1106 49.6193 91.4409 49.5682 91.7392 49.4659C92.0375 49.3594 92.2953 49.2017 92.5126 48.9929C92.7299 48.7841 92.8961 48.5263 93.0112 48.2195L94.8201 48.5455C94.6752 49.0781 94.4153 49.5447 94.0403 49.9453C93.6696 50.3416 93.2029 50.6506 92.6404 50.8722C92.0822 51.0895 91.4451 51.1982 90.7292 51.1982Z" fill="#282F37"/>
<path fill-rule="evenodd" clip-rule="evenodd" d="M298.185 36.097L305.099 29L307 30.9515L298.185 40L293 34.6774L294.901 32.7259L298.185 36.097Z" fill="#84D252"/>
</g>
<rect x="0.5" y="0.5" width="327" height="67" rx="15.5" stroke="#0052A5" stroke-opacity="0.2"/>
<g clip-path="url(#clip1_568_2771)">
<rect y="84" width="328" height="68" rx="16" fill="white"/>
<path opacity="0.6" d="M17.0387 111V101.545H22.9663V102.773H18.4652V105.654H22.657V106.877H18.4652V109.772H23.0217V111H17.0387ZM28.6888 105.673V106.873H24.4971V105.673H28.6888ZM30.3893 101.545H32.1205L35.1304 108.895H35.2412L38.2512 101.545H39.9823V111H38.6251V104.158H38.5374L35.749 110.986H34.6226L31.8343 104.154H31.7465V111H30.3893V101.545ZM43.7591 111.157C43.3097 111.157 42.9035 111.074 42.5403 110.908C42.1771 110.738 41.8894 110.494 41.677 110.174C41.4677 109.854 41.3631 109.461 41.3631 108.996C41.3631 108.596 41.44 108.267 41.5939 108.009C41.7478 107.75 41.9556 107.545 42.2172 107.395C42.4788 107.244 42.7711 107.13 43.0943 107.053C43.4174 106.976 43.7467 106.917 44.0822 106.877C44.5069 106.828 44.8516 106.788 45.1163 106.757C45.381 106.724 45.5733 106.67 45.6934 106.596C45.8134 106.522 45.8734 106.402 45.8734 106.236V106.203C45.8734 105.8 45.7595 105.488 45.5318 105.266C45.3071 105.045 44.9717 104.934 44.5254 104.934C44.0607 104.934 43.6944 105.037 43.4267 105.243C43.162 105.446 42.9789 105.673 42.8773 105.922L41.5801 105.626C41.734 105.196 41.9586 104.848 42.2541 104.583C42.5526 104.315 42.8958 104.121 43.2836 104.001C43.6713 103.878 44.0791 103.817 44.5069 103.817C44.7901 103.817 45.0901 103.851 45.4071 103.918C45.7272 103.983 46.0257 104.103 46.3027 104.278C46.5828 104.454 46.8121 104.705 46.9906 105.031C47.1691 105.354 47.2583 105.774 47.2583 106.291V111H45.9103V110.031H45.8549C45.7657 110.209 45.6318 110.384 45.4533 110.557C45.2748 110.729 45.0455 110.872 44.7654 110.986C44.4854 111.1 44.1499 111.157 43.7591 111.157ZM44.0591 110.049C44.4408 110.049 44.767 109.974 45.0378 109.823C45.3117 109.672 45.5195 109.475 45.661 109.232C45.8057 108.986 45.878 108.723 45.878 108.442V107.528C45.8288 107.578 45.7334 107.624 45.5918 107.667C45.4533 107.707 45.2948 107.742 45.1163 107.773C44.9378 107.801 44.7639 107.827 44.5946 107.852C44.4254 107.873 44.2838 107.892 44.1699 107.907C43.9022 107.941 43.6575 107.998 43.4359 108.078C43.2174 108.158 43.042 108.273 42.9096 108.424C42.7804 108.572 42.7157 108.769 42.7157 109.015C42.7157 109.357 42.8419 109.615 43.0943 109.79C43.3467 109.963 43.6683 110.049 44.0591 110.049ZM48.8469 111V103.909H50.2272V111H48.8469ZM49.5439 102.815C49.3039 102.815 49.0977 102.735 48.9253 102.575C48.7561 102.412 48.6714 102.218 48.6714 101.993C48.6714 101.766 48.7561 101.572 48.9253 101.412C49.0977 101.248 49.3039 101.167 49.5439 101.167C49.784 101.167 49.9887 101.248 50.1579 101.412C50.3303 101.572 50.4165 101.766 50.4165 101.993C50.4165 102.218 50.3303 102.412 50.1579 102.575C49.9887 102.735 49.784 102.815 49.5439 102.815ZM53.2145 101.545V111H51.8342V101.545H53.2145Z" fill="#282F37"/>
<path d="M17.2848 125.182H19.196V135.639C19.196 136.295 19.0767 136.849 18.8381 137.301C18.6037 137.753 18.2543 138.096 17.7898 138.33C17.3295 138.565 16.7607 138.682 16.0831 138.682C16.0149 138.682 15.951 138.682 15.8913 138.682C15.8274 138.682 15.7614 138.68 15.6932 138.675V137.033C15.7528 137.033 15.8061 137.033 15.853 137.033C15.8956 137.033 15.9446 137.033 16 137.033C16.4517 137.033 16.7777 136.911 16.978 136.668C17.1825 136.43 17.2848 136.082 17.2848 135.626V125.182ZM18.2308 123.667C17.8984 123.667 17.6129 123.556 17.3743 123.335C17.1399 123.109 17.0227 122.84 17.0227 122.529C17.0227 122.214 17.1399 121.945 17.3743 121.724C17.6129 121.498 17.8984 121.385 18.2308 121.385C18.5632 121.385 18.8466 121.498 19.081 121.724C19.3196 121.945 19.4389 122.214 19.4389 122.529C19.4389 122.84 19.3196 123.109 19.081 123.335C18.8466 123.556 18.5632 123.667 18.2308 123.667ZM25.6529 135.198C24.7324 135.198 23.9292 134.987 23.2431 134.565C22.557 134.143 22.0243 133.553 21.6451 132.795C21.2658 132.036 21.0762 131.15 21.0762 130.136C21.0762 129.117 21.2658 128.227 21.6451 127.464C22.0243 126.701 22.557 126.109 23.2431 125.687C23.9292 125.265 24.7324 125.054 25.6529 125.054C26.5733 125.054 27.3766 125.265 28.0627 125.687C28.7488 126.109 29.2814 126.701 29.6607 127.464C30.04 128.227 30.2296 129.117 30.2296 130.136C30.2296 131.15 30.04 132.036 29.6607 132.795C29.2814 133.553 28.7488 134.143 28.0627 134.565C27.3766 134.987 26.5733 135.198 25.6529 135.198ZM25.6593 133.594C26.2559 133.594 26.7502 133.436 27.1422 133.121C27.5343 132.805 27.824 132.386 28.0115 131.862C28.2033 131.337 28.2992 130.76 28.2992 130.129C28.2992 129.503 28.2033 128.928 28.0115 128.403C27.824 127.875 27.5343 127.451 27.1422 127.131C26.7502 126.812 26.2559 126.652 25.6593 126.652C25.0584 126.652 24.5598 126.812 24.1635 127.131C23.7715 127.451 23.4796 127.875 23.2878 128.403C23.1003 128.928 23.0066 129.503 23.0066 130.129C23.0066 130.76 23.1003 131.337 23.2878 131.862C23.4796 132.386 23.7715 132.805 24.1635 133.121C24.5598 133.436 25.0584 133.594 25.6593 133.594ZM34.0241 129.17V135H32.1129V121.909H33.9986V126.78H34.12C34.3501 126.251 34.7017 125.832 35.1747 125.521C35.6477 125.21 36.2656 125.054 37.0284 125.054C37.7017 125.054 38.2898 125.192 38.7926 125.469C39.2997 125.746 39.6918 126.16 39.9688 126.71C40.25 127.255 40.3906 127.937 40.3906 128.755V135H38.4794V128.985C38.4794 128.265 38.294 127.707 37.9233 127.31C37.5526 126.91 37.0369 126.71 36.3764 126.71C35.9247 126.71 35.5199 126.805 35.1619 126.997C34.8082 127.189 34.5291 127.47 34.3246 127.841C34.1243 128.207 34.0241 128.651 34.0241 129.17ZM44.6023 129.17V135H42.6911V125.182H44.5256V126.78H44.647C44.8729 126.26 45.2266 125.842 45.7081 125.527C46.1939 125.212 46.8054 125.054 47.5426 125.054C48.2116 125.054 48.7976 125.195 49.3004 125.476C49.8033 125.753 50.1932 126.166 50.4702 126.716C50.7472 127.266 50.8857 127.945 50.8857 128.755V135H48.9744V128.985C48.9744 128.273 48.7891 127.717 48.4183 127.317C48.0476 126.912 47.5384 126.71 46.8906 126.71C46.4474 126.71 46.0533 126.805 45.7081 126.997C45.3672 127.189 45.0966 127.47 44.8963 127.841C44.7003 128.207 44.6023 128.651 44.6023 129.17ZM54.4581 135.121C54.1087 135.121 53.8082 134.998 53.5568 134.751C53.3054 134.499 53.1797 134.197 53.1797 133.843C53.1797 133.494 53.3054 133.195 53.5568 132.948C53.8082 132.697 54.1087 132.571 54.4581 132.571C54.8075 132.571 55.108 132.697 55.3594 132.948C55.6108 133.195 55.7365 133.494 55.7365 133.843C55.7365 134.077 55.6768 134.293 55.5575 134.489C55.4425 134.68 55.2891 134.834 55.0973 134.949C54.9055 135.064 54.6925 135.121 54.4581 135.121ZM61.7219 135.192C60.9293 135.192 60.2219 134.989 59.5998 134.585C58.9819 134.175 58.4961 133.594 58.1424 132.839C57.793 132.081 57.6183 131.171 57.6183 130.11C57.6183 129.049 57.7951 128.141 58.1488 127.387C58.5067 126.633 58.9968 126.055 59.619 125.655C60.2411 125.254 60.9464 125.054 61.7347 125.054C62.3441 125.054 62.8342 125.156 63.2049 125.361C63.5799 125.561 63.8697 125.795 64.0742 126.064C64.283 126.332 64.445 126.569 64.56 126.773H64.6751V121.909H66.5863V135H64.7198V133.472H64.56C64.445 133.681 64.2788 133.92 64.0614 134.188C63.8484 134.457 63.5543 134.691 63.1793 134.891C62.8043 135.092 62.3185 135.192 61.7219 135.192ZM62.1438 133.562C62.6935 133.562 63.158 133.417 63.5373 133.127C63.9208 132.833 64.2106 132.426 64.4066 131.906C64.6069 131.386 64.707 130.781 64.707 130.091C64.707 129.409 64.609 128.812 64.413 128.301C64.217 127.79 63.9293 127.391 63.5501 127.106C63.1708 126.82 62.7021 126.678 62.1438 126.678C61.5685 126.678 61.0891 126.827 60.7056 127.125C60.3221 127.423 60.0323 127.83 59.8363 128.346C59.6445 128.862 59.5487 129.443 59.5487 130.091C59.5487 130.747 59.6467 131.337 59.8427 131.862C60.0387 132.386 60.3285 132.801 60.712 133.108C61.0998 133.411 61.5771 133.562 62.1438 133.562ZM73.1998 135.198C72.2793 135.198 71.476 134.987 70.79 134.565C70.1039 134.143 69.5712 133.553 69.1919 132.795C68.8127 132.036 68.623 131.15 68.623 130.136C68.623 129.117 68.8127 128.227 69.1919 127.464C69.5712 126.701 70.1039 126.109 70.79 125.687C71.476 125.265 72.2793 125.054 73.1998 125.054C74.1202 125.054 74.9235 125.265 75.6096 125.687C76.2956 126.109 76.8283 126.701 77.2076 127.464C77.5868 128.227 77.7765 129.117 77.7765 130.136C77.7765 131.15 77.5868 132.036 77.2076 132.795C76.8283 133.553 76.2956 134.143 75.6096 134.565C74.9235 134.987 74.1202 135.198 73.1998 135.198ZM73.2061 133.594C73.8027 133.594 74.2971 133.436 74.6891 133.121C75.0811 132.805 75.3709 132.386 75.5584 131.862C75.7502 131.337 75.8461 130.76 75.8461 130.129C75.8461 129.503 75.7502 128.928 75.5584 128.403C75.3709 127.875 75.0811 127.451 74.6891 127.131C74.2971 126.812 73.8027 126.652 73.2061 126.652C72.6053 126.652 72.1067 126.812 71.7104 127.131C71.3184 127.451 71.0265 127.875 70.8347 128.403C70.6472 128.928 70.5534 129.503 70.5534 130.129C70.5534 130.76 70.6472 131.337 70.8347 131.862C71.0265 132.386 71.3184 132.805 71.7104 133.121C72.1067 133.436 72.6053 133.594 73.2061 133.594ZM83.8913 135.198C82.924 135.198 82.0909 134.991 81.392 134.578C80.6974 134.161 80.1605 133.575 79.7812 132.82C79.4062 132.062 79.2188 131.173 79.2188 130.155C79.2188 129.149 79.4062 128.263 79.7812 127.496C80.1605 126.729 80.6889 126.13 81.3665 125.7C82.0483 125.269 82.8452 125.054 83.7571 125.054C84.3111 125.054 84.848 125.146 85.3679 125.329C85.8878 125.512 86.3544 125.8 86.7678 126.192C87.1811 126.584 87.5071 127.093 87.7457 127.719C87.9844 128.342 88.1037 129.098 88.1037 129.989V130.666H80.299V129.234H86.2308C86.2308 128.732 86.1286 128.286 85.924 127.898C85.7195 127.506 85.4318 127.197 85.0611 126.972C84.6946 126.746 84.2642 126.633 83.7699 126.633C83.233 126.633 82.7642 126.765 82.3636 127.029C81.9673 127.289 81.6605 127.63 81.4432 128.052C81.2301 128.469 81.1236 128.923 81.1236 129.413V130.532C81.1236 131.188 81.2386 131.746 81.4688 132.207C81.7031 132.667 82.0291 133.018 82.4467 133.261C82.8643 133.5 83.3523 133.619 83.9105 133.619C84.2727 133.619 84.603 133.568 84.9013 133.466C85.1996 133.359 85.4574 133.202 85.6747 132.993C85.892 132.784 86.0582 132.526 86.1733 132.219L87.9822 132.545C87.8374 133.078 87.5774 133.545 87.2024 133.945C86.8317 134.342 86.3651 134.651 85.8026 134.872C85.2443 135.089 84.6072 135.198 83.8913 135.198ZM97.8556 138.56C96.5346 138.56 95.3627 138.379 94.34 138.017C93.3216 137.659 92.4629 137.131 91.764 136.432C91.0652 135.737 90.5346 134.885 90.1724 133.875C89.8102 132.865 89.6291 131.712 89.6291 130.417C89.6291 129.156 89.8123 128.022 90.1788 127.016C90.5453 126.011 91.0779 125.154 91.7768 124.447C92.4799 123.735 93.3343 123.192 94.34 122.817C95.3457 122.442 96.4877 122.254 97.7662 122.254C98.9892 122.254 100.067 122.446 101.001 122.83C101.934 123.213 102.718 123.739 103.353 124.408C103.992 125.077 104.474 125.844 104.797 126.71C105.121 127.575 105.283 128.489 105.283 129.452C105.283 130.125 105.241 130.783 105.155 131.427C105.07 132.066 104.912 132.646 104.682 133.165C104.456 133.681 104.128 134.094 103.698 134.406C103.272 134.712 102.718 134.872 102.036 134.885C101.674 134.898 101.322 134.855 100.981 134.757C100.64 134.659 100.351 134.501 100.112 134.284C99.8734 134.062 99.7285 133.781 99.6774 133.44H99.6007C99.4984 133.692 99.3279 133.926 99.0893 134.143C98.8507 134.357 98.546 134.527 98.1752 134.655C97.8088 134.778 97.3826 134.83 96.8968 134.808C96.3599 134.787 95.8762 134.665 95.4458 134.444C95.0154 134.222 94.6468 133.915 94.34 133.523C94.0375 133.131 93.8052 132.667 93.6433 132.13C93.4814 131.593 93.4004 130.996 93.4004 130.34C93.4004 129.71 93.492 129.145 93.6752 128.646C93.8585 128.143 94.1078 127.711 94.4231 127.349C94.7427 126.982 95.1092 126.692 95.5226 126.479C95.9359 126.266 96.3727 126.132 96.8329 126.077C97.2804 126.026 97.6916 126.038 98.0666 126.115C98.4416 126.192 98.7527 126.309 98.9998 126.467C99.2512 126.624 99.4089 126.797 99.4728 126.984H99.5559V126.268H101.128V132.2C101.128 132.537 101.216 132.822 101.39 133.057C101.569 133.291 101.823 133.408 102.151 133.408C102.539 133.408 102.841 133.266 103.059 132.98C103.28 132.695 103.436 132.256 103.525 131.663C103.619 131.071 103.666 130.312 103.666 129.388C103.666 128.74 103.579 128.131 103.404 127.56C103.233 126.984 102.98 126.464 102.643 126C102.311 125.531 101.902 125.129 101.416 124.792C100.93 124.455 100.376 124.195 99.7541 124.012C99.1362 123.829 98.4522 123.737 97.7022 123.737C96.6838 123.737 95.7782 123.895 94.9856 124.21C94.193 124.521 93.524 124.971 92.9785 125.559C92.4373 126.147 92.0261 126.852 91.7449 127.675C91.4679 128.493 91.3294 129.411 91.3294 130.43C91.3294 131.491 91.4721 132.433 91.7576 133.255C92.0431 134.073 92.465 134.763 93.0233 135.326C93.5815 135.888 94.2718 136.315 95.0943 136.604C95.9167 136.898 96.8649 137.045 97.9387 137.045C98.416 137.045 98.8848 137.003 99.345 136.918C99.8052 136.837 100.214 136.743 100.572 136.636C100.934 136.534 101.205 136.451 101.384 136.387L101.831 137.787C101.567 137.911 101.216 138.032 100.777 138.151C100.342 138.271 99.8691 138.369 99.3578 138.445C98.8507 138.522 98.35 138.56 97.8556 138.56ZM97.2676 133.242C97.8216 133.242 98.2669 133.131 98.6035 132.91C98.9444 132.688 99.1895 132.358 99.3386 131.919C99.492 131.476 99.5687 130.922 99.5687 130.257C99.5645 129.609 99.4814 129.094 99.3194 128.71C99.1618 128.322 98.9146 128.045 98.5779 127.879C98.2456 127.709 97.8173 127.624 97.2931 127.624C96.8116 127.624 96.4004 127.741 96.0595 127.975C95.7228 128.21 95.465 128.527 95.286 128.928C95.1113 129.328 95.0218 129.773 95.0176 130.263C95.0218 130.779 95.0943 131.265 95.2349 131.721C95.3798 132.173 95.6142 132.539 95.938 132.82C96.2662 133.102 96.7093 133.242 97.2676 133.242ZM107.144 135V125.182H108.979V126.78H109.1C109.305 126.239 109.639 125.817 110.104 125.514C110.568 125.207 111.124 125.054 111.772 125.054C112.428 125.054 112.978 125.207 113.421 125.514C113.869 125.821 114.199 126.243 114.412 126.78H114.514C114.749 126.256 115.121 125.838 115.633 125.527C116.144 125.212 116.754 125.054 117.461 125.054C118.352 125.054 119.078 125.333 119.641 125.891C120.207 126.45 120.491 127.291 120.491 128.416V135H118.58V128.595C118.58 127.93 118.398 127.449 118.036 127.151C117.674 126.852 117.241 126.703 116.739 126.703C116.116 126.703 115.633 126.895 115.288 127.278C114.942 127.658 114.77 128.146 114.77 128.742V135H112.865V128.474C112.865 127.941 112.699 127.513 112.366 127.189C112.034 126.865 111.602 126.703 111.069 126.703C110.707 126.703 110.372 126.799 110.065 126.991C109.763 127.178 109.518 127.44 109.33 127.777C109.147 128.114 109.055 128.504 109.055 128.947V135H107.144ZM125.66 135.217C125.037 135.217 124.475 135.102 123.972 134.872C123.469 134.638 123.071 134.299 122.777 133.856C122.487 133.413 122.342 132.869 122.342 132.226C122.342 131.672 122.449 131.216 122.662 130.858C122.875 130.5 123.162 130.217 123.525 130.008C123.887 129.799 124.292 129.641 124.739 129.535C125.187 129.428 125.643 129.347 126.107 129.292C126.695 129.224 127.172 129.168 127.539 129.126C127.905 129.079 128.172 129.004 128.338 128.902C128.504 128.8 128.587 128.634 128.587 128.403V128.359C128.587 127.8 128.43 127.368 128.114 127.061C127.803 126.754 127.339 126.601 126.721 126.601C126.077 126.601 125.57 126.744 125.199 127.029C124.833 127.31 124.579 127.624 124.439 127.969L122.643 127.56C122.856 126.963 123.167 126.482 123.576 126.115C123.989 125.744 124.464 125.476 125.001 125.31C125.538 125.139 126.103 125.054 126.695 125.054C127.087 125.054 127.503 125.101 127.942 125.195C128.385 125.284 128.798 125.45 129.182 125.693C129.569 125.936 129.887 126.283 130.134 126.735C130.381 127.183 130.505 127.764 130.505 128.48V135H128.638V133.658H128.562C128.438 133.905 128.253 134.148 128.006 134.386C127.758 134.625 127.441 134.823 127.053 134.981C126.665 135.138 126.201 135.217 125.66 135.217ZM126.075 133.683C126.604 133.683 127.055 133.579 127.43 133.37C127.809 133.161 128.097 132.888 128.293 132.552C128.493 132.211 128.594 131.847 128.594 131.459V130.193C128.525 130.261 128.393 130.325 128.197 130.385C128.006 130.44 127.786 130.489 127.539 130.532C127.292 130.57 127.051 130.607 126.817 130.641C126.582 130.67 126.386 130.696 126.229 130.717C125.858 130.764 125.519 130.843 125.212 130.954C124.91 131.065 124.667 131.224 124.483 131.433C124.305 131.638 124.215 131.911 124.215 132.251C124.215 132.724 124.39 133.082 124.739 133.325C125.089 133.564 125.534 133.683 126.075 133.683ZM132.8 135V125.182H134.712V135H132.8ZM133.766 123.667C133.433 123.667 133.148 123.556 132.909 123.335C132.675 123.109 132.558 122.84 132.558 122.529C132.558 122.214 132.675 121.945 132.909 121.724C133.148 121.498 133.433 121.385 133.766 121.385C134.098 121.385 134.381 121.498 134.616 121.724C134.854 121.945 134.974 122.214 134.974 122.529C134.974 122.84 134.854 123.109 134.616 123.335C134.381 123.556 134.098 123.667 133.766 123.667ZM138.944 121.909V135H137.033V121.909H138.944ZM142.525 135.121C142.175 135.121 141.875 134.998 141.623 134.751C141.372 134.499 141.246 134.197 141.246 133.843C141.246 133.494 141.372 133.195 141.623 132.948C141.875 132.697 142.175 132.571 142.525 132.571C142.874 132.571 143.174 132.697 143.426 132.948C143.677 133.195 143.803 133.494 143.803 133.843C143.803 134.077 143.743 134.293 143.624 134.489C143.509 134.68 143.355 134.834 143.164 134.949C142.972 135.064 142.759 135.121 142.525 135.121ZM150.249 135.198C149.298 135.198 148.48 134.983 147.794 134.553C147.112 134.118 146.588 133.519 146.222 132.756C145.855 131.994 145.672 131.12 145.672 130.136C145.672 129.138 145.859 128.259 146.234 127.496C146.609 126.729 147.138 126.13 147.82 125.7C148.501 125.269 149.305 125.054 150.229 125.054C150.975 125.054 151.64 125.192 152.224 125.469C152.808 125.742 153.278 126.126 153.636 126.62C153.999 127.114 154.214 127.692 154.282 128.352H152.422C152.32 127.892 152.085 127.496 151.719 127.163C151.357 126.831 150.871 126.665 150.261 126.665C149.729 126.665 149.262 126.805 148.862 127.087C148.465 127.364 148.156 127.76 147.935 128.276C147.713 128.787 147.602 129.392 147.602 130.091C147.602 130.807 147.711 131.425 147.928 131.945C148.146 132.464 148.452 132.867 148.849 133.153C149.249 133.438 149.72 133.581 150.261 133.581C150.624 133.581 150.952 133.515 151.246 133.383C151.544 133.246 151.793 133.053 151.994 132.801C152.198 132.55 152.341 132.247 152.422 131.893H154.282C154.214 132.528 154.007 133.095 153.662 133.594C153.317 134.092 152.854 134.484 152.275 134.77C151.7 135.055 151.024 135.198 150.249 135.198ZM160.211 135.198C159.291 135.198 158.488 134.987 157.802 134.565C157.116 134.143 156.583 133.553 156.204 132.795C155.824 132.036 155.635 131.15 155.635 130.136C155.635 129.117 155.824 128.227 156.204 127.464C156.583 126.701 157.116 126.109 157.802 125.687C158.488 125.265 159.291 125.054 160.211 125.054C161.132 125.054 161.935 125.265 162.621 125.687C163.307 126.109 163.84 126.701 164.219 127.464C164.599 128.227 164.788 129.117 164.788 130.136C164.788 131.15 164.599 132.036 164.219 132.795C163.84 133.553 163.307 134.143 162.621 134.565C161.935 134.987 161.132 135.198 160.211 135.198ZM160.218 133.594C160.814 133.594 161.309 133.436 161.701 133.121C162.093 132.805 162.383 132.386 162.57 131.862C162.762 131.337 162.858 130.76 162.858 130.129C162.858 129.503 162.762 128.928 162.57 128.403C162.383 127.875 162.093 127.451 161.701 127.131C161.309 126.812 160.814 126.652 160.218 126.652C159.617 126.652 159.118 126.812 158.722 127.131C158.33 127.451 158.038 127.875 157.846 128.403C157.659 128.928 157.565 129.503 157.565 130.129C157.565 130.76 157.659 131.337 157.846 131.862C158.038 132.386 158.33 132.805 158.722 133.121C159.118 133.436 159.617 133.594 160.218 133.594ZM166.672 135V125.182H168.506V126.78H168.627C168.832 126.239 169.167 125.817 169.631 125.514C170.096 125.207 170.652 125.054 171.299 125.054C171.956 125.054 172.505 125.207 172.949 125.514C173.396 125.821 173.726 126.243 173.939 126.78H174.042C174.276 126.256 174.649 125.838 175.16 125.527C175.672 125.212 176.281 125.054 176.988 125.054C177.879 125.054 178.605 125.333 179.168 125.891C179.735 126.45 180.018 127.291 180.018 128.416V135H178.107V128.595C178.107 127.93 177.926 127.449 177.564 127.151C177.201 126.852 176.769 126.703 176.266 126.703C175.644 126.703 175.16 126.895 174.815 127.278C174.47 127.658 174.297 128.146 174.297 128.742V135H172.392V128.474C172.392 127.941 172.226 127.513 171.894 127.189C171.561 126.865 171.129 126.703 170.596 126.703C170.234 126.703 169.9 126.799 169.593 126.991C169.29 127.178 169.045 127.44 168.858 127.777C168.674 128.114 168.583 128.504 168.583 128.947V135H166.672Z" fill="#282F37"/>
<path fill-rule="evenodd" clip-rule="evenodd" d="M298.185 120.097L305.099 113L307 114.952L298.185 124L293 118.677L294.901 116.726L298.185 120.097Z" fill="#84D252"/>
</g>
<rect x="0.5" y="84.5" width="327" height="67" rx="15.5" stroke="#0052A5" stroke-opacity="0.2"/>
<g clip-path="url(#clip2_568_2771)">
<rect y="168" width="328" height="68" rx="16" fill="white"/>
<path opacity="0.6" d="M20.0994 195H17.0387V185.545H20.1964C21.1228 185.545 21.9183 185.735 22.5831 186.113C23.2479 186.489 23.7572 187.029 24.1112 187.734C24.4682 188.435 24.6467 189.277 24.6467 190.259C24.6467 191.244 24.4666 192.09 24.1065 192.798C23.7495 193.506 23.2325 194.051 22.5554 194.432C21.8783 194.811 21.0597 195 20.0994 195ZM18.4652 193.754H20.021C20.7411 193.754 21.3397 193.618 21.8168 193.347C22.2938 193.073 22.6508 192.678 22.8878 192.161C23.1248 191.641 23.2433 191.007 23.2433 190.259C23.2433 189.517 23.1248 188.888 22.8878 188.371C22.6539 187.854 22.3046 187.461 21.8398 187.194C21.3751 186.926 20.7981 186.792 20.1087 186.792H18.4652V193.754ZM28.1233 195.157C27.674 195.157 27.2677 195.074 26.9046 194.908C26.5414 194.738 26.2536 194.494 26.0413 194.174C25.832 193.854 25.7274 193.461 25.7274 192.996C25.7274 192.596 25.8043 192.267 25.9582 192.009C26.1121 191.75 26.3198 191.545 26.5814 191.395C26.843 191.244 27.1354 191.13 27.4585 191.053C27.7817 190.976 28.111 190.917 28.4465 190.877C28.8712 190.828 29.2159 190.788 29.4806 190.757C29.7452 190.724 29.9376 190.67 30.0576 190.596C30.1776 190.522 30.2377 190.402 30.2377 190.236V190.203C30.2377 189.8 30.1238 189.488 29.896 189.266C29.6714 189.045 29.3359 188.934 28.8896 188.934C28.4249 188.934 28.0587 189.037 27.7909 189.243C27.5262 189.446 27.3431 189.673 27.2416 189.922L25.9443 189.626C26.0982 189.196 26.3229 188.848 26.6183 188.583C26.9169 188.315 27.26 188.121 27.6478 188.001C28.0356 187.878 28.4434 187.817 28.8712 187.817C29.1543 187.817 29.4544 187.851 29.7714 187.918C30.0915 187.983 30.39 188.103 30.667 188.278C30.9471 188.454 31.1763 188.705 31.3548 189.031C31.5334 189.354 31.6226 189.774 31.6226 190.291V195H30.2746V194.031H30.2192C30.1299 194.209 29.9961 194.384 29.8176 194.557C29.6391 194.729 29.4098 194.872 29.1297 194.986C28.8496 195.1 28.5142 195.157 28.1233 195.157ZM28.4234 194.049C28.805 194.049 29.1312 193.974 29.4021 193.823C29.676 193.672 29.8837 193.475 30.0253 193.232C30.17 192.986 30.2423 192.723 30.2423 192.442V191.528C30.193 191.578 30.0976 191.624 29.9561 191.667C29.8176 191.707 29.6591 191.742 29.4806 191.773C29.3021 191.801 29.1282 191.827 28.9589 191.852C28.7896 191.873 28.6481 191.892 28.5342 191.907C28.2664 191.941 28.0218 191.998 27.8002 192.078C27.5816 192.158 27.4062 192.273 27.2739 192.424C27.1446 192.572 27.08 192.769 27.08 193.015C27.08 193.357 27.2062 193.615 27.4585 193.79C27.7109 193.963 28.0325 194.049 28.4234 194.049ZM36.5211 187.909V189.017H32.6479V187.909H36.5211ZM33.6866 186.21H35.0669V192.918C35.0669 193.186 35.1069 193.387 35.187 193.523C35.267 193.655 35.3701 193.746 35.4963 193.795C35.6255 193.841 35.7656 193.864 35.9164 193.864C36.0272 193.864 36.1241 193.857 36.2072 193.841C36.2903 193.826 36.3549 193.814 36.4011 193.804L36.6504 194.945C36.5704 194.975 36.4565 195.006 36.3088 195.037C36.161 195.071 35.9764 195.089 35.7548 195.092C35.3916 195.098 35.0531 195.034 34.7392 194.898C34.4252 194.763 34.1713 194.554 33.9775 194.271C33.7836 193.987 33.6866 193.632 33.6866 193.204V186.21ZM40.778 195.143C40.0793 195.143 39.4777 194.994 38.9729 194.695C38.4713 194.394 38.0835 193.971 37.8096 193.426C37.5387 192.878 37.4033 192.236 37.4033 191.501C37.4033 190.774 37.5387 190.134 37.8096 189.58C38.0835 189.026 38.4651 188.594 38.9545 188.283C39.4469 187.972 40.0224 187.817 40.681 187.817C41.0811 187.817 41.4689 187.883 41.8444 188.015C42.2198 188.148 42.5568 188.355 42.8554 188.638C43.1539 188.922 43.3894 189.289 43.5617 189.742C43.734 190.191 43.8202 190.737 43.8202 191.381V191.87H38.1835V190.836H42.4676C42.4676 190.473 42.3937 190.151 42.246 189.871C42.0983 189.588 41.8905 189.365 41.6228 189.202C41.3581 189.039 41.0473 188.957 40.6903 188.957C40.3025 188.957 39.9639 189.052 39.6746 189.243C39.3884 189.431 39.1668 189.677 39.0099 189.982C38.856 190.283 38.779 190.611 38.779 190.965V191.773C38.779 192.247 38.8621 192.65 39.0283 192.983C39.1976 193.315 39.433 193.569 39.7346 193.744C40.0363 193.917 40.3886 194.003 40.7918 194.003C41.0534 194.003 41.2919 193.966 41.5074 193.892C41.7228 193.815 41.909 193.701 42.066 193.55C42.2229 193.4 42.343 193.213 42.426 192.992L43.7325 193.227C43.6279 193.612 43.4401 193.949 43.1693 194.238C42.9015 194.525 42.5645 194.748 42.1583 194.908C41.7551 195.065 41.295 195.143 40.778 195.143ZM51.279 195.143C50.6143 195.143 50.0341 194.991 49.5386 194.686C49.0431 194.381 48.6584 193.955 48.3845 193.407C48.1106 192.859 47.9736 192.219 47.9736 191.487C47.9736 190.751 48.1106 190.108 48.3845 189.557C48.6584 189.006 49.0431 188.578 49.5386 188.274C50.0341 187.969 50.6143 187.817 51.279 187.817C51.9438 187.817 52.5239 187.969 53.0194 188.274C53.5149 188.578 53.8997 189.006 54.1736 189.557C54.4475 190.108 54.5844 190.751 54.5844 191.487C54.5844 192.219 54.4475 192.859 54.1736 193.407C53.8997 193.955 53.5149 194.381 53.0194 194.686C52.5239 194.991 51.9438 195.143 51.279 195.143ZM51.2836 193.984C51.7145 193.984 52.0715 193.871 52.3547 193.643C52.6378 193.415 52.8471 193.112 52.9825 192.733C53.121 192.355 53.1903 191.938 53.1903 191.482C53.1903 191.03 53.121 190.614 52.9825 190.236C52.8471 189.854 52.6378 189.548 52.3547 189.317C52.0715 189.086 51.7145 188.971 51.2836 188.971C50.8497 188.971 50.4896 189.086 50.2034 189.317C49.9202 189.548 49.7094 189.854 49.5709 190.236C49.4355 190.614 49.3678 191.03 49.3678 191.482C49.3678 191.938 49.4355 192.355 49.5709 192.733C49.7094 193.112 49.9202 193.415 50.2034 193.643C50.4896 193.871 50.8497 193.984 51.2836 193.984ZM59.2498 187.909V189.017H55.2427V187.909H59.2498ZM56.3414 195V187.087C56.3414 186.644 56.4384 186.276 56.6323 185.984C56.8262 185.689 57.0832 185.469 57.4032 185.324C57.7233 185.176 58.0711 185.102 58.4466 185.102C58.7235 185.102 58.9605 185.125 59.1575 185.172C59.3545 185.215 59.5007 185.255 59.5961 185.292L59.2729 186.409C59.2083 186.39 59.1252 186.369 59.0236 186.344C58.9221 186.316 58.7989 186.303 58.6543 186.303C58.3188 186.303 58.0788 186.386 57.9341 186.552C57.7926 186.718 57.7218 186.958 57.7218 187.272V195H56.3414ZM63.7252 195V185.545H67.1876C67.8585 185.545 68.414 185.656 68.8541 185.878C69.2942 186.096 69.6235 186.393 69.8421 186.769C70.0606 187.141 70.1698 187.561 70.1698 188.029C70.1698 188.423 70.0975 188.755 69.9529 189.026C69.8082 189.294 69.6143 189.509 69.3712 189.673C69.1311 189.833 68.8664 189.95 68.5771 190.023V190.116C68.8911 190.131 69.1973 190.233 69.4958 190.42C69.7974 190.605 70.0467 190.868 70.2437 191.21C70.4407 191.551 70.5392 191.967 70.5392 192.456C70.5392 192.94 70.4253 193.373 70.1975 193.758C69.9729 194.14 69.6251 194.443 69.1542 194.668C68.6833 194.889 68.0816 195 67.3492 195H63.7252ZM65.1517 193.777H67.2107C67.8939 193.777 68.3833 193.644 68.6787 193.38C68.9742 193.115 69.1219 192.784 69.1219 192.387C69.1219 192.089 69.0465 191.815 68.8957 191.565C68.7449 191.316 68.5294 191.118 68.2494 190.97C67.9724 190.822 67.6431 190.748 67.2615 190.748H65.1517V193.777ZM65.1517 189.636H67.0629C67.383 189.636 67.6708 189.574 67.9262 189.451C68.1847 189.328 68.3894 189.156 68.5402 188.934C68.6941 188.709 68.771 188.445 68.771 188.14C68.771 187.749 68.6341 187.421 68.3602 187.157C68.0863 186.892 67.6662 186.76 67.0999 186.76H65.1517V189.636ZM71.8703 195V187.909H73.2506V195H71.8703ZM72.5674 186.815C72.3273 186.815 72.1211 186.735 71.9488 186.575C71.7795 186.412 71.6949 186.218 71.6949 185.993C71.6949 185.766 71.7795 185.572 71.9488 185.412C72.1211 185.248 72.3273 185.167 72.5674 185.167C72.8074 185.167 73.0121 185.248 73.1814 185.412C73.3537 185.572 73.4399 185.766 73.4399 185.993C73.4399 186.218 73.3537 186.412 73.1814 186.575C73.0121 186.735 72.8074 186.815 72.5674 186.815ZM74.8576 195V187.909H76.1918V189.036H76.2656C76.3949 188.654 76.6226 188.354 76.9489 188.135C77.2782 187.914 77.6506 187.803 78.0661 187.803C78.1522 187.803 78.2538 187.806 78.3707 187.812C78.4908 187.818 78.5846 187.826 78.6523 187.835V189.156C78.5969 189.14 78.4985 189.123 78.3569 189.105C78.2153 189.083 78.0737 189.072 77.9322 189.072C77.6059 189.072 77.3151 189.142 77.0597 189.28C76.8073 189.416 76.6072 189.605 76.4595 189.848C76.3118 190.088 76.2379 190.362 76.2379 190.67V195H74.8576ZM83.3258 187.909V189.017H79.4526V187.909H83.3258ZM80.4913 186.21H81.8716V192.918C81.8716 193.186 81.9116 193.387 81.9917 193.523C82.0717 193.655 82.1748 193.746 82.301 193.795C82.4302 193.841 82.5703 193.864 82.7211 193.864C82.8319 193.864 82.9288 193.857 83.0119 193.841C83.095 193.826 83.1596 193.814 83.2058 193.804L83.4551 194.945C83.3751 194.975 83.2612 195.006 83.1135 195.037C82.9657 195.071 82.7811 195.089 82.5595 195.092C82.1963 195.098 81.8578 195.034 81.5439 194.898C81.2299 194.763 80.976 194.554 80.7821 194.271C80.5882 193.987 80.4913 193.632 80.4913 193.204V186.21ZM86.1354 190.79V195H84.7551V185.545H86.1169V189.063H86.2046C86.3708 188.682 86.6247 188.378 86.9664 188.154C87.308 187.929 87.7542 187.817 88.3051 187.817C88.7914 187.817 89.2161 187.917 89.5793 188.117C89.9455 188.317 90.2287 188.615 90.4287 189.012C90.6318 189.406 90.7334 189.899 90.7334 190.49V195H89.3531V190.656C89.3531 190.136 89.2192 189.733 88.9514 189.446C88.6837 189.157 88.3113 189.012 87.8343 189.012C87.508 189.012 87.2156 189.082 86.9571 189.22C86.7017 189.359 86.5001 189.562 86.3524 189.83C86.2077 190.094 86.1354 190.414 86.1354 190.79Z" fill="#282F37"/>
<path d="M22.2259 205.909V219H20.2443V207.891H20.1676L17.0355 209.936V208.044L20.3018 205.909H22.2259ZM25.517 219V217.568L29.9467 212.979C30.4197 212.48 30.8097 212.043 31.1165 211.668C31.4276 211.289 31.6598 210.929 31.8132 210.588C31.9666 210.247 32.0433 209.885 32.0433 209.501C32.0433 209.067 31.9411 208.692 31.7365 208.376C31.532 208.057 31.2528 207.812 30.8991 207.641C30.5455 207.467 30.147 207.379 29.7038 207.379C29.2351 207.379 28.826 207.475 28.4766 207.667C28.1271 207.859 27.8587 208.129 27.6712 208.479C27.4837 208.828 27.3899 209.237 27.3899 209.706H25.5043C25.5043 208.909 25.6875 208.212 26.054 207.616C26.4205 207.019 26.9233 206.557 27.5625 206.229C28.2017 205.896 28.9283 205.73 29.7422 205.73C30.5646 205.73 31.2891 205.894 31.9155 206.222C32.5462 206.546 33.0384 206.989 33.392 207.552C33.7457 208.11 33.9226 208.741 33.9226 209.444C33.9226 209.93 33.831 210.405 33.6477 210.869C33.4688 211.334 33.1555 211.852 32.7081 212.423C32.2607 212.989 31.6385 213.678 30.8416 214.487L28.2401 217.21V217.306H34.1335V219H25.517ZM40.8453 219V209.182H42.6799V210.78H42.8013C43.0059 210.239 43.3404 209.817 43.8049 209.514C44.2694 209.207 44.8255 209.054 45.4732 209.054C46.1294 209.054 46.6792 209.207 47.1223 209.514C47.5698 209.821 47.9 210.243 48.1131 210.78H48.2154C48.4498 210.256 48.8226 209.838 49.334 209.527C49.8453 209.212 50.4547 209.054 51.1621 209.054C52.0527 209.054 52.7793 209.333 53.3418 209.891C53.9086 210.45 54.1919 211.291 54.1919 212.416V219H52.2807V212.595C52.2807 211.93 52.0996 211.449 51.7374 211.151C51.3752 210.852 50.9426 210.703 50.4398 210.703C49.8176 210.703 49.334 210.895 48.9888 211.278C48.6436 211.658 48.4711 212.146 48.4711 212.742V219H46.5662V212.474C46.5662 211.941 46.4 211.513 46.0676 211.189C45.7353 210.865 45.3027 210.703 44.7701 210.703C44.4078 210.703 44.0733 210.799 43.7665 210.991C43.464 211.178 43.2189 211.44 43.0314 211.777C42.8482 212.114 42.7566 212.504 42.7566 212.947V219H40.8453ZM59.3608 219.217C58.7386 219.217 58.1761 219.102 57.6733 218.872C57.1705 218.638 56.772 218.299 56.478 217.856C56.1882 217.413 56.0433 216.869 56.0433 216.226C56.0433 215.672 56.1499 215.216 56.3629 214.858C56.576 214.5 56.8636 214.217 57.2259 214.008C57.5881 213.799 57.9929 213.641 58.4403 213.535C58.8878 213.428 59.3438 213.347 59.8082 213.292C60.3963 213.224 60.8736 213.168 61.2401 213.126C61.6065 213.079 61.8729 213.004 62.0391 212.902C62.2053 212.8 62.2884 212.634 62.2884 212.403V212.359C62.2884 211.8 62.1307 211.368 61.8153 211.061C61.5043 210.754 61.0398 210.601 60.4219 210.601C59.7784 210.601 59.2713 210.744 58.9006 211.029C58.5341 211.31 58.2805 211.624 58.1399 211.969L56.3438 211.56C56.5568 210.963 56.8679 210.482 57.277 210.115C57.6903 209.744 58.1655 209.476 58.7024 209.31C59.2393 209.139 59.804 209.054 60.3963 209.054C60.7884 209.054 61.2038 209.101 61.6428 209.195C62.0859 209.284 62.4993 209.45 62.8828 209.693C63.2706 209.936 63.5881 210.283 63.8352 210.735C64.0824 211.183 64.206 211.764 64.206 212.48V219H62.3395V217.658H62.2628C62.1392 217.905 61.9538 218.148 61.7067 218.386C61.4595 218.625 61.142 218.823 60.7543 218.981C60.3665 219.138 59.902 219.217 59.3608 219.217ZM59.7763 217.683C60.3047 217.683 60.7564 217.579 61.1314 217.37C61.5107 217.161 61.7983 216.888 61.9943 216.552C62.1946 216.211 62.2947 215.847 62.2947 215.459V214.193C62.2266 214.261 62.0945 214.325 61.8984 214.385C61.7067 214.44 61.4872 214.489 61.2401 214.532C60.9929 214.57 60.7521 214.607 60.5178 214.641C60.2834 214.67 60.0874 214.696 59.9297 214.717C59.5589 214.764 59.2202 214.843 58.9134 214.954C58.6108 215.065 58.3679 215.224 58.1847 215.433C58.0057 215.638 57.9162 215.911 57.9162 216.251C57.9162 216.724 58.0909 217.082 58.4403 217.325C58.7898 217.564 59.2351 217.683 59.7763 217.683ZM66.5016 219V209.182H68.3489V210.741H68.4512C68.6301 210.213 68.9455 209.798 69.3972 209.495C69.8532 209.188 70.3688 209.035 70.9441 209.035C71.0634 209.035 71.204 209.039 71.3659 209.048C71.5321 209.056 71.6621 209.067 71.7559 209.08V210.908C71.6792 210.886 71.5428 210.863 71.3468 210.837C71.1507 210.808 70.9547 210.793 70.7587 210.793C70.307 210.793 69.9043 210.888 69.5506 211.08C69.2012 211.268 68.9242 211.53 68.7196 211.866C68.5151 212.199 68.4128 212.578 68.4128 213.004V219H66.5016ZM76.9439 219.198C75.9936 219.198 75.1754 218.983 74.4893 218.553C73.8075 218.118 73.2834 217.519 72.9169 216.756C72.5504 215.994 72.3672 215.12 72.3672 214.136C72.3672 213.138 72.5547 212.259 72.9297 211.496C73.3047 210.729 73.8331 210.13 74.5149 209.7C75.1967 209.269 76 209.054 76.9247 209.054C77.6705 209.054 78.3352 209.192 78.919 209.469C79.5028 209.742 79.9737 210.126 80.3317 210.62C80.6939 211.114 80.9091 211.692 80.9773 212.352H79.1172C79.0149 211.892 78.7805 211.496 78.4141 211.163C78.0518 210.831 77.5661 210.665 76.9567 210.665C76.424 210.665 75.9574 210.805 75.5568 211.087C75.1605 211.364 74.8516 211.76 74.63 212.276C74.4084 212.787 74.2976 213.392 74.2976 214.091C74.2976 214.807 74.4063 215.425 74.6236 215.945C74.8409 216.464 75.1477 216.867 75.544 217.153C75.9446 217.438 76.4155 217.581 76.9567 217.581C77.3189 217.581 77.647 217.515 77.9411 217.383C78.2393 217.246 78.4886 217.053 78.6889 216.801C78.8935 216.55 79.0362 216.247 79.1172 215.893H80.9773C80.9091 216.528 80.7024 217.095 80.3572 217.594C80.0121 218.092 79.5497 218.484 78.9702 218.77C78.3949 219.055 77.7195 219.198 76.9439 219.198ZM84.6824 213.17V219H82.7711V205.909H84.6568V210.78H84.7782C85.0083 210.251 85.3599 209.832 85.8329 209.521C86.3059 209.21 86.9238 209.054 87.6866 209.054C88.3599 209.054 88.948 209.192 89.4508 209.469C89.9579 209.746 90.35 210.16 90.627 210.71C90.9082 211.255 91.0488 211.937 91.0488 212.755V219H89.1376V212.985C89.1376 212.265 88.9522 211.707 88.5815 211.31C88.2108 210.91 87.6951 210.71 87.0346 210.71C86.5829 210.71 86.1781 210.805 85.8201 210.997C85.4664 211.189 85.1873 211.47 84.9828 211.841C84.7825 212.207 84.6824 212.651 84.6824 213.17ZM102.804 205.909V219H100.822V207.891H100.746L97.6136 209.936V208.044L100.88 205.909H102.804ZM110.448 205.73C111.032 205.734 111.607 205.841 112.174 206.05C112.741 206.259 113.252 206.599 113.708 207.072C114.168 207.545 114.535 208.185 114.808 208.99C115.085 209.791 115.225 210.788 115.229 211.982C115.229 213.128 115.114 214.148 114.884 215.043C114.654 215.934 114.324 216.686 113.893 217.3C113.467 217.913 112.95 218.38 112.34 218.7C111.731 219.019 111.045 219.179 110.282 219.179C109.502 219.179 108.81 219.026 108.205 218.719C107.599 218.412 107.107 217.988 106.728 217.447C106.349 216.901 106.112 216.275 106.018 215.567H107.968C108.096 216.13 108.356 216.586 108.748 216.935C109.144 217.281 109.656 217.453 110.282 217.453C111.241 217.453 111.989 217.036 112.526 216.2C113.063 215.361 113.333 214.189 113.337 212.685H113.235C113.013 213.051 112.737 213.366 112.404 213.631C112.076 213.895 111.707 214.099 111.298 214.244C110.889 214.389 110.452 214.462 109.988 214.462C109.234 214.462 108.548 214.276 107.93 213.906C107.312 213.535 106.82 213.026 106.453 212.378C106.087 211.73 105.903 210.991 105.903 210.16C105.903 209.333 106.091 208.583 106.466 207.91C106.845 207.237 107.374 206.704 108.051 206.312C108.733 205.915 109.532 205.722 110.448 205.73ZM110.455 207.392C109.956 207.392 109.506 207.516 109.106 207.763C108.71 208.006 108.396 208.336 108.166 208.754C107.936 209.167 107.821 209.627 107.821 210.134C107.821 210.641 107.932 211.102 108.153 211.515C108.379 211.924 108.686 212.25 109.074 212.493C109.466 212.732 109.913 212.851 110.416 212.851C110.791 212.851 111.141 212.778 111.464 212.634C111.788 212.489 112.072 212.288 112.315 212.033C112.558 211.773 112.747 211.479 112.884 211.151C113.02 210.822 113.088 210.477 113.088 210.115C113.088 209.634 112.973 209.186 112.743 208.773C112.517 208.359 112.206 208.027 111.81 207.776C111.413 207.52 110.962 207.392 110.455 207.392ZM121.712 219.179C120.796 219.179 119.986 219.021 119.283 218.706C118.584 218.391 118.036 217.956 117.64 217.402C117.244 216.848 117.048 216.217 117.052 215.51C117.048 214.956 117.161 214.447 117.391 213.982C117.625 213.513 117.943 213.124 118.343 212.812C118.744 212.497 119.191 212.297 119.686 212.212V212.135C119.034 211.977 118.512 211.628 118.119 211.087C117.727 210.545 117.534 209.923 117.538 209.22C117.534 208.551 117.71 207.955 118.068 207.43C118.431 206.902 118.927 206.487 119.558 206.184C120.188 205.881 120.906 205.73 121.712 205.73C122.509 205.73 123.22 205.884 123.847 206.19C124.477 206.493 124.974 206.908 125.336 207.437C125.698 207.961 125.882 208.555 125.886 209.22C125.882 209.923 125.681 210.545 125.285 211.087C124.889 211.628 124.373 211.977 123.738 212.135V212.212C124.228 212.297 124.669 212.497 125.061 212.812C125.458 213.124 125.773 213.513 126.007 213.982C126.246 214.447 126.367 214.956 126.372 215.51C126.367 216.217 126.167 216.848 125.771 217.402C125.374 217.956 124.825 218.391 124.122 218.706C123.423 219.021 122.619 219.179 121.712 219.179ZM121.712 217.562C122.253 217.562 122.722 217.472 123.118 217.293C123.514 217.11 123.821 216.857 124.039 216.533C124.256 216.205 124.367 215.821 124.371 215.382C124.367 214.926 124.247 214.523 124.013 214.174C123.783 213.825 123.47 213.55 123.073 213.349C122.677 213.149 122.223 213.049 121.712 213.049C121.196 213.049 120.738 213.149 120.338 213.349C119.937 213.55 119.622 213.825 119.392 214.174C119.161 214.523 119.048 214.926 119.053 215.382C119.048 215.821 119.153 216.205 119.366 216.533C119.583 216.857 119.892 217.11 120.293 217.293C120.693 217.472 121.166 217.562 121.712 217.562ZM121.712 211.47C122.146 211.47 122.532 211.383 122.869 211.208C123.205 211.033 123.47 210.79 123.661 210.479C123.857 210.168 123.958 209.804 123.962 209.386C123.958 208.977 123.86 208.619 123.668 208.312C123.48 208.006 123.218 207.769 122.882 207.603C122.545 207.433 122.155 207.347 121.712 207.347C121.26 207.347 120.864 207.433 120.523 207.603C120.186 207.769 119.924 208.006 119.737 208.312C119.549 208.619 119.458 208.977 119.462 209.386C119.458 209.804 119.551 210.168 119.743 210.479C119.935 210.79 120.199 211.033 120.536 211.208C120.877 211.383 121.269 211.47 121.712 211.47ZM132.835 219.179C131.919 219.179 131.109 219.021 130.406 218.706C129.707 218.391 129.159 217.956 128.763 217.402C128.367 216.848 128.171 216.217 128.175 215.51C128.171 214.956 128.284 214.447 128.514 213.982C128.748 213.513 129.066 213.124 129.466 212.812C129.867 212.497 130.314 212.297 130.809 212.212V212.135C130.157 211.977 129.635 211.628 129.243 211.087C128.85 210.545 128.657 209.923 128.661 209.22C128.657 208.551 128.833 207.955 129.191 207.43C129.554 206.902 130.05 206.487 130.681 206.184C131.311 205.881 132.029 205.73 132.835 205.73C133.632 205.73 134.343 205.884 134.97 206.19C135.6 206.493 136.097 206.908 136.459 207.437C136.821 207.961 137.005 208.555 137.009 209.22C137.005 209.923 136.804 210.545 136.408 211.087C136.012 211.628 135.496 211.977 134.861 212.135V212.212C135.351 212.297 135.792 212.497 136.184 212.812C136.581 213.124 136.896 213.513 137.13 213.982C137.369 214.447 137.49 214.956 137.495 215.51C137.49 216.217 137.29 216.848 136.894 217.402C136.498 217.956 135.948 218.391 135.245 218.706C134.546 219.021 133.743 219.179 132.835 219.179ZM132.835 217.562C133.376 217.562 133.845 217.472 134.241 217.293C134.637 217.11 134.944 216.857 135.162 216.533C135.379 216.205 135.49 215.821 135.494 215.382C135.49 214.926 135.37 214.523 135.136 214.174C134.906 213.825 134.593 213.55 134.196 213.349C133.8 213.149 133.346 213.049 132.835 213.049C132.319 213.049 131.861 213.149 131.461 213.349C131.06 213.55 130.745 213.825 130.515 214.174C130.284 214.523 130.172 214.926 130.176 215.382C130.172 215.821 130.276 216.205 130.489 216.533C130.706 216.857 131.015 217.11 131.416 217.293C131.816 217.472 132.289 217.562 132.835 217.562ZM132.835 211.47C133.27 211.47 133.655 211.383 133.992 211.208C134.328 211.033 134.593 210.79 134.784 210.479C134.98 210.168 135.081 209.804 135.085 209.386C135.081 208.977 134.983 208.619 134.791 208.312C134.603 208.006 134.341 207.769 134.005 207.603C133.668 207.433 133.278 207.347 132.835 207.347C132.383 207.347 131.987 207.433 131.646 207.603C131.309 207.769 131.047 208.006 130.86 208.312C130.672 208.619 130.581 208.977 130.585 209.386C130.581 209.804 130.674 210.168 130.866 210.479C131.058 210.79 131.322 211.033 131.659 211.208C132 211.383 132.392 211.47 132.835 211.47Z" fill="#282F37"/>
<path fill-rule="evenodd" clip-rule="evenodd" d="M298.185 204.097L305.099 197L307 198.952L298.185 208L293 202.677L294.901 200.726L298.185 204.097Z" fill="#84D252"/>
</g>
<rect x="0.5" y="168.5" width="327" height="67" rx="15.5" stroke="#0052A5" stroke-opacity="0.2"/>
<defs>
<clipPath id="clip0_568_2771">
<rect width="328" height="68" rx="16" fill="white"/>
</clipPath>
<clipPath id="clip1_568_2771">
<rect y="84" width="328" height="68" rx="16" fill="white"/>
</clipPath>
<clipPath id="clip2_568_2771">
<rect y="168" width="328" height="68" rx="16" fill="white"/>
</clipPath>
</defs>
</svg>
