<svg width="2056" height="1478" viewBox="0 0 2056 1478" fill="none" xmlns="http://www.w3.org/2000/svg">
<path d="M-419.997 1305.07C209.232 1305.07 242.334 804.818 752.353 804.818C1262.37 804.818 1338.51 404.103 2004.18 404.103C2669.85 404.103 2977.82 0.772461 3713 0.772461M-419.997 1305.07C209.232 1305.07 244.682 823.616 754.674 823.616C1264.67 823.616 1339.24 463.716 2004.91 463.716C2670.58 463.716 2906.42 1.93241 3641.63 1.93241M-419.997 1305.07C209.232 1305.07 256.315 917.579 766.334 917.579C1276.35 917.579 1342.95 761.805 2008.59 761.805C2674.24 761.805 2549.5 7.75045 3284.68 7.75045M-420.005 1305.07C209.224 1305.07 246.995 842.419 756.988 842.419C1266.98 842.419 1339.97 523.35 2005.61 523.35C2671.25 523.35 2835.04 3.09682 3570.23 3.09682M-419.998 1305.07C209.23 1305.07 249.323 861.199 759.342 861.199C1269.36 861.199 1340.73 582.946 2006.37 582.946C2672.02 582.946 2763.65 4.26955 3498.84 4.26955M-419.998 1305.07C209.23 1305.07 251.671 879.997 761.664 879.997C1271.66 879.997 1341.46 642.576 2007.1 642.576C2672.75 642.576 2692.26 5.42949 3427.47 5.42949M-419.998 1305.07C209.23 1305.07 263.304 973.961 773.323 973.961C1283.34 973.961 1345.14 940.664 2010.81 940.664C2676.48 940.664 2335.33 11.2475 3070.55 11.2475M-419.998 1305.07C209.23 1305.07 265.652 992.743 775.645 992.743C1285.64 992.743 1345.87 1000.26 2011.51 1000.26C2677.16 1000.26 2263.94 12.4075 2999.15 12.4075M-420.007 1305.07C209.222 1305.07 253.984 898.785 763.977 898.785C1273.97 898.785 1342.18 702.194 2007.83 702.194C2673.47 702.194 2620.88 6.59391 3356.07 6.59391M-419.999 1305.07C209.229 1305.07 258.661 936.379 768.654 936.379C1278.65 936.379 1343.65 821.436 2009.32 821.436C2674.99 821.436 2478.1 8.92764 3213.31 8.92764M-419.999 1305.07C209.229 1305.07 260.983 955.162 770.975 955.162C1280.97 955.162 1344.38 881.035 2010.05 881.035C2675.72 881.035 2406.73 10.0876 3141.92 10.0876M-419.999 1305.07C209.229 1305.07 267.973 1011.54 777.965 1011.54C1287.96 1011.54 1346.6 1059.89 2012.24 1059.89C2677.88 1059.89 2192.57 13.5846 2927.76 13.5846M-419.999 1305.07C209.229 1305.07 270.294 1030.34 780.313 1030.34C1290.33 1030.34 1347.35 1119.51 2013 1119.51C2678.64 1119.51 2121.17 14.745 2856.39 14.745M-419.999 1305.07C209.229 1305.07 272.642 1049.13 782.635 1049.13C1292.63 1049.13 1348.08 1179.12 2013.73 1179.12C2679.37 1179.12 2049.8 15.9054 2784.99 15.9054M-419.999 1305.07C209.229 1305.07 274.963 1067.92 784.956 1067.92C1294.95 1067.92 1348.82 1238.75 2014.46 1238.75C2680.1 1238.75 1978.41 17.0658 2713.6 17.0658M2642.22 18.2428C1907.01 18.2428 2680.88 1298.37 2015.21 1298.37C1349.54 1298.37 1297.32 1086.72 787.302 1086.72C277.283 1086.72 209.227 1305.07 -420.001 1305.07C209.227 1305.07 279.631 1105.51 789.624 1105.51C1299.62 1105.51 1350.27 1357.98 2015.94 1357.98C2681.61 1357.98 1835.64 19.4027 2570.83 19.4027M2499.46 20.5627C1764.25 20.5627 2682.37 1417.6 2016.7 1417.6C1351.03 1417.6 1301.99 1124.31 791.972 1124.31C281.953 1124.31 209.227 1305.07 -420.001 1305.07C209.227 1305.07 284.275 1143.09 794.294 1143.09C1304.31 1143.09 1351.76 1477.21 2017.41 1477.21C2683.05 1477.21 1692.85 21.7237 2428.07 21.7237" stroke="#A9D8F3" stroke-miterlimit="10"/>
</svg>
