<svg width="2056" height="994" viewBox="0 0 2056 994" fill="none" xmlns="http://www.w3.org/2000/svg">
<path d="M-395.91 724.634C56.931 761.71 110.238 403.548 477.286 433.6C844.334 463.651 922.75 179.675 1401.82 218.899C1880.88 258.122 2126.29 -14.0768 2655.38 29.2426M-395.91 724.634C56.9309 761.71 110.819 417.218 477.849 447.269C844.878 477.319 919.762 222.633 1398.83 261.856C1877.89 301.079 2074.84 -17.4487 2603.95 25.8723M-395.91 724.634C56.931 761.71 113.654 485.545 480.702 515.597C847.75 545.649 904.859 437.436 1383.91 476.657C1862.95 515.879 1817.62 -34.2915 2346.72 9.02791M-395.916 724.636C56.9249 761.712 111.376 430.89 478.406 460.94C845.435 490.991 916.767 265.604 1395.81 304.826C1874.86 344.047 2023.4 -20.8162 2552.5 22.5032M-395.911 724.634C56.9298 761.71 111.945 444.547 478.993 474.598C846.041 504.65 913.804 308.55 1392.85 347.772C1871.9 386.994 1971.95 -24.1784 2501.05 19.141M-395.911 724.634C56.9299 761.71 112.527 458.217 479.556 488.268C846.585 518.318 910.815 351.519 1389.86 390.74C1868.91 429.962 1920.5 -27.5502 2449.62 15.7707M-395.911 724.634C56.9298 761.71 114.798 512.875 481.827 542.925C848.856 572.976 898.862 523.35 1377.93 562.573C1856.99 601.796 1714.74 -41.0213 2243.84 2.29807M-395.911 724.634C56.9299 761.71 115.361 526.544 482.409 556.596C849.457 586.648 895.893 566.32 1374.96 605.543C1854.03 644.767 1663.29 -44.3931 2192.41 -1.07215M-395.911 724.634C56.9299 761.71 115.943 540.204 482.973 570.254C850.002 600.304 892.906 609.266 1371.95 648.488C1851 687.71 1611.84 -47.7649 2140.96 -4.44397M-395.917 724.637C56.9236 761.713 113.084 471.878 480.113 501.928C847.143 531.979 907.821 394.479 1386.87 433.7C1865.92 472.922 1869.07 -30.9178 2398.16 12.4016M-395.911 724.635C56.9292 761.711 114.234 499.217 481.263 529.267C848.293 559.318 901.85 480.404 1380.92 519.627C1859.98 558.85 1766.17 -37.651 2295.29 5.66995M-395.911 724.635C56.9292 761.711 116.505 553.874 483.535 583.924C850.564 613.974 889.916 652.236 1368.96 691.458C1848.01 730.679 1560.41 -51.1229 2089.51 -7.80351M-395.911 724.635C56.9291 761.711 117.068 567.543 484.116 597.595C851.164 627.647 886.947 695.195 1365.99 734.417C1845.04 773.638 1508.96 -54.4944 2038.07 -11.1735M-395.911 724.635C56.9292 761.711 117.651 581.203 484.68 611.253C851.709 641.304 883.959 738.153 1363.01 777.374C1842.05 816.596 1457.53 -57.8643 1986.62 -14.5449M-395.911 724.635C56.9292 761.711 118.213 594.872 485.243 624.923C852.272 654.973 880.97 781.122 1360.02 820.343C1839.06 859.565 1406.08 -61.2358 1935.17 -17.9164M-395.913 724.636C56.9274 761.712 118.775 608.543 485.823 638.595C852.871 668.646 877.98 824.08 1357.05 863.303C1836.11 902.526 1354.63 -64.5955 1883.74 -21.2745M-395.913 724.636C56.9275 761.712 119.358 622.202 486.387 652.252C853.417 682.303 874.993 867.037 1354.06 906.26C1833.13 945.484 1303.2 -67.9657 1832.29 -24.6463M-395.913 724.636C56.9274 761.712 119.92 635.871 486.969 665.923C854.017 695.975 872.024 909.996 1351.09 949.219C1830.16 988.443 1251.74 -71.3376 1780.86 -28.0167M-395.913 724.636C56.9274 761.712 120.485 649.53 487.533 679.582C854.581 709.634 869.036 952.954 1348.08 992.176C1827.13 1031.4 1200.3 -74.7086 1729.41 -31.3877" stroke="#77A9DE" stroke-miterlimit="10"/>
</svg>
