<svg width="32" height="32" viewBox="0 0 32 32" fill="none" xmlns="http://www.w3.org/2000/svg">
<g clip-path="url(#clip0_787_1489)" filter="url(#filter0_d_787_1489)">
<path d="M16 24C22.6274 24 28 18.6274 28 12C28 5.37258 22.6274 0 16 0C9.37258 0 4 5.37258 4 12C4 18.6274 9.37258 24 16 24Z" fill="#F0F0F0"/>
<path d="M27.9999 12C27.9999 7.24247 25.2312 3.13172 21.2173 1.19072V22.8092C25.2312 20.8683 27.9999 16.7575 27.9999 12Z" fill="#D80027"/>
<path d="M4 12C4 16.7575 6.76867 20.8683 10.7826 22.8093V1.19072C6.76867 3.13172 4 7.24247 4 12Z" fill="#6DA544"/>
<path d="M12.8696 12C12.8696 13.7289 14.2712 15.1305 16.0001 15.1305C17.729 15.1305 19.1305 13.7289 19.1305 12V10.9565H12.8696V12Z" fill="#6DA544"/>
<path d="M20.174 9.91303H17.0436C17.0436 9.33675 16.5764 8.86955 16.0001 8.86955C15.4238 8.86955 14.9566 9.33675 14.9566 9.91303H11.8262C11.8262 10.4894 12.3282 10.9565 12.9044 10.9565H12.8697C12.8697 11.5328 13.3368 12 13.9131 12C13.9131 12.5763 14.3803 13.0435 14.9566 13.0435H17.0436C17.6199 13.0435 18.0871 12.5763 18.0871 12C18.6634 12 19.1306 11.5328 19.1306 10.9565H19.0958C19.6721 10.9565 20.174 10.4894 20.174 9.91303Z" fill="#FF9811"/>
</g>
<defs>
<filter id="filter0_d_787_1489" x="0" y="0" width="32" height="32" filterUnits="userSpaceOnUse" color-interpolation-filters="sRGB">
<feFlood flood-opacity="0" result="BackgroundImageFix"/>
<feColorMatrix in="SourceAlpha" type="matrix" values="0 0 0 0 0 0 0 0 0 0 0 0 0 0 0 0 0 0 127 0" result="hardAlpha"/>
<feOffset dy="4"/>
<feGaussianBlur stdDeviation="2"/>
<feComposite in2="hardAlpha" operator="out"/>
<feColorMatrix type="matrix" values="0 0 0 0 0 0 0 0 0 0 0 0 0 0 0 0 0 0 0.25 0"/>
<feBlend mode="normal" in2="BackgroundImageFix" result="effect1_dropShadow_787_1489"/>
<feBlend mode="normal" in="SourceGraphic" in2="effect1_dropShadow_787_1489" result="shape"/>
</filter>
<clipPath id="clip0_787_1489">
<rect width="24" height="24" fill="white" transform="translate(4)"/>
</clipPath>
</defs>
</svg>
